  0
SECTION
  2
HEADER
  9
$ANGBASE
  50
0.0
  9
$ANGDIR
  70
1
  9
$MEASUREMENT
  70
1
  0
ENDSEC
  0
SECTION
  2
TABLES
  0
TABLE
  2
LTYPE
  70
4
  0
LTYPE
  5
40F
  2
CONTINUOUS
  70
0
  3
Solid line
  72
65
  73
0
  40
0.0
  0
LTYPE
  5
410
  2
DASHDOT
 70
0
  3
Dash Dot ____ _ ____ _
 72
65
 73
4
 40
2.0
 49
1.25
 49
-0.25
 49
0.25
 49
-0.25
  0
LTYPE
  5
411
  2
DASHED
 70
0
  3
Dashed __ __ __ __ __
 72
65
 73
2
 40
0.75
 49
0.5
 49
-0.25
  0
LTYPE
  5
43B
  2
DOTTED
 70
0
  3
Dotted .  .  .  .
 72
65
 73
2
 40
0.2
 49
0.0
 49
-0.2
  0
ENDTAB
  0
TABLE
  2
STYLE
  70
4
  0
STYLE
  2
KICAD
  70
0
  40
0
  41
1
  42
1
  50
0
  71
0
  3
isocp.shx
  0
STYLE
  2
KICADB
  70
0
  40
0
  41
1
  42
1
  50
0
  71
0
  3
isocp.shx
  0
STYLE
  2
KICADI
  70
0
  40
0
  41
1
  42
1
  50
15
  71
0
  3
isocp.shx
  0
STYLE
  2
KICADBI
  70
0
  40
0
  41
1
  42
1
  50
15
  71
0
  3
isocp.shx
  0
ENDTAB
  0
TABLE
  2
LAYER
  70
1
  0
LAYER
  2
BLACK
  70
0
  62
7
  6
CONTINUOUS
  0
ENDTAB
  0
ENDSEC
  0
SECTION
  2
ENTITIES
0
LINE
8
BLACK
6
CONTINUOUS
10
172.1092519999999979
20
-91.3438289999999995
11
172.118110999999999
21
-91.3479129999999913
0
LINE
8
BLACK
6
CONTINUOUS
10
172.118110999999999
20
-91.3479129999999913
11
183.2825459999999964
21
-99.4593500000000006
0
LINE
8
BLACK
6
CONTINUOUS
10
183.2825459999999964
20
-99.4593500000000006
11
183.2891639999999995
21
-99.4665090000000021
0
LINE
8
BLACK
6
CONTINUOUS
10
183.2891639999999995
20
-99.4665090000000021
11
183.289166999999992
21
-99.4665119999999945
0
LINE
8
BLACK
6
CONTINUOUS
10
183.289166999999992
20
-99.4665119999999945
11
183.2921599999999955
21
-99.4854109999999991
0
LINE
8
BLACK
6
CONTINUOUS
10
183.2921599999999955
20
-99.4854109999999991
11
183.288076999999987
21
-99.4942689999999885
0
LINE
8
BLACK
6
CONTINUOUS
10
183.288076999999987
20
-99.4942689999999885
11
175.1766389999999944
21
-110.6587049999999977
0
LINE
8
BLACK
6
CONTINUOUS
10
175.1766389999999944
20
-110.6587049999999977
11
175.1694770000000005
21
-110.6653259999999932
0
LINE
8
BLACK
6
CONTINUOUS
10
175.1694770000000005
20
-110.6653259999999932
11
175.1505779999999959
21
-110.6683189999999968
0
LINE
8
BLACK
6
CONTINUOUS
10
175.1505779999999959
20
-110.6683189999999968
11
175.1417199999999923
21
-110.6642359999999883
0
LINE
8
BLACK
6
CONTINUOUS
10
175.1417199999999923
20
-110.6642359999999883
11
163.9772839999999974
21
-102.5527979999999957
0
LINE
8
BLACK
6
CONTINUOUS
10
163.9772839999999974
20
-102.5527979999999957
11
163.9706630000000018
21
-102.5456360000000018
0
LINE
8
BLACK
6
CONTINUOUS
10
163.9706630000000018
20
-102.5456360000000018
11
163.9676699999999983
21
-102.5267369999999971
0
LINE
8
BLACK
6
CONTINUOUS
10
163.9676699999999983
20
-102.5267369999999971
11
163.9717540000000042
21
-102.5178779999999961
0
LINE
8
BLACK
6
CONTINUOUS
10
163.9717540000000042
20
-102.5178779999999961
11
172.0831909999999993
21
-91.3534429999999986
0
LINE
8
BLACK
6
CONTINUOUS
10
172.0831909999999993
20
-91.3534429999999986
11
172.0903500000000008
21
-91.346823999999998
0
LINE
8
BLACK
6
CONTINUOUS
10
172.0903500000000008
20
-91.346823999999998
11
172.0903529999999932
21
-91.3468219999999889
0
LINE
8
BLACK
6
CONTINUOUS
10
172.0903529999999932
20
-91.3468219999999889
11
172.1092519999999979
21
-91.3438289999999995
0
LINE
8
BLACK
6
CONTINUOUS
10
164.0268979999999885
20
-102.5270419999999945
11
175.1508829999999932
21
-110.6090899999999948
0
LINE
8
BLACK
6
CONTINUOUS
10
175.1508829999999932
20
-110.6090899999999948
11
183.2329299999999819
21
-99.4851049999999901
0
LINE
8
BLACK
6
CONTINUOUS
10
183.2329299999999819
20
-99.4851049999999901
11
172.1089460000000031
21
-91.4030580000000015
0
LINE
8
BLACK
6
CONTINUOUS
10
172.1089460000000031
20
-91.4030580000000015
11
164.0268979999999885
21
-102.5270419999999945
0
LINE
8
BLACK
6
CONTINUOUS
10
152.9381869999999992
20
-81.9622150000000005
11
165.5451139999999839
21
-87.5751800000000031
0
LINE
8
BLACK
6
CONTINUOUS
10
165.5451139999999839
20
-87.5751800000000031
11
165.5530799999999942
21
-87.5808099999999996
0
LINE
8
BLACK
6
CONTINUOUS
10
165.5530799999999942
20
-87.5808099999999996
11
165.5599369999999908
21
-87.5986740000000026
0
LINE
8
BLACK
6
CONTINUOUS
10
165.5599369999999908
20
-87.5986740000000026
11
165.5577839999999981
21
-87.6081879999999984
0
LINE
8
BLACK
6
CONTINUOUS
10
165.5577839999999981
20
-87.6081879999999984
11
159.9448199999999929
21
-100.2151139999999998
0
LINE
8
BLACK
6
CONTINUOUS
10
159.9448199999999929
20
-100.2151139999999998
11
159.9391899999999964
21
-100.2230799999999959
0
LINE
8
BLACK
6
CONTINUOUS
10
159.9391899999999964
20
-100.2230799999999959
11
159.9213259999999934
21
-100.2299369999999925
0
LINE
8
BLACK
6
CONTINUOUS
10
159.9213259999999934
20
-100.2299369999999925
11
159.9118119999999976
21
-100.2277839999999998
0
LINE
8
BLACK
6
CONTINUOUS
10
159.9118119999999976
20
-100.2277839999999998
11
147.304885999999982
21
-94.6148199999999946
0
LINE
8
BLACK
6
CONTINUOUS
10
147.304885999999982
20
-94.6148199999999946
11
147.2969200000000001
21
-94.6091899999999981
0
LINE
8
BLACK
6
CONTINUOUS
10
147.2969200000000001
20
-94.6091899999999981
11
147.2900630000000035
21
-94.5913259999999951
0
LINE
8
BLACK
6
CONTINUOUS
10
147.2900630000000035
20
-94.5913259999999951
11
147.2922149999999988
21
-94.5818129999999968
0
LINE
8
BLACK
6
CONTINUOUS
10
147.2922149999999988
20
-94.5818129999999968
11
152.9051800000000014
21
-81.9748859999999979
0
LINE
8
BLACK
6
CONTINUOUS
10
152.9051800000000014
20
-81.9748859999999979
11
152.9108099999999979
21
-81.9669200000000018
0
LINE
8
BLACK
6
CONTINUOUS
10
152.9108099999999979
20
-81.9669200000000018
11
152.9286730000000034
21
-81.960062999999991
0
LINE
8
BLACK
6
CONTINUOUS
10
152.9286730000000034
20
-81.960062999999991
11
152.9286740000000009
21
-81.960062999999991
0
LINE
8
BLACK
6
CONTINUOUS
10
152.9286740000000009
20
-81.960062999999991
11
152.9381869999999992
21
-81.9622150000000005
0
LINE
8
BLACK
6
CONTINUOUS
10
147.3480610000000013
20
-94.5793099999999924
11
159.9093100000000049
21
-100.1719379999999973
0
LINE
8
BLACK
6
CONTINUOUS
10
159.9093100000000049
20
-100.1719379999999973
11
165.5019379999999956
21
-87.6106879999999961
0
LINE
8
BLACK
6
CONTINUOUS
10
165.5019379999999956
20
-87.6106879999999961
11
152.9406879999999944
21
-82.018061000000003
0
LINE
8
BLACK
6
CONTINUOUS
10
152.9406879999999944
20
-82.018061000000003
11
147.3480610000000013
21
-94.5793099999999924
0
LINE
8
BLACK
6
CONTINUOUS
10
130.7455699999999865
20
-81.516736999999992
11
144.2440069999999821
21
-84.3859179999999895
0
LINE
8
BLACK
6
CONTINUOUS
10
144.2440069999999821
20
-84.3859179999999895
11
144.2529690000000073
21
-84.3897690000000011
0
LINE
8
BLACK
6
CONTINUOUS
10
144.2529690000000073
20
-84.3897690000000011
11
144.2633899999999869
21
-84.4058160000000015
0
LINE
8
BLACK
6
CONTINUOUS
10
144.2633899999999869
20
-84.4058160000000015
11
144.2632629999999949
21
-84.4155700000000024
0
LINE
8
BLACK
6
CONTINUOUS
10
144.2632629999999949
20
-84.4155700000000024
11
141.3940819999999974
21
-97.914006999999998
0
LINE
8
BLACK
6
CONTINUOUS
10
141.3940819999999974
20
-97.914006999999998
11
141.390231
21
-97.9229689999999948
0
LINE
8
BLACK
6
CONTINUOUS
10
141.390231
20
-97.9229689999999948
11
141.3741839999999854
21
-97.9333899999999886
0
LINE
8
BLACK
6
CONTINUOUS
10
141.3741839999999854
20
-97.9333899999999886
11
141.3644299999999987
21
-97.9332629999999966
0
LINE
8
BLACK
6
CONTINUOUS
10
141.3644299999999987
20
-97.9332629999999966
11
127.8659929999999889
21
-95.0640819999999991
0
LINE
8
BLACK
6
CONTINUOUS
10
127.8659929999999889
20
-95.0640819999999991
11
127.8570309999999921
21
-95.0602310000000017
0
LINE
8
BLACK
6
CONTINUOUS
10
127.8570309999999921
20
-95.0602310000000017
11
127.8466099999999983
21
-95.0441840000000013
0
LINE
8
BLACK
6
CONTINUOUS
10
127.8466099999999983
20
-95.0441840000000013
11
127.8467369999999903
21
-95.0344300000000004
0
LINE
8
BLACK
6
CONTINUOUS
10
127.8467369999999903
20
-95.0344300000000004
11
130.7159179999999878
21
-81.5359929999999906
0
LINE
8
BLACK
6
CONTINUOUS
10
130.7159179999999878
20
-81.5359929999999906
11
130.7197689999999852
21
-81.5270309999999938
0
LINE
8
BLACK
6
CONTINUOUS
10
130.7197689999999852
20
-81.5270309999999938
11
130.7358159999999998
21
-81.51661
0
LINE
8
BLACK
6
CONTINUOUS
10
130.7358159999999998
20
-81.51661
11
130.7455699999999865
21
-81.516736999999992
0
LINE
8
BLACK
6
CONTINUOUS
10
127.9008419999999973
20
-95.0203709999999973
11
141.3503709999999955
21
-97.8791569999999922
0
LINE
8
BLACK
6
CONTINUOUS
10
141.3503709999999955
20
-97.8791569999999922
11
144.2091570000000047
21
-84.4296279999999939
0
LINE
8
BLACK
6
CONTINUOUS
10
144.2091570000000047
20
-84.4296279999999939
11
130.7596279999999922
21
-81.570841999999999
0
LINE
8
BLACK
6
CONTINUOUS
10
130.7596279999999922
20
-81.570841999999999
11
127.9008419999999973
21
-95.0203709999999973
0
LINE
8
BLACK
6
CONTINUOUS
10
123.2945670000000007
20
-80.7419029999999935
11
123.3080969999999894
21
-80.7554329999999965
0
LINE
8
BLACK
6
CONTINUOUS
10
123.3080969999999894
20
-80.7554329999999965
11
123.3099999999999881
21
-80.7650000000000006
0
LINE
8
BLACK
6
CONTINUOUS
10
123.3099999999999881
20
-80.7650000000000006
11
123.3099999999999881
21
-94.5649999999999977
0
LINE
8
BLACK
6
CONTINUOUS
10
123.3099999999999881
20
-94.5649999999999977
11
123.3080969999999894
21
-94.5745670000000018
0
LINE
8
BLACK
6
CONTINUOUS
10
123.3080969999999894
20
-94.5745670000000018
11
123.2945670000000007
21
-94.5880969999999905
0
LINE
8
BLACK
6
CONTINUOUS
10
123.2945670000000007
20
-94.5880969999999905
11
123.2849999999999966
21
-94.5899999999999892
0
LINE
8
BLACK
6
CONTINUOUS
10
123.2849999999999966
20
-94.5899999999999892
11
109.4849999999999994
21
-94.5899999999999892
0
LINE
8
BLACK
6
CONTINUOUS
10
109.4849999999999994
20
-94.5899999999999892
11
109.4754329999999953
21
-94.5880969999999905
0
LINE
8
BLACK
6
CONTINUOUS
10
109.4754329999999953
20
-94.5880969999999905
11
109.4619029999999924
21
-94.5745670000000018
0
LINE
8
BLACK
6
CONTINUOUS
10
109.4619029999999924
20
-94.5745670000000018
11
109.4599999999999937
21
-94.5649999999999977
0
LINE
8
BLACK
6
CONTINUOUS
10
109.4599999999999937
20
-94.5649999999999977
11
109.4599999999999937
21
-80.7650000000000006
0
LINE
8
BLACK
6
CONTINUOUS
10
109.4599999999999937
20
-80.7650000000000006
11
109.4619029999999924
21
-80.7554329999999965
0
LINE
8
BLACK
6
CONTINUOUS
10
109.4619029999999924
20
-80.7554329999999965
11
109.4754329999999953
21
-80.7419029999999935
0
LINE
8
BLACK
6
CONTINUOUS
10
109.4754329999999953
20
-80.7419029999999935
11
109.4849999999999994
21
-80.7399999999999949
0
LINE
8
BLACK
6
CONTINUOUS
10
109.4849999999999994
20
-80.7399999999999949
11
123.2849999999999966
21
-80.7399999999999949
0
LINE
8
BLACK
6
CONTINUOUS
10
123.2849999999999966
20
-80.7399999999999949
11
123.2945670000000007
21
-80.7419029999999935
0
LINE
8
BLACK
6
CONTINUOUS
10
109.5099999999999909
20
-80.789999999999992
11
109.5099999999999909
21
-94.539999999999992
0
LINE
8
BLACK
6
CONTINUOUS
10
109.5099999999999909
20
-94.539999999999992
11
123.2599999999999909
21
-94.539999999999992
0
LINE
8
BLACK
6
CONTINUOUS
10
123.2599999999999909
20
-94.539999999999992
11
123.2599999999999909
21
-80.789999999999992
0
LINE
8
BLACK
6
CONTINUOUS
10
123.2599999999999909
20
-80.789999999999992
11
109.5099999999999909
21
-80.789999999999992
0
LINE
8
BLACK
6
CONTINUOUS
10
59.7945670000000007
20
-66.2419029999999935
11
59.8080969999999965
21
-66.2554329999999965
0
LINE
8
BLACK
6
CONTINUOUS
10
59.8080969999999965
20
-66.2554329999999965
11
59.8099999999999952
21
-66.2650000000000006
0
LINE
8
BLACK
6
CONTINUOUS
10
59.8099999999999952
20
-66.2650000000000006
11
59.8099999999999952
21
-80.0649999999999977
0
LINE
8
BLACK
6
CONTINUOUS
10
59.8099999999999952
20
-80.0649999999999977
11
59.8080969999999965
21
-80.0745670000000018
0
LINE
8
BLACK
6
CONTINUOUS
10
59.8080969999999965
20
-80.0745670000000018
11
59.7945670000000007
21
-80.0880969999999905
0
LINE
8
BLACK
6
CONTINUOUS
10
59.7945670000000007
20
-80.0880969999999905
11
59.7849999999999966
21
-80.0900000000000034
0
LINE
8
BLACK
6
CONTINUOUS
10
59.7849999999999966
20
-80.0900000000000034
11
45.9849999999999994
21
-80.0900000000000034
0
LINE
8
BLACK
6
CONTINUOUS
10
45.9849999999999994
20
-80.0900000000000034
11
45.9754329999999953
21
-80.0880969999999905
0
LINE
8
BLACK
6
CONTINUOUS
10
45.9754329999999953
20
-80.0880969999999905
11
45.9619029999999995
21
-80.0745670000000018
0
LINE
8
BLACK
6
CONTINUOUS
10
45.9619029999999995
20
-80.0745670000000018
11
45.9600000000000009
21
-80.0649999999999977
0
LINE
8
BLACK
6
CONTINUOUS
10
45.9600000000000009
20
-80.0649999999999977
11
45.9600000000000009
21
-66.2650000000000006
0
LINE
8
BLACK
6
CONTINUOUS
10
45.9600000000000009
20
-66.2650000000000006
11
45.9619029999999995
21
-66.2554329999999965
0
LINE
8
BLACK
6
CONTINUOUS
10
45.9619029999999995
20
-66.2554329999999965
11
45.9754329999999953
21
-66.2419029999999935
0
LINE
8
BLACK
6
CONTINUOUS
10
45.9754329999999953
20
-66.2419029999999935
11
45.9849999999999994
21
-66.2399999999999949
0
LINE
8
BLACK
6
CONTINUOUS
10
45.9849999999999994
20
-66.2399999999999949
11
59.7849999999999966
21
-66.2399999999999949
0
LINE
8
BLACK
6
CONTINUOUS
10
59.7849999999999966
20
-66.2399999999999949
11
59.7945670000000007
21
-66.2419029999999935
0
LINE
8
BLACK
6
CONTINUOUS
10
46.009999999999998
20
-66.289999999999992
11
46.009999999999998
21
-80.039999999999992
0
LINE
8
BLACK
6
CONTINUOUS
10
46.009999999999998
20
-80.039999999999992
11
59.759999999999998
21
-80.039999999999992
0
LINE
8
BLACK
6
CONTINUOUS
10
59.759999999999998
20
-80.039999999999992
11
59.759999999999998
21
-66.289999999999992
0
LINE
8
BLACK
6
CONTINUOUS
10
59.759999999999998
20
-66.289999999999992
11
46.009999999999998
21
-66.289999999999992
0
LINE
8
BLACK
6
CONTINUOUS
10
77.7945670000000007
20
-66.2419029999999935
11
77.8080969999999894
21
-66.2554329999999965
0
LINE
8
BLACK
6
CONTINUOUS
10
77.8080969999999894
20
-66.2554329999999965
11
77.8100000000000023
21
-66.2650000000000006
0
LINE
8
BLACK
6
CONTINUOUS
10
77.8100000000000023
20
-66.2650000000000006
11
77.8100000000000023
21
-80.0649999999999977
0
LINE
8
BLACK
6
CONTINUOUS
10
77.8100000000000023
20
-80.0649999999999977
11
77.8080969999999894
21
-80.0745670000000018
0
LINE
8
BLACK
6
CONTINUOUS
10
77.8080969999999894
20
-80.0745670000000018
11
77.7945670000000007
21
-80.0880969999999905
0
LINE
8
BLACK
6
CONTINUOUS
10
77.7945670000000007
20
-80.0880969999999905
11
77.7849999999999966
21
-80.0900000000000034
0
LINE
8
BLACK
6
CONTINUOUS
10
77.7849999999999966
20
-80.0900000000000034
11
63.9849999999999994
21
-80.0900000000000034
0
LINE
8
BLACK
6
CONTINUOUS
10
63.9849999999999994
20
-80.0900000000000034
11
63.9754329999999953
21
-80.0880969999999905
0
LINE
8
BLACK
6
CONTINUOUS
10
63.9754329999999953
20
-80.0880969999999905
11
63.9619029999999995
21
-80.0745670000000018
0
LINE
8
BLACK
6
CONTINUOUS
10
63.9619029999999995
20
-80.0745670000000018
11
63.9599999999999937
21
-80.0649999999999977
0
LINE
8
BLACK
6
CONTINUOUS
10
63.9599999999999937
20
-80.0649999999999977
11
63.9599999999999937
21
-66.2650000000000006
0
LINE
8
BLACK
6
CONTINUOUS
10
63.9599999999999937
20
-66.2650000000000006
11
63.9619029999999995
21
-66.2554329999999965
0
LINE
8
BLACK
6
CONTINUOUS
10
63.9619029999999995
20
-66.2554329999999965
11
63.9754329999999953
21
-66.2419029999999935
0
LINE
8
BLACK
6
CONTINUOUS
10
63.9754329999999953
20
-66.2419029999999935
11
63.9849999999999994
21
-66.2399999999999949
0
LINE
8
BLACK
6
CONTINUOUS
10
63.9849999999999994
20
-66.2399999999999949
11
77.7849999999999966
21
-66.2399999999999949
0
LINE
8
BLACK
6
CONTINUOUS
10
77.7849999999999966
20
-66.2399999999999949
11
77.7945670000000007
21
-66.2419029999999935
0
LINE
8
BLACK
6
CONTINUOUS
10
64.0099999999999909
20
-66.289999999999992
11
64.0099999999999909
21
-80.039999999999992
0
LINE
8
BLACK
6
CONTINUOUS
10
64.0099999999999909
20
-80.039999999999992
11
77.7599999999999909
21
-80.039999999999992
0
LINE
8
BLACK
6
CONTINUOUS
10
77.7599999999999909
20
-80.039999999999992
11
77.7599999999999909
21
-66.289999999999992
0
LINE
8
BLACK
6
CONTINUOUS
10
77.7599999999999909
20
-66.289999999999992
11
64.0099999999999909
21
-66.289999999999992
0
LINE
8
BLACK
6
CONTINUOUS
10
149.7945670000000007
20
-64.7419029999999935
11
149.8080970000000036
21
-64.7554329999999965
0
LINE
8
BLACK
6
CONTINUOUS
10
149.8080970000000036
20
-64.7554329999999965
11
149.8100000000000023
21
-64.7650000000000006
0
LINE
8
BLACK
6
CONTINUOUS
10
149.8100000000000023
20
-64.7650000000000006
11
149.8100000000000023
21
-78.5649999999999977
0
LINE
8
BLACK
6
CONTINUOUS
10
149.8100000000000023
20
-78.5649999999999977
11
149.8080970000000036
21
-78.5745670000000018
0
LINE
8
BLACK
6
CONTINUOUS
10
149.8080970000000036
20
-78.5745670000000018
11
149.7945670000000007
21
-78.5880969999999905
0
LINE
8
BLACK
6
CONTINUOUS
10
149.7945670000000007
20
-78.5880969999999905
11
149.7849999999999966
21
-78.5900000000000034
0
LINE
8
BLACK
6
CONTINUOUS
10
149.7849999999999966
20
-78.5900000000000034
11
135.9849999999999852
21
-78.5900000000000034
0
LINE
8
BLACK
6
CONTINUOUS
10
135.9849999999999852
20
-78.5900000000000034
11
135.9754329999999811
21
-78.5880969999999905
0
LINE
8
BLACK
6
CONTINUOUS
10
135.9754329999999811
20
-78.5880969999999905
11
135.9619030000000066
21
-78.5745670000000018
0
LINE
8
BLACK
6
CONTINUOUS
10
135.9619030000000066
20
-78.5745670000000018
11
135.960000000000008
21
-78.5649999999999977
0
LINE
8
BLACK
6
CONTINUOUS
10
135.960000000000008
20
-78.5649999999999977
11
135.960000000000008
21
-64.7650000000000006
0
LINE
8
BLACK
6
CONTINUOUS
10
135.960000000000008
20
-64.7650000000000006
11
135.9619030000000066
21
-64.7554329999999965
0
LINE
8
BLACK
6
CONTINUOUS
10
135.9619030000000066
20
-64.7554329999999965
11
135.9754329999999811
21
-64.7419029999999935
0
LINE
8
BLACK
6
CONTINUOUS
10
135.9754329999999811
20
-64.7419029999999935
11
135.9849999999999852
21
-64.7399999999999949
0
LINE
8
BLACK
6
CONTINUOUS
10
135.9849999999999852
20
-64.7399999999999949
11
149.7849999999999966
21
-64.7399999999999949
0
LINE
8
BLACK
6
CONTINUOUS
10
149.7849999999999966
20
-64.7399999999999949
11
149.7945670000000007
21
-64.7419029999999935
0
LINE
8
BLACK
6
CONTINUOUS
10
136.0099999999999909
20
-64.789999999999992
11
136.0099999999999909
21
-78.539999999999992
0
LINE
8
BLACK
6
CONTINUOUS
10
136.0099999999999909
20
-78.539999999999992
11
149.7599999999999909
21
-78.539999999999992
0
LINE
8
BLACK
6
CONTINUOUS
10
149.7599999999999909
20
-78.539999999999992
11
149.7599999999999909
21
-64.789999999999992
0
LINE
8
BLACK
6
CONTINUOUS
10
149.7599999999999909
20
-64.789999999999992
11
136.0099999999999909
21
-64.789999999999992
0
LINE
8
BLACK
6
CONTINUOUS
10
95.7945670000000007
20
-63.2419030000000006
11
95.8080969999999894
21
-63.2554329999999965
0
LINE
8
BLACK
6
CONTINUOUS
10
95.8080969999999894
20
-63.2554329999999965
11
95.8100000000000023
21
-63.2650000000000006
0
LINE
8
BLACK
6
CONTINUOUS
10
95.8100000000000023
20
-63.2650000000000006
11
95.8100000000000023
21
-77.0649999999999977
0
LINE
8
BLACK
6
CONTINUOUS
10
95.8100000000000023
20
-77.0649999999999977
11
95.8080969999999894
21
-77.0745670000000018
0
LINE
8
BLACK
6
CONTINUOUS
10
95.8080969999999894
20
-77.0745670000000018
11
95.7945670000000007
21
-77.0880969999999905
0
LINE
8
BLACK
6
CONTINUOUS
10
95.7945670000000007
20
-77.0880969999999905
11
95.7849999999999966
21
-77.0900000000000034
0
LINE
8
BLACK
6
CONTINUOUS
10
95.7849999999999966
20
-77.0900000000000034
11
81.9849999999999994
21
-77.0900000000000034
0
LINE
8
BLACK
6
CONTINUOUS
10
81.9849999999999994
20
-77.0900000000000034
11
81.9754329999999953
21
-77.0880969999999905
0
LINE
8
BLACK
6
CONTINUOUS
10
81.9754329999999953
20
-77.0880969999999905
11
81.9619029999999924
21
-77.0745670000000018
0
LINE
8
BLACK
6
CONTINUOUS
10
81.9619029999999924
20
-77.0745670000000018
11
81.9599999999999937
21
-77.0649999999999977
0
LINE
8
BLACK
6
CONTINUOUS
10
81.9599999999999937
20
-77.0649999999999977
11
81.9599999999999937
21
-63.2650000000000006
0
LINE
8
BLACK
6
CONTINUOUS
10
81.9599999999999937
20
-63.2650000000000006
11
81.9619029999999924
21
-63.2554329999999965
0
LINE
8
BLACK
6
CONTINUOUS
10
81.9619029999999924
20
-63.2554329999999965
11
81.9754329999999953
21
-63.2419030000000006
0
LINE
8
BLACK
6
CONTINUOUS
10
81.9754329999999953
20
-63.2419030000000006
11
81.9849999999999994
21
-63.2399999999999949
0
LINE
8
BLACK
6
CONTINUOUS
10
81.9849999999999994
20
-63.2399999999999949
11
95.7849999999999966
21
-63.2399999999999949
0
LINE
8
BLACK
6
CONTINUOUS
10
95.7849999999999966
20
-63.2399999999999949
11
95.7945670000000007
21
-63.2419030000000006
0
LINE
8
BLACK
6
CONTINUOUS
10
82.0099999999999909
20
-63.2899999999999991
11
82.0099999999999909
21
-77.039999999999992
0
LINE
8
BLACK
6
CONTINUOUS
10
82.0099999999999909
20
-77.039999999999992
11
95.7599999999999909
21
-77.039999999999992
0
LINE
8
BLACK
6
CONTINUOUS
10
95.7599999999999909
20
-77.039999999999992
11
95.7599999999999909
21
-63.2899999999999991
0
LINE
8
BLACK
6
CONTINUOUS
10
95.7599999999999909
20
-63.2899999999999991
11
82.0099999999999909
21
-63.2899999999999991
0
LINE
8
BLACK
6
CONTINUOUS
10
131.7945670000000007
20
-63.2419030000000006
11
131.8080970000000036
21
-63.2554329999999965
0
LINE
8
BLACK
6
CONTINUOUS
10
131.8080970000000036
20
-63.2554329999999965
11
131.8100000000000023
21
-63.2650000000000006
0
LINE
8
BLACK
6
CONTINUOUS
10
131.8100000000000023
20
-63.2650000000000006
11
131.8100000000000023
21
-77.0649999999999977
0
LINE
8
BLACK
6
CONTINUOUS
10
131.8100000000000023
20
-77.0649999999999977
11
131.8080970000000036
21
-77.0745670000000018
0
LINE
8
BLACK
6
CONTINUOUS
10
131.8080970000000036
20
-77.0745670000000018
11
131.7945670000000007
21
-77.0880969999999905
0
LINE
8
BLACK
6
CONTINUOUS
10
131.7945670000000007
20
-77.0880969999999905
11
131.7849999999999966
21
-77.0900000000000034
0
LINE
8
BLACK
6
CONTINUOUS
10
131.7849999999999966
20
-77.0900000000000034
11
117.9849999999999994
21
-77.0900000000000034
0
LINE
8
BLACK
6
CONTINUOUS
10
117.9849999999999994
20
-77.0900000000000034
11
117.9754329999999953
21
-77.0880969999999905
0
LINE
8
BLACK
6
CONTINUOUS
10
117.9754329999999953
20
-77.0880969999999905
11
117.9619029999999924
21
-77.0745670000000018
0
LINE
8
BLACK
6
CONTINUOUS
10
117.9619029999999924
20
-77.0745670000000018
11
117.9599999999999937
21
-77.0649999999999977
0
LINE
8
BLACK
6
CONTINUOUS
10
117.9599999999999937
20
-77.0649999999999977
11
117.9599999999999937
21
-63.2650000000000006
0
LINE
8
BLACK
6
CONTINUOUS
10
117.9599999999999937
20
-63.2650000000000006
11
117.9619029999999924
21
-63.2554329999999965
0
LINE
8
BLACK
6
CONTINUOUS
10
117.9619029999999924
20
-63.2554329999999965
11
117.9754329999999953
21
-63.2419030000000006
0
LINE
8
BLACK
6
CONTINUOUS
10
117.9754329999999953
20
-63.2419030000000006
11
117.9849999999999994
21
-63.2399999999999949
0
LINE
8
BLACK
6
CONTINUOUS
10
117.9849999999999994
20
-63.2399999999999949
11
131.7849999999999966
21
-63.2399999999999949
0
LINE
8
BLACK
6
CONTINUOUS
10
131.7849999999999966
20
-63.2399999999999949
11
131.7945670000000007
21
-63.2419030000000006
0
LINE
8
BLACK
6
CONTINUOUS
10
118.0099999999999909
20
-63.2899999999999991
11
118.0099999999999909
21
-77.039999999999992
0
LINE
8
BLACK
6
CONTINUOUS
10
118.0099999999999909
20
-77.039999999999992
11
131.7599999999999909
21
-77.039999999999992
0
LINE
8
BLACK
6
CONTINUOUS
10
131.7599999999999909
20
-77.039999999999992
11
131.7599999999999909
21
-63.2899999999999991
0
LINE
8
BLACK
6
CONTINUOUS
10
131.7599999999999909
20
-63.2899999999999991
11
118.0099999999999909
21
-63.2899999999999991
0
LINE
8
BLACK
6
CONTINUOUS
10
113.7945670000000007
20
-60.2419030000000006
11
113.8080969999999894
21
-60.2554329999999965
0
LINE
8
BLACK
6
CONTINUOUS
10
113.8080969999999894
20
-60.2554329999999965
11
113.8099999999999881
21
-60.2650000000000006
0
LINE
8
BLACK
6
CONTINUOUS
10
113.8099999999999881
20
-60.2650000000000006
11
113.8099999999999881
21
-74.0649999999999977
0
LINE
8
BLACK
6
CONTINUOUS
10
113.8099999999999881
20
-74.0649999999999977
11
113.8080969999999894
21
-74.0745670000000018
0
LINE
8
BLACK
6
CONTINUOUS
10
113.8080969999999894
20
-74.0745670000000018
11
113.7945670000000007
21
-74.0880969999999905
0
LINE
8
BLACK
6
CONTINUOUS
10
113.7945670000000007
20
-74.0880969999999905
11
113.7849999999999966
21
-74.0900000000000034
0
LINE
8
BLACK
6
CONTINUOUS
10
113.7849999999999966
20
-74.0900000000000034
11
99.9849999999999994
21
-74.0900000000000034
0
LINE
8
BLACK
6
CONTINUOUS
10
99.9849999999999994
20
-74.0900000000000034
11
99.9754329999999953
21
-74.0880969999999905
0
LINE
8
BLACK
6
CONTINUOUS
10
99.9754329999999953
20
-74.0880969999999905
11
99.9619029999999924
21
-74.0745670000000018
0
LINE
8
BLACK
6
CONTINUOUS
10
99.9619029999999924
20
-74.0745670000000018
11
99.9599999999999937
21
-74.0649999999999977
0
LINE
8
BLACK
6
CONTINUOUS
10
99.9599999999999937
20
-74.0649999999999977
11
99.9599999999999937
21
-60.2650000000000006
0
LINE
8
BLACK
6
CONTINUOUS
10
99.9599999999999937
20
-60.2650000000000006
11
99.9619029999999924
21
-60.2554329999999965
0
LINE
8
BLACK
6
CONTINUOUS
10
99.9619029999999924
20
-60.2554329999999965
11
99.9754329999999953
21
-60.2419030000000006
0
LINE
8
BLACK
6
CONTINUOUS
10
99.9754329999999953
20
-60.2419030000000006
11
99.9849999999999994
21
-60.2399999999999949
0
LINE
8
BLACK
6
CONTINUOUS
10
99.9849999999999994
20
-60.2399999999999949
11
113.7849999999999966
21
-60.2399999999999949
0
LINE
8
BLACK
6
CONTINUOUS
10
113.7849999999999966
20
-60.2399999999999949
11
113.7945670000000007
21
-60.2419030000000006
0
LINE
8
BLACK
6
CONTINUOUS
10
100.0099999999999909
20
-60.2899999999999991
11
100.0099999999999909
21
-74.039999999999992
0
LINE
8
BLACK
6
CONTINUOUS
10
100.0099999999999909
20
-74.039999999999992
11
113.7599999999999909
21
-74.039999999999992
0
LINE
8
BLACK
6
CONTINUOUS
10
113.7599999999999909
20
-74.039999999999992
11
113.7599999999999909
21
-60.2899999999999991
0
LINE
8
BLACK
6
CONTINUOUS
10
113.7599999999999909
20
-60.2899999999999991
11
100.0099999999999909
21
-60.2899999999999991
0
LINE
8
BLACK
6
CONTINUOUS
10
59.7945670000000007
20
-49.2419030000000006
11
59.8080969999999965
21
-49.2554329999999965
0
LINE
8
BLACK
6
CONTINUOUS
10
59.8080969999999965
20
-49.2554329999999965
11
59.8099999999999952
21
-49.2650000000000006
0
LINE
8
BLACK
6
CONTINUOUS
10
59.8099999999999952
20
-49.2650000000000006
11
59.8099999999999952
21
-63.0649999999999977
0
LINE
8
BLACK
6
CONTINUOUS
10
59.8099999999999952
20
-63.0649999999999977
11
59.8080969999999965
21
-63.0745669999999947
0
LINE
8
BLACK
6
CONTINUOUS
10
59.8080969999999965
20
-63.0745669999999947
11
59.7945670000000007
21
-63.0880969999999976
0
LINE
8
BLACK
6
CONTINUOUS
10
59.7945670000000007
20
-63.0880969999999976
11
59.7849999999999966
21
-63.0899999999999963
0
LINE
8
BLACK
6
CONTINUOUS
10
59.7849999999999966
20
-63.0899999999999963
11
45.9849999999999994
21
-63.0899999999999963
0
LINE
8
BLACK
6
CONTINUOUS
10
45.9849999999999994
20
-63.0899999999999963
11
45.9754329999999953
21
-63.0880969999999976
0
LINE
8
BLACK
6
CONTINUOUS
10
45.9754329999999953
20
-63.0880969999999976
11
45.9619029999999995
21
-63.0745669999999947
0
LINE
8
BLACK
6
CONTINUOUS
10
45.9619029999999995
20
-63.0745669999999947
11
45.9600000000000009
21
-63.0649999999999977
0
LINE
8
BLACK
6
CONTINUOUS
10
45.9600000000000009
20
-63.0649999999999977
11
45.9600000000000009
21
-49.2650000000000006
0
LINE
8
BLACK
6
CONTINUOUS
10
45.9600000000000009
20
-49.2650000000000006
11
45.9619029999999995
21
-49.2554329999999965
0
LINE
8
BLACK
6
CONTINUOUS
10
45.9619029999999995
20
-49.2554329999999965
11
45.9754329999999953
21
-49.2419030000000006
0
LINE
8
BLACK
6
CONTINUOUS
10
45.9754329999999953
20
-49.2419030000000006
11
45.9849999999999994
21
-49.2399999999999949
0
LINE
8
BLACK
6
CONTINUOUS
10
45.9849999999999994
20
-49.2399999999999949
11
59.7849999999999966
21
-49.2399999999999949
0
LINE
8
BLACK
6
CONTINUOUS
10
59.7849999999999966
20
-49.2399999999999949
11
59.7945670000000007
21
-49.2419030000000006
0
LINE
8
BLACK
6
CONTINUOUS
10
46.009999999999998
20
-49.2899999999999991
11
46.009999999999998
21
-63.0399999999999991
0
LINE
8
BLACK
6
CONTINUOUS
10
46.009999999999998
20
-63.0399999999999991
11
59.759999999999998
21
-63.0399999999999991
0
LINE
8
BLACK
6
CONTINUOUS
10
59.759999999999998
20
-63.0399999999999991
11
59.759999999999998
21
-49.2899999999999991
0
LINE
8
BLACK
6
CONTINUOUS
10
59.759999999999998
20
-49.2899999999999991
11
46.009999999999998
21
-49.2899999999999991
0
LINE
8
BLACK
6
CONTINUOUS
10
77.7945670000000007
20
-49.2419030000000006
11
77.8080969999999894
21
-49.2554329999999965
0
LINE
8
BLACK
6
CONTINUOUS
10
77.8080969999999894
20
-49.2554329999999965
11
77.8100000000000023
21
-49.2650000000000006
0
LINE
8
BLACK
6
CONTINUOUS
10
77.8100000000000023
20
-49.2650000000000006
11
77.8100000000000023
21
-63.0649999999999977
0
LINE
8
BLACK
6
CONTINUOUS
10
77.8100000000000023
20
-63.0649999999999977
11
77.8080969999999894
21
-63.0745669999999947
0
LINE
8
BLACK
6
CONTINUOUS
10
77.8080969999999894
20
-63.0745669999999947
11
77.7945670000000007
21
-63.0880969999999976
0
LINE
8
BLACK
6
CONTINUOUS
10
77.7945670000000007
20
-63.0880969999999976
11
77.7849999999999966
21
-63.0899999999999963
0
LINE
8
BLACK
6
CONTINUOUS
10
77.7849999999999966
20
-63.0899999999999963
11
63.9849999999999994
21
-63.0899999999999963
0
LINE
8
BLACK
6
CONTINUOUS
10
63.9849999999999994
20
-63.0899999999999963
11
63.9754329999999953
21
-63.0880969999999976
0
LINE
8
BLACK
6
CONTINUOUS
10
63.9754329999999953
20
-63.0880969999999976
11
63.9619029999999995
21
-63.0745669999999947
0
LINE
8
BLACK
6
CONTINUOUS
10
63.9619029999999995
20
-63.0745669999999947
11
63.9599999999999937
21
-63.0649999999999977
0
LINE
8
BLACK
6
CONTINUOUS
10
63.9599999999999937
20
-63.0649999999999977
11
63.9599999999999937
21
-49.2650000000000006
0
LINE
8
BLACK
6
CONTINUOUS
10
63.9599999999999937
20
-49.2650000000000006
11
63.9619029999999995
21
-49.2554329999999965
0
LINE
8
BLACK
6
CONTINUOUS
10
63.9619029999999995
20
-49.2554329999999965
11
63.9754329999999953
21
-49.2419030000000006
0
LINE
8
BLACK
6
CONTINUOUS
10
63.9754329999999953
20
-49.2419030000000006
11
63.9849999999999994
21
-49.2399999999999949
0
LINE
8
BLACK
6
CONTINUOUS
10
63.9849999999999994
20
-49.2399999999999949
11
77.7849999999999966
21
-49.2399999999999949
0
LINE
8
BLACK
6
CONTINUOUS
10
77.7849999999999966
20
-49.2399999999999949
11
77.7945670000000007
21
-49.2419030000000006
0
LINE
8
BLACK
6
CONTINUOUS
10
64.0099999999999909
20
-49.2899999999999991
11
64.0099999999999909
21
-63.0399999999999991
0
LINE
8
BLACK
6
CONTINUOUS
10
64.0099999999999909
20
-63.0399999999999991
11
77.7599999999999909
21
-63.0399999999999991
0
LINE
8
BLACK
6
CONTINUOUS
10
77.7599999999999909
20
-63.0399999999999991
11
77.7599999999999909
21
-49.2899999999999991
0
LINE
8
BLACK
6
CONTINUOUS
10
77.7599999999999909
20
-49.2899999999999991
11
64.0099999999999909
21
-49.2899999999999991
0
LINE
8
BLACK
6
CONTINUOUS
10
149.7945670000000007
20
-47.7419030000000006
11
149.8080970000000036
21
-47.7554329999999965
0
LINE
8
BLACK
6
CONTINUOUS
10
149.8080970000000036
20
-47.7554329999999965
11
149.8100000000000023
21
-47.7650000000000006
0
LINE
8
BLACK
6
CONTINUOUS
10
149.8100000000000023
20
-47.7650000000000006
11
149.8100000000000023
21
-61.5649999999999977
0
LINE
8
BLACK
6
CONTINUOUS
10
149.8100000000000023
20
-61.5649999999999977
11
149.8080970000000036
21
-61.5745669999999947
0
LINE
8
BLACK
6
CONTINUOUS
10
149.8080970000000036
20
-61.5745669999999947
11
149.7945670000000007
21
-61.5880969999999976
0
LINE
8
BLACK
6
CONTINUOUS
10
149.7945670000000007
20
-61.5880969999999976
11
149.7849999999999966
21
-61.5899999999999963
0
LINE
8
BLACK
6
CONTINUOUS
10
149.7849999999999966
20
-61.5899999999999963
11
135.9849999999999852
21
-61.5899999999999963
0
LINE
8
BLACK
6
CONTINUOUS
10
135.9849999999999852
20
-61.5899999999999963
11
135.9754329999999811
21
-61.5880969999999976
0
LINE
8
BLACK
6
CONTINUOUS
10
135.9754329999999811
20
-61.5880969999999976
11
135.9619030000000066
21
-61.5745669999999947
0
LINE
8
BLACK
6
CONTINUOUS
10
135.9619030000000066
20
-61.5745669999999947
11
135.960000000000008
21
-61.5649999999999977
0
LINE
8
BLACK
6
CONTINUOUS
10
135.960000000000008
20
-61.5649999999999977
11
135.960000000000008
21
-47.7650000000000006
0
LINE
8
BLACK
6
CONTINUOUS
10
135.960000000000008
20
-47.7650000000000006
11
135.9619030000000066
21
-47.7554329999999965
0
LINE
8
BLACK
6
CONTINUOUS
10
135.9619030000000066
20
-47.7554329999999965
11
135.9754329999999811
21
-47.7419030000000006
0
LINE
8
BLACK
6
CONTINUOUS
10
135.9754329999999811
20
-47.7419030000000006
11
135.9849999999999852
21
-47.7399999999999949
0
LINE
8
BLACK
6
CONTINUOUS
10
135.9849999999999852
20
-47.7399999999999949
11
149.7849999999999966
21
-47.7399999999999949
0
LINE
8
BLACK
6
CONTINUOUS
10
149.7849999999999966
20
-47.7399999999999949
11
149.7945670000000007
21
-47.7419030000000006
0
LINE
8
BLACK
6
CONTINUOUS
10
136.0099999999999909
20
-47.7899999999999991
11
136.0099999999999909
21
-61.5399999999999991
0
LINE
8
BLACK
6
CONTINUOUS
10
136.0099999999999909
20
-61.5399999999999991
11
149.7599999999999909
21
-61.5399999999999991
0
LINE
8
BLACK
6
CONTINUOUS
10
149.7599999999999909
20
-61.5399999999999991
11
149.7599999999999909
21
-47.7899999999999991
0
LINE
8
BLACK
6
CONTINUOUS
10
149.7599999999999909
20
-47.7899999999999991
11
136.0099999999999909
21
-47.7899999999999991
0
LINE
8
BLACK
6
CONTINUOUS
10
95.7945670000000007
20
-46.2419030000000006
11
95.8080969999999894
21
-46.2554329999999965
0
LINE
8
BLACK
6
CONTINUOUS
10
95.8080969999999894
20
-46.2554329999999965
11
95.8100000000000023
21
-46.2650000000000006
0
LINE
8
BLACK
6
CONTINUOUS
10
95.8100000000000023
20
-46.2650000000000006
11
95.8100000000000023
21
-60.0649999999999977
0
LINE
8
BLACK
6
CONTINUOUS
10
95.8100000000000023
20
-60.0649999999999977
11
95.8080969999999894
21
-60.0745669999999947
0
LINE
8
BLACK
6
CONTINUOUS
10
95.8080969999999894
20
-60.0745669999999947
11
95.7945670000000007
21
-60.0880969999999976
0
LINE
8
BLACK
6
CONTINUOUS
10
95.7945670000000007
20
-60.0880969999999976
11
95.7849999999999966
21
-60.0899999999999963
0
LINE
8
BLACK
6
CONTINUOUS
10
95.7849999999999966
20
-60.0899999999999963
11
81.9849999999999994
21
-60.0899999999999963
0
LINE
8
BLACK
6
CONTINUOUS
10
81.9849999999999994
20
-60.0899999999999963
11
81.9754329999999953
21
-60.0880969999999976
0
LINE
8
BLACK
6
CONTINUOUS
10
81.9754329999999953
20
-60.0880969999999976
11
81.9619029999999924
21
-60.0745669999999947
0
LINE
8
BLACK
6
CONTINUOUS
10
81.9619029999999924
20
-60.0745669999999947
11
81.9599999999999937
21
-60.0649999999999977
0
LINE
8
BLACK
6
CONTINUOUS
10
81.9599999999999937
20
-60.0649999999999977
11
81.9599999999999937
21
-46.2650000000000006
0
LINE
8
BLACK
6
CONTINUOUS
10
81.9599999999999937
20
-46.2650000000000006
11
81.9619029999999924
21
-46.2554329999999965
0
LINE
8
BLACK
6
CONTINUOUS
10
81.9619029999999924
20
-46.2554329999999965
11
81.9754329999999953
21
-46.2419030000000006
0
LINE
8
BLACK
6
CONTINUOUS
10
81.9754329999999953
20
-46.2419030000000006
11
81.9849999999999994
21
-46.2399999999999949
0
LINE
8
BLACK
6
CONTINUOUS
10
81.9849999999999994
20
-46.2399999999999949
11
95.7849999999999966
21
-46.2399999999999949
0
LINE
8
BLACK
6
CONTINUOUS
10
95.7849999999999966
20
-46.2399999999999949
11
95.7945670000000007
21
-46.2419030000000006
0
LINE
8
BLACK
6
CONTINUOUS
10
82.0099999999999909
20
-46.2899999999999991
11
82.0099999999999909
21
-60.0399999999999991
0
LINE
8
BLACK
6
CONTINUOUS
10
82.0099999999999909
20
-60.0399999999999991
11
95.7599999999999909
21
-60.0399999999999991
0
LINE
8
BLACK
6
CONTINUOUS
10
95.7599999999999909
20
-60.0399999999999991
11
95.7599999999999909
21
-46.2899999999999991
0
LINE
8
BLACK
6
CONTINUOUS
10
95.7599999999999909
20
-46.2899999999999991
11
82.0099999999999909
21
-46.2899999999999991
0
LINE
8
BLACK
6
CONTINUOUS
10
131.7945670000000007
20
-46.2419030000000006
11
131.8080970000000036
21
-46.2554329999999965
0
LINE
8
BLACK
6
CONTINUOUS
10
131.8080970000000036
20
-46.2554329999999965
11
131.8100000000000023
21
-46.2650000000000006
0
LINE
8
BLACK
6
CONTINUOUS
10
131.8100000000000023
20
-46.2650000000000006
11
131.8100000000000023
21
-60.0649999999999977
0
LINE
8
BLACK
6
CONTINUOUS
10
131.8100000000000023
20
-60.0649999999999977
11
131.8080970000000036
21
-60.0745669999999947
0
LINE
8
BLACK
6
CONTINUOUS
10
131.8080970000000036
20
-60.0745669999999947
11
131.7945670000000007
21
-60.0880969999999976
0
LINE
8
BLACK
6
CONTINUOUS
10
131.7945670000000007
20
-60.0880969999999976
11
131.7849999999999966
21
-60.0899999999999963
0
LINE
8
BLACK
6
CONTINUOUS
10
131.7849999999999966
20
-60.0899999999999963
11
117.9849999999999994
21
-60.0899999999999963
0
LINE
8
BLACK
6
CONTINUOUS
10
117.9849999999999994
20
-60.0899999999999963
11
117.9754329999999953
21
-60.0880969999999976
0
LINE
8
BLACK
6
CONTINUOUS
10
117.9754329999999953
20
-60.0880969999999976
11
117.9619029999999924
21
-60.0745669999999947
0
LINE
8
BLACK
6
CONTINUOUS
10
117.9619029999999924
20
-60.0745669999999947
11
117.9599999999999937
21
-60.0649999999999977
0
LINE
8
BLACK
6
CONTINUOUS
10
117.9599999999999937
20
-60.0649999999999977
11
117.9599999999999937
21
-46.2650000000000006
0
LINE
8
BLACK
6
CONTINUOUS
10
117.9599999999999937
20
-46.2650000000000006
11
117.9619029999999924
21
-46.2554329999999965
0
LINE
8
BLACK
6
CONTINUOUS
10
117.9619029999999924
20
-46.2554329999999965
11
117.9754329999999953
21
-46.2419030000000006
0
LINE
8
BLACK
6
CONTINUOUS
10
117.9754329999999953
20
-46.2419030000000006
11
117.9849999999999994
21
-46.2399999999999949
0
LINE
8
BLACK
6
CONTINUOUS
10
117.9849999999999994
20
-46.2399999999999949
11
131.7849999999999966
21
-46.2399999999999949
0
LINE
8
BLACK
6
CONTINUOUS
10
131.7849999999999966
20
-46.2399999999999949
11
131.7945670000000007
21
-46.2419030000000006
0
LINE
8
BLACK
6
CONTINUOUS
10
118.0099999999999909
20
-46.2899999999999991
11
118.0099999999999909
21
-60.0399999999999991
0
LINE
8
BLACK
6
CONTINUOUS
10
118.0099999999999909
20
-60.0399999999999991
11
131.7599999999999909
21
-60.0399999999999991
0
LINE
8
BLACK
6
CONTINUOUS
10
131.7599999999999909
20
-60.0399999999999991
11
131.7599999999999909
21
-46.2899999999999991
0
LINE
8
BLACK
6
CONTINUOUS
10
131.7599999999999909
20
-46.2899999999999991
11
118.0099999999999909
21
-46.2899999999999991
0
LINE
8
BLACK
6
CONTINUOUS
10
113.7945670000000007
20
-43.2419030000000006
11
113.8080969999999894
21
-43.2554329999999965
0
LINE
8
BLACK
6
CONTINUOUS
10
113.8080969999999894
20
-43.2554329999999965
11
113.8099999999999881
21
-43.2650000000000006
0
LINE
8
BLACK
6
CONTINUOUS
10
113.8099999999999881
20
-43.2650000000000006
11
113.8099999999999881
21
-57.0649999999999977
0
LINE
8
BLACK
6
CONTINUOUS
10
113.8099999999999881
20
-57.0649999999999977
11
113.8080969999999894
21
-57.0745669999999947
0
LINE
8
BLACK
6
CONTINUOUS
10
113.8080969999999894
20
-57.0745669999999947
11
113.7945670000000007
21
-57.0880969999999976
0
LINE
8
BLACK
6
CONTINUOUS
10
113.7945670000000007
20
-57.0880969999999976
11
113.7849999999999966
21
-57.0899999999999963
0
LINE
8
BLACK
6
CONTINUOUS
10
113.7849999999999966
20
-57.0899999999999963
11
99.9849999999999994
21
-57.0899999999999963
0
LINE
8
BLACK
6
CONTINUOUS
10
99.9849999999999994
20
-57.0899999999999963
11
99.9754329999999953
21
-57.0880969999999976
0
LINE
8
BLACK
6
CONTINUOUS
10
99.9754329999999953
20
-57.0880969999999976
11
99.9619029999999924
21
-57.0745669999999947
0
LINE
8
BLACK
6
CONTINUOUS
10
99.9619029999999924
20
-57.0745669999999947
11
99.9599999999999937
21
-57.0649999999999977
0
LINE
8
BLACK
6
CONTINUOUS
10
99.9599999999999937
20
-57.0649999999999977
11
99.9599999999999937
21
-43.2650000000000006
0
LINE
8
BLACK
6
CONTINUOUS
10
99.9599999999999937
20
-43.2650000000000006
11
99.9619029999999924
21
-43.2554329999999965
0
LINE
8
BLACK
6
CONTINUOUS
10
99.9619029999999924
20
-43.2554329999999965
11
99.9754329999999953
21
-43.2419030000000006
0
LINE
8
BLACK
6
CONTINUOUS
10
99.9754329999999953
20
-43.2419030000000006
11
99.9849999999999994
21
-43.2399999999999949
0
LINE
8
BLACK
6
CONTINUOUS
10
99.9849999999999994
20
-43.2399999999999949
11
113.7849999999999966
21
-43.2399999999999949
0
LINE
8
BLACK
6
CONTINUOUS
10
113.7849999999999966
20
-43.2399999999999949
11
113.7945670000000007
21
-43.2419030000000006
0
LINE
8
BLACK
6
CONTINUOUS
10
100.0099999999999909
20
-43.2899999999999991
11
100.0099999999999909
21
-57.0399999999999991
0
LINE
8
BLACK
6
CONTINUOUS
10
100.0099999999999909
20
-57.0399999999999991
11
113.7599999999999909
21
-57.0399999999999991
0
LINE
8
BLACK
6
CONTINUOUS
10
113.7599999999999909
20
-57.0399999999999991
11
113.7599999999999909
21
-43.2899999999999991
0
LINE
8
BLACK
6
CONTINUOUS
10
113.7599999999999909
20
-43.2899999999999991
11
100.0099999999999909
21
-43.2899999999999991
0
LINE
8
BLACK
6
CONTINUOUS
10
59.7945670000000007
20
-32.2419030000000006
11
59.8080969999999965
21
-32.2554329999999965
0
LINE
8
BLACK
6
CONTINUOUS
10
59.8080969999999965
20
-32.2554329999999965
11
59.8099999999999952
21
-32.2650000000000006
0
LINE
8
BLACK
6
CONTINUOUS
10
59.8099999999999952
20
-32.2650000000000006
11
59.8099999999999952
21
-46.0649999999999977
0
LINE
8
BLACK
6
CONTINUOUS
10
59.8099999999999952
20
-46.0649999999999977
11
59.8080969999999965
21
-46.0745669999999947
0
LINE
8
BLACK
6
CONTINUOUS
10
59.8080969999999965
20
-46.0745669999999947
11
59.7945670000000007
21
-46.0880969999999976
0
LINE
8
BLACK
6
CONTINUOUS
10
59.7945670000000007
20
-46.0880969999999976
11
59.7849999999999966
21
-46.0899999999999963
0
LINE
8
BLACK
6
CONTINUOUS
10
59.7849999999999966
20
-46.0899999999999963
11
45.9849999999999994
21
-46.0899999999999963
0
LINE
8
BLACK
6
CONTINUOUS
10
45.9849999999999994
20
-46.0899999999999963
11
45.9754329999999953
21
-46.0880969999999976
0
LINE
8
BLACK
6
CONTINUOUS
10
45.9754329999999953
20
-46.0880969999999976
11
45.9619029999999995
21
-46.0745669999999947
0
LINE
8
BLACK
6
CONTINUOUS
10
45.9619029999999995
20
-46.0745669999999947
11
45.9600000000000009
21
-46.0649999999999977
0
LINE
8
BLACK
6
CONTINUOUS
10
45.9600000000000009
20
-46.0649999999999977
11
45.9600000000000009
21
-32.2650000000000006
0
LINE
8
BLACK
6
CONTINUOUS
10
45.9600000000000009
20
-32.2650000000000006
11
45.9619029999999995
21
-32.2554329999999965
0
LINE
8
BLACK
6
CONTINUOUS
10
45.9619029999999995
20
-32.2554329999999965
11
45.9754329999999953
21
-32.2419030000000006
0
LINE
8
BLACK
6
CONTINUOUS
10
45.9754329999999953
20
-32.2419030000000006
11
45.9849999999999994
21
-32.240000000000002
0
LINE
8
BLACK
6
CONTINUOUS
10
45.9849999999999994
20
-32.240000000000002
11
59.7849999999999966
21
-32.240000000000002
0
LINE
8
BLACK
6
CONTINUOUS
10
59.7849999999999966
20
-32.240000000000002
11
59.7945670000000007
21
-32.2419030000000006
0
LINE
8
BLACK
6
CONTINUOUS
10
46.009999999999998
20
-32.2899999999999991
11
46.009999999999998
21
-46.0399999999999991
0
LINE
8
BLACK
6
CONTINUOUS
10
46.009999999999998
20
-46.0399999999999991
11
59.759999999999998
21
-46.0399999999999991
0
LINE
8
BLACK
6
CONTINUOUS
10
59.759999999999998
20
-46.0399999999999991
11
59.759999999999998
21
-32.2899999999999991
0
LINE
8
BLACK
6
CONTINUOUS
10
59.759999999999998
20
-32.2899999999999991
11
46.009999999999998
21
-32.2899999999999991
0
LINE
8
BLACK
6
CONTINUOUS
10
77.7945670000000007
20
-32.2419030000000006
11
77.8080969999999894
21
-32.2554329999999965
0
LINE
8
BLACK
6
CONTINUOUS
10
77.8080969999999894
20
-32.2554329999999965
11
77.8100000000000023
21
-32.2650000000000006
0
LINE
8
BLACK
6
CONTINUOUS
10
77.8100000000000023
20
-32.2650000000000006
11
77.8100000000000023
21
-46.0649999999999977
0
LINE
8
BLACK
6
CONTINUOUS
10
77.8100000000000023
20
-46.0649999999999977
11
77.8080969999999894
21
-46.0745669999999947
0
LINE
8
BLACK
6
CONTINUOUS
10
77.8080969999999894
20
-46.0745669999999947
11
77.7945670000000007
21
-46.0880969999999976
0
LINE
8
BLACK
6
CONTINUOUS
10
77.7945670000000007
20
-46.0880969999999976
11
77.7849999999999966
21
-46.0899999999999963
0
LINE
8
BLACK
6
CONTINUOUS
10
77.7849999999999966
20
-46.0899999999999963
11
63.9849999999999994
21
-46.0899999999999963
0
LINE
8
BLACK
6
CONTINUOUS
10
63.9849999999999994
20
-46.0899999999999963
11
63.9754329999999953
21
-46.0880969999999976
0
LINE
8
BLACK
6
CONTINUOUS
10
63.9754329999999953
20
-46.0880969999999976
11
63.9619029999999995
21
-46.0745669999999947
0
LINE
8
BLACK
6
CONTINUOUS
10
63.9619029999999995
20
-46.0745669999999947
11
63.9599999999999937
21
-46.0649999999999977
0
LINE
8
BLACK
6
CONTINUOUS
10
63.9599999999999937
20
-46.0649999999999977
11
63.9599999999999937
21
-32.2650000000000006
0
LINE
8
BLACK
6
CONTINUOUS
10
63.9599999999999937
20
-32.2650000000000006
11
63.9619029999999995
21
-32.2554329999999965
0
LINE
8
BLACK
6
CONTINUOUS
10
63.9619029999999995
20
-32.2554329999999965
11
63.9754329999999953
21
-32.2419030000000006
0
LINE
8
BLACK
6
CONTINUOUS
10
63.9754329999999953
20
-32.2419030000000006
11
63.9849999999999994
21
-32.240000000000002
0
LINE
8
BLACK
6
CONTINUOUS
10
63.9849999999999994
20
-32.240000000000002
11
77.7849999999999966
21
-32.240000000000002
0
LINE
8
BLACK
6
CONTINUOUS
10
77.7849999999999966
20
-32.240000000000002
11
77.7945670000000007
21
-32.2419030000000006
0
LINE
8
BLACK
6
CONTINUOUS
10
64.0099999999999909
20
-32.2899999999999991
11
64.0099999999999909
21
-46.0399999999999991
0
LINE
8
BLACK
6
CONTINUOUS
10
64.0099999999999909
20
-46.0399999999999991
11
77.7599999999999909
21
-46.0399999999999991
0
LINE
8
BLACK
6
CONTINUOUS
10
77.7599999999999909
20
-46.0399999999999991
11
77.7599999999999909
21
-32.2899999999999991
0
LINE
8
BLACK
6
CONTINUOUS
10
77.7599999999999909
20
-32.2899999999999991
11
64.0099999999999909
21
-32.2899999999999991
0
LINE
8
BLACK
6
CONTINUOUS
10
149.7945670000000007
20
-30.7419029999999971
11
149.8080970000000036
21
-30.755433
0
LINE
8
BLACK
6
CONTINUOUS
10
149.8080970000000036
20
-30.755433
11
149.8100000000000023
21
-30.764999999999997
0
LINE
8
BLACK
6
CONTINUOUS
10
149.8100000000000023
20
-30.764999999999997
11
149.8100000000000023
21
-44.5649999999999977
0
LINE
8
BLACK
6
CONTINUOUS
10
149.8100000000000023
20
-44.5649999999999977
11
149.8080970000000036
21
-44.5745669999999947
0
LINE
8
BLACK
6
CONTINUOUS
10
149.8080970000000036
20
-44.5745669999999947
11
149.7945670000000007
21
-44.5880969999999976
0
LINE
8
BLACK
6
CONTINUOUS
10
149.7945670000000007
20
-44.5880969999999976
11
149.7849999999999966
21
-44.5899999999999963
0
LINE
8
BLACK
6
CONTINUOUS
10
149.7849999999999966
20
-44.5899999999999963
11
135.9849999999999852
21
-44.5899999999999963
0
LINE
8
BLACK
6
CONTINUOUS
10
135.9849999999999852
20
-44.5899999999999963
11
135.9754329999999811
21
-44.5880969999999976
0
LINE
8
BLACK
6
CONTINUOUS
10
135.9754329999999811
20
-44.5880969999999976
11
135.9619030000000066
21
-44.5745669999999947
0
LINE
8
BLACK
6
CONTINUOUS
10
135.9619030000000066
20
-44.5745669999999947
11
135.960000000000008
21
-44.5649999999999977
0
LINE
8
BLACK
6
CONTINUOUS
10
135.960000000000008
20
-44.5649999999999977
11
135.960000000000008
21
-30.764999999999997
0
LINE
8
BLACK
6
CONTINUOUS
10
135.960000000000008
20
-30.764999999999997
11
135.9619030000000066
21
-30.755433
0
LINE
8
BLACK
6
CONTINUOUS
10
135.9619030000000066
20
-30.755433
11
135.9754329999999811
21
-30.7419029999999971
0
LINE
8
BLACK
6
CONTINUOUS
10
135.9754329999999811
20
-30.7419029999999971
11
135.9849999999999852
21
-30.7399999999999984
0
LINE
8
BLACK
6
CONTINUOUS
10
135.9849999999999852
20
-30.7399999999999984
11
149.7849999999999966
21
-30.7399999999999984
0
LINE
8
BLACK
6
CONTINUOUS
10
149.7849999999999966
20
-30.7399999999999984
11
149.7945670000000007
21
-30.7419029999999971
0
LINE
8
BLACK
6
CONTINUOUS
10
136.0099999999999909
20
-30.7899999999999991
11
136.0099999999999909
21
-44.5399999999999991
0
LINE
8
BLACK
6
CONTINUOUS
10
136.0099999999999909
20
-44.5399999999999991
11
149.7599999999999909
21
-44.5399999999999991
0
LINE
8
BLACK
6
CONTINUOUS
10
149.7599999999999909
20
-44.5399999999999991
11
149.7599999999999909
21
-30.7899999999999991
0
LINE
8
BLACK
6
CONTINUOUS
10
149.7599999999999909
20
-30.7899999999999991
11
136.0099999999999909
21
-30.7899999999999991
0
LINE
8
BLACK
6
CONTINUOUS
10
95.7945670000000007
20
-29.2419029999999971
11
95.8080969999999894
21
-29.255433
0
LINE
8
BLACK
6
CONTINUOUS
10
95.8080969999999894
20
-29.255433
11
95.8100000000000023
21
-29.264999999999997
0
LINE
8
BLACK
6
CONTINUOUS
10
95.8100000000000023
20
-29.264999999999997
11
95.8100000000000023
21
-43.0649999999999977
0
LINE
8
BLACK
6
CONTINUOUS
10
95.8100000000000023
20
-43.0649999999999977
11
95.8080969999999894
21
-43.0745669999999947
0
LINE
8
BLACK
6
CONTINUOUS
10
95.8080969999999894
20
-43.0745669999999947
11
95.7945670000000007
21
-43.0880969999999976
0
LINE
8
BLACK
6
CONTINUOUS
10
95.7945670000000007
20
-43.0880969999999976
11
95.7849999999999966
21
-43.0899999999999963
0
LINE
8
BLACK
6
CONTINUOUS
10
95.7849999999999966
20
-43.0899999999999963
11
81.9849999999999994
21
-43.0899999999999963
0
LINE
8
BLACK
6
CONTINUOUS
10
81.9849999999999994
20
-43.0899999999999963
11
81.9754329999999953
21
-43.0880969999999976
0
LINE
8
BLACK
6
CONTINUOUS
10
81.9754329999999953
20
-43.0880969999999976
11
81.9619029999999924
21
-43.0745669999999947
0
LINE
8
BLACK
6
CONTINUOUS
10
81.9619029999999924
20
-43.0745669999999947
11
81.9599999999999937
21
-43.0649999999999977
0
LINE
8
BLACK
6
CONTINUOUS
10
81.9599999999999937
20
-43.0649999999999977
11
81.9599999999999937
21
-29.264999999999997
0
LINE
8
BLACK
6
CONTINUOUS
10
81.9599999999999937
20
-29.264999999999997
11
81.9619029999999924
21
-29.255433
0
LINE
8
BLACK
6
CONTINUOUS
10
81.9619029999999924
20
-29.255433
11
81.9754329999999953
21
-29.2419029999999971
0
LINE
8
BLACK
6
CONTINUOUS
10
81.9754329999999953
20
-29.2419029999999971
11
81.9849999999999994
21
-29.2399999999999984
0
LINE
8
BLACK
6
CONTINUOUS
10
81.9849999999999994
20
-29.2399999999999984
11
95.7849999999999966
21
-29.2399999999999984
0
LINE
8
BLACK
6
CONTINUOUS
10
95.7849999999999966
20
-29.2399999999999984
11
95.7945670000000007
21
-29.2419029999999971
0
LINE
8
BLACK
6
CONTINUOUS
10
82.0099999999999909
20
-29.2899999999999991
11
82.0099999999999909
21
-43.0399999999999991
0
LINE
8
BLACK
6
CONTINUOUS
10
82.0099999999999909
20
-43.0399999999999991
11
95.7599999999999909
21
-43.0399999999999991
0
LINE
8
BLACK
6
CONTINUOUS
10
95.7599999999999909
20
-43.0399999999999991
11
95.7599999999999909
21
-29.2899999999999991
0
LINE
8
BLACK
6
CONTINUOUS
10
95.7599999999999909
20
-29.2899999999999991
11
82.0099999999999909
21
-29.2899999999999991
0
LINE
8
BLACK
6
CONTINUOUS
10
131.7945670000000007
20
-29.2419029999999971
11
131.8080970000000036
21
-29.255433
0
LINE
8
BLACK
6
CONTINUOUS
10
131.8080970000000036
20
-29.255433
11
131.8100000000000023
21
-29.264999999999997
0
LINE
8
BLACK
6
CONTINUOUS
10
131.8100000000000023
20
-29.264999999999997
11
131.8100000000000023
21
-43.0649999999999977
0
LINE
8
BLACK
6
CONTINUOUS
10
131.8100000000000023
20
-43.0649999999999977
11
131.8080970000000036
21
-43.0745669999999947
0
LINE
8
BLACK
6
CONTINUOUS
10
131.8080970000000036
20
-43.0745669999999947
11
131.7945670000000007
21
-43.0880969999999976
0
LINE
8
BLACK
6
CONTINUOUS
10
131.7945670000000007
20
-43.0880969999999976
11
131.7849999999999966
21
-43.0899999999999963
0
LINE
8
BLACK
6
CONTINUOUS
10
131.7849999999999966
20
-43.0899999999999963
11
117.9849999999999994
21
-43.0899999999999963
0
LINE
8
BLACK
6
CONTINUOUS
10
117.9849999999999994
20
-43.0899999999999963
11
117.9754329999999953
21
-43.0880969999999976
0
LINE
8
BLACK
6
CONTINUOUS
10
117.9754329999999953
20
-43.0880969999999976
11
117.9619029999999924
21
-43.0745669999999947
0
LINE
8
BLACK
6
CONTINUOUS
10
117.9619029999999924
20
-43.0745669999999947
11
117.9599999999999937
21
-43.0649999999999977
0
LINE
8
BLACK
6
CONTINUOUS
10
117.9599999999999937
20
-43.0649999999999977
11
117.9599999999999937
21
-29.264999999999997
0
LINE
8
BLACK
6
CONTINUOUS
10
117.9599999999999937
20
-29.264999999999997
11
117.9619029999999924
21
-29.255433
0
LINE
8
BLACK
6
CONTINUOUS
10
117.9619029999999924
20
-29.255433
11
117.9754329999999953
21
-29.2419029999999971
0
LINE
8
BLACK
6
CONTINUOUS
10
117.9754329999999953
20
-29.2419029999999971
11
117.9849999999999994
21
-29.2399999999999984
0
LINE
8
BLACK
6
CONTINUOUS
10
117.9849999999999994
20
-29.2399999999999984
11
131.7849999999999966
21
-29.2399999999999984
0
LINE
8
BLACK
6
CONTINUOUS
10
131.7849999999999966
20
-29.2399999999999984
11
131.7945670000000007
21
-29.2419029999999971
0
LINE
8
BLACK
6
CONTINUOUS
10
118.0099999999999909
20
-29.2899999999999991
11
118.0099999999999909
21
-43.0399999999999991
0
LINE
8
BLACK
6
CONTINUOUS
10
118.0099999999999909
20
-43.0399999999999991
11
131.7599999999999909
21
-43.0399999999999991
0
LINE
8
BLACK
6
CONTINUOUS
10
131.7599999999999909
20
-43.0399999999999991
11
131.7599999999999909
21
-29.2899999999999991
0
LINE
8
BLACK
6
CONTINUOUS
10
131.7599999999999909
20
-29.2899999999999991
11
118.0099999999999909
21
-29.2899999999999991
0
LINE
8
BLACK
6
CONTINUOUS
10
113.7945670000000007
20
-26.2419029999999971
11
113.8080969999999894
21
-26.255433
0
LINE
8
BLACK
6
CONTINUOUS
10
113.8080969999999894
20
-26.255433
11
113.8099999999999881
21
-26.2650000000000006
0
LINE
8
BLACK
6
CONTINUOUS
10
113.8099999999999881
20
-26.2650000000000006
11
113.8099999999999881
21
-40.0649999999999977
0
LINE
8
BLACK
6
CONTINUOUS
10
113.8099999999999881
20
-40.0649999999999977
11
113.8080969999999894
21
-40.0745669999999947
0
LINE
8
BLACK
6
CONTINUOUS
10
113.8080969999999894
20
-40.0745669999999947
11
113.7945670000000007
21
-40.0880969999999976
0
LINE
8
BLACK
6
CONTINUOUS
10
113.7945670000000007
20
-40.0880969999999976
11
113.7849999999999966
21
-40.0899999999999963
0
LINE
8
BLACK
6
CONTINUOUS
10
113.7849999999999966
20
-40.0899999999999963
11
99.9849999999999994
21
-40.0899999999999963
0
LINE
8
BLACK
6
CONTINUOUS
10
99.9849999999999994
20
-40.0899999999999963
11
99.9754329999999953
21
-40.0880969999999976
0
LINE
8
BLACK
6
CONTINUOUS
10
99.9754329999999953
20
-40.0880969999999976
11
99.9619029999999924
21
-40.0745669999999947
0
LINE
8
BLACK
6
CONTINUOUS
10
99.9619029999999924
20
-40.0745669999999947
11
99.9599999999999937
21
-40.0649999999999977
0
LINE
8
BLACK
6
CONTINUOUS
10
99.9599999999999937
20
-40.0649999999999977
11
99.9599999999999937
21
-26.2650000000000006
0
LINE
8
BLACK
6
CONTINUOUS
10
99.9599999999999937
20
-26.2650000000000006
11
99.9619029999999924
21
-26.255433
0
LINE
8
BLACK
6
CONTINUOUS
10
99.9619029999999924
20
-26.255433
11
99.9754329999999953
21
-26.2419029999999971
0
LINE
8
BLACK
6
CONTINUOUS
10
99.9754329999999953
20
-26.2419029999999971
11
99.9849999999999994
21
-26.2399999999999984
0
LINE
8
BLACK
6
CONTINUOUS
10
99.9849999999999994
20
-26.2399999999999984
11
113.7849999999999966
21
-26.2399999999999984
0
LINE
8
BLACK
6
CONTINUOUS
10
113.7849999999999966
20
-26.2399999999999984
11
113.7945670000000007
21
-26.2419029999999971
0
LINE
8
BLACK
6
CONTINUOUS
10
100.0099999999999909
20
-26.2899999999999991
11
100.0099999999999909
21
-40.0399999999999991
0
LINE
8
BLACK
6
CONTINUOUS
10
100.0099999999999909
20
-40.0399999999999991
11
113.7599999999999909
21
-40.0399999999999991
0
LINE
8
BLACK
6
CONTINUOUS
10
113.7599999999999909
20
-40.0399999999999991
11
113.7599999999999909
21
-26.2899999999999991
0
LINE
8
BLACK
6
CONTINUOUS
10
113.7599999999999909
20
-26.2899999999999991
11
100.0099999999999909
21
-26.2899999999999991
  0
ENDSEC
  0
EOF
