  0
SECTION
  2
HEADER
  9
$ANGBASE
  50
0.0
  9
$ANGDIR
  70
1
  9
$MEASUREMENT
  70
1
  0
ENDSEC
  0
SECTION
  2
TABLES
  0
TABLE
  2
LTYPE
  70
4
  0
LTYPE
  5
40F
  2
CONTINUOUS
  70
0
  3
Solid line
  72
65
  73
0
  40
0.0
  0
LTYPE
  5
410
  2
DASHDOT
 70
0
  3
Dash Dot ____ _ ____ _
 72
65
 73
4
 40
2.0
 49
1.25
 49
-0.25
 49
0.25
 49
-0.25
  0
LTYPE
  5
411
  2
DASHED
 70
0
  3
Dashed __ __ __ __ __
 72
65
 73
2
 40
0.75
 49
0.5
 49
-0.25
  0
LTYPE
  5
43B
  2
DOTTED
 70
0
  3
Dotted .  .  .  .
 72
65
 73
2
 40
0.2
 49
0.0
 49
-0.2
  0
ENDTAB
  0
TABLE
  2
STYLE
  70
4
  0
STYLE
  2
KICAD
  70
0
  40
0
  41
1
  42
1
  50
0
  71
0
  3
isocp.shx
  0
STYLE
  2
KICADB
  70
0
  40
0
  41
1
  42
1
  50
0
  71
0
  3
isocp.shx
  0
STYLE
  2
KICADI
  70
0
  40
0
  41
1
  42
1
  50
15
  71
0
  3
isocp.shx
  0
STYLE
  2
KICADBI
  70
0
  40
0
  41
1
  42
1
  50
15
  71
0
  3
isocp.shx
  0
ENDTAB
  0
TABLE
  2
LAYER
  70
1
  0
LAYER
  2
BLACK
  70
0
  62
7
  6
CONTINUOUS
  0
ENDTAB
  0
ENDSEC
  0
SECTION
  2
ENTITIES
0
LINE
8
BLACK
6
CONTINUOUS
10
193.3538299999999879
20
-112.2087129999999888
11
193.6412749999999789
21
-112.2857339999999908
0
LINE
8
BLACK
6
CONTINUOUS
10
193.6412749999999789
20
-112.2857339999999908
11
193.9162069999999858
21
-112.3996149999999972
0
LINE
8
BLACK
6
CONTINUOUS
10
193.9162069999999858
20
-112.3996149999999972
11
194.1739220000000046
21
-112.5484069999999974
0
LINE
8
BLACK
6
CONTINUOUS
10
194.1739220000000046
20
-112.5484069999999974
11
194.4100119999999947
21
-112.7295639999999963
0
LINE
8
BLACK
6
CONTINUOUS
10
194.4100119999999947
20
-112.7295639999999963
11
194.6204359999999838
21
-112.9399879999999996
0
LINE
8
BLACK
6
CONTINUOUS
10
194.6204359999999838
20
-112.9399879999999996
11
194.8015929999999969
21
-113.1760779999999897
0
LINE
8
BLACK
6
CONTINUOUS
10
194.8015929999999969
20
-113.1760779999999897
11
194.9503849999999829
21
-113.4337929999999943
0
LINE
8
BLACK
6
CONTINUOUS
10
194.9503849999999829
20
-113.4337929999999943
11
195.0642660000000035
21
-113.7087250000000012
0
LINE
8
BLACK
6
CONTINUOUS
10
195.0642660000000035
20
-113.7087250000000012
11
195.1412869999999771
21
-113.9961699999999922
0
LINE
8
BLACK
6
CONTINUOUS
10
195.1412869999999771
20
-113.9961699999999922
11
195.1801289999999938
21
-114.2912079999999975
0
LINE
8
BLACK
6
CONTINUOUS
10
195.1801289999999938
20
-114.2912079999999975
11
195.1801289999999938
21
-114.588791999999998
0
LINE
8
BLACK
6
CONTINUOUS
10
195.1801289999999938
20
-114.588791999999998
11
195.1412869999999771
21
-114.883829999999989
0
LINE
8
BLACK
6
CONTINUOUS
10
195.1412869999999771
20
-114.883829999999989
11
195.0642660000000035
21
-115.1712749999999943
0
LINE
8
BLACK
6
CONTINUOUS
10
195.0642660000000035
20
-115.1712749999999943
11
194.9503849999999829
21
-115.4462070000000011
0
LINE
8
BLACK
6
CONTINUOUS
10
194.9503849999999829
20
-115.4462070000000011
11
194.8015929999999969
21
-115.7039219999999915
0
LINE
8
BLACK
6
CONTINUOUS
10
194.8015929999999969
20
-115.7039219999999915
11
194.6204359999999838
21
-115.9400119999999959
0
LINE
8
BLACK
6
CONTINUOUS
10
194.6204359999999838
20
-115.9400119999999959
11
194.4100119999999947
21
-116.1504359999999991
0
LINE
8
BLACK
6
CONTINUOUS
10
194.4100119999999947
20
-116.1504359999999991
11
194.1739220000000046
21
-116.331592999999998
0
LINE
8
BLACK
6
CONTINUOUS
10
194.1739220000000046
20
-116.331592999999998
11
193.9162069999999858
21
-116.4803849999999983
0
LINE
8
BLACK
6
CONTINUOUS
10
193.9162069999999858
20
-116.4803849999999983
11
193.6412749999999789
21
-116.5942659999999904
0
LINE
8
BLACK
6
CONTINUOUS
10
193.6412749999999789
20
-116.5942659999999904
11
193.3538299999999879
21
-116.6712869999999924
0
LINE
8
BLACK
6
CONTINUOUS
10
193.3538299999999879
20
-116.6712869999999924
11
193.0587919999999826
21
-116.7101289999999949
0
LINE
8
BLACK
6
CONTINUOUS
10
193.0587919999999826
20
-116.7101289999999949
11
192.7612079999999821
21
-116.7101289999999949
0
LINE
8
BLACK
6
CONTINUOUS
10
192.7612079999999821
20
-116.7101289999999949
11
192.4661700000000053
21
-116.6712869999999924
0
LINE
8
BLACK
6
CONTINUOUS
10
192.4661700000000053
20
-116.6712869999999924
11
192.1787249999999858
21
-116.5942659999999904
0
LINE
8
BLACK
6
CONTINUOUS
10
192.1787249999999858
20
-116.5942659999999904
11
191.903792999999979
21
-116.4803849999999983
0
LINE
8
BLACK
6
CONTINUOUS
10
191.903792999999979
20
-116.4803849999999983
11
191.6460779999999886
21
-116.331592999999998
0
LINE
8
BLACK
6
CONTINUOUS
10
191.6460779999999886
20
-116.331592999999998
11
191.4099879999999985
21
-116.1504359999999991
0
LINE
8
BLACK
6
CONTINUOUS
10
191.4099879999999985
20
-116.1504359999999991
11
191.199563999999981
21
-115.9400119999999959
0
LINE
8
BLACK
6
CONTINUOUS
10
191.199563999999981
20
-115.9400119999999959
11
191.0184069999999963
21
-115.7039219999999915
0
LINE
8
BLACK
6
CONTINUOUS
10
191.0184069999999963
20
-115.7039219999999915
11
190.8696149999999818
21
-115.4462070000000011
0
LINE
8
BLACK
6
CONTINUOUS
10
190.8696149999999818
20
-115.4462070000000011
11
190.7557339999999897
21
-115.1712749999999943
0
LINE
8
BLACK
6
CONTINUOUS
10
190.7557339999999897
20
-115.1712749999999943
11
190.6787129999999877
21
-114.883829999999989
0
LINE
8
BLACK
6
CONTINUOUS
10
190.6787129999999877
20
-114.883829999999989
11
190.6398709999999994
21
-114.588791999999998
0
LINE
8
BLACK
6
CONTINUOUS
10
190.6398709999999994
20
-114.588791999999998
11
190.6398709999999994
21
-114.3007199999999983
0
LINE
8
BLACK
6
CONTINUOUS
10
190.6398709999999994
20
-114.3007199999999983
11
190.6398709999999994
21
-114.2912079999999975
0
LINE
8
BLACK
6
CONTINUOUS
10
190.6398709999999994
20
-114.2912079999999975
11
190.6787129999999877
21
-113.9961699999999922
0
LINE
8
BLACK
6
CONTINUOUS
10
190.6787129999999877
20
-113.9961699999999922
11
190.7557339999999897
21
-113.7087250000000012
0
LINE
8
BLACK
6
CONTINUOUS
10
190.7557339999999897
20
-113.7087250000000012
11
190.8696149999999818
21
-113.4337929999999943
0
LINE
8
BLACK
6
CONTINUOUS
10
190.8696149999999818
20
-113.4337929999999943
11
191.0184069999999963
21
-113.1760779999999897
0
LINE
8
BLACK
6
CONTINUOUS
10
191.0184069999999963
20
-113.1760779999999897
11
191.199563999999981
21
-112.9399879999999996
0
LINE
8
BLACK
6
CONTINUOUS
10
191.199563999999981
20
-112.9399879999999996
11
191.4099879999999985
21
-112.7295639999999963
0
LINE
8
BLACK
6
CONTINUOUS
10
191.4099879999999985
20
-112.7295639999999963
11
191.6460779999999886
21
-112.5484069999999974
0
LINE
8
BLACK
6
CONTINUOUS
10
191.6460779999999886
20
-112.5484069999999974
11
191.903792999999979
21
-112.3996149999999972
0
LINE
8
BLACK
6
CONTINUOUS
10
191.903792999999979
20
-112.3996149999999972
11
192.1787249999999858
21
-112.2857339999999908
0
LINE
8
BLACK
6
CONTINUOUS
10
192.1787249999999858
20
-112.2857339999999908
11
192.4661700000000053
21
-112.2087129999999888
0
LINE
8
BLACK
6
CONTINUOUS
10
192.4661700000000053
20
-112.2087129999999888
11
192.7612079999999821
21
-112.1698710000000005
0
LINE
8
BLACK
6
CONTINUOUS
10
192.7612079999999821
20
-112.1698710000000005
11
193.0587919999999826
21
-112.1698710000000005
0
LINE
8
BLACK
6
CONTINUOUS
10
193.0587919999999826
20
-112.1698710000000005
11
193.3538299999999879
21
-112.2087129999999888
0
LINE
8
BLACK
6
CONTINUOUS
10
190.7849999999999966
20
-114.5792799999999971
11
190.8213590000000011
21
-114.8554570000000012
0
LINE
8
BLACK
6
CONTINUOUS
10
190.8213590000000011
20
-114.8554570000000012
11
190.8934549999999888
21
-115.1245249999999913
0
LINE
8
BLACK
6
CONTINUOUS
10
190.8934549999999888
20
-115.1245249999999913
11
191.0000560000000007
21
-115.3818799999999953
0
LINE
8
BLACK
6
CONTINUOUS
10
191.0000560000000007
20
-115.3818799999999953
11
191.1393359999999859
21
-115.6231200000000001
0
LINE
8
BLACK
6
CONTINUOUS
10
191.1393359999999859
20
-115.6231200000000001
11
191.3089119999999923
21
-115.8441159999999996
0
LINE
8
BLACK
6
CONTINUOUS
10
191.3089119999999923
20
-115.8441159999999996
11
191.5058839999999805
21
-116.0410879999999878
0
LINE
8
BLACK
6
CONTINUOUS
10
191.5058839999999805
20
-116.0410879999999878
11
191.7268799999999942
21
-116.2106639999999942
0
LINE
8
BLACK
6
CONTINUOUS
10
191.7268799999999942
20
-116.2106639999999942
11
191.968119999999999
21
-116.3499439999999936
0
LINE
8
BLACK
6
CONTINUOUS
10
191.968119999999999
20
-116.3499439999999936
11
192.2254749999999888
21
-116.4565449999999913
0
LINE
8
BLACK
6
CONTINUOUS
10
192.2254749999999888
20
-116.4565449999999913
11
192.4945429999999931
21
-116.5286409999999933
0
LINE
8
BLACK
6
CONTINUOUS
10
192.4945429999999931
20
-116.5286409999999933
11
192.770719999999983
21
-116.5649999999999977
0
LINE
8
BLACK
6
CONTINUOUS
10
192.770719999999983
20
-116.5649999999999977
11
193.0492799999999818
21
-116.5649999999999977
0
LINE
8
BLACK
6
CONTINUOUS
10
193.0492799999999818
20
-116.5649999999999977
11
193.3254570000000001
21
-116.5286409999999933
0
LINE
8
BLACK
6
CONTINUOUS
10
193.3254570000000001
20
-116.5286409999999933
11
193.5945250000000044
21
-116.4565449999999913
0
LINE
8
BLACK
6
CONTINUOUS
10
193.5945250000000044
20
-116.4565449999999913
11
193.8518799999999942
21
-116.3499439999999936
0
LINE
8
BLACK
6
CONTINUOUS
10
193.8518799999999942
20
-116.3499439999999936
11
194.093119999999999
21
-116.2106639999999942
0
LINE
8
BLACK
6
CONTINUOUS
10
194.093119999999999
20
-116.2106639999999942
11
194.3141159999999843
21
-116.0410879999999878
0
LINE
8
BLACK
6
CONTINUOUS
10
194.3141159999999843
20
-116.0410879999999878
11
194.5110880000000009
21
-115.8441159999999996
0
LINE
8
BLACK
6
CONTINUOUS
10
194.5110880000000009
20
-115.8441159999999996
11
194.6806639999999788
21
-115.6231200000000001
0
LINE
8
BLACK
6
CONTINUOUS
10
194.6806639999999788
20
-115.6231200000000001
11
194.8199439999999925
21
-115.3818799999999953
0
LINE
8
BLACK
6
CONTINUOUS
10
194.8199439999999925
20
-115.3818799999999953
11
194.9265450000000044
21
-115.1245249999999913
0
LINE
8
BLACK
6
CONTINUOUS
10
194.9265450000000044
20
-115.1245249999999913
11
194.9986409999999921
21
-114.8554570000000012
0
LINE
8
BLACK
6
CONTINUOUS
10
194.9986409999999921
20
-114.8554570000000012
11
195.0349999999999966
21
-114.5792799999999971
0
LINE
8
BLACK
6
CONTINUOUS
10
195.0349999999999966
20
-114.5792799999999971
11
195.0349999999999966
21
-114.3007199999999983
0
LINE
8
BLACK
6
CONTINUOUS
10
195.0349999999999966
20
-114.3007199999999983
11
194.9986409999999921
21
-114.0245429999999942
0
LINE
8
BLACK
6
CONTINUOUS
10
194.9986409999999921
20
-114.0245429999999942
11
194.9265450000000044
21
-113.7554749999999899
0
LINE
8
BLACK
6
CONTINUOUS
10
194.9265450000000044
20
-113.7554749999999899
11
194.8199439999999925
21
-113.4981200000000001
0
LINE
8
BLACK
6
CONTINUOUS
10
194.8199439999999925
20
-113.4981200000000001
11
194.6806639999999788
21
-113.2568799999999953
0
LINE
8
BLACK
6
CONTINUOUS
10
194.6806639999999788
20
-113.2568799999999953
11
194.5110880000000009
21
-113.0358839999999958
0
LINE
8
BLACK
6
CONTINUOUS
10
194.5110880000000009
20
-113.0358839999999958
11
194.3141159999999843
21
-112.8389119999999934
0
LINE
8
BLACK
6
CONTINUOUS
10
194.3141159999999843
20
-112.8389119999999934
11
194.093119999999999
21
-112.6693360000000013
0
LINE
8
BLACK
6
CONTINUOUS
10
194.093119999999999
20
-112.6693360000000013
11
193.8518799999999942
21
-112.5300560000000019
0
LINE
8
BLACK
6
CONTINUOUS
10
193.8518799999999942
20
-112.5300560000000019
11
193.5945250000000044
21
-112.4234549999999899
0
LINE
8
BLACK
6
CONTINUOUS
10
193.5945250000000044
20
-112.4234549999999899
11
193.3254570000000001
21
-112.351358999999988
0
LINE
8
BLACK
6
CONTINUOUS
10
193.3254570000000001
20
-112.351358999999988
11
193.0492799999999818
21
-112.3149999999999977
0
LINE
8
BLACK
6
CONTINUOUS
10
193.0492799999999818
20
-112.3149999999999977
11
192.770719999999983
21
-112.3149999999999977
0
LINE
8
BLACK
6
CONTINUOUS
10
192.770719999999983
20
-112.3149999999999977
11
192.4945429999999931
21
-112.351358999999988
0
LINE
8
BLACK
6
CONTINUOUS
10
192.4945429999999931
20
-112.351358999999988
11
192.2254749999999888
21
-112.4234549999999899
0
LINE
8
BLACK
6
CONTINUOUS
10
192.2254749999999888
20
-112.4234549999999899
11
191.968119999999999
21
-112.5300560000000019
0
LINE
8
BLACK
6
CONTINUOUS
10
191.968119999999999
20
-112.5300560000000019
11
191.7268799999999942
21
-112.6693360000000013
0
LINE
8
BLACK
6
CONTINUOUS
10
191.7268799999999942
20
-112.6693360000000013
11
191.5058839999999805
21
-112.8389119999999934
0
LINE
8
BLACK
6
CONTINUOUS
10
191.5058839999999805
20
-112.8389119999999934
11
191.3089119999999923
21
-113.0358839999999958
0
LINE
8
BLACK
6
CONTINUOUS
10
191.3089119999999923
20
-113.0358839999999958
11
191.1393359999999859
21
-113.2568799999999953
0
LINE
8
BLACK
6
CONTINUOUS
10
191.1393359999999859
20
-113.2568799999999953
11
191.0000560000000007
21
-113.4981200000000001
0
LINE
8
BLACK
6
CONTINUOUS
10
191.0000560000000007
20
-113.4981200000000001
11
190.8934549999999888
21
-113.7554749999999899
0
LINE
8
BLACK
6
CONTINUOUS
10
190.8934549999999888
20
-113.7554749999999899
11
190.8213590000000011
21
-114.0245429999999942
0
LINE
8
BLACK
6
CONTINUOUS
10
190.8213590000000011
20
-114.0245429999999942
11
190.7849999999999966
21
-114.3007199999999983
0
LINE
8
BLACK
6
CONTINUOUS
10
190.7849999999999966
20
-114.3007199999999983
11
190.7849999999999966
21
-114.5792799999999971
0
LINE
8
BLACK
6
CONTINUOUS
10
193.3245780000000025
20
-111.999968999999993
11
193.595168000000001
21
-112.0617299999999972
0
LINE
8
BLACK
6
CONTINUOUS
10
193.595168000000001
20
-112.0617299999999972
11
193.8571409999999844
21
-112.1533979999999957
0
LINE
8
BLACK
6
CONTINUOUS
10
193.8571409999999844
20
-112.1533979999999957
11
194.1072039999999959
21
-112.2738219999999956
0
LINE
8
BLACK
6
CONTINUOUS
10
194.1072039999999959
20
-112.2738219999999956
11
194.3422109999999918
21
-112.4214869999999991
0
LINE
8
BLACK
6
CONTINUOUS
10
194.3422109999999918
20
-112.4214869999999991
11
194.5592079999999839
21
-112.5945359999999908
0
LINE
8
BLACK
6
CONTINUOUS
10
194.5592079999999839
20
-112.5945359999999908
11
194.7554639999999893
21
-112.7907919999999962
0
LINE
8
BLACK
6
CONTINUOUS
10
194.7554639999999893
20
-112.7907919999999962
11
194.928512999999981
21
-113.0077889999999883
0
LINE
8
BLACK
6
CONTINUOUS
10
194.928512999999981
20
-113.0077889999999883
11
195.0761779999999987
21
-113.2427959999999985
0
LINE
8
BLACK
6
CONTINUOUS
10
195.0761779999999987
20
-113.2427959999999985
11
195.1966019999999844
21
-113.4928589999999957
0
LINE
8
BLACK
6
CONTINUOUS
10
195.1966019999999844
20
-113.4928589999999957
11
195.2882699999999829
21
-113.7548319999999933
0
LINE
8
BLACK
6
CONTINUOUS
10
195.2882699999999829
20
-113.7548319999999933
11
195.3500310000000013
21
-114.0254219999999918
0
LINE
8
BLACK
6
CONTINUOUS
10
195.3500310000000013
20
-114.0254219999999918
11
195.3811059999999884
21
-114.3012259999999998
0
LINE
8
BLACK
6
CONTINUOUS
10
195.3811059999999884
20
-114.3012259999999998
11
195.3811059999999884
21
-114.5787739999999957
0
LINE
8
BLACK
6
CONTINUOUS
10
195.3811059999999884
20
-114.5787739999999957
11
195.3500310000000013
21
-114.8545779999999894
0
LINE
8
BLACK
6
CONTINUOUS
10
195.3500310000000013
20
-114.8545779999999894
11
195.2882699999999829
21
-115.125167999999988
0
LINE
8
BLACK
6
CONTINUOUS
10
195.2882699999999829
20
-115.125167999999988
11
195.1966019999999844
21
-115.3871409999999997
0
LINE
8
BLACK
6
CONTINUOUS
10
195.1966019999999844
20
-115.3871409999999997
11
195.0761779999999987
21
-115.637203999999997
0
LINE
8
BLACK
6
CONTINUOUS
10
195.0761779999999987
20
-115.637203999999997
11
194.928512999999981
21
-115.872210999999993
0
LINE
8
BLACK
6
CONTINUOUS
10
194.928512999999981
20
-115.872210999999993
11
194.7554639999999893
21
-116.0892079999999993
0
LINE
8
BLACK
6
CONTINUOUS
10
194.7554639999999893
20
-116.0892079999999993
11
194.5592079999999839
21
-116.2854639999999904
0
LINE
8
BLACK
6
CONTINUOUS
10
194.5592079999999839
20
-116.2854639999999904
11
194.3422109999999918
21
-116.4585129999999964
0
LINE
8
BLACK
6
CONTINUOUS
10
194.3422109999999918
20
-116.4585129999999964
11
194.1072039999999959
21
-116.6061779999999999
0
LINE
8
BLACK
6
CONTINUOUS
10
194.1072039999999959
20
-116.6061779999999999
11
193.8571409999999844
21
-116.7266019999999997
0
LINE
8
BLACK
6
CONTINUOUS
10
193.8571409999999844
20
-116.7266019999999997
11
193.595168000000001
21
-116.8182699999999983
0
LINE
8
BLACK
6
CONTINUOUS
10
193.595168000000001
20
-116.8182699999999983
11
193.3245780000000025
21
-116.8800309999999882
0
LINE
8
BLACK
6
CONTINUOUS
10
193.3245780000000025
20
-116.8800309999999882
11
193.0487739999999803
21
-116.9111059999999895
0
LINE
8
BLACK
6
CONTINUOUS
10
193.0487739999999803
20
-116.9111059999999895
11
192.7712259999999844
21
-116.9111059999999895
0
LINE
8
BLACK
6
CONTINUOUS
10
192.7712259999999844
20
-116.9111059999999895
11
192.4954219999999907
21
-116.8800309999999882
0
LINE
8
BLACK
6
CONTINUOUS
10
192.4954219999999907
20
-116.8800309999999882
11
192.2248319999999921
21
-116.8182699999999983
0
LINE
8
BLACK
6
CONTINUOUS
10
192.2248319999999921
20
-116.8182699999999983
11
191.9628589999999804
21
-116.7266019999999997
0
LINE
8
BLACK
6
CONTINUOUS
10
191.9628589999999804
20
-116.7266019999999997
11
191.7127959999999973
21
-116.6061779999999999
0
LINE
8
BLACK
6
CONTINUOUS
10
191.7127959999999973
20
-116.6061779999999999
11
191.4777890000000014
21
-116.4585129999999964
0
LINE
8
BLACK
6
CONTINUOUS
10
191.4777890000000014
20
-116.4585129999999964
11
191.2607919999999808
21
-116.2854639999999904
0
LINE
8
BLACK
6
CONTINUOUS
10
191.2607919999999808
20
-116.2854639999999904
11
191.0645360000000039
21
-116.0892079999999993
0
LINE
8
BLACK
6
CONTINUOUS
10
191.0645360000000039
20
-116.0892079999999993
11
190.8914869999999837
21
-115.872210999999993
0
LINE
8
BLACK
6
CONTINUOUS
10
190.8914869999999837
20
-115.872210999999993
11
190.7438219999999944
21
-115.637203999999997
0
LINE
8
BLACK
6
CONTINUOUS
10
190.7438219999999944
20
-115.637203999999997
11
190.6233979999999804
21
-115.3871409999999997
0
LINE
8
BLACK
6
CONTINUOUS
10
190.6233979999999804
20
-115.3871409999999997
11
190.5317299999999818
21
-115.125167999999988
0
LINE
8
BLACK
6
CONTINUOUS
10
190.5317299999999818
20
-115.125167999999988
11
190.4699689999999919
21
-114.8545779999999894
0
LINE
8
BLACK
6
CONTINUOUS
10
190.4699689999999919
20
-114.8545779999999894
11
190.4388940000000048
21
-114.5787739999999957
0
LINE
8
BLACK
6
CONTINUOUS
10
190.4388940000000048
20
-114.5787739999999957
11
190.4388940000000048
21
-114.3038150000000002
0
LINE
8
BLACK
6
CONTINUOUS
10
190.4388940000000048
20
-114.3038150000000002
11
190.4388940000000048
21
-114.3012259999999998
0
LINE
8
BLACK
6
CONTINUOUS
10
190.4388940000000048
20
-114.3012259999999998
11
190.4699689999999919
21
-114.0254219999999918
0
LINE
8
BLACK
6
CONTINUOUS
10
190.4699689999999919
20
-114.0254219999999918
11
190.5317299999999818
21
-113.7548319999999933
0
LINE
8
BLACK
6
CONTINUOUS
10
190.5317299999999818
20
-113.7548319999999933
11
190.6233979999999804
21
-113.4928589999999957
0
LINE
8
BLACK
6
CONTINUOUS
10
190.6233979999999804
20
-113.4928589999999957
11
190.7438219999999944
21
-113.2427959999999985
0
LINE
8
BLACK
6
CONTINUOUS
10
190.7438219999999944
20
-113.2427959999999985
11
190.8914869999999837
21
-113.0077889999999883
0
LINE
8
BLACK
6
CONTINUOUS
10
190.8914869999999837
20
-113.0077889999999883
11
191.0645360000000039
21
-112.7907919999999962
0
LINE
8
BLACK
6
CONTINUOUS
10
191.0645360000000039
20
-112.7907919999999962
11
191.2607919999999808
21
-112.5945359999999908
0
LINE
8
BLACK
6
CONTINUOUS
10
191.2607919999999808
20
-112.5945359999999908
11
191.4777890000000014
21
-112.4214869999999991
0
LINE
8
BLACK
6
CONTINUOUS
10
191.4777890000000014
20
-112.4214869999999991
11
191.7127959999999973
21
-112.2738219999999956
0
LINE
8
BLACK
6
CONTINUOUS
10
191.7127959999999973
20
-112.2738219999999956
11
191.9628589999999804
21
-112.1533979999999957
0
LINE
8
BLACK
6
CONTINUOUS
10
191.9628589999999804
20
-112.1533979999999957
11
192.2248319999999921
21
-112.0617299999999972
0
LINE
8
BLACK
6
CONTINUOUS
10
192.2248319999999921
20
-112.0617299999999972
11
192.4954219999999907
21
-111.999968999999993
0
LINE
8
BLACK
6
CONTINUOUS
10
192.4954219999999907
20
-111.999968999999993
11
192.7712259999999844
21
-111.9688939999999917
0
LINE
8
BLACK
6
CONTINUOUS
10
192.7712259999999844
20
-111.9688939999999917
11
193.0487739999999803
21
-111.9688939999999917
0
LINE
8
BLACK
6
CONTINUOUS
10
193.0487739999999803
20
-111.9688939999999917
11
193.3245780000000025
21
-111.999968999999993
0
LINE
8
BLACK
6
CONTINUOUS
10
190.4849999999999852
20
-114.5761849999999953
11
190.5154959999999846
21
-114.8468429999999927
0
LINE
8
BLACK
6
CONTINUOUS
10
190.5154959999999846
20
-114.8468429999999927
11
190.5761039999999866
21
-115.1123839999999916
0
LINE
8
BLACK
6
CONTINUOUS
10
190.5761039999999866
20
-115.1123839999999916
11
190.6660619999999824
21
-115.3694699999999926
0
LINE
8
BLACK
6
CONTINUOUS
10
190.6660619999999824
20
-115.3694699999999926
11
190.7842389999999853
21
-115.6148669999999896
0
LINE
8
BLACK
6
CONTINUOUS
10
190.7842389999999853
20
-115.6148669999999896
11
190.9291489999999953
21
-115.8454890000000006
0
LINE
8
BLACK
6
CONTINUOUS
10
190.9291489999999953
20
-115.8454890000000006
11
191.0989689999999825
21
-116.0584369999999979
0
LINE
8
BLACK
6
CONTINUOUS
10
191.0989689999999825
20
-116.0584369999999979
11
191.2915629999999965
21
-116.2510309999999976
0
LINE
8
BLACK
6
CONTINUOUS
10
191.2915629999999965
20
-116.2510309999999976
11
191.5045109999999795
21
-116.420850999999999
0
LINE
8
BLACK
6
CONTINUOUS
10
191.5045109999999795
20
-116.420850999999999
11
191.7351329999999905
21
-116.5657609999999949
0
LINE
8
BLACK
6
CONTINUOUS
10
191.7351329999999905
20
-116.5657609999999949
11
191.9805299999999875
21
-116.6839379999999977
0
LINE
8
BLACK
6
CONTINUOUS
10
191.9805299999999875
20
-116.6839379999999977
11
192.2376160000000027
21
-116.7738959999999935
0
LINE
8
BLACK
6
CONTINUOUS
10
192.2376160000000027
20
-116.7738959999999935
11
192.5031569999999874
21
-116.8345039999999955
0
LINE
8
BLACK
6
CONTINUOUS
10
192.5031569999999874
20
-116.8345039999999955
11
192.7738149999999848
21
-116.8649999999999949
0
LINE
8
BLACK
6
CONTINUOUS
10
192.7738149999999848
20
-116.8649999999999949
11
193.0461849999999799
21
-116.8649999999999949
0
LINE
8
BLACK
6
CONTINUOUS
10
193.0461849999999799
20
-116.8649999999999949
11
193.3168429999999773
21
-116.8345039999999955
0
LINE
8
BLACK
6
CONTINUOUS
10
193.3168429999999773
20
-116.8345039999999955
11
193.5823839999999905
21
-116.7738959999999935
0
LINE
8
BLACK
6
CONTINUOUS
10
193.5823839999999905
20
-116.7738959999999935
11
193.8394699999999773
21
-116.6839379999999977
0
LINE
8
BLACK
6
CONTINUOUS
10
193.8394699999999773
20
-116.6839379999999977
11
194.0848670000000027
21
-116.5657609999999949
0
LINE
8
BLACK
6
CONTINUOUS
10
194.0848670000000027
20
-116.5657609999999949
11
194.3154889999999853
21
-116.420850999999999
0
LINE
8
BLACK
6
CONTINUOUS
10
194.3154889999999853
20
-116.420850999999999
11
194.5284369999999967
21
-116.2510309999999976
0
LINE
8
BLACK
6
CONTINUOUS
10
194.5284369999999967
20
-116.2510309999999976
11
194.7210309999999822
21
-116.0584369999999979
0
LINE
8
BLACK
6
CONTINUOUS
10
194.7210309999999822
20
-116.0584369999999979
11
194.8908509999999978
21
-115.8454890000000006
0
LINE
8
BLACK
6
CONTINUOUS
10
194.8908509999999978
20
-115.8454890000000006
11
195.0357609999999795
21
-115.6148669999999896
0
LINE
8
BLACK
6
CONTINUOUS
10
195.0357609999999795
20
-115.6148669999999896
11
195.1539379999999824
21
-115.3694699999999926
0
LINE
8
BLACK
6
CONTINUOUS
10
195.1539379999999824
20
-115.3694699999999926
11
195.2438959999999781
21
-115.1123839999999916
0
LINE
8
BLACK
6
CONTINUOUS
10
195.2438959999999781
20
-115.1123839999999916
11
195.3045039999999801
21
-114.8468429999999927
0
LINE
8
BLACK
6
CONTINUOUS
10
195.3045039999999801
20
-114.8468429999999927
11
195.3349999999999795
21
-114.5761849999999953
0
LINE
8
BLACK
6
CONTINUOUS
10
195.3349999999999795
20
-114.5761849999999953
11
195.3349999999999795
21
-114.3038150000000002
0
LINE
8
BLACK
6
CONTINUOUS
10
195.3349999999999795
20
-114.3038150000000002
11
195.3045039999999801
21
-114.0331569999999886
0
LINE
8
BLACK
6
CONTINUOUS
10
195.3045039999999801
20
-114.0331569999999886
11
195.2438959999999781
21
-113.7676159999999896
0
LINE
8
BLACK
6
CONTINUOUS
10
195.2438959999999781
20
-113.7676159999999896
11
195.1539379999999824
21
-113.5105299999999886
0
LINE
8
BLACK
6
CONTINUOUS
10
195.1539379999999824
20
-113.5105299999999886
11
195.0357609999999795
21
-113.2651329999999916
0
LINE
8
BLACK
6
CONTINUOUS
10
195.0357609999999795
20
-113.2651329999999916
11
194.8908509999999978
21
-113.0345109999999949
0
LINE
8
BLACK
6
CONTINUOUS
10
194.8908509999999978
20
-113.0345109999999949
11
194.7210309999999822
21
-112.8215629999999976
0
LINE
8
BLACK
6
CONTINUOUS
10
194.7210309999999822
20
-112.8215629999999976
11
194.5284369999999967
21
-112.6289689999999979
0
LINE
8
BLACK
6
CONTINUOUS
10
194.5284369999999967
20
-112.6289689999999979
11
194.3154889999999853
21
-112.4591489999999965
0
LINE
8
BLACK
6
CONTINUOUS
10
194.3154889999999853
20
-112.4591489999999965
11
194.0848670000000027
21
-112.3142390000000006
0
LINE
8
BLACK
6
CONTINUOUS
10
194.0848670000000027
20
-112.3142390000000006
11
193.8394699999999773
21
-112.1960619999999977
0
LINE
8
BLACK
6
CONTINUOUS
10
193.8394699999999773
20
-112.1960619999999977
11
193.5823839999999905
21
-112.106104000000002
0
LINE
8
BLACK
6
CONTINUOUS
10
193.5823839999999905
20
-112.106104000000002
11
193.3168429999999773
21
-112.045496
0
LINE
8
BLACK
6
CONTINUOUS
10
193.3168429999999773
20
-112.045496
11
193.0461849999999799
21
-112.0150000000000006
0
LINE
8
BLACK
6
CONTINUOUS
10
193.0461849999999799
20
-112.0150000000000006
11
192.7738149999999848
21
-112.0150000000000006
0
LINE
8
BLACK
6
CONTINUOUS
10
192.7738149999999848
20
-112.0150000000000006
11
192.5031569999999874
21
-112.045496
0
LINE
8
BLACK
6
CONTINUOUS
10
192.5031569999999874
20
-112.045496
11
192.2376160000000027
21
-112.106104000000002
0
LINE
8
BLACK
6
CONTINUOUS
10
192.2376160000000027
20
-112.106104000000002
11
191.9805299999999875
21
-112.1960619999999977
0
LINE
8
BLACK
6
CONTINUOUS
10
191.9805299999999875
20
-112.1960619999999977
11
191.7351329999999905
21
-112.3142390000000006
0
LINE
8
BLACK
6
CONTINUOUS
10
191.7351329999999905
20
-112.3142390000000006
11
191.5045109999999795
21
-112.4591489999999965
0
LINE
8
BLACK
6
CONTINUOUS
10
191.5045109999999795
20
-112.4591489999999965
11
191.2915629999999965
21
-112.6289689999999979
0
LINE
8
BLACK
6
CONTINUOUS
10
191.2915629999999965
20
-112.6289689999999979
11
191.0989689999999825
21
-112.8215629999999976
0
LINE
8
BLACK
6
CONTINUOUS
10
191.0989689999999825
20
-112.8215629999999976
11
190.9291489999999953
21
-113.0345109999999949
0
LINE
8
BLACK
6
CONTINUOUS
10
190.9291489999999953
20
-113.0345109999999949
11
190.7842389999999853
21
-113.2651329999999916
0
LINE
8
BLACK
6
CONTINUOUS
10
190.7842389999999853
20
-113.2651329999999916
11
190.6660619999999824
21
-113.5105299999999886
0
LINE
8
BLACK
6
CONTINUOUS
10
190.6660619999999824
20
-113.5105299999999886
11
190.5761039999999866
21
-113.7676159999999896
0
LINE
8
BLACK
6
CONTINUOUS
10
190.5761039999999866
20
-113.7676159999999896
11
190.5154959999999846
21
-114.0331569999999886
0
LINE
8
BLACK
6
CONTINUOUS
10
190.5154959999999846
20
-114.0331569999999886
11
190.4849999999999852
21
-114.3038150000000002
0
LINE
8
BLACK
6
CONTINUOUS
10
190.4849999999999852
20
-114.3038150000000002
11
190.4849999999999852
21
-114.5761849999999953
0
LINE
8
BLACK
6
CONTINUOUS
10
105.343829999999997
20
-110.6537129999999962
11
105.6312750000000023
21
-110.7307339999999982
0
LINE
8
BLACK
6
CONTINUOUS
10
105.6312750000000023
20
-110.7307339999999982
11
105.9062069999999949
21
-110.8446149999999903
0
LINE
8
BLACK
6
CONTINUOUS
10
105.9062069999999949
20
-110.8446149999999903
11
106.1639219999999995
21
-110.9934069999999906
0
LINE
8
BLACK
6
CONTINUOUS
10
106.1639219999999995
20
-110.9934069999999906
11
106.4000119999999896
21
-111.1745639999999895
0
LINE
8
BLACK
6
CONTINUOUS
10
106.4000119999999896
20
-111.1745639999999895
11
106.6104359999999929
21
-111.3849879999999928
0
LINE
8
BLACK
6
CONTINUOUS
10
106.6104359999999929
20
-111.3849879999999928
11
106.7915929999999918
21
-111.6210779999999971
0
LINE
8
BLACK
6
CONTINUOUS
10
106.7915929999999918
20
-111.6210779999999971
11
106.940384999999992
21
-111.8787930000000017
0
LINE
8
BLACK
6
CONTINUOUS
10
106.940384999999992
20
-111.8787930000000017
11
107.0542659999999984
21
-112.1537249999999943
0
LINE
8
BLACK
6
CONTINUOUS
10
107.0542659999999984
20
-112.1537249999999943
11
107.1312870000000004
21
-112.4411699999999996
0
LINE
8
BLACK
6
CONTINUOUS
10
107.1312870000000004
20
-112.4411699999999996
11
107.1701289999999887
21
-112.7362079999999906
0
LINE
8
BLACK
6
CONTINUOUS
10
107.1701289999999887
20
-112.7362079999999906
11
107.1701289999999887
21
-113.0337919999999912
0
LINE
8
BLACK
6
CONTINUOUS
10
107.1701289999999887
20
-113.0337919999999912
11
107.1312870000000004
21
-113.3288299999999964
0
LINE
8
BLACK
6
CONTINUOUS
10
107.1312870000000004
20
-113.3288299999999964
11
107.0542659999999984
21
-113.6162750000000017
0
LINE
8
BLACK
6
CONTINUOUS
10
107.0542659999999984
20
-113.6162750000000017
11
106.940384999999992
21
-113.8912069999999943
0
LINE
8
BLACK
6
CONTINUOUS
10
106.940384999999992
20
-113.8912069999999943
11
106.7915929999999918
21
-114.1489219999999989
0
LINE
8
BLACK
6
CONTINUOUS
10
106.7915929999999918
20
-114.1489219999999989
11
106.6104359999999929
21
-114.385011999999989
0
LINE
8
BLACK
6
CONTINUOUS
10
106.6104359999999929
20
-114.385011999999989
11
106.4000119999999896
21
-114.5954359999999923
0
LINE
8
BLACK
6
CONTINUOUS
10
106.4000119999999896
20
-114.5954359999999923
11
106.1639219999999995
21
-114.7765929999999912
0
LINE
8
BLACK
6
CONTINUOUS
10
106.1639219999999995
20
-114.7765929999999912
11
105.9062069999999949
21
-114.9253849999999915
0
LINE
8
BLACK
6
CONTINUOUS
10
105.9062069999999949
20
-114.9253849999999915
11
105.6312750000000023
21
-115.0392659999999978
0
LINE
8
BLACK
6
CONTINUOUS
10
105.6312750000000023
20
-115.0392659999999978
11
105.343829999999997
21
-115.1162869999999998
0
LINE
8
BLACK
6
CONTINUOUS
10
105.343829999999997
20
-115.1162869999999998
11
105.0487919999999917
21
-115.1551289999999881
0
LINE
8
BLACK
6
CONTINUOUS
10
105.0487919999999917
20
-115.1551289999999881
11
104.7512079999999912
21
-115.1551289999999881
0
LINE
8
BLACK
6
CONTINUOUS
10
104.7512079999999912
20
-115.1551289999999881
11
104.4561700000000002
21
-115.1162869999999998
0
LINE
8
BLACK
6
CONTINUOUS
10
104.4561700000000002
20
-115.1162869999999998
11
104.1687249999999949
21
-115.0392659999999978
0
LINE
8
BLACK
6
CONTINUOUS
10
104.1687249999999949
20
-115.0392659999999978
11
103.8937930000000023
21
-114.9253849999999915
0
LINE
8
BLACK
6
CONTINUOUS
10
103.8937930000000023
20
-114.9253849999999915
11
103.6360779999999977
21
-114.7765929999999912
0
LINE
8
BLACK
6
CONTINUOUS
10
103.6360779999999977
20
-114.7765929999999912
11
103.3999879999999933
21
-114.5954359999999923
0
LINE
8
BLACK
6
CONTINUOUS
10
103.3999879999999933
20
-114.5954359999999923
11
103.1895639999999901
21
-114.385011999999989
0
LINE
8
BLACK
6
CONTINUOUS
10
103.1895639999999901
20
-114.385011999999989
11
103.0084069999999912
21
-114.1489219999999989
0
LINE
8
BLACK
6
CONTINUOUS
10
103.0084069999999912
20
-114.1489219999999989
11
102.8596149999999909
21
-113.8912069999999943
0
LINE
8
BLACK
6
CONTINUOUS
10
102.8596149999999909
20
-113.8912069999999943
11
102.7457339999999988
21
-113.6162750000000017
0
LINE
8
BLACK
6
CONTINUOUS
10
102.7457339999999988
20
-113.6162750000000017
11
102.6687129999999968
21
-113.3288299999999964
0
LINE
8
BLACK
6
CONTINUOUS
10
102.6687129999999968
20
-113.3288299999999964
11
102.6298709999999943
21
-113.0337919999999912
0
LINE
8
BLACK
6
CONTINUOUS
10
102.6298709999999943
20
-113.0337919999999912
11
102.6298709999999943
21
-112.7457199999999915
0
LINE
8
BLACK
6
CONTINUOUS
10
102.6298709999999943
20
-112.7457199999999915
11
102.6298709999999943
21
-112.7362079999999906
0
LINE
8
BLACK
6
CONTINUOUS
10
102.6298709999999943
20
-112.7362079999999906
11
102.6687129999999968
21
-112.4411699999999996
0
LINE
8
BLACK
6
CONTINUOUS
10
102.6687129999999968
20
-112.4411699999999996
11
102.7457339999999988
21
-112.1537249999999943
0
LINE
8
BLACK
6
CONTINUOUS
10
102.7457339999999988
20
-112.1537249999999943
11
102.8596149999999909
21
-111.8787930000000017
0
LINE
8
BLACK
6
CONTINUOUS
10
102.8596149999999909
20
-111.8787930000000017
11
103.0084069999999912
21
-111.6210779999999971
0
LINE
8
BLACK
6
CONTINUOUS
10
103.0084069999999912
20
-111.6210779999999971
11
103.1895639999999901
21
-111.3849879999999928
0
LINE
8
BLACK
6
CONTINUOUS
10
103.1895639999999901
20
-111.3849879999999928
11
103.3999879999999933
21
-111.1745639999999895
0
LINE
8
BLACK
6
CONTINUOUS
10
103.3999879999999933
20
-111.1745639999999895
11
103.6360779999999977
21
-110.9934069999999906
0
LINE
8
BLACK
6
CONTINUOUS
10
103.6360779999999977
20
-110.9934069999999906
11
103.8937930000000023
21
-110.8446149999999903
0
LINE
8
BLACK
6
CONTINUOUS
10
103.8937930000000023
20
-110.8446149999999903
11
104.1687249999999949
21
-110.7307339999999982
0
LINE
8
BLACK
6
CONTINUOUS
10
104.1687249999999949
20
-110.7307339999999982
11
104.4561700000000002
21
-110.6537129999999962
0
LINE
8
BLACK
6
CONTINUOUS
10
104.4561700000000002
20
-110.6537129999999962
11
104.7512079999999912
21
-110.6148709999999937
0
LINE
8
BLACK
6
CONTINUOUS
10
104.7512079999999912
20
-110.6148709999999937
11
105.0487919999999917
21
-110.6148709999999937
0
LINE
8
BLACK
6
CONTINUOUS
10
105.0487919999999917
20
-110.6148709999999937
11
105.343829999999997
21
-110.6537129999999962
0
LINE
8
BLACK
6
CONTINUOUS
10
102.7749999999999915
20
-113.0242799999999903
11
102.8113589999999959
21
-113.3004569999999944
0
LINE
8
BLACK
6
CONTINUOUS
10
102.8113589999999959
20
-113.3004569999999944
11
102.8834549999999979
21
-113.5695249999999987
0
LINE
8
BLACK
6
CONTINUOUS
10
102.8834549999999979
20
-113.5695249999999987
11
102.9900559999999956
21
-113.8268799999999885
0
LINE
8
BLACK
6
CONTINUOUS
10
102.9900559999999956
20
-113.8268799999999885
11
103.129335999999995
21
-114.0681199999999933
0
LINE
8
BLACK
6
CONTINUOUS
10
103.129335999999995
20
-114.0681199999999933
11
103.2989120000000014
21
-114.2891159999999928
0
LINE
8
BLACK
6
CONTINUOUS
10
103.2989120000000014
20
-114.2891159999999928
11
103.4958839999999896
21
-114.4860879999999952
0
LINE
8
BLACK
6
CONTINUOUS
10
103.4958839999999896
20
-114.4860879999999952
11
103.7168799999999891
21
-114.6556640000000016
0
LINE
8
BLACK
6
CONTINUOUS
10
103.7168799999999891
20
-114.6556640000000016
11
103.9581199999999939
21
-114.794944000000001
0
LINE
8
BLACK
6
CONTINUOUS
10
103.9581199999999939
20
-114.794944000000001
11
104.2154749999999979
21
-114.9015449999999987
0
LINE
8
BLACK
6
CONTINUOUS
10
104.2154749999999979
20
-114.9015449999999987
11
104.4845430000000022
21
-114.9736410000000006
0
LINE
8
BLACK
6
CONTINUOUS
10
104.4845430000000022
20
-114.9736410000000006
11
104.7607199999999921
21
-115.0099999999999909
0
LINE
8
BLACK
6
CONTINUOUS
10
104.7607199999999921
20
-115.0099999999999909
11
105.0392799999999909
21
-115.0099999999999909
0
LINE
8
BLACK
6
CONTINUOUS
10
105.0392799999999909
20
-115.0099999999999909
11
105.315456999999995
21
-114.9736410000000006
0
LINE
8
BLACK
6
CONTINUOUS
10
105.315456999999995
20
-114.9736410000000006
11
105.5845249999999993
21
-114.9015449999999987
0
LINE
8
BLACK
6
CONTINUOUS
10
105.5845249999999993
20
-114.9015449999999987
11
105.8418799999999891
21
-114.794944000000001
0
LINE
8
BLACK
6
CONTINUOUS
10
105.8418799999999891
20
-114.794944000000001
11
106.0831199999999939
21
-114.6556640000000016
0
LINE
8
BLACK
6
CONTINUOUS
10
106.0831199999999939
20
-114.6556640000000016
11
106.3041159999999934
21
-114.4860879999999952
0
LINE
8
BLACK
6
CONTINUOUS
10
106.3041159999999934
20
-114.4860879999999952
11
106.5010879999999958
21
-114.2891159999999928
0
LINE
8
BLACK
6
CONTINUOUS
10
106.5010879999999958
20
-114.2891159999999928
11
106.6706640000000021
21
-114.0681199999999933
0
LINE
8
BLACK
6
CONTINUOUS
10
106.6706640000000021
20
-114.0681199999999933
11
106.8099440000000016
21
-113.8268799999999885
0
LINE
8
BLACK
6
CONTINUOUS
10
106.8099440000000016
20
-113.8268799999999885
11
106.9165449999999993
21
-113.5695249999999987
0
LINE
8
BLACK
6
CONTINUOUS
10
106.9165449999999993
20
-113.5695249999999987
11
106.9886410000000012
21
-113.3004569999999944
0
LINE
8
BLACK
6
CONTINUOUS
10
106.9886410000000012
20
-113.3004569999999944
11
107.0249999999999915
21
-113.0242799999999903
0
LINE
8
BLACK
6
CONTINUOUS
10
107.0249999999999915
20
-113.0242799999999903
11
107.0249999999999915
21
-112.7457199999999915
0
LINE
8
BLACK
6
CONTINUOUS
10
107.0249999999999915
20
-112.7457199999999915
11
106.9886410000000012
21
-112.4695430000000016
0
LINE
8
BLACK
6
CONTINUOUS
10
106.9886410000000012
20
-112.4695430000000016
11
106.9165449999999993
21
-112.2004749999999973
0
LINE
8
BLACK
6
CONTINUOUS
10
106.9165449999999993
20
-112.2004749999999973
11
106.8099440000000016
21
-111.9431199999999933
0
LINE
8
BLACK
6
CONTINUOUS
10
106.8099440000000016
20
-111.9431199999999933
11
106.6706640000000021
21
-111.7018799999999885
0
LINE
8
BLACK
6
CONTINUOUS
10
106.6706640000000021
20
-111.7018799999999885
11
106.5010879999999958
21
-111.480883999999989
0
LINE
8
BLACK
6
CONTINUOUS
10
106.5010879999999958
20
-111.480883999999989
11
106.3041159999999934
21
-111.2839120000000008
0
LINE
8
BLACK
6
CONTINUOUS
10
106.3041159999999934
20
-111.2839120000000008
11
106.0831199999999939
21
-111.1143359999999944
0
LINE
8
BLACK
6
CONTINUOUS
10
106.0831199999999939
20
-111.1143359999999944
11
105.8418799999999891
21
-110.975055999999995
0
LINE
8
BLACK
6
CONTINUOUS
10
105.8418799999999891
20
-110.975055999999995
11
105.5845249999999993
21
-110.8684549999999973
0
LINE
8
BLACK
6
CONTINUOUS
10
105.5845249999999993
20
-110.8684549999999973
11
105.315456999999995
21
-110.7963589999999954
0
LINE
8
BLACK
6
CONTINUOUS
10
105.315456999999995
20
-110.7963589999999954
11
105.0392799999999909
21
-110.7599999999999909
0
LINE
8
BLACK
6
CONTINUOUS
10
105.0392799999999909
20
-110.7599999999999909
11
104.7607199999999921
21
-110.7599999999999909
0
LINE
8
BLACK
6
CONTINUOUS
10
104.7607199999999921
20
-110.7599999999999909
11
104.4845430000000022
21
-110.7963589999999954
0
LINE
8
BLACK
6
CONTINUOUS
10
104.4845430000000022
20
-110.7963589999999954
11
104.2154749999999979
21
-110.8684549999999973
0
LINE
8
BLACK
6
CONTINUOUS
10
104.2154749999999979
20
-110.8684549999999973
11
103.9581199999999939
21
-110.975055999999995
0
LINE
8
BLACK
6
CONTINUOUS
10
103.9581199999999939
20
-110.975055999999995
11
103.7168799999999891
21
-111.1143359999999944
0
LINE
8
BLACK
6
CONTINUOUS
10
103.7168799999999891
20
-111.1143359999999944
11
103.4958839999999896
21
-111.2839120000000008
0
LINE
8
BLACK
6
CONTINUOUS
10
103.4958839999999896
20
-111.2839120000000008
11
103.2989120000000014
21
-111.480883999999989
0
LINE
8
BLACK
6
CONTINUOUS
10
103.2989120000000014
20
-111.480883999999989
11
103.129335999999995
21
-111.7018799999999885
0
LINE
8
BLACK
6
CONTINUOUS
10
103.129335999999995
20
-111.7018799999999885
11
102.9900559999999956
21
-111.9431199999999933
0
LINE
8
BLACK
6
CONTINUOUS
10
102.9900559999999956
20
-111.9431199999999933
11
102.8834549999999979
21
-112.2004749999999973
0
LINE
8
BLACK
6
CONTINUOUS
10
102.8834549999999979
20
-112.2004749999999973
11
102.8113589999999959
21
-112.4695430000000016
0
LINE
8
BLACK
6
CONTINUOUS
10
102.8113589999999959
20
-112.4695430000000016
11
102.7749999999999915
21
-112.7457199999999915
0
LINE
8
BLACK
6
CONTINUOUS
10
102.7749999999999915
20
-112.7457199999999915
11
102.7749999999999915
21
-113.0242799999999903
0
LINE
8
BLACK
6
CONTINUOUS
10
105.3145779999999974
20
-110.4449690000000004
11
105.5851679999999959
21
-110.5067299999999904
0
LINE
8
BLACK
6
CONTINUOUS
10
105.5851679999999959
20
-110.5067299999999904
11
105.8471409999999935
21
-110.5983979999999889
0
LINE
8
BLACK
6
CONTINUOUS
10
105.8471409999999935
20
-110.5983979999999889
11
106.0972039999999907
21
-110.7188219999999887
0
LINE
8
BLACK
6
CONTINUOUS
10
106.0972039999999907
20
-110.7188219999999887
11
106.3322110000000009
21
-110.8664869999999922
0
LINE
8
BLACK
6
CONTINUOUS
10
106.3322110000000009
20
-110.8664869999999922
11
106.549207999999993
21
-111.0395359999999982
0
LINE
8
BLACK
6
CONTINUOUS
10
106.549207999999993
20
-111.0395359999999982
11
106.7454639999999984
21
-111.2357919999999893
0
LINE
8
BLACK
6
CONTINUOUS
10
106.7454639999999984
20
-111.2357919999999893
11
106.9185129999999901
21
-111.4527889999999957
0
LINE
8
BLACK
6
CONTINUOUS
10
106.9185129999999901
20
-111.4527889999999957
11
107.0661779999999936
21
-111.6877959999999916
0
LINE
8
BLACK
6
CONTINUOUS
10
107.0661779999999936
20
-111.6877959999999916
11
107.1866019999999935
21
-111.9378589999999889
0
LINE
8
BLACK
6
CONTINUOUS
10
107.1866019999999935
20
-111.9378589999999889
11
107.278269999999992
21
-112.1998320000000007
0
LINE
8
BLACK
6
CONTINUOUS
10
107.278269999999992
20
-112.1998320000000007
11
107.3400309999999962
21
-112.4704219999999992
0
LINE
8
BLACK
6
CONTINUOUS
10
107.3400309999999962
20
-112.4704219999999992
11
107.3711059999999975
21
-112.746225999999993
0
LINE
8
BLACK
6
CONTINUOUS
10
107.3711059999999975
20
-112.746225999999993
11
107.3711059999999975
21
-113.0237739999999889
0
LINE
8
BLACK
6
CONTINUOUS
10
107.3711059999999975
20
-113.0237739999999889
11
107.3400309999999962
21
-113.2995779999999968
0
LINE
8
BLACK
6
CONTINUOUS
10
107.3400309999999962
20
-113.2995779999999968
11
107.278269999999992
21
-113.5701679999999953
0
LINE
8
BLACK
6
CONTINUOUS
10
107.278269999999992
20
-113.5701679999999953
11
107.1866019999999935
21
-113.8321409999999929
0
LINE
8
BLACK
6
CONTINUOUS
10
107.1866019999999935
20
-113.8321409999999929
11
107.0661779999999936
21
-114.0822039999999902
0
LINE
8
BLACK
6
CONTINUOUS
10
107.0661779999999936
20
-114.0822039999999902
11
106.9185129999999901
21
-114.3172110000000004
0
LINE
8
BLACK
6
CONTINUOUS
10
106.9185129999999901
20
-114.3172110000000004
11
106.7454639999999984
21
-114.5342079999999925
0
LINE
8
BLACK
6
CONTINUOUS
10
106.7454639999999984
20
-114.5342079999999925
11
106.549207999999993
21
-114.7304639999999978
0
LINE
8
BLACK
6
CONTINUOUS
10
106.549207999999993
20
-114.7304639999999978
11
106.3322110000000009
21
-114.9035129999999896
0
LINE
8
BLACK
6
CONTINUOUS
10
106.3322110000000009
20
-114.9035129999999896
11
106.0972039999999907
21
-115.0511779999999931
0
LINE
8
BLACK
6
CONTINUOUS
10
106.0972039999999907
20
-115.0511779999999931
11
105.8471409999999935
21
-115.1716019999999929
0
LINE
8
BLACK
6
CONTINUOUS
10
105.8471409999999935
20
-115.1716019999999929
11
105.5851679999999959
21
-115.2632699999999915
0
LINE
8
BLACK
6
CONTINUOUS
10
105.5851679999999959
20
-115.2632699999999915
11
105.3145779999999974
21
-115.3250309999999956
0
LINE
8
BLACK
6
CONTINUOUS
10
105.3145779999999974
20
-115.3250309999999956
11
105.0387739999999894
21
-115.3561059999999969
0
LINE
8
BLACK
6
CONTINUOUS
10
105.0387739999999894
20
-115.3561059999999969
11
104.7612259999999935
21
-115.3561059999999969
0
LINE
8
BLACK
6
CONTINUOUS
10
104.7612259999999935
20
-115.3561059999999969
11
104.4854219999999998
21
-115.3250309999999956
0
LINE
8
BLACK
6
CONTINUOUS
10
104.4854219999999998
20
-115.3250309999999956
11
104.2148320000000012
21
-115.2632699999999915
0
LINE
8
BLACK
6
CONTINUOUS
10
104.2148320000000012
20
-115.2632699999999915
11
103.9528589999999895
21
-115.1716019999999929
0
LINE
8
BLACK
6
CONTINUOUS
10
103.9528589999999895
20
-115.1716019999999929
11
103.7027959999999922
21
-115.0511779999999931
0
LINE
8
BLACK
6
CONTINUOUS
10
103.7027959999999922
20
-115.0511779999999931
11
103.4677889999999962
21
-114.9035129999999896
0
LINE
8
BLACK
6
CONTINUOUS
10
103.4677889999999962
20
-114.9035129999999896
11
103.2507919999999899
21
-114.7304639999999978
0
LINE
8
BLACK
6
CONTINUOUS
10
103.2507919999999899
20
-114.7304639999999978
11
103.0545359999999988
21
-114.5342079999999925
0
LINE
8
BLACK
6
CONTINUOUS
10
103.0545359999999988
20
-114.5342079999999925
11
102.8814869999999928
21
-114.3172110000000004
0
LINE
8
BLACK
6
CONTINUOUS
10
102.8814869999999928
20
-114.3172110000000004
11
102.7338219999999893
21
-114.0822039999999902
0
LINE
8
BLACK
6
CONTINUOUS
10
102.7338219999999893
20
-114.0822039999999902
11
102.6133979999999895
21
-113.8321409999999929
0
LINE
8
BLACK
6
CONTINUOUS
10
102.6133979999999895
20
-113.8321409999999929
11
102.5217299999999909
21
-113.5701679999999953
0
LINE
8
BLACK
6
CONTINUOUS
10
102.5217299999999909
20
-113.5701679999999953
11
102.459969000000001
21
-113.2995779999999968
0
LINE
8
BLACK
6
CONTINUOUS
10
102.459969000000001
20
-113.2995779999999968
11
102.4288939999999997
21
-113.0237739999999889
0
LINE
8
BLACK
6
CONTINUOUS
10
102.4288939999999997
20
-113.0237739999999889
11
102.4288939999999997
21
-112.7488149999999933
0
LINE
8
BLACK
6
CONTINUOUS
10
102.4288939999999997
20
-112.7488149999999933
11
102.4288939999999997
21
-112.746225999999993
0
LINE
8
BLACK
6
CONTINUOUS
10
102.4288939999999997
20
-112.746225999999993
11
102.459969000000001
21
-112.4704219999999992
0
LINE
8
BLACK
6
CONTINUOUS
10
102.459969000000001
20
-112.4704219999999992
11
102.5217299999999909
21
-112.1998320000000007
0
LINE
8
BLACK
6
CONTINUOUS
10
102.5217299999999909
20
-112.1998320000000007
11
102.6133979999999895
21
-111.9378589999999889
0
LINE
8
BLACK
6
CONTINUOUS
10
102.6133979999999895
20
-111.9378589999999889
11
102.7338219999999893
21
-111.6877959999999916
0
LINE
8
BLACK
6
CONTINUOUS
10
102.7338219999999893
20
-111.6877959999999916
11
102.8814869999999928
21
-111.4527889999999957
0
LINE
8
BLACK
6
CONTINUOUS
10
102.8814869999999928
20
-111.4527889999999957
11
103.0545359999999988
21
-111.2357919999999893
0
LINE
8
BLACK
6
CONTINUOUS
10
103.0545359999999988
20
-111.2357919999999893
11
103.2507919999999899
21
-111.0395359999999982
0
LINE
8
BLACK
6
CONTINUOUS
10
103.2507919999999899
20
-111.0395359999999982
11
103.4677889999999962
21
-110.8664869999999922
0
LINE
8
BLACK
6
CONTINUOUS
10
103.4677889999999962
20
-110.8664869999999922
11
103.7027959999999922
21
-110.7188219999999887
0
LINE
8
BLACK
6
CONTINUOUS
10
103.7027959999999922
20
-110.7188219999999887
11
103.9528589999999895
21
-110.5983979999999889
0
LINE
8
BLACK
6
CONTINUOUS
10
103.9528589999999895
20
-110.5983979999999889
11
104.2148320000000012
21
-110.5067299999999904
0
LINE
8
BLACK
6
CONTINUOUS
10
104.2148320000000012
20
-110.5067299999999904
11
104.4854219999999998
21
-110.4449690000000004
0
LINE
8
BLACK
6
CONTINUOUS
10
104.4854219999999998
20
-110.4449690000000004
11
104.7612259999999935
21
-110.4138939999999991
0
LINE
8
BLACK
6
CONTINUOUS
10
104.7612259999999935
20
-110.4138939999999991
11
105.0387739999999894
21
-110.4138939999999991
0
LINE
8
BLACK
6
CONTINUOUS
10
105.0387739999999894
20
-110.4138939999999991
11
105.3145779999999974
21
-110.4449690000000004
0
LINE
8
BLACK
6
CONTINUOUS
10
102.4749999999999943
20
-113.0211849999999885
11
102.5054959999999937
21
-113.2918430000000001
0
LINE
8
BLACK
6
CONTINUOUS
10
102.5054959999999937
20
-113.2918430000000001
11
102.5661039999999957
21
-113.557383999999999
0
LINE
8
BLACK
6
CONTINUOUS
10
102.5661039999999957
20
-113.557383999999999
11
102.6560619999999915
21
-113.81447
0
LINE
8
BLACK
6
CONTINUOUS
10
102.6560619999999915
20
-113.81447
11
102.7742389999999943
21
-114.059866999999997
0
LINE
8
BLACK
6
CONTINUOUS
10
102.7742389999999943
20
-114.059866999999997
11
102.9191489999999902
21
-114.2904889999999938
0
LINE
8
BLACK
6
CONTINUOUS
10
102.9191489999999902
20
-114.2904889999999938
11
103.0889689999999916
21
-114.503436999999991
0
LINE
8
BLACK
6
CONTINUOUS
10
103.0889689999999916
20
-114.503436999999991
11
103.2815629999999913
21
-114.6960309999999907
0
LINE
8
BLACK
6
CONTINUOUS
10
103.2815629999999913
20
-114.6960309999999907
11
103.4945109999999886
21
-114.8658509999999922
0
LINE
8
BLACK
6
CONTINUOUS
10
103.4945109999999886
20
-114.8658509999999922
11
103.7251329999999996
21
-115.010760999999988
0
LINE
8
BLACK
6
CONTINUOUS
10
103.7251329999999996
20
-115.010760999999988
11
103.9705299999999966
21
-115.1289379999999909
0
LINE
8
BLACK
6
CONTINUOUS
10
103.9705299999999966
20
-115.1289379999999909
11
104.2276159999999976
21
-115.2188960000000009
0
LINE
8
BLACK
6
CONTINUOUS
10
104.2276159999999976
20
-115.2188960000000009
11
104.4931569999999965
21
-115.2795039999999887
0
LINE
8
BLACK
6
CONTINUOUS
10
104.4931569999999965
20
-115.2795039999999887
11
104.7638149999999939
21
-115.3099999999999881
0
LINE
8
BLACK
6
CONTINUOUS
10
104.7638149999999939
20
-115.3099999999999881
11
105.036184999999989
21
-115.3099999999999881
0
LINE
8
BLACK
6
CONTINUOUS
10
105.036184999999989
20
-115.3099999999999881
11
105.3068430000000006
21
-115.2795039999999887
0
LINE
8
BLACK
6
CONTINUOUS
10
105.3068430000000006
20
-115.2795039999999887
11
105.5723839999999996
21
-115.2188960000000009
0
LINE
8
BLACK
6
CONTINUOUS
10
105.5723839999999996
20
-115.2188960000000009
11
105.8294700000000006
21
-115.1289379999999909
0
LINE
8
BLACK
6
CONTINUOUS
10
105.8294700000000006
20
-115.1289379999999909
11
106.0748669999999976
21
-115.010760999999988
0
LINE
8
BLACK
6
CONTINUOUS
10
106.0748669999999976
20
-115.010760999999988
11
106.3054889999999943
21
-114.8658509999999922
0
LINE
8
BLACK
6
CONTINUOUS
10
106.3054889999999943
20
-114.8658509999999922
11
106.5184369999999916
21
-114.6960309999999907
0
LINE
8
BLACK
6
CONTINUOUS
10
106.5184369999999916
20
-114.6960309999999907
11
106.7110309999999913
21
-114.503436999999991
0
LINE
8
BLACK
6
CONTINUOUS
10
106.7110309999999913
20
-114.503436999999991
11
106.8808509999999927
21
-114.2904889999999938
0
LINE
8
BLACK
6
CONTINUOUS
10
106.8808509999999927
20
-114.2904889999999938
11
107.0257609999999886
21
-114.059866999999997
0
LINE
8
BLACK
6
CONTINUOUS
10
107.0257609999999886
20
-114.059866999999997
11
107.1439379999999915
21
-113.81447
0
LINE
8
BLACK
6
CONTINUOUS
10
107.1439379999999915
20
-113.81447
11
107.2338960000000014
21
-113.557383999999999
0
LINE
8
BLACK
6
CONTINUOUS
10
107.2338960000000014
20
-113.557383999999999
11
107.2945039999999892
21
-113.2918430000000001
0
LINE
8
BLACK
6
CONTINUOUS
10
107.2945039999999892
20
-113.2918430000000001
11
107.3249999999999886
21
-113.0211849999999885
0
LINE
8
BLACK
6
CONTINUOUS
10
107.3249999999999886
20
-113.0211849999999885
11
107.3249999999999886
21
-112.7488149999999933
0
LINE
8
BLACK
6
CONTINUOUS
10
107.3249999999999886
20
-112.7488149999999933
11
107.2945039999999892
21
-112.4781569999999959
0
LINE
8
BLACK
6
CONTINUOUS
10
107.2945039999999892
20
-112.4781569999999959
11
107.2338960000000014
21
-112.212615999999997
0
LINE
8
BLACK
6
CONTINUOUS
10
107.2338960000000014
20
-112.212615999999997
11
107.1439379999999915
21
-111.955529999999996
0
LINE
8
BLACK
6
CONTINUOUS
10
107.1439379999999915
20
-111.955529999999996
11
107.0257609999999886
21
-111.710132999999999
0
LINE
8
BLACK
6
CONTINUOUS
10
107.0257609999999886
20
-111.710132999999999
11
106.8808509999999927
21
-111.479510999999988
0
LINE
8
BLACK
6
CONTINUOUS
10
106.8808509999999927
20
-111.479510999999988
11
106.7110309999999913
21
-111.2665629999999908
0
LINE
8
BLACK
6
CONTINUOUS
10
106.7110309999999913
20
-111.2665629999999908
11
106.5184369999999916
21
-111.0739689999999911
0
LINE
8
BLACK
6
CONTINUOUS
10
106.5184369999999916
20
-111.0739689999999911
11
106.3054889999999943
21
-110.9041489999999897
0
LINE
8
BLACK
6
CONTINUOUS
10
106.3054889999999943
20
-110.9041489999999897
11
106.0748669999999976
21
-110.7592389999999938
0
LINE
8
BLACK
6
CONTINUOUS
10
106.0748669999999976
20
-110.7592389999999938
11
105.8294700000000006
21
-110.6410619999999909
0
LINE
8
BLACK
6
CONTINUOUS
10
105.8294700000000006
20
-110.6410619999999909
11
105.5723839999999996
21
-110.5511039999999952
0
LINE
8
BLACK
6
CONTINUOUS
10
105.5723839999999996
20
-110.5511039999999952
11
105.3068430000000006
21
-110.4904959999999932
0
LINE
8
BLACK
6
CONTINUOUS
10
105.3068430000000006
20
-110.4904959999999932
11
105.036184999999989
21
-110.4599999999999937
0
LINE
8
BLACK
6
CONTINUOUS
10
105.036184999999989
20
-110.4599999999999937
11
104.7638149999999939
21
-110.4599999999999937
0
LINE
8
BLACK
6
CONTINUOUS
10
104.7638149999999939
20
-110.4599999999999937
11
104.4931569999999965
21
-110.4904959999999932
0
LINE
8
BLACK
6
CONTINUOUS
10
104.4931569999999965
20
-110.4904959999999932
11
104.2276159999999976
21
-110.5511039999999952
0
LINE
8
BLACK
6
CONTINUOUS
10
104.2276159999999976
20
-110.5511039999999952
11
103.9705299999999966
21
-110.6410619999999909
0
LINE
8
BLACK
6
CONTINUOUS
10
103.9705299999999966
20
-110.6410619999999909
11
103.7251329999999996
21
-110.7592389999999938
0
LINE
8
BLACK
6
CONTINUOUS
10
103.7251329999999996
20
-110.7592389999999938
11
103.4945109999999886
21
-110.9041489999999897
0
LINE
8
BLACK
6
CONTINUOUS
10
103.4945109999999886
20
-110.9041489999999897
11
103.2815629999999913
21
-111.0739689999999911
0
LINE
8
BLACK
6
CONTINUOUS
10
103.2815629999999913
20
-111.0739689999999911
11
103.0889689999999916
21
-111.2665629999999908
0
LINE
8
BLACK
6
CONTINUOUS
10
103.0889689999999916
20
-111.2665629999999908
11
102.9191489999999902
21
-111.479510999999988
0
LINE
8
BLACK
6
CONTINUOUS
10
102.9191489999999902
20
-111.479510999999988
11
102.7742389999999943
21
-111.710132999999999
0
LINE
8
BLACK
6
CONTINUOUS
10
102.7742389999999943
20
-111.710132999999999
11
102.6560619999999915
21
-111.955529999999996
0
LINE
8
BLACK
6
CONTINUOUS
10
102.6560619999999915
20
-111.955529999999996
11
102.5661039999999957
21
-112.212615999999997
0
LINE
8
BLACK
6
CONTINUOUS
10
102.5661039999999957
20
-112.212615999999997
11
102.5054959999999937
21
-112.4781569999999959
0
LINE
8
BLACK
6
CONTINUOUS
10
102.5054959999999937
20
-112.4781569999999959
11
102.4749999999999943
21
-112.7488149999999933
0
LINE
8
BLACK
6
CONTINUOUS
10
102.4749999999999943
20
-112.7488149999999933
11
102.4749999999999943
21
-113.0211849999999885
0
LINE
8
BLACK
6
CONTINUOUS
10
161.8038300000000049
20
-108.9787129999999991
11
162.091274999999996
21
-109.0557340000000011
0
LINE
8
BLACK
6
CONTINUOUS
10
162.091274999999996
20
-109.0557340000000011
11
162.3662070000000028
21
-109.1696149999999932
0
LINE
8
BLACK
6
CONTINUOUS
10
162.3662070000000028
20
-109.1696149999999932
11
162.6239219999999932
21
-109.3184069999999934
0
LINE
8
BLACK
6
CONTINUOUS
10
162.6239219999999932
20
-109.3184069999999934
11
162.8600119999999833
21
-109.4995639999999923
0
LINE
8
BLACK
6
CONTINUOUS
10
162.8600119999999833
20
-109.4995639999999923
11
163.0704360000000008
21
-109.7099879999999956
0
LINE
8
BLACK
6
CONTINUOUS
10
163.0704360000000008
20
-109.7099879999999956
11
163.2515929999999855
21
-109.946078
0
LINE
8
BLACK
6
CONTINUOUS
10
163.2515929999999855
20
-109.946078
11
163.400385
21
-110.2037929999999903
0
LINE
8
BLACK
6
CONTINUOUS
10
163.400385
20
-110.2037929999999903
11
163.5142659999999921
21
-110.4787249999999972
0
LINE
8
BLACK
6
CONTINUOUS
10
163.5142659999999921
20
-110.4787249999999972
11
163.5912869999999941
21
-110.7661699999999882
0
LINE
8
BLACK
6
CONTINUOUS
10
163.5912869999999941
20
-110.7661699999999882
11
163.6301289999999824
21
-111.0612079999999935
0
LINE
8
BLACK
6
CONTINUOUS
10
163.6301289999999824
20
-111.0612079999999935
11
163.6301289999999824
21
-111.358791999999994
0
LINE
8
BLACK
6
CONTINUOUS
10
163.6301289999999824
20
-111.358791999999994
11
163.5912869999999941
21
-111.6538299999999992
0
LINE
8
BLACK
6
CONTINUOUS
10
163.5912869999999941
20
-111.6538299999999992
11
163.5142659999999921
21
-111.9412749999999903
0
LINE
8
BLACK
6
CONTINUOUS
10
163.5142659999999921
20
-111.9412749999999903
11
163.400385
21
-112.2162069999999972
0
LINE
8
BLACK
6
CONTINUOUS
10
163.400385
20
-112.2162069999999972
11
163.2515929999999855
21
-112.4739220000000017
0
LINE
8
BLACK
6
CONTINUOUS
10
163.2515929999999855
20
-112.4739220000000017
11
163.0704360000000008
21
-112.7100119999999919
0
LINE
8
BLACK
6
CONTINUOUS
10
163.0704360000000008
20
-112.7100119999999919
11
162.8600119999999833
21
-112.9204359999999951
0
LINE
8
BLACK
6
CONTINUOUS
10
162.8600119999999833
20
-112.9204359999999951
11
162.6239219999999932
21
-113.101592999999994
0
LINE
8
BLACK
6
CONTINUOUS
10
162.6239219999999932
20
-113.101592999999994
11
162.3662070000000028
21
-113.2503849999999943
0
LINE
8
BLACK
6
CONTINUOUS
10
162.3662070000000028
20
-113.2503849999999943
11
162.091274999999996
21
-113.3642660000000006
0
LINE
8
BLACK
6
CONTINUOUS
10
162.091274999999996
20
-113.3642660000000006
11
161.8038300000000049
21
-113.4412869999999884
0
LINE
8
BLACK
6
CONTINUOUS
10
161.8038300000000049
20
-113.4412869999999884
11
161.5087919999999997
21
-113.4801289999999909
0
LINE
8
BLACK
6
CONTINUOUS
10
161.5087919999999997
20
-113.4801289999999909
11
161.2112079999999992
21
-113.4801289999999909
0
LINE
8
BLACK
6
CONTINUOUS
10
161.2112079999999992
20
-113.4801289999999909
11
160.9161699999999939
21
-113.4412869999999884
0
LINE
8
BLACK
6
CONTINUOUS
10
160.9161699999999939
20
-113.4412869999999884
11
160.6287250000000029
21
-113.3642660000000006
0
LINE
8
BLACK
6
CONTINUOUS
10
160.6287250000000029
20
-113.3642660000000006
11
160.353792999999996
21
-113.2503849999999943
0
LINE
8
BLACK
6
CONTINUOUS
10
160.353792999999996
20
-113.2503849999999943
11
160.0960780000000057
21
-113.101592999999994
0
LINE
8
BLACK
6
CONTINUOUS
10
160.0960780000000057
20
-113.101592999999994
11
159.8599879999999871
21
-112.9204359999999951
0
LINE
8
BLACK
6
CONTINUOUS
10
159.8599879999999871
20
-112.9204359999999951
11
159.649563999999998
21
-112.7100119999999919
0
LINE
8
BLACK
6
CONTINUOUS
10
159.649563999999998
20
-112.7100119999999919
11
159.4684069999999849
21
-112.4739220000000017
0
LINE
8
BLACK
6
CONTINUOUS
10
159.4684069999999849
20
-112.4739220000000017
11
159.3196149999999989
21
-112.2162069999999972
0
LINE
8
BLACK
6
CONTINUOUS
10
159.3196149999999989
20
-112.2162069999999972
11
159.2057340000000067
21
-111.9412749999999903
0
LINE
8
BLACK
6
CONTINUOUS
10
159.2057340000000067
20
-111.9412749999999903
11
159.1287130000000047
21
-111.6538299999999992
0
LINE
8
BLACK
6
CONTINUOUS
10
159.1287130000000047
20
-111.6538299999999992
11
159.089870999999988
21
-111.358791999999994
0
LINE
8
BLACK
6
CONTINUOUS
10
159.089870999999988
20
-111.358791999999994
11
159.089870999999988
21
-111.0707199999999943
0
LINE
8
BLACK
6
CONTINUOUS
10
159.089870999999988
20
-111.0707199999999943
11
159.089870999999988
21
-111.0612079999999935
0
LINE
8
BLACK
6
CONTINUOUS
10
159.089870999999988
20
-111.0612079999999935
11
159.1287130000000047
21
-110.7661699999999882
0
LINE
8
BLACK
6
CONTINUOUS
10
159.1287130000000047
20
-110.7661699999999882
11
159.2057340000000067
21
-110.4787249999999972
0
LINE
8
BLACK
6
CONTINUOUS
10
159.2057340000000067
20
-110.4787249999999972
11
159.3196149999999989
21
-110.2037929999999903
0
LINE
8
BLACK
6
CONTINUOUS
10
159.3196149999999989
20
-110.2037929999999903
11
159.4684069999999849
21
-109.946078
0
LINE
8
BLACK
6
CONTINUOUS
10
159.4684069999999849
20
-109.946078
11
159.649563999999998
21
-109.7099879999999956
0
LINE
8
BLACK
6
CONTINUOUS
10
159.649563999999998
20
-109.7099879999999956
11
159.8599879999999871
21
-109.4995639999999923
0
LINE
8
BLACK
6
CONTINUOUS
10
159.8599879999999871
20
-109.4995639999999923
11
160.0960780000000057
21
-109.3184069999999934
0
LINE
8
BLACK
6
CONTINUOUS
10
160.0960780000000057
20
-109.3184069999999934
11
160.353792999999996
21
-109.1696149999999932
0
LINE
8
BLACK
6
CONTINUOUS
10
160.353792999999996
20
-109.1696149999999932
11
160.6287250000000029
21
-109.0557340000000011
0
LINE
8
BLACK
6
CONTINUOUS
10
160.6287250000000029
20
-109.0557340000000011
11
160.9161699999999939
21
-108.9787129999999991
0
LINE
8
BLACK
6
CONTINUOUS
10
160.9161699999999939
20
-108.9787129999999991
11
161.2112079999999992
21
-108.9398709999999966
0
LINE
8
BLACK
6
CONTINUOUS
10
161.2112079999999992
20
-108.9398709999999966
11
161.5087919999999997
21
-108.9398709999999966
0
LINE
8
BLACK
6
CONTINUOUS
10
161.5087919999999997
20
-108.9398709999999966
11
161.8038300000000049
21
-108.9787129999999991
0
LINE
8
BLACK
6
CONTINUOUS
10
159.2349999999999852
20
-111.3492799999999932
11
159.2713589999999897
21
-111.6254569999999973
0
LINE
8
BLACK
6
CONTINUOUS
10
159.2713589999999897
20
-111.6254569999999973
11
159.3434550000000058
21
-111.8945250000000016
0
LINE
8
BLACK
6
CONTINUOUS
10
159.3434550000000058
20
-111.8945250000000016
11
159.4500559999999894
21
-112.1518799999999914
0
LINE
8
BLACK
6
CONTINUOUS
10
159.4500559999999894
20
-112.1518799999999914
11
159.589336000000003
21
-112.3931199999999961
0
LINE
8
BLACK
6
CONTINUOUS
10
159.589336000000003
20
-112.3931199999999961
11
159.7589119999999809
21
-112.6141159999999957
0
LINE
8
BLACK
6
CONTINUOUS
10
159.7589119999999809
20
-112.6141159999999957
11
159.9558839999999975
21
-112.811087999999998
0
LINE
8
BLACK
6
CONTINUOUS
10
159.9558839999999975
20
-112.811087999999998
11
160.1768799999999828
21
-112.9806639999999902
0
LINE
8
BLACK
6
CONTINUOUS
10
160.1768799999999828
20
-112.9806639999999902
11
160.4181199999999876
21
-113.1199439999999896
0
LINE
8
BLACK
6
CONTINUOUS
10
160.4181199999999876
20
-113.1199439999999896
11
160.6754750000000058
21
-113.2265450000000016
0
LINE
8
BLACK
6
CONTINUOUS
10
160.6754750000000058
20
-113.2265450000000016
11
160.9445429999999817
21
-113.2986409999999893
0
LINE
8
BLACK
6
CONTINUOUS
10
160.9445429999999817
20
-113.2986409999999893
11
161.22072
21
-113.3349999999999937
0
LINE
8
BLACK
6
CONTINUOUS
10
161.22072
20
-113.3349999999999937
11
161.4992799999999988
21
-113.3349999999999937
0
LINE
8
BLACK
6
CONTINUOUS
10
161.4992799999999988
20
-113.3349999999999937
11
161.7754569999999887
21
-113.2986409999999893
0
LINE
8
BLACK
6
CONTINUOUS
10
161.7754569999999887
20
-113.2986409999999893
11
162.044524999999993
21
-113.2265450000000016
0
LINE
8
BLACK
6
CONTINUOUS
10
162.044524999999993
20
-113.2265450000000016
11
162.3018799999999828
21
-113.1199439999999896
0
LINE
8
BLACK
6
CONTINUOUS
10
162.3018799999999828
20
-113.1199439999999896
11
162.5431199999999876
21
-112.9806639999999902
0
LINE
8
BLACK
6
CONTINUOUS
10
162.5431199999999876
20
-112.9806639999999902
11
162.7641160000000013
21
-112.811087999999998
0
LINE
8
BLACK
6
CONTINUOUS
10
162.7641160000000013
20
-112.811087999999998
11
162.9610879999999895
21
-112.6141159999999957
0
LINE
8
BLACK
6
CONTINUOUS
10
162.9610879999999895
20
-112.6141159999999957
11
163.1306639999999959
21
-112.3931199999999961
0
LINE
8
BLACK
6
CONTINUOUS
10
163.1306639999999959
20
-112.3931199999999961
11
163.2699439999999811
21
-112.1518799999999914
0
LINE
8
BLACK
6
CONTINUOUS
10
163.2699439999999811
20
-112.1518799999999914
11
163.376544999999993
21
-111.8945250000000016
0
LINE
8
BLACK
6
CONTINUOUS
10
163.376544999999993
20
-111.8945250000000016
11
163.4486409999999807
21
-111.6254569999999973
0
LINE
8
BLACK
6
CONTINUOUS
10
163.4486409999999807
20
-111.6254569999999973
11
163.4849999999999852
21
-111.3492799999999932
0
LINE
8
BLACK
6
CONTINUOUS
10
163.4849999999999852
20
-111.3492799999999932
11
163.4849999999999852
21
-111.0707199999999943
0
LINE
8
BLACK
6
CONTINUOUS
10
163.4849999999999852
20
-111.0707199999999943
11
163.4486409999999807
21
-110.7945429999999902
0
LINE
8
BLACK
6
CONTINUOUS
10
163.4486409999999807
20
-110.7945429999999902
11
163.376544999999993
21
-110.5254750000000001
0
LINE
8
BLACK
6
CONTINUOUS
10
163.376544999999993
20
-110.5254750000000001
11
163.2699439999999811
21
-110.2681199999999961
0
LINE
8
BLACK
6
CONTINUOUS
10
163.2699439999999811
20
-110.2681199999999961
11
163.1306639999999959
21
-110.0268799999999914
0
LINE
8
BLACK
6
CONTINUOUS
10
163.1306639999999959
20
-110.0268799999999914
11
162.9610879999999895
21
-109.8058839999999918
0
LINE
8
BLACK
6
CONTINUOUS
10
162.9610879999999895
20
-109.8058839999999918
11
162.7641160000000013
21
-109.6089119999999895
0
LINE
8
BLACK
6
CONTINUOUS
10
162.7641160000000013
20
-109.6089119999999895
11
162.5431199999999876
21
-109.4393359999999973
0
LINE
8
BLACK
6
CONTINUOUS
10
162.5431199999999876
20
-109.4393359999999973
11
162.3018799999999828
21
-109.3000559999999979
0
LINE
8
BLACK
6
CONTINUOUS
10
162.3018799999999828
20
-109.3000559999999979
11
162.044524999999993
21
-109.1934550000000002
0
LINE
8
BLACK
6
CONTINUOUS
10
162.044524999999993
20
-109.1934550000000002
11
161.7754569999999887
21
-109.1213589999999982
0
LINE
8
BLACK
6
CONTINUOUS
10
161.7754569999999887
20
-109.1213589999999982
11
161.4992799999999988
21
-109.0849999999999937
0
LINE
8
BLACK
6
CONTINUOUS
10
161.4992799999999988
20
-109.0849999999999937
11
161.22072
21
-109.0849999999999937
0
LINE
8
BLACK
6
CONTINUOUS
10
161.22072
20
-109.0849999999999937
11
160.9445429999999817
21
-109.1213589999999982
0
LINE
8
BLACK
6
CONTINUOUS
10
160.9445429999999817
20
-109.1213589999999982
11
160.6754750000000058
21
-109.1934550000000002
0
LINE
8
BLACK
6
CONTINUOUS
10
160.6754750000000058
20
-109.1934550000000002
11
160.4181199999999876
21
-109.3000559999999979
0
LINE
8
BLACK
6
CONTINUOUS
10
160.4181199999999876
20
-109.3000559999999979
11
160.1768799999999828
21
-109.4393359999999973
0
LINE
8
BLACK
6
CONTINUOUS
10
160.1768799999999828
20
-109.4393359999999973
11
159.9558839999999975
21
-109.6089119999999895
0
LINE
8
BLACK
6
CONTINUOUS
10
159.9558839999999975
20
-109.6089119999999895
11
159.7589119999999809
21
-109.8058839999999918
0
LINE
8
BLACK
6
CONTINUOUS
10
159.7589119999999809
20
-109.8058839999999918
11
159.589336000000003
21
-110.0268799999999914
0
LINE
8
BLACK
6
CONTINUOUS
10
159.589336000000003
20
-110.0268799999999914
11
159.4500559999999894
21
-110.2681199999999961
0
LINE
8
BLACK
6
CONTINUOUS
10
159.4500559999999894
20
-110.2681199999999961
11
159.3434550000000058
21
-110.5254750000000001
0
LINE
8
BLACK
6
CONTINUOUS
10
159.3434550000000058
20
-110.5254750000000001
11
159.2713589999999897
21
-110.7945429999999902
0
LINE
8
BLACK
6
CONTINUOUS
10
159.2713589999999897
20
-110.7945429999999902
11
159.2349999999999852
21
-111.0707199999999943
0
LINE
8
BLACK
6
CONTINUOUS
10
159.2349999999999852
20
-111.0707199999999943
11
159.2349999999999852
21
-111.3492799999999932
0
LINE
8
BLACK
6
CONTINUOUS
10
161.7745779999999911
20
-108.769968999999989
11
162.0451679999999897
21
-108.8317299999999932
0
LINE
8
BLACK
6
CONTINUOUS
10
162.0451679999999897
20
-108.8317299999999932
11
162.3071410000000014
21
-108.9233979999999917
0
LINE
8
BLACK
6
CONTINUOUS
10
162.3071410000000014
20
-108.9233979999999917
11
162.5572039999999845
21
-109.0438219999999916
0
LINE
8
BLACK
6
CONTINUOUS
10
162.5572039999999845
20
-109.0438219999999916
11
162.7922109999999805
21
-109.1914869999999951
0
LINE
8
BLACK
6
CONTINUOUS
10
162.7922109999999805
20
-109.1914869999999951
11
163.009208000000001
21
-109.3645360000000011
0
LINE
8
BLACK
6
CONTINUOUS
10
163.009208000000001
20
-109.3645360000000011
11
163.2054640000000063
21
-109.5607919999999922
0
LINE
8
BLACK
6
CONTINUOUS
10
163.2054640000000063
20
-109.5607919999999922
11
163.3785129999999981
21
-109.7777889999999985
0
LINE
8
BLACK
6
CONTINUOUS
10
163.3785129999999981
20
-109.7777889999999985
11
163.5261779999999874
21
-110.0127959999999945
0
LINE
8
BLACK
6
CONTINUOUS
10
163.5261779999999874
20
-110.0127959999999945
11
163.6466020000000015
21
-110.2628589999999917
0
LINE
8
BLACK
6
CONTINUOUS
10
163.6466020000000015
20
-110.2628589999999917
11
163.73827
21
-110.5248319999999893
0
LINE
8
BLACK
6
CONTINUOUS
10
163.73827
20
-110.5248319999999893
11
163.8000309999999899
21
-110.7954220000000021
0
LINE
8
BLACK
6
CONTINUOUS
10
163.8000309999999899
20
-110.7954220000000021
11
163.8311060000000055
21
-111.0712259999999958
0
LINE
8
BLACK
6
CONTINUOUS
10
163.8311060000000055
20
-111.0712259999999958
11
163.8311060000000055
21
-111.3487739999999917
0
LINE
8
BLACK
6
CONTINUOUS
10
163.8311060000000055
20
-111.3487739999999917
11
163.8000309999999899
21
-111.6245779999999996
0
LINE
8
BLACK
6
CONTINUOUS
10
163.8000309999999899
20
-111.6245779999999996
11
163.73827
21
-111.8951679999999982
0
LINE
8
BLACK
6
CONTINUOUS
10
163.73827
20
-111.8951679999999982
11
163.6466020000000015
21
-112.1571409999999958
0
LINE
8
BLACK
6
CONTINUOUS
10
163.6466020000000015
20
-112.1571409999999958
11
163.5261779999999874
21
-112.407203999999993
0
LINE
8
BLACK
6
CONTINUOUS
10
163.5261779999999874
20
-112.407203999999993
11
163.3785129999999981
21
-112.642210999999989
0
LINE
8
BLACK
6
CONTINUOUS
10
163.3785129999999981
20
-112.642210999999989
11
163.2054640000000063
21
-112.8592079999999953
0
LINE
8
BLACK
6
CONTINUOUS
10
163.2054640000000063
20
-112.8592079999999953
11
163.009208000000001
21
-113.0554640000000006
0
LINE
8
BLACK
6
CONTINUOUS
10
163.009208000000001
20
-113.0554640000000006
11
162.7922109999999805
21
-113.2285129999999924
0
LINE
8
BLACK
6
CONTINUOUS
10
162.7922109999999805
20
-113.2285129999999924
11
162.5572039999999845
21
-113.3761779999999959
0
LINE
8
BLACK
6
CONTINUOUS
10
162.5572039999999845
20
-113.3761779999999959
11
162.3071410000000014
21
-113.4966019999999958
0
LINE
8
BLACK
6
CONTINUOUS
10
162.3071410000000014
20
-113.4966019999999958
11
162.0451679999999897
21
-113.5882699999999943
0
LINE
8
BLACK
6
CONTINUOUS
10
162.0451679999999897
20
-113.5882699999999943
11
161.7745779999999911
21
-113.6500309999999985
0
LINE
8
BLACK
6
CONTINUOUS
10
161.7745779999999911
20
-113.6500309999999985
11
161.4987739999999974
21
-113.6811059999999998
0
LINE
8
BLACK
6
CONTINUOUS
10
161.4987739999999974
20
-113.6811059999999998
11
161.2212260000000015
21
-113.6811059999999998
0
LINE
8
BLACK
6
CONTINUOUS
10
161.2212260000000015
20
-113.6811059999999998
11
160.9454219999999793
21
-113.6500309999999985
0
LINE
8
BLACK
6
CONTINUOUS
10
160.9454219999999793
20
-113.6500309999999985
11
160.6748319999999808
21
-113.5882699999999943
0
LINE
8
BLACK
6
CONTINUOUS
10
160.6748319999999808
20
-113.5882699999999943
11
160.4128589999999974
21
-113.4966019999999958
0
LINE
8
BLACK
6
CONTINUOUS
10
160.4128589999999974
20
-113.4966019999999958
11
160.162795999999986
21
-113.3761779999999959
0
LINE
8
BLACK
6
CONTINUOUS
10
160.162795999999986
20
-113.3761779999999959
11
159.92778899999999
21
-113.2285129999999924
0
LINE
8
BLACK
6
CONTINUOUS
10
159.92778899999999
20
-113.2285129999999924
11
159.7107919999999979
21
-113.0554640000000006
0
LINE
8
BLACK
6
CONTINUOUS
10
159.7107919999999979
20
-113.0554640000000006
11
159.5145359999999926
21
-112.8592079999999953
0
LINE
8
BLACK
6
CONTINUOUS
10
159.5145359999999926
20
-112.8592079999999953
11
159.3414870000000008
21
-112.642210999999989
0
LINE
8
BLACK
6
CONTINUOUS
10
159.3414870000000008
20
-112.642210999999989
11
159.1938219999999831
21
-112.407203999999993
0
LINE
8
BLACK
6
CONTINUOUS
10
159.1938219999999831
20
-112.407203999999993
11
159.0733979999999974
21
-112.1571409999999958
0
LINE
8
BLACK
6
CONTINUOUS
10
159.0733979999999974
20
-112.1571409999999958
11
158.9817299999999989
21
-111.8951679999999982
0
LINE
8
BLACK
6
CONTINUOUS
10
158.9817299999999989
20
-111.8951679999999982
11
158.9199689999999805
21
-111.6245779999999996
0
LINE
8
BLACK
6
CONTINUOUS
10
158.9199689999999805
20
-111.6245779999999996
11
158.8888939999999934
21
-111.3487739999999917
0
LINE
8
BLACK
6
CONTINUOUS
10
158.8888939999999934
20
-111.3487739999999917
11
158.8888939999999934
21
-111.0738149999999962
0
LINE
8
BLACK
6
CONTINUOUS
10
158.8888939999999934
20
-111.0738149999999962
11
158.8888939999999934
21
-111.0712259999999958
0
LINE
8
BLACK
6
CONTINUOUS
10
158.8888939999999934
20
-111.0712259999999958
11
158.9199689999999805
21
-110.7954220000000021
0
LINE
8
BLACK
6
CONTINUOUS
10
158.9199689999999805
20
-110.7954220000000021
11
158.9817299999999989
21
-110.5248319999999893
0
LINE
8
BLACK
6
CONTINUOUS
10
158.9817299999999989
20
-110.5248319999999893
11
159.0733979999999974
21
-110.2628589999999917
0
LINE
8
BLACK
6
CONTINUOUS
10
159.0733979999999974
20
-110.2628589999999917
11
159.1938219999999831
21
-110.0127959999999945
0
LINE
8
BLACK
6
CONTINUOUS
10
159.1938219999999831
20
-110.0127959999999945
11
159.3414870000000008
21
-109.7777889999999985
0
LINE
8
BLACK
6
CONTINUOUS
10
159.3414870000000008
20
-109.7777889999999985
11
159.5145359999999926
21
-109.5607919999999922
0
LINE
8
BLACK
6
CONTINUOUS
10
159.5145359999999926
20
-109.5607919999999922
11
159.7107919999999979
21
-109.3645360000000011
0
LINE
8
BLACK
6
CONTINUOUS
10
159.7107919999999979
20
-109.3645360000000011
11
159.92778899999999
21
-109.1914869999999951
0
LINE
8
BLACK
6
CONTINUOUS
10
159.92778899999999
20
-109.1914869999999951
11
160.162795999999986
21
-109.0438219999999916
0
LINE
8
BLACK
6
CONTINUOUS
10
160.162795999999986
20
-109.0438219999999916
11
160.4128589999999974
21
-108.9233979999999917
0
LINE
8
BLACK
6
CONTINUOUS
10
160.4128589999999974
20
-108.9233979999999917
11
160.6748319999999808
21
-108.8317299999999932
0
LINE
8
BLACK
6
CONTINUOUS
10
160.6748319999999808
20
-108.8317299999999932
11
160.9454219999999793
21
-108.769968999999989
0
LINE
8
BLACK
6
CONTINUOUS
10
160.9454219999999793
20
-108.769968999999989
11
161.2212260000000015
21
-108.7388940000000019
0
LINE
8
BLACK
6
CONTINUOUS
10
161.2212260000000015
20
-108.7388940000000019
11
161.4987739999999974
21
-108.7388940000000019
0
LINE
8
BLACK
6
CONTINUOUS
10
161.4987739999999974
20
-108.7388940000000019
11
161.7745779999999911
21
-108.769968999999989
0
LINE
8
BLACK
6
CONTINUOUS
10
158.9350000000000023
20
-111.3461849999999913
11
158.9654960000000017
21
-111.6168429999999887
0
LINE
8
BLACK
6
CONTINUOUS
10
158.9654960000000017
20
-111.6168429999999887
11
159.0261040000000037
21
-111.8823840000000018
0
LINE
8
BLACK
6
CONTINUOUS
10
159.0261040000000037
20
-111.8823840000000018
11
159.1160619999999994
21
-112.1394699999999887
0
LINE
8
BLACK
6
CONTINUOUS
10
159.1160619999999994
20
-112.1394699999999887
11
159.2342390000000023
21
-112.3848669999999998
0
LINE
8
BLACK
6
CONTINUOUS
10
159.2342390000000023
20
-112.3848669999999998
11
159.379148999999984
21
-112.6154889999999966
0
LINE
8
BLACK
6
CONTINUOUS
10
159.379148999999984
20
-112.6154889999999966
11
159.5489689999999996
21
-112.8284369999999939
0
LINE
8
BLACK
6
CONTINUOUS
10
159.5489689999999996
20
-112.8284369999999939
11
159.7415629999999851
21
-113.0210309999999936
0
LINE
8
BLACK
6
CONTINUOUS
10
159.7415629999999851
20
-113.0210309999999936
11
159.9545109999999966
21
-113.190850999999995
0
LINE
8
BLACK
6
CONTINUOUS
10
159.9545109999999966
20
-113.190850999999995
11
160.1851329999999791
21
-113.3357609999999909
0
LINE
8
BLACK
6
CONTINUOUS
10
160.1851329999999791
20
-113.3357609999999909
11
160.4305300000000045
21
-113.4539379999999937
0
LINE
8
BLACK
6
CONTINUOUS
10
160.4305300000000045
20
-113.4539379999999937
11
160.6876159999999913
21
-113.5438959999999895
0
LINE
8
BLACK
6
CONTINUOUS
10
160.6876159999999913
20
-113.5438959999999895
11
160.9531570000000045
21
-113.6045039999999915
0
LINE
8
BLACK
6
CONTINUOUS
10
160.9531570000000045
20
-113.6045039999999915
11
161.2238150000000019
21
-113.6349999999999909
0
LINE
8
BLACK
6
CONTINUOUS
10
161.2238150000000019
20
-113.6349999999999909
11
161.496184999999997
21
-113.6349999999999909
0
LINE
8
BLACK
6
CONTINUOUS
10
161.496184999999997
20
-113.6349999999999909
11
161.7668429999999944
21
-113.6045039999999915
0
LINE
8
BLACK
6
CONTINUOUS
10
161.7668429999999944
20
-113.6045039999999915
11
162.0323839999999791
21
-113.5438959999999895
0
LINE
8
BLACK
6
CONTINUOUS
10
162.0323839999999791
20
-113.5438959999999895
11
162.2894699999999943
21
-113.4539379999999937
0
LINE
8
BLACK
6
CONTINUOUS
10
162.2894699999999943
20
-113.4539379999999937
11
162.5348669999999913
21
-113.3357609999999909
0
LINE
8
BLACK
6
CONTINUOUS
10
162.5348669999999913
20
-113.3357609999999909
11
162.7654890000000023
21
-113.190850999999995
0
LINE
8
BLACK
6
CONTINUOUS
10
162.7654890000000023
20
-113.190850999999995
11
162.9784369999999853
21
-113.0210309999999936
0
LINE
8
BLACK
6
CONTINUOUS
10
162.9784369999999853
20
-113.0210309999999936
11
163.1710309999999993
21
-112.8284369999999939
0
LINE
8
BLACK
6
CONTINUOUS
10
163.1710309999999993
20
-112.8284369999999939
11
163.3408509999999865
21
-112.6154889999999966
0
LINE
8
BLACK
6
CONTINUOUS
10
163.3408509999999865
20
-112.6154889999999966
11
163.4857609999999966
21
-112.3848669999999998
0
LINE
8
BLACK
6
CONTINUOUS
10
163.4857609999999966
20
-112.3848669999999998
11
163.6039379999999994
21
-112.1394699999999887
0
LINE
8
BLACK
6
CONTINUOUS
10
163.6039379999999994
20
-112.1394699999999887
11
163.6938959999999952
21
-111.8823840000000018
0
LINE
8
BLACK
6
CONTINUOUS
10
163.6938959999999952
20
-111.8823840000000018
11
163.7545039999999972
21
-111.6168429999999887
0
LINE
8
BLACK
6
CONTINUOUS
10
163.7545039999999972
20
-111.6168429999999887
11
163.7849999999999966
21
-111.3461849999999913
0
LINE
8
BLACK
6
CONTINUOUS
10
163.7849999999999966
20
-111.3461849999999913
11
163.7849999999999966
21
-111.0738149999999962
0
LINE
8
BLACK
6
CONTINUOUS
10
163.7849999999999966
20
-111.0738149999999962
11
163.7545039999999972
21
-110.8031569999999988
0
LINE
8
BLACK
6
CONTINUOUS
10
163.7545039999999972
20
-110.8031569999999988
11
163.6938959999999952
21
-110.5376159999999999
0
LINE
8
BLACK
6
CONTINUOUS
10
163.6938959999999952
20
-110.5376159999999999
11
163.6039379999999994
21
-110.2805299999999988
0
LINE
8
BLACK
6
CONTINUOUS
10
163.6039379999999994
20
-110.2805299999999988
11
163.4857609999999966
21
-110.0351330000000019
0
LINE
8
BLACK
6
CONTINUOUS
10
163.4857609999999966
20
-110.0351330000000019
11
163.3408509999999865
21
-109.8045109999999909
0
LINE
8
BLACK
6
CONTINUOUS
10
163.3408509999999865
20
-109.8045109999999909
11
163.1710309999999993
21
-109.5915629999999936
0
LINE
8
BLACK
6
CONTINUOUS
10
163.1710309999999993
20
-109.5915629999999936
11
162.9784369999999853
21
-109.3989689999999939
0
LINE
8
BLACK
6
CONTINUOUS
10
162.9784369999999853
20
-109.3989689999999939
11
162.7654890000000023
21
-109.2291489999999925
0
LINE
8
BLACK
6
CONTINUOUS
10
162.7654890000000023
20
-109.2291489999999925
11
162.5348669999999913
21
-109.0842389999999966
0
LINE
8
BLACK
6
CONTINUOUS
10
162.5348669999999913
20
-109.0842389999999966
11
162.2894699999999943
21
-108.9660619999999938
0
LINE
8
BLACK
6
CONTINUOUS
10
162.2894699999999943
20
-108.9660619999999938
11
162.0323839999999791
21
-108.876103999999998
0
LINE
8
BLACK
6
CONTINUOUS
10
162.0323839999999791
20
-108.876103999999998
11
161.7668429999999944
21
-108.815495999999996
0
LINE
8
BLACK
6
CONTINUOUS
10
161.7668429999999944
20
-108.815495999999996
11
161.496184999999997
21
-108.7849999999999966
0
LINE
8
BLACK
6
CONTINUOUS
10
161.496184999999997
20
-108.7849999999999966
11
161.2238150000000019
21
-108.7849999999999966
0
LINE
8
BLACK
6
CONTINUOUS
10
161.2238150000000019
20
-108.7849999999999966
11
160.9531570000000045
21
-108.815495999999996
0
LINE
8
BLACK
6
CONTINUOUS
10
160.9531570000000045
20
-108.815495999999996
11
160.6876159999999913
21
-108.876103999999998
0
LINE
8
BLACK
6
CONTINUOUS
10
160.6876159999999913
20
-108.876103999999998
11
160.4305300000000045
21
-108.9660619999999938
0
LINE
8
BLACK
6
CONTINUOUS
10
160.4305300000000045
20
-108.9660619999999938
11
160.1851329999999791
21
-109.0842389999999966
0
LINE
8
BLACK
6
CONTINUOUS
10
160.1851329999999791
20
-109.0842389999999966
11
159.9545109999999966
21
-109.2291489999999925
0
LINE
8
BLACK
6
CONTINUOUS
10
159.9545109999999966
20
-109.2291489999999925
11
159.7415629999999851
21
-109.3989689999999939
0
LINE
8
BLACK
6
CONTINUOUS
10
159.7415629999999851
20
-109.3989689999999939
11
159.5489689999999996
21
-109.5915629999999936
0
LINE
8
BLACK
6
CONTINUOUS
10
159.5489689999999996
20
-109.5915629999999936
11
159.379148999999984
21
-109.8045109999999909
0
LINE
8
BLACK
6
CONTINUOUS
10
159.379148999999984
20
-109.8045109999999909
11
159.2342390000000023
21
-110.0351330000000019
0
LINE
8
BLACK
6
CONTINUOUS
10
159.2342390000000023
20
-110.0351330000000019
11
159.1160619999999994
21
-110.2805299999999988
0
LINE
8
BLACK
6
CONTINUOUS
10
159.1160619999999994
20
-110.2805299999999988
11
159.0261040000000037
21
-110.5376159999999999
0
LINE
8
BLACK
6
CONTINUOUS
10
159.0261040000000037
20
-110.5376159999999999
11
158.9654960000000017
21
-110.8031569999999988
0
LINE
8
BLACK
6
CONTINUOUS
10
158.9654960000000017
20
-110.8031569999999988
11
158.9350000000000023
21
-111.0738149999999962
0
LINE
8
BLACK
6
CONTINUOUS
10
158.9350000000000023
20
-111.0738149999999962
11
158.9350000000000023
21
-111.3461849999999913
0
LINE
8
BLACK
6
CONTINUOUS
10
120.3538299999999879
20
-64.6387129999999956
11
120.6412749999999932
21
-64.7157339999999976
0
LINE
8
BLACK
6
CONTINUOUS
10
120.6412749999999932
20
-64.7157339999999976
11
120.916207
21
-64.829615000000004
0
LINE
8
BLACK
6
CONTINUOUS
10
120.916207
20
-64.829615000000004
11
121.1739219999999904
21
-64.97840699999999
0
LINE
8
BLACK
6
CONTINUOUS
10
121.1739219999999904
20
-64.97840699999999
11
121.4100119999999947
21
-65.1595640000000031
0
LINE
8
BLACK
6
CONTINUOUS
10
121.4100119999999947
20
-65.1595640000000031
11
121.620435999999998
21
-65.3699879999999922
0
LINE
8
BLACK
6
CONTINUOUS
10
121.620435999999998
20
-65.3699879999999922
11
121.8015929999999969
21
-65.6060779999999966
0
LINE
8
BLACK
6
CONTINUOUS
10
121.8015929999999969
20
-65.6060779999999966
11
121.9503849999999971
21
-65.8637930000000011
0
LINE
8
BLACK
6
CONTINUOUS
10
121.9503849999999971
20
-65.8637930000000011
11
122.0642659999999893
21
-66.1387249999999938
0
LINE
8
BLACK
6
CONTINUOUS
10
122.0642659999999893
20
-66.1387249999999938
11
122.1412869999999913
21
-66.426169999999999
0
LINE
8
BLACK
6
CONTINUOUS
10
122.1412869999999913
20
-66.426169999999999
11
122.1801289999999938
21
-66.7212079999999901
0
LINE
8
BLACK
6
CONTINUOUS
10
122.1801289999999938
20
-66.7212079999999901
11
122.1801289999999938
21
-67.0187919999999906
0
LINE
8
BLACK
6
CONTINUOUS
10
122.1801289999999938
20
-67.0187919999999906
11
122.1412869999999913
21
-67.3138299999999958
0
LINE
8
BLACK
6
CONTINUOUS
10
122.1412869999999913
20
-67.3138299999999958
11
122.0642659999999893
21
-67.6012750000000011
0
LINE
8
BLACK
6
CONTINUOUS
10
122.0642659999999893
20
-67.6012750000000011
11
121.9503849999999971
21
-67.8762069999999937
0
LINE
8
BLACK
6
CONTINUOUS
10
121.9503849999999971
20
-67.8762069999999937
11
121.8015929999999969
21
-68.1339219999999983
0
LINE
8
BLACK
6
CONTINUOUS
10
121.8015929999999969
20
-68.1339219999999983
11
121.620435999999998
21
-68.3700120000000027
0
LINE
8
BLACK
6
CONTINUOUS
10
121.620435999999998
20
-68.3700120000000027
11
121.4100119999999947
21
-68.5804359999999917
0
LINE
8
BLACK
6
CONTINUOUS
10
121.4100119999999947
20
-68.5804359999999917
11
121.1739219999999904
21
-68.7615929999999906
0
LINE
8
BLACK
6
CONTINUOUS
10
121.1739219999999904
20
-68.7615929999999906
11
120.916207
21
-68.9103849999999909
0
LINE
8
BLACK
6
CONTINUOUS
10
120.916207
20
-68.9103849999999909
11
120.6412749999999932
21
-69.0242659999999972
0
LINE
8
BLACK
6
CONTINUOUS
10
120.6412749999999932
20
-69.0242659999999972
11
120.3538299999999879
21
-69.1012869999999992
0
LINE
8
BLACK
6
CONTINUOUS
10
120.3538299999999879
20
-69.1012869999999992
11
120.0587919999999968
21
-69.1401290000000017
0
LINE
8
BLACK
6
CONTINUOUS
10
120.0587919999999968
20
-69.1401290000000017
11
119.7612079999999963
21
-69.1401290000000017
0
LINE
8
BLACK
6
CONTINUOUS
10
119.7612079999999963
20
-69.1401290000000017
11
119.4661699999999911
21
-69.1012869999999992
0
LINE
8
BLACK
6
CONTINUOUS
10
119.4661699999999911
20
-69.1012869999999992
11
119.178725
21
-69.0242659999999972
0
LINE
8
BLACK
6
CONTINUOUS
10
119.178725
20
-69.0242659999999972
11
118.9037929999999932
21
-68.9103849999999909
0
LINE
8
BLACK
6
CONTINUOUS
10
118.9037929999999932
20
-68.9103849999999909
11
118.6460779999999886
21
-68.7615929999999906
0
LINE
8
BLACK
6
CONTINUOUS
10
118.6460779999999886
20
-68.7615929999999906
11
118.4099879999999985
21
-68.5804359999999917
0
LINE
8
BLACK
6
CONTINUOUS
10
118.4099879999999985
20
-68.5804359999999917
11
118.1995639999999952
21
-68.3700120000000027
0
LINE
8
BLACK
6
CONTINUOUS
10
118.1995639999999952
20
-68.3700120000000027
11
118.0184069999999963
21
-68.1339219999999983
0
LINE
8
BLACK
6
CONTINUOUS
10
118.0184069999999963
20
-68.1339219999999983
11
117.869614999999996
21
-67.8762069999999937
0
LINE
8
BLACK
6
CONTINUOUS
10
117.869614999999996
20
-67.8762069999999937
11
117.7557339999999897
21
-67.6012750000000011
0
LINE
8
BLACK
6
CONTINUOUS
10
117.7557339999999897
20
-67.6012750000000011
11
117.6787129999999877
21
-67.3138299999999958
0
LINE
8
BLACK
6
CONTINUOUS
10
117.6787129999999877
20
-67.3138299999999958
11
117.6398709999999994
21
-67.0187919999999906
0
LINE
8
BLACK
6
CONTINUOUS
10
117.6398709999999994
20
-67.0187919999999906
11
117.6398709999999994
21
-66.7307199999999909
0
LINE
8
BLACK
6
CONTINUOUS
10
117.6398709999999994
20
-66.7307199999999909
11
117.6398709999999994
21
-66.7212079999999901
0
LINE
8
BLACK
6
CONTINUOUS
10
117.6398709999999994
20
-66.7212079999999901
11
117.6787129999999877
21
-66.426169999999999
0
LINE
8
BLACK
6
CONTINUOUS
10
117.6787129999999877
20
-66.426169999999999
11
117.7557339999999897
21
-66.1387249999999938
0
LINE
8
BLACK
6
CONTINUOUS
10
117.7557339999999897
20
-66.1387249999999938
11
117.869614999999996
21
-65.8637930000000011
0
LINE
8
BLACK
6
CONTINUOUS
10
117.869614999999996
20
-65.8637930000000011
11
118.0184069999999963
21
-65.6060779999999966
0
LINE
8
BLACK
6
CONTINUOUS
10
118.0184069999999963
20
-65.6060779999999966
11
118.1995639999999952
21
-65.3699879999999922
0
LINE
8
BLACK
6
CONTINUOUS
10
118.1995639999999952
20
-65.3699879999999922
11
118.4099879999999985
21
-65.1595640000000031
0
LINE
8
BLACK
6
CONTINUOUS
10
118.4099879999999985
20
-65.1595640000000031
11
118.6460779999999886
21
-64.97840699999999
0
LINE
8
BLACK
6
CONTINUOUS
10
118.6460779999999886
20
-64.97840699999999
11
118.9037929999999932
21
-64.829615000000004
0
LINE
8
BLACK
6
CONTINUOUS
10
118.9037929999999932
20
-64.829615000000004
11
119.178725
21
-64.7157339999999976
0
LINE
8
BLACK
6
CONTINUOUS
10
119.178725
20
-64.7157339999999976
11
119.4661699999999911
21
-64.6387129999999956
0
LINE
8
BLACK
6
CONTINUOUS
10
119.4661699999999911
20
-64.6387129999999956
11
119.7612079999999963
21
-64.5998709999999932
0
LINE
8
BLACK
6
CONTINUOUS
10
119.7612079999999963
20
-64.5998709999999932
11
120.0587919999999968
21
-64.5998709999999932
0
LINE
8
BLACK
6
CONTINUOUS
10
120.0587919999999968
20
-64.5998709999999932
11
120.3538299999999879
21
-64.6387129999999956
0
LINE
8
BLACK
6
CONTINUOUS
10
117.7849999999999966
20
-67.009280000000004
11
117.8213590000000011
21
-67.2854569999999939
0
LINE
8
BLACK
6
CONTINUOUS
10
117.8213590000000011
20
-67.2854569999999939
11
117.8934549999999888
21
-67.5545249999999982
0
LINE
8
BLACK
6
CONTINUOUS
10
117.8934549999999888
20
-67.5545249999999982
11
118.0000560000000007
21
-67.8118800000000022
0
LINE
8
BLACK
6
CONTINUOUS
10
118.0000560000000007
20
-67.8118800000000022
11
118.1393360000000001
21
-68.0531199999999927
0
LINE
8
BLACK
6
CONTINUOUS
10
118.1393360000000001
20
-68.0531199999999927
11
118.3089119999999923
21
-68.2741159999999923
0
LINE
8
BLACK
6
CONTINUOUS
10
118.3089119999999923
20
-68.2741159999999923
11
118.5058839999999947
21
-68.4710879999999946
0
LINE
8
BLACK
6
CONTINUOUS
10
118.5058839999999947
20
-68.4710879999999946
11
118.7268799999999942
21
-68.640664000000001
0
LINE
8
BLACK
6
CONTINUOUS
10
118.7268799999999942
20
-68.640664000000001
11
118.968119999999999
21
-68.7799440000000004
0
LINE
8
BLACK
6
CONTINUOUS
10
118.968119999999999
20
-68.7799440000000004
11
119.2254749999999888
21
-68.8865449999999981
0
LINE
8
BLACK
6
CONTINUOUS
10
119.2254749999999888
20
-68.8865449999999981
11
119.4945429999999931
21
-68.9586410000000001
0
LINE
8
BLACK
6
CONTINUOUS
10
119.4945429999999931
20
-68.9586410000000001
11
119.7707199999999972
21
-68.9949999999999903
0
LINE
8
BLACK
6
CONTINUOUS
10
119.7707199999999972
20
-68.9949999999999903
11
120.049279999999996
21
-68.9949999999999903
0
LINE
8
BLACK
6
CONTINUOUS
10
120.049279999999996
20
-68.9949999999999903
11
120.3254570000000001
21
-68.9586410000000001
0
LINE
8
BLACK
6
CONTINUOUS
10
120.3254570000000001
20
-68.9586410000000001
11
120.5945249999999902
21
-68.8865449999999981
0
LINE
8
BLACK
6
CONTINUOUS
10
120.5945249999999902
20
-68.8865449999999981
11
120.8518799999999942
21
-68.7799440000000004
0
LINE
8
BLACK
6
CONTINUOUS
10
120.8518799999999942
20
-68.7799440000000004
11
121.093119999999999
21
-68.640664000000001
0
LINE
8
BLACK
6
CONTINUOUS
10
121.093119999999999
20
-68.640664000000001
11
121.3141159999999985
21
-68.4710879999999946
0
LINE
8
BLACK
6
CONTINUOUS
10
121.3141159999999985
20
-68.4710879999999946
11
121.5110880000000009
21
-68.2741159999999923
0
LINE
8
BLACK
6
CONTINUOUS
10
121.5110880000000009
20
-68.2741159999999923
11
121.6806639999999931
21
-68.0531199999999927
0
LINE
8
BLACK
6
CONTINUOUS
10
121.6806639999999931
20
-68.0531199999999927
11
121.8199439999999925
21
-67.8118800000000022
0
LINE
8
BLACK
6
CONTINUOUS
10
121.8199439999999925
20
-67.8118800000000022
11
121.9265449999999902
21
-67.5545249999999982
0
LINE
8
BLACK
6
CONTINUOUS
10
121.9265449999999902
20
-67.5545249999999982
11
121.9986409999999921
21
-67.2854569999999939
0
LINE
8
BLACK
6
CONTINUOUS
10
121.9986409999999921
20
-67.2854569999999939
11
122.0349999999999966
21
-67.009280000000004
0
LINE
8
BLACK
6
CONTINUOUS
10
122.0349999999999966
20
-67.009280000000004
11
122.0349999999999966
21
-66.7307199999999909
0
LINE
8
BLACK
6
CONTINUOUS
10
122.0349999999999966
20
-66.7307199999999909
11
121.9986409999999921
21
-66.454543000000001
0
LINE
8
BLACK
6
CONTINUOUS
10
121.9986409999999921
20
-66.454543000000001
11
121.9265449999999902
21
-66.1854749999999967
0
LINE
8
BLACK
6
CONTINUOUS
10
121.9265449999999902
20
-66.1854749999999967
11
121.8199439999999925
21
-65.9281199999999927
0
LINE
8
BLACK
6
CONTINUOUS
10
121.8199439999999925
20
-65.9281199999999927
11
121.6806639999999931
21
-65.6868800000000022
0
LINE
8
BLACK
6
CONTINUOUS
10
121.6806639999999931
20
-65.6868800000000022
11
121.5110880000000009
21
-65.4658840000000026
0
LINE
8
BLACK
6
CONTINUOUS
10
121.5110880000000009
20
-65.4658840000000026
11
121.3141159999999985
21
-65.2689120000000003
0
LINE
8
BLACK
6
CONTINUOUS
10
121.3141159999999985
20
-65.2689120000000003
11
121.093119999999999
21
-65.0993359999999939
0
LINE
8
BLACK
6
CONTINUOUS
10
121.093119999999999
20
-65.0993359999999939
11
120.8518799999999942
21
-64.9600559999999945
0
LINE
8
BLACK
6
CONTINUOUS
10
120.8518799999999942
20
-64.9600559999999945
11
120.5945249999999902
21
-64.8534549999999967
0
LINE
8
BLACK
6
CONTINUOUS
10
120.5945249999999902
20
-64.8534549999999967
11
120.3254570000000001
21
-64.7813589999999948
0
LINE
8
BLACK
6
CONTINUOUS
10
120.3254570000000001
20
-64.7813589999999948
11
120.049279999999996
21
-64.7449999999999903
0
LINE
8
BLACK
6
CONTINUOUS
10
120.049279999999996
20
-64.7449999999999903
11
119.7707199999999972
21
-64.7449999999999903
0
LINE
8
BLACK
6
CONTINUOUS
10
119.7707199999999972
20
-64.7449999999999903
11
119.4945429999999931
21
-64.7813589999999948
0
LINE
8
BLACK
6
CONTINUOUS
10
119.4945429999999931
20
-64.7813589999999948
11
119.2254749999999888
21
-64.8534549999999967
0
LINE
8
BLACK
6
CONTINUOUS
10
119.2254749999999888
20
-64.8534549999999967
11
118.968119999999999
21
-64.9600559999999945
0
LINE
8
BLACK
6
CONTINUOUS
10
118.968119999999999
20
-64.9600559999999945
11
118.7268799999999942
21
-65.0993359999999939
0
LINE
8
BLACK
6
CONTINUOUS
10
118.7268799999999942
20
-65.0993359999999939
11
118.5058839999999947
21
-65.2689120000000003
0
LINE
8
BLACK
6
CONTINUOUS
10
118.5058839999999947
20
-65.2689120000000003
11
118.3089119999999923
21
-65.4658840000000026
0
LINE
8
BLACK
6
CONTINUOUS
10
118.3089119999999923
20
-65.4658840000000026
11
118.1393360000000001
21
-65.6868800000000022
0
LINE
8
BLACK
6
CONTINUOUS
10
118.1393360000000001
20
-65.6868800000000022
11
118.0000560000000007
21
-65.9281199999999927
0
LINE
8
BLACK
6
CONTINUOUS
10
118.0000560000000007
20
-65.9281199999999927
11
117.8934549999999888
21
-66.1854749999999967
0
LINE
8
BLACK
6
CONTINUOUS
10
117.8934549999999888
20
-66.1854749999999967
11
117.8213590000000011
21
-66.454543000000001
0
LINE
8
BLACK
6
CONTINUOUS
10
117.8213590000000011
20
-66.454543000000001
11
117.7849999999999966
21
-66.7307199999999909
0
LINE
8
BLACK
6
CONTINUOUS
10
117.7849999999999966
20
-66.7307199999999909
11
117.7849999999999966
21
-67.009280000000004
0
LINE
8
BLACK
6
CONTINUOUS
10
120.3245779999999883
20
-64.4299689999999998
11
120.595168000000001
21
-64.491730000000004
0
LINE
8
BLACK
6
CONTINUOUS
10
120.595168000000001
20
-64.491730000000004
11
120.8571409999999986
21
-64.5833980000000025
0
LINE
8
BLACK
6
CONTINUOUS
10
120.8571409999999986
20
-64.5833980000000025
11
121.1072039999999959
21
-64.7038220000000024
0
LINE
8
BLACK
6
CONTINUOUS
10
121.1072039999999959
20
-64.7038220000000024
11
121.3422109999999918
21
-64.8514869999999917
0
LINE
8
BLACK
6
CONTINUOUS
10
121.3422109999999918
20
-64.8514869999999917
11
121.5592079999999982
21
-65.0245359999999977
0
LINE
8
BLACK
6
CONTINUOUS
10
121.5592079999999982
20
-65.0245359999999977
11
121.7554639999999893
21
-65.220792000000003
0
LINE
8
BLACK
6
CONTINUOUS
10
121.7554639999999893
20
-65.220792000000003
11
121.9285129999999953
21
-65.4377889999999951
0
LINE
8
BLACK
6
CONTINUOUS
10
121.9285129999999953
20
-65.4377889999999951
11
122.0761779999999987
21
-65.6727959999999911
0
LINE
8
BLACK
6
CONTINUOUS
10
122.0761779999999987
20
-65.6727959999999911
11
122.1966019999999986
21
-65.9228590000000025
0
LINE
8
BLACK
6
CONTINUOUS
10
122.1966019999999986
20
-65.9228590000000025
11
122.2882699999999971
21
-66.1848320000000001
0
LINE
8
BLACK
6
CONTINUOUS
10
122.2882699999999971
20
-66.1848320000000001
11
122.3500310000000013
21
-66.4554219999999987
0
LINE
8
BLACK
6
CONTINUOUS
10
122.3500310000000013
20
-66.4554219999999987
11
122.3811059999999884
21
-66.7312259999999924
0
LINE
8
BLACK
6
CONTINUOUS
10
122.3811059999999884
20
-66.7312259999999924
11
122.3811059999999884
21
-67.0087740000000025
0
LINE
8
BLACK
6
CONTINUOUS
10
122.3811059999999884
20
-67.0087740000000025
11
122.3500310000000013
21
-67.2845779999999962
0
LINE
8
BLACK
6
CONTINUOUS
10
122.3500310000000013
20
-67.2845779999999962
11
122.2882699999999971
21
-67.5551679999999948
0
LINE
8
BLACK
6
CONTINUOUS
10
122.2882699999999971
20
-67.5551679999999948
11
122.1966019999999986
21
-67.8171409999999923
0
LINE
8
BLACK
6
CONTINUOUS
10
122.1966019999999986
20
-67.8171409999999923
11
122.0761779999999987
21
-68.0672040000000038
0
LINE
8
BLACK
6
CONTINUOUS
10
122.0761779999999987
20
-68.0672040000000038
11
121.9285129999999953
21
-68.3022109999999998
0
LINE
8
BLACK
6
CONTINUOUS
10
121.9285129999999953
20
-68.3022109999999998
11
121.7554639999999893
21
-68.5192079999999919
0
LINE
8
BLACK
6
CONTINUOUS
10
121.7554639999999893
20
-68.5192079999999919
11
121.5592079999999982
21
-68.7154639999999972
0
LINE
8
BLACK
6
CONTINUOUS
10
121.5592079999999982
20
-68.7154639999999972
11
121.3422109999999918
21
-68.8885130000000032
0
LINE
8
BLACK
6
CONTINUOUS
10
121.3422109999999918
20
-68.8885130000000032
11
121.1072039999999959
21
-69.0361779999999925
0
LINE
8
BLACK
6
CONTINUOUS
10
121.1072039999999959
20
-69.0361779999999925
11
120.8571409999999986
21
-69.1566019999999924
0
LINE
8
BLACK
6
CONTINUOUS
10
120.8571409999999986
20
-69.1566019999999924
11
120.595168000000001
21
-69.2482699999999909
0
LINE
8
BLACK
6
CONTINUOUS
10
120.595168000000001
20
-69.2482699999999909
11
120.3245779999999883
21
-69.3100309999999951
0
LINE
8
BLACK
6
CONTINUOUS
10
120.3245779999999883
20
-69.3100309999999951
11
120.0487739999999945
21
-69.3411059999999964
0
LINE
8
BLACK
6
CONTINUOUS
10
120.0487739999999945
20
-69.3411059999999964
11
119.7712259999999986
21
-69.3411059999999964
0
LINE
8
BLACK
6
CONTINUOUS
10
119.7712259999999986
20
-69.3411059999999964
11
119.4954219999999907
21
-69.3100309999999951
0
LINE
8
BLACK
6
CONTINUOUS
10
119.4954219999999907
20
-69.3100309999999951
11
119.2248319999999921
21
-69.2482699999999909
0
LINE
8
BLACK
6
CONTINUOUS
10
119.2248319999999921
20
-69.2482699999999909
11
118.9628589999999946
21
-69.1566019999999924
0
LINE
8
BLACK
6
CONTINUOUS
10
118.9628589999999946
20
-69.1566019999999924
11
118.7127959999999973
21
-69.0361779999999925
0
LINE
8
BLACK
6
CONTINUOUS
10
118.7127959999999973
20
-69.0361779999999925
11
118.4777890000000014
21
-68.8885130000000032
0
LINE
8
BLACK
6
CONTINUOUS
10
118.4777890000000014
20
-68.8885130000000032
11
118.260791999999995
21
-68.7154639999999972
0
LINE
8
BLACK
6
CONTINUOUS
10
118.260791999999995
20
-68.7154639999999972
11
118.0645359999999897
21
-68.5192079999999919
0
LINE
8
BLACK
6
CONTINUOUS
10
118.0645359999999897
20
-68.5192079999999919
11
117.8914869999999979
21
-68.3022109999999998
0
LINE
8
BLACK
6
CONTINUOUS
10
117.8914869999999979
20
-68.3022109999999998
11
117.7438219999999944
21
-68.0672040000000038
0
LINE
8
BLACK
6
CONTINUOUS
10
117.7438219999999944
20
-68.0672040000000038
11
117.6233979999999946
21
-67.8171409999999923
0
LINE
8
BLACK
6
CONTINUOUS
10
117.6233979999999946
20
-67.8171409999999923
11
117.531729999999996
21
-67.5551679999999948
0
LINE
8
BLACK
6
CONTINUOUS
10
117.531729999999996
20
-67.5551679999999948
11
117.4699689999999919
21
-67.2845779999999962
0
LINE
8
BLACK
6
CONTINUOUS
10
117.4699689999999919
20
-67.2845779999999962
11
117.4388939999999906
21
-67.0087740000000025
0
LINE
8
BLACK
6
CONTINUOUS
10
117.4388939999999906
20
-67.0087740000000025
11
117.4388939999999906
21
-66.7338149999999928
0
LINE
8
BLACK
6
CONTINUOUS
10
117.4388939999999906
20
-66.7338149999999928
11
117.4388939999999906
21
-66.7312259999999924
0
LINE
8
BLACK
6
CONTINUOUS
10
117.4388939999999906
20
-66.7312259999999924
11
117.4699689999999919
21
-66.4554219999999987
0
LINE
8
BLACK
6
CONTINUOUS
10
117.4699689999999919
20
-66.4554219999999987
11
117.531729999999996
21
-66.1848320000000001
0
LINE
8
BLACK
6
CONTINUOUS
10
117.531729999999996
20
-66.1848320000000001
11
117.6233979999999946
21
-65.9228590000000025
0
LINE
8
BLACK
6
CONTINUOUS
10
117.6233979999999946
20
-65.9228590000000025
11
117.7438219999999944
21
-65.6727959999999911
0
LINE
8
BLACK
6
CONTINUOUS
10
117.7438219999999944
20
-65.6727959999999911
11
117.8914869999999979
21
-65.4377889999999951
0
LINE
8
BLACK
6
CONTINUOUS
10
117.8914869999999979
20
-65.4377889999999951
11
118.0645359999999897
21
-65.220792000000003
0
LINE
8
BLACK
6
CONTINUOUS
10
118.0645359999999897
20
-65.220792000000003
11
118.260791999999995
21
-65.0245359999999977
0
LINE
8
BLACK
6
CONTINUOUS
10
118.260791999999995
20
-65.0245359999999977
11
118.4777890000000014
21
-64.8514869999999917
0
LINE
8
BLACK
6
CONTINUOUS
10
118.4777890000000014
20
-64.8514869999999917
11
118.7127959999999973
21
-64.7038220000000024
0
LINE
8
BLACK
6
CONTINUOUS
10
118.7127959999999973
20
-64.7038220000000024
11
118.9628589999999946
21
-64.5833980000000025
0
LINE
8
BLACK
6
CONTINUOUS
10
118.9628589999999946
20
-64.5833980000000025
11
119.2248319999999921
21
-64.491730000000004
0
LINE
8
BLACK
6
CONTINUOUS
10
119.2248319999999921
20
-64.491730000000004
11
119.4954219999999907
21
-64.4299689999999998
0
LINE
8
BLACK
6
CONTINUOUS
10
119.4954219999999907
20
-64.4299689999999998
11
119.7712259999999986
21
-64.3988939999999985
0
LINE
8
BLACK
6
CONTINUOUS
10
119.7712259999999986
20
-64.3988939999999985
11
120.0487739999999945
21
-64.3988939999999985
0
LINE
8
BLACK
6
CONTINUOUS
10
120.0487739999999945
20
-64.3988939999999985
11
120.3245779999999883
21
-64.4299689999999998
0
LINE
8
BLACK
6
CONTINUOUS
10
117.4849999999999994
20
-67.0061850000000021
11
117.5154959999999988
21
-67.2768429999999995
0
LINE
8
BLACK
6
CONTINUOUS
10
117.5154959999999988
20
-67.2768429999999995
11
117.5761040000000008
21
-67.5423839999999984
0
LINE
8
BLACK
6
CONTINUOUS
10
117.5761040000000008
20
-67.5423839999999984
11
117.6660619999999966
21
-67.7994699999999995
0
LINE
8
BLACK
6
CONTINUOUS
10
117.6660619999999966
20
-67.7994699999999995
11
117.7842389999999995
21
-68.0448669999999964
0
LINE
8
BLACK
6
CONTINUOUS
10
117.7842389999999995
20
-68.0448669999999964
11
117.9291489999999953
21
-68.2754889999999932
0
LINE
8
BLACK
6
CONTINUOUS
10
117.9291489999999953
20
-68.2754889999999932
11
118.0989689999999968
21
-68.4884369999999905
0
LINE
8
BLACK
6
CONTINUOUS
10
118.0989689999999968
20
-68.4884369999999905
11
118.2915629999999965
21
-68.6810309999999902
0
LINE
8
BLACK
6
CONTINUOUS
10
118.2915629999999965
20
-68.6810309999999902
11
118.5045109999999937
21
-68.8508509999999916
0
LINE
8
BLACK
6
CONTINUOUS
10
118.5045109999999937
20
-68.8508509999999916
11
118.7351329999999905
21
-68.9957610000000017
0
LINE
8
BLACK
6
CONTINUOUS
10
118.7351329999999905
20
-68.9957610000000017
11
118.9805300000000017
21
-69.1139379999999903
0
LINE
8
BLACK
6
CONTINUOUS
10
118.9805300000000017
20
-69.1139379999999903
11
119.2376159999999885
21
-69.2038960000000003
0
LINE
8
BLACK
6
CONTINUOUS
10
119.2376159999999885
20
-69.2038960000000003
11
119.5031570000000016
21
-69.2645040000000023
0
LINE
8
BLACK
6
CONTINUOUS
10
119.5031570000000016
20
-69.2645040000000023
11
119.773814999999999
21
-69.2950000000000017
0
LINE
8
BLACK
6
CONTINUOUS
10
119.773814999999999
20
-69.2950000000000017
11
120.0461849999999941
21
-69.2950000000000017
0
LINE
8
BLACK
6
CONTINUOUS
10
120.0461849999999941
20
-69.2950000000000017
11
120.3168429999999915
21
-69.2645040000000023
0
LINE
8
BLACK
6
CONTINUOUS
10
120.3168429999999915
20
-69.2645040000000023
11
120.5823839999999905
21
-69.2038960000000003
0
LINE
8
BLACK
6
CONTINUOUS
10
120.5823839999999905
20
-69.2038960000000003
11
120.8394699999999915
21
-69.1139379999999903
0
LINE
8
BLACK
6
CONTINUOUS
10
120.8394699999999915
20
-69.1139379999999903
11
121.0848669999999885
21
-68.9957610000000017
0
LINE
8
BLACK
6
CONTINUOUS
10
121.0848669999999885
20
-68.9957610000000017
11
121.3154889999999995
21
-68.8508509999999916
0
LINE
8
BLACK
6
CONTINUOUS
10
121.3154889999999995
20
-68.8508509999999916
11
121.5284369999999967
21
-68.6810309999999902
0
LINE
8
BLACK
6
CONTINUOUS
10
121.5284369999999967
20
-68.6810309999999902
11
121.7210309999999964
21
-68.4884369999999905
0
LINE
8
BLACK
6
CONTINUOUS
10
121.7210309999999964
20
-68.4884369999999905
11
121.8908509999999978
21
-68.2754889999999932
0
LINE
8
BLACK
6
CONTINUOUS
10
121.8908509999999978
20
-68.2754889999999932
11
122.0357609999999937
21
-68.0448669999999964
0
LINE
8
BLACK
6
CONTINUOUS
10
122.0357609999999937
20
-68.0448669999999964
11
122.1539379999999966
21
-67.7994699999999995
0
LINE
8
BLACK
6
CONTINUOUS
10
122.1539379999999966
20
-67.7994699999999995
11
122.2438959999999923
21
-67.5423839999999984
0
LINE
8
BLACK
6
CONTINUOUS
10
122.2438959999999923
20
-67.5423839999999984
11
122.3045039999999943
21
-67.2768429999999995
0
LINE
8
BLACK
6
CONTINUOUS
10
122.3045039999999943
20
-67.2768429999999995
11
122.3349999999999937
21
-67.0061850000000021
0
LINE
8
BLACK
6
CONTINUOUS
10
122.3349999999999937
20
-67.0061850000000021
11
122.3349999999999937
21
-66.7338149999999928
0
LINE
8
BLACK
6
CONTINUOUS
10
122.3349999999999937
20
-66.7338149999999928
11
122.3045039999999943
21
-66.4631569999999954
0
LINE
8
BLACK
6
CONTINUOUS
10
122.3045039999999943
20
-66.4631569999999954
11
122.2438959999999923
21
-66.1976159999999965
0
LINE
8
BLACK
6
CONTINUOUS
10
122.2438959999999923
20
-66.1976159999999965
11
122.1539379999999966
21
-65.9405299999999954
0
LINE
8
BLACK
6
CONTINUOUS
10
122.1539379999999966
20
-65.9405299999999954
11
122.0357609999999937
21
-65.6951329999999984
0
LINE
8
BLACK
6
CONTINUOUS
10
122.0357609999999937
20
-65.6951329999999984
11
121.8908509999999978
21
-65.4645110000000017
0
LINE
8
BLACK
6
CONTINUOUS
10
121.8908509999999978
20
-65.4645110000000017
11
121.7210309999999964
21
-65.2515629999999902
0
LINE
8
BLACK
6
CONTINUOUS
10
121.7210309999999964
20
-65.2515629999999902
11
121.5284369999999967
21
-65.0589689999999905
0
LINE
8
BLACK
6
CONTINUOUS
10
121.5284369999999967
20
-65.0589689999999905
11
121.3154889999999995
21
-64.8891490000000033
0
LINE
8
BLACK
6
CONTINUOUS
10
121.3154889999999995
20
-64.8891490000000033
11
121.0848669999999885
21
-64.7442389999999932
0
LINE
8
BLACK
6
CONTINUOUS
10
121.0848669999999885
20
-64.7442389999999932
11
120.8394699999999915
21
-64.6260619999999903
0
LINE
8
BLACK
6
CONTINUOUS
10
120.8394699999999915
20
-64.6260619999999903
11
120.5823839999999905
21
-64.5361039999999946
0
LINE
8
BLACK
6
CONTINUOUS
10
120.5823839999999905
20
-64.5361039999999946
11
120.3168429999999915
21
-64.4754959999999926
0
LINE
8
BLACK
6
CONTINUOUS
10
120.3168429999999915
20
-64.4754959999999926
11
120.0461849999999941
21
-64.4449999999999932
0
LINE
8
BLACK
6
CONTINUOUS
10
120.0461849999999941
20
-64.4449999999999932
11
119.773814999999999
21
-64.4449999999999932
0
LINE
8
BLACK
6
CONTINUOUS
10
119.773814999999999
20
-64.4449999999999932
11
119.5031570000000016
21
-64.4754959999999926
0
LINE
8
BLACK
6
CONTINUOUS
10
119.5031570000000016
20
-64.4754959999999926
11
119.2376159999999885
21
-64.5361039999999946
0
LINE
8
BLACK
6
CONTINUOUS
10
119.2376159999999885
20
-64.5361039999999946
11
118.9805300000000017
21
-64.6260619999999903
0
LINE
8
BLACK
6
CONTINUOUS
10
118.9805300000000017
20
-64.6260619999999903
11
118.7351329999999905
21
-64.7442389999999932
0
LINE
8
BLACK
6
CONTINUOUS
10
118.7351329999999905
20
-64.7442389999999932
11
118.5045109999999937
21
-64.8891490000000033
0
LINE
8
BLACK
6
CONTINUOUS
10
118.5045109999999937
20
-64.8891490000000033
11
118.2915629999999965
21
-65.0589689999999905
0
LINE
8
BLACK
6
CONTINUOUS
10
118.2915629999999965
20
-65.0589689999999905
11
118.0989689999999968
21
-65.2515629999999902
0
LINE
8
BLACK
6
CONTINUOUS
10
118.0989689999999968
20
-65.2515629999999902
11
117.9291489999999953
21
-65.4645110000000017
0
LINE
8
BLACK
6
CONTINUOUS
10
117.9291489999999953
20
-65.4645110000000017
11
117.7842389999999995
21
-65.6951329999999984
0
LINE
8
BLACK
6
CONTINUOUS
10
117.7842389999999995
20
-65.6951329999999984
11
117.6660619999999966
21
-65.9405299999999954
0
LINE
8
BLACK
6
CONTINUOUS
10
117.6660619999999966
20
-65.9405299999999954
11
117.5761040000000008
21
-66.1976159999999965
0
LINE
8
BLACK
6
CONTINUOUS
10
117.5761040000000008
20
-66.1976159999999965
11
117.5154959999999988
21
-66.4631569999999954
0
LINE
8
BLACK
6
CONTINUOUS
10
117.5154959999999988
20
-66.4631569999999954
11
117.4849999999999994
21
-66.7338149999999928
0
LINE
8
BLACK
6
CONTINUOUS
10
117.4849999999999994
20
-66.7338149999999928
11
117.4849999999999994
21
-67.0061850000000021
0
LINE
8
BLACK
6
CONTINUOUS
10
195.4538299999999822
20
-61.5187129999999982
11
195.7412750000000017
21
-61.5957340000000002
0
LINE
8
BLACK
6
CONTINUOUS
10
195.7412750000000017
20
-61.5957340000000002
11
196.0162069999999801
21
-61.7096149999999994
0
LINE
8
BLACK
6
CONTINUOUS
10
196.0162069999999801
20
-61.7096149999999994
11
196.2739219999999989
21
-61.8584069999999997
0
LINE
8
BLACK
6
CONTINUOUS
10
196.2739219999999989
20
-61.8584069999999997
11
196.510011999999989
21
-62.0395639999999986
0
LINE
8
BLACK
6
CONTINUOUS
10
196.510011999999989
20
-62.0395639999999986
11
196.7204359999999781
21
-62.2499879999999948
0
LINE
8
BLACK
6
CONTINUOUS
10
196.7204359999999781
20
-62.2499879999999948
11
196.9015929999999912
21
-62.4860779999999991
0
LINE
8
BLACK
6
CONTINUOUS
10
196.9015929999999912
20
-62.4860779999999991
11
197.0503849999999773
21
-62.7437929999999966
0
LINE
8
BLACK
6
CONTINUOUS
10
197.0503849999999773
20
-62.7437929999999966
11
197.1642659999999978
21
-63.0187249999999963
0
LINE
8
BLACK
6
CONTINUOUS
10
197.1642659999999978
20
-63.0187249999999963
11
197.2412869999999998
21
-63.3061699999999945
0
LINE
8
BLACK
6
CONTINUOUS
10
197.2412869999999998
20
-63.3061699999999945
11
197.2801289999999881
21
-63.6012079999999997
0
LINE
8
BLACK
6
CONTINUOUS
10
197.2801289999999881
20
-63.6012079999999997
11
197.2801289999999881
21
-63.8987920000000003
0
LINE
8
BLACK
6
CONTINUOUS
10
197.2801289999999881
20
-63.8987920000000003
11
197.2412869999999998
21
-64.1938299999999913
0
LINE
8
BLACK
6
CONTINUOUS
10
197.2412869999999998
20
-64.1938299999999913
11
197.1642659999999978
21
-64.4812749999999966
0
LINE
8
BLACK
6
CONTINUOUS
10
197.1642659999999978
20
-64.4812749999999966
11
197.0503849999999773
21
-64.7562070000000034
0
LINE
8
BLACK
6
CONTINUOUS
10
197.0503849999999773
20
-64.7562070000000034
11
196.9015929999999912
21
-65.0139219999999938
0
LINE
8
BLACK
6
CONTINUOUS
10
196.9015929999999912
20
-65.0139219999999938
11
196.7204359999999781
21
-65.2500119999999981
0
LINE
8
BLACK
6
CONTINUOUS
10
196.7204359999999781
20
-65.2500119999999981
11
196.510011999999989
21
-65.4604360000000014
0
LINE
8
BLACK
6
CONTINUOUS
10
196.510011999999989
20
-65.4604360000000014
11
196.2739219999999989
21
-65.6415930000000003
0
LINE
8
BLACK
6
CONTINUOUS
10
196.2739219999999989
20
-65.6415930000000003
11
196.0162069999999801
21
-65.7903850000000006
0
LINE
8
BLACK
6
CONTINUOUS
10
196.0162069999999801
20
-65.7903850000000006
11
195.7412750000000017
21
-65.9042659999999927
0
LINE
8
BLACK
6
CONTINUOUS
10
195.7412750000000017
20
-65.9042659999999927
11
195.4538299999999822
21
-65.9812869999999947
0
LINE
8
BLACK
6
CONTINUOUS
10
195.4538299999999822
20
-65.9812869999999947
11
195.1587920000000054
21
-66.0201289999999972
0
LINE
8
BLACK
6
CONTINUOUS
10
195.1587920000000054
20
-66.0201289999999972
11
194.8612080000000049
21
-66.0201289999999972
0
LINE
8
BLACK
6
CONTINUOUS
10
194.8612080000000049
20
-66.0201289999999972
11
194.5661699999999996
21
-65.9812869999999947
0
LINE
8
BLACK
6
CONTINUOUS
10
194.5661699999999996
20
-65.9812869999999947
11
194.2787249999999801
21
-65.9042659999999927
0
LINE
8
BLACK
6
CONTINUOUS
10
194.2787249999999801
20
-65.9042659999999927
11
194.0037930000000017
21
-65.7903850000000006
0
LINE
8
BLACK
6
CONTINUOUS
10
194.0037930000000017
20
-65.7903850000000006
11
193.7460779999999829
21
-65.6415930000000003
0
LINE
8
BLACK
6
CONTINUOUS
10
193.7460779999999829
20
-65.6415930000000003
11
193.5099879999999928
21
-65.4604360000000014
0
LINE
8
BLACK
6
CONTINUOUS
10
193.5099879999999928
20
-65.4604360000000014
11
193.2995640000000037
21
-65.2500119999999981
0
LINE
8
BLACK
6
CONTINUOUS
10
193.2995640000000037
20
-65.2500119999999981
11
193.1184069999999906
21
-65.0139219999999938
0
LINE
8
BLACK
6
CONTINUOUS
10
193.1184069999999906
20
-65.0139219999999938
11
192.9696150000000046
21
-64.7562070000000034
0
LINE
8
BLACK
6
CONTINUOUS
10
192.9696150000000046
20
-64.7562070000000034
11
192.855733999999984
21
-64.4812749999999966
0
LINE
8
BLACK
6
CONTINUOUS
10
192.855733999999984
20
-64.4812749999999966
11
192.778712999999982
21
-64.1938299999999913
0
LINE
8
BLACK
6
CONTINUOUS
10
192.778712999999982
20
-64.1938299999999913
11
192.7398709999999937
21
-63.8987920000000003
0
LINE
8
BLACK
6
CONTINUOUS
10
192.7398709999999937
20
-63.8987920000000003
11
192.7398709999999937
21
-63.6107200000000006
0
LINE
8
BLACK
6
CONTINUOUS
10
192.7398709999999937
20
-63.6107200000000006
11
192.7398709999999937
21
-63.6012079999999997
0
LINE
8
BLACK
6
CONTINUOUS
10
192.7398709999999937
20
-63.6012079999999997
11
192.778712999999982
21
-63.3061699999999945
0
LINE
8
BLACK
6
CONTINUOUS
10
192.778712999999982
20
-63.3061699999999945
11
192.855733999999984
21
-63.0187249999999963
0
LINE
8
BLACK
6
CONTINUOUS
10
192.855733999999984
20
-63.0187249999999963
11
192.9696150000000046
21
-62.7437929999999966
0
LINE
8
BLACK
6
CONTINUOUS
10
192.9696150000000046
20
-62.7437929999999966
11
193.1184069999999906
21
-62.4860779999999991
0
LINE
8
BLACK
6
CONTINUOUS
10
193.1184069999999906
20
-62.4860779999999991
11
193.2995640000000037
21
-62.2499879999999948
0
LINE
8
BLACK
6
CONTINUOUS
10
193.2995640000000037
20
-62.2499879999999948
11
193.5099879999999928
21
-62.0395639999999986
0
LINE
8
BLACK
6
CONTINUOUS
10
193.5099879999999928
20
-62.0395639999999986
11
193.7460779999999829
21
-61.8584069999999997
0
LINE
8
BLACK
6
CONTINUOUS
10
193.7460779999999829
20
-61.8584069999999997
11
194.0037930000000017
21
-61.7096149999999994
0
LINE
8
BLACK
6
CONTINUOUS
10
194.0037930000000017
20
-61.7096149999999994
11
194.2787249999999801
21
-61.5957340000000002
0
LINE
8
BLACK
6
CONTINUOUS
10
194.2787249999999801
20
-61.5957340000000002
11
194.5661699999999996
21
-61.5187129999999982
0
LINE
8
BLACK
6
CONTINUOUS
10
194.5661699999999996
20
-61.5187129999999982
11
194.8612080000000049
21
-61.4798709999999957
0
LINE
8
BLACK
6
CONTINUOUS
10
194.8612080000000049
20
-61.4798709999999957
11
195.1587920000000054
21
-61.4798709999999957
0
LINE
8
BLACK
6
CONTINUOUS
10
195.1587920000000054
20
-61.4798709999999957
11
195.4538299999999822
21
-61.5187129999999982
0
LINE
8
BLACK
6
CONTINUOUS
10
192.8849999999999909
20
-63.8892799999999994
11
192.9213589999999954
21
-64.1654570000000035
0
LINE
8
BLACK
6
CONTINUOUS
10
192.9213589999999954
20
-64.1654570000000035
11
192.9934549999999831
21
-64.4345249999999936
0
LINE
8
BLACK
6
CONTINUOUS
10
192.9934549999999831
20
-64.4345249999999936
11
193.100055999999995
21
-64.6918799999999976
0
LINE
8
BLACK
6
CONTINUOUS
10
193.100055999999995
20
-64.6918799999999976
11
193.2393359999999802
21
-64.9331200000000024
0
LINE
8
BLACK
6
CONTINUOUS
10
193.2393359999999802
20
-64.9331200000000024
11
193.4089119999999866
21
-65.1541160000000019
0
LINE
8
BLACK
6
CONTINUOUS
10
193.4089119999999866
20
-65.1541160000000019
11
193.6058840000000032
21
-65.3510879999999901
0
LINE
8
BLACK
6
CONTINUOUS
10
193.6058840000000032
20
-65.3510879999999901
11
193.8268799999999885
21
-65.5206639999999965
0
LINE
8
BLACK
6
CONTINUOUS
10
193.8268799999999885
20
-65.5206639999999965
11
194.0681199999999933
21
-65.6599439999999959
0
LINE
8
BLACK
6
CONTINUOUS
10
194.0681199999999933
20
-65.6599439999999959
11
194.3254749999999831
21
-65.7665449999999936
0
LINE
8
BLACK
6
CONTINUOUS
10
194.3254749999999831
20
-65.7665449999999936
11
194.5945429999999874
21
-65.8386409999999955
0
LINE
8
BLACK
6
CONTINUOUS
10
194.5945429999999874
20
-65.8386409999999955
11
194.8707199999999773
21
-65.875
0
LINE
8
BLACK
6
CONTINUOUS
10
194.8707199999999773
20
-65.875
11
195.1492800000000045
21
-65.875
0
LINE
8
BLACK
6
CONTINUOUS
10
195.1492800000000045
20
-65.875
11
195.4254569999999944
21
-65.8386409999999955
0
LINE
8
BLACK
6
CONTINUOUS
10
195.4254569999999944
20
-65.8386409999999955
11
195.6945249999999987
21
-65.7665449999999936
0
LINE
8
BLACK
6
CONTINUOUS
10
195.6945249999999987
20
-65.7665449999999936
11
195.9518799999999885
21
-65.6599439999999959
0
LINE
8
BLACK
6
CONTINUOUS
10
195.9518799999999885
20
-65.6599439999999959
11
196.1931199999999933
21
-65.5206639999999965
0
LINE
8
BLACK
6
CONTINUOUS
10
196.1931199999999933
20
-65.5206639999999965
11
196.4141159999999786
21
-65.3510879999999901
0
LINE
8
BLACK
6
CONTINUOUS
10
196.4141159999999786
20
-65.3510879999999901
11
196.6110879999999952
21
-65.1541160000000019
0
LINE
8
BLACK
6
CONTINUOUS
10
196.6110879999999952
20
-65.1541160000000019
11
196.7806640000000016
21
-64.9331200000000024
0
LINE
8
BLACK
6
CONTINUOUS
10
196.7806640000000016
20
-64.9331200000000024
11
196.9199439999999868
21
-64.6918799999999976
0
LINE
8
BLACK
6
CONTINUOUS
10
196.9199439999999868
20
-64.6918799999999976
11
197.0265449999999987
21
-64.4345249999999936
0
LINE
8
BLACK
6
CONTINUOUS
10
197.0265449999999987
20
-64.4345249999999936
11
197.0986409999999864
21
-64.1654570000000035
0
LINE
8
BLACK
6
CONTINUOUS
10
197.0986409999999864
20
-64.1654570000000035
11
197.1349999999999909
21
-63.8892799999999994
0
LINE
8
BLACK
6
CONTINUOUS
10
197.1349999999999909
20
-63.8892799999999994
11
197.1349999999999909
21
-63.6107200000000006
0
LINE
8
BLACK
6
CONTINUOUS
10
197.1349999999999909
20
-63.6107200000000006
11
197.0986409999999864
21
-63.3345429999999965
0
LINE
8
BLACK
6
CONTINUOUS
10
197.0986409999999864
20
-63.3345429999999965
11
197.0265449999999987
21
-63.0654749999999993
0
LINE
8
BLACK
6
CONTINUOUS
10
197.0265449999999987
20
-63.0654749999999993
11
196.9199439999999868
21
-62.8081199999999953
0
LINE
8
BLACK
6
CONTINUOUS
10
196.9199439999999868
20
-62.8081199999999953
11
196.7806640000000016
21
-62.5668799999999976
0
LINE
8
BLACK
6
CONTINUOUS
10
196.7806640000000016
20
-62.5668799999999976
11
196.6110879999999952
21
-62.3458839999999981
0
LINE
8
BLACK
6
CONTINUOUS
10
196.6110879999999952
20
-62.3458839999999981
11
196.4141159999999786
21
-62.1489119999999957
0
LINE
8
BLACK
6
CONTINUOUS
10
196.4141159999999786
20
-62.1489119999999957
11
196.1931199999999933
21
-61.9793359999999964
0
LINE
8
BLACK
6
CONTINUOUS
10
196.1931199999999933
20
-61.9793359999999964
11
195.9518799999999885
21
-61.840055999999997
0
LINE
8
BLACK
6
CONTINUOUS
10
195.9518799999999885
20
-61.840055999999997
11
195.6945249999999987
21
-61.7334549999999993
0
LINE
8
BLACK
6
CONTINUOUS
10
195.6945249999999987
20
-61.7334549999999993
11
195.4254569999999944
21
-61.6613589999999974
0
LINE
8
BLACK
6
CONTINUOUS
10
195.4254569999999944
20
-61.6613589999999974
11
195.1492800000000045
21
-61.625
0
LINE
8
BLACK
6
CONTINUOUS
10
195.1492800000000045
20
-61.625
11
194.8707199999999773
21
-61.625
0
LINE
8
BLACK
6
CONTINUOUS
10
194.8707199999999773
20
-61.625
11
194.5945429999999874
21
-61.6613589999999974
0
LINE
8
BLACK
6
CONTINUOUS
10
194.5945429999999874
20
-61.6613589999999974
11
194.3254749999999831
21
-61.7334549999999993
0
LINE
8
BLACK
6
CONTINUOUS
10
194.3254749999999831
20
-61.7334549999999993
11
194.0681199999999933
21
-61.840055999999997
0
LINE
8
BLACK
6
CONTINUOUS
10
194.0681199999999933
20
-61.840055999999997
11
193.8268799999999885
21
-61.9793359999999964
0
LINE
8
BLACK
6
CONTINUOUS
10
193.8268799999999885
20
-61.9793359999999964
11
193.6058840000000032
21
-62.1489119999999957
0
LINE
8
BLACK
6
CONTINUOUS
10
193.6058840000000032
20
-62.1489119999999957
11
193.4089119999999866
21
-62.3458839999999981
0
LINE
8
BLACK
6
CONTINUOUS
10
193.4089119999999866
20
-62.3458839999999981
11
193.2393359999999802
21
-62.5668799999999976
0
LINE
8
BLACK
6
CONTINUOUS
10
193.2393359999999802
20
-62.5668799999999976
11
193.100055999999995
21
-62.8081199999999953
0
LINE
8
BLACK
6
CONTINUOUS
10
193.100055999999995
20
-62.8081199999999953
11
192.9934549999999831
21
-63.0654749999999993
0
LINE
8
BLACK
6
CONTINUOUS
10
192.9934549999999831
20
-63.0654749999999993
11
192.9213589999999954
21
-63.3345429999999965
0
LINE
8
BLACK
6
CONTINUOUS
10
192.9213589999999954
20
-63.3345429999999965
11
192.8849999999999909
21
-63.6107200000000006
0
LINE
8
BLACK
6
CONTINUOUS
10
192.8849999999999909
20
-63.6107200000000006
11
192.8849999999999909
21
-63.8892799999999994
0
LINE
8
BLACK
6
CONTINUOUS
10
195.4245779999999968
20
-61.3099689999999953
11
195.6951679999999953
21
-61.3717299999999994
0
LINE
8
BLACK
6
CONTINUOUS
10
195.6951679999999953
20
-61.3717299999999994
11
195.9571409999999787
21
-61.463397999999998
0
LINE
8
BLACK
6
CONTINUOUS
10
195.9571409999999787
20
-61.463397999999998
11
196.2072039999999902
21
-61.5838219999999978
0
LINE
8
BLACK
6
CONTINUOUS
10
196.2072039999999902
20
-61.5838219999999978
11
196.4422109999999861
21
-61.7314869999999942
0
LINE
8
BLACK
6
CONTINUOUS
10
196.4422109999999861
20
-61.7314869999999942
11
196.6592079999999783
21
-61.9045360000000002
0
LINE
8
BLACK
6
CONTINUOUS
10
196.6592079999999783
20
-61.9045360000000002
11
196.8554639999999836
21
-62.1007919999999984
0
LINE
8
BLACK
6
CONTINUOUS
10
196.8554639999999836
20
-62.1007919999999984
11
197.0285130000000038
21
-62.3177889999999977
0
LINE
8
BLACK
6
CONTINUOUS
10
197.0285130000000038
20
-62.3177889999999977
11
197.1761779999999931
21
-62.5527959999999936
0
LINE
8
BLACK
6
CONTINUOUS
10
197.1761779999999931
20
-62.5527959999999936
11
197.2966019999999787
21
-62.802858999999998
0
LINE
8
BLACK
6
CONTINUOUS
10
197.2966019999999787
20
-62.802858999999998
11
197.3882699999999772
21
-63.0648319999999956
0
LINE
8
BLACK
6
CONTINUOUS
10
197.3882699999999772
20
-63.0648319999999956
11
197.4500309999999956
21
-63.3354219999999941
0
LINE
8
BLACK
6
CONTINUOUS
10
197.4500309999999956
20
-63.3354219999999941
11
197.4811059999999827
21
-63.6112259999999949
0
LINE
8
BLACK
6
CONTINUOUS
10
197.4811059999999827
20
-63.6112259999999949
11
197.4811059999999827
21
-63.888773999999998
0
LINE
8
BLACK
6
CONTINUOUS
10
197.4811059999999827
20
-63.888773999999998
11
197.4500309999999956
21
-64.1645779999999917
0
LINE
8
BLACK
6
CONTINUOUS
10
197.4500309999999956
20
-64.1645779999999917
11
197.3882699999999772
21
-64.4351679999999902
0
LINE
8
BLACK
6
CONTINUOUS
10
197.3882699999999772
20
-64.4351679999999902
11
197.2966019999999787
21
-64.697141000000002
0
LINE
8
BLACK
6
CONTINUOUS
10
197.2966019999999787
20
-64.697141000000002
11
197.1761779999999931
21
-64.9472039999999993
0
LINE
8
BLACK
6
CONTINUOUS
10
197.1761779999999931
20
-64.9472039999999993
11
197.0285130000000038
21
-65.1822109999999952
0
LINE
8
BLACK
6
CONTINUOUS
10
197.0285130000000038
20
-65.1822109999999952
11
196.8554639999999836
21
-65.3992080000000016
0
LINE
8
BLACK
6
CONTINUOUS
10
196.8554639999999836
20
-65.3992080000000016
11
196.6592079999999783
21
-65.5954639999999927
0
LINE
8
BLACK
6
CONTINUOUS
10
196.6592079999999783
20
-65.5954639999999927
11
196.4422109999999861
21
-65.7685129999999987
0
LINE
8
BLACK
6
CONTINUOUS
10
196.4422109999999861
20
-65.7685129999999987
11
196.2072039999999902
21
-65.9161780000000022
0
LINE
8
BLACK
6
CONTINUOUS
10
196.2072039999999902
20
-65.9161780000000022
11
195.9571409999999787
21
-66.036602000000002
0
LINE
8
BLACK
6
CONTINUOUS
10
195.9571409999999787
20
-66.036602000000002
11
195.6951679999999953
21
-66.1282700000000006
0
LINE
8
BLACK
6
CONTINUOUS
10
195.6951679999999953
20
-66.1282700000000006
11
195.4245779999999968
21
-66.1900309999999905
0
LINE
8
BLACK
6
CONTINUOUS
10
195.4245779999999968
20
-66.1900309999999905
11
195.1487740000000031
21
-66.2211059999999918
0
LINE
8
BLACK
6
CONTINUOUS
10
195.1487740000000031
20
-66.2211059999999918
11
194.8712259999999787
21
-66.2211059999999918
0
LINE
8
BLACK
6
CONTINUOUS
10
194.8712259999999787
20
-66.2211059999999918
11
194.595421999999985
21
-66.1900309999999905
0
LINE
8
BLACK
6
CONTINUOUS
10
194.595421999999985
20
-66.1900309999999905
11
194.3248319999999865
21
-66.1282700000000006
0
LINE
8
BLACK
6
CONTINUOUS
10
194.3248319999999865
20
-66.1282700000000006
11
194.0628590000000031
21
-66.036602000000002
0
LINE
8
BLACK
6
CONTINUOUS
10
194.0628590000000031
20
-66.036602000000002
11
193.8127959999999916
21
-65.9161780000000022
0
LINE
8
BLACK
6
CONTINUOUS
10
193.8127959999999916
20
-65.9161780000000022
11
193.5777889999999957
21
-65.7685129999999987
0
LINE
8
BLACK
6
CONTINUOUS
10
193.5777889999999957
20
-65.7685129999999987
11
193.3607920000000036
21
-65.5954639999999927
0
LINE
8
BLACK
6
CONTINUOUS
10
193.3607920000000036
20
-65.5954639999999927
11
193.1645359999999982
21
-65.3992080000000016
0
LINE
8
BLACK
6
CONTINUOUS
10
193.1645359999999982
20
-65.3992080000000016
11
192.991486999999978
21
-65.1822109999999952
0
LINE
8
BLACK
6
CONTINUOUS
10
192.991486999999978
20
-65.1822109999999952
11
192.8438219999999887
21
-64.9472039999999993
0
LINE
8
BLACK
6
CONTINUOUS
10
192.8438219999999887
20
-64.9472039999999993
11
192.7233980000000031
21
-64.697141000000002
0
LINE
8
BLACK
6
CONTINUOUS
10
192.7233980000000031
20
-64.697141000000002
11
192.6317300000000046
21
-64.4351679999999902
0
LINE
8
BLACK
6
CONTINUOUS
10
192.6317300000000046
20
-64.4351679999999902
11
192.5699689999999862
21
-64.1645779999999917
0
LINE
8
BLACK
6
CONTINUOUS
10
192.5699689999999862
20
-64.1645779999999917
11
192.5388939999999991
21
-63.888773999999998
0
LINE
8
BLACK
6
CONTINUOUS
10
192.5388939999999991
20
-63.888773999999998
11
192.5388939999999991
21
-63.6138149999999953
0
LINE
8
BLACK
6
CONTINUOUS
10
192.5388939999999991
20
-63.6138149999999953
11
192.5388939999999991
21
-63.6112259999999949
0
LINE
8
BLACK
6
CONTINUOUS
10
192.5388939999999991
20
-63.6112259999999949
11
192.5699689999999862
21
-63.3354219999999941
0
LINE
8
BLACK
6
CONTINUOUS
10
192.5699689999999862
20
-63.3354219999999941
11
192.6317300000000046
21
-63.0648319999999956
0
LINE
8
BLACK
6
CONTINUOUS
10
192.6317300000000046
20
-63.0648319999999956
11
192.7233980000000031
21
-62.802858999999998
0
LINE
8
BLACK
6
CONTINUOUS
10
192.7233980000000031
20
-62.802858999999998
11
192.8438219999999887
21
-62.5527959999999936
0
LINE
8
BLACK
6
CONTINUOUS
10
192.8438219999999887
20
-62.5527959999999936
11
192.991486999999978
21
-62.3177889999999977
0
LINE
8
BLACK
6
CONTINUOUS
10
192.991486999999978
20
-62.3177889999999977
11
193.1645359999999982
21
-62.1007919999999984
0
LINE
8
BLACK
6
CONTINUOUS
10
193.1645359999999982
20
-62.1007919999999984
11
193.3607920000000036
21
-61.9045360000000002
0
LINE
8
BLACK
6
CONTINUOUS
10
193.3607920000000036
20
-61.9045360000000002
11
193.5777889999999957
21
-61.7314869999999942
0
LINE
8
BLACK
6
CONTINUOUS
10
193.5777889999999957
20
-61.7314869999999942
11
193.8127959999999916
21
-61.5838219999999978
0
LINE
8
BLACK
6
CONTINUOUS
10
193.8127959999999916
20
-61.5838219999999978
11
194.0628590000000031
21
-61.463397999999998
0
LINE
8
BLACK
6
CONTINUOUS
10
194.0628590000000031
20
-61.463397999999998
11
194.3248319999999865
21
-61.3717299999999994
0
LINE
8
BLACK
6
CONTINUOUS
10
194.3248319999999865
20
-61.3717299999999994
11
194.595421999999985
21
-61.3099689999999953
0
LINE
8
BLACK
6
CONTINUOUS
10
194.595421999999985
20
-61.3099689999999953
11
194.8712259999999787
21
-61.278893999999994
0
LINE
8
BLACK
6
CONTINUOUS
10
194.8712259999999787
20
-61.278893999999994
11
195.1487740000000031
21
-61.278893999999994
0
LINE
8
BLACK
6
CONTINUOUS
10
195.1487740000000031
20
-61.278893999999994
11
195.4245779999999968
21
-61.3099689999999953
0
LINE
8
BLACK
6
CONTINUOUS
10
192.5849999999999795
20
-63.8861849999999976
11
192.6154959999999789
21
-64.156842999999995
0
LINE
8
BLACK
6
CONTINUOUS
10
192.6154959999999789
20
-64.156842999999995
11
192.6761039999999809
21
-64.4223839999999939
0
LINE
8
BLACK
6
CONTINUOUS
10
192.6761039999999809
20
-64.4223839999999939
11
192.7660620000000051
21
-64.6794699999999949
0
LINE
8
BLACK
6
CONTINUOUS
10
192.7660620000000051
20
-64.6794699999999949
11
192.8842389999999796
21
-64.9248669999999919
0
LINE
8
BLACK
6
CONTINUOUS
10
192.8842389999999796
20
-64.9248669999999919
11
193.0291489999999897
21
-65.1554890000000029
0
LINE
8
BLACK
6
CONTINUOUS
10
193.0291489999999897
20
-65.1554890000000029
11
193.1989690000000053
21
-65.3684370000000001
0
LINE
8
BLACK
6
CONTINUOUS
10
193.1989690000000053
20
-65.3684370000000001
11
193.3915629999999908
21
-65.5610309999999998
0
LINE
8
BLACK
6
CONTINUOUS
10
193.3915629999999908
20
-65.5610309999999998
11
193.6045110000000022
21
-65.7308510000000012
0
LINE
8
BLACK
6
CONTINUOUS
10
193.6045110000000022
20
-65.7308510000000012
11
193.8351329999999848
21
-65.8757609999999971
0
LINE
8
BLACK
6
CONTINUOUS
10
193.8351329999999848
20
-65.8757609999999971
11
194.0805299999999818
21
-65.993938
0
LINE
8
BLACK
6
CONTINUOUS
10
194.0805299999999818
20
-65.993938
11
194.337615999999997
21
-66.0838959999999958
0
LINE
8
BLACK
6
CONTINUOUS
10
194.337615999999997
20
-66.0838959999999958
11
194.6031569999999817
21
-66.1445039999999977
0
LINE
8
BLACK
6
CONTINUOUS
10
194.6031569999999817
20
-66.1445039999999977
11
194.8738149999999791
21
-66.1749999999999972
0
LINE
8
BLACK
6
CONTINUOUS
10
194.8738149999999791
20
-66.1749999999999972
11
195.1461850000000027
21
-66.1749999999999972
0
LINE
8
BLACK
6
CONTINUOUS
10
195.1461850000000027
20
-66.1749999999999972
11
195.4168430000000001
21
-66.1445039999999977
0
LINE
8
BLACK
6
CONTINUOUS
10
195.4168430000000001
20
-66.1445039999999977
11
195.6823839999999848
21
-66.0838959999999958
0
LINE
8
BLACK
6
CONTINUOUS
10
195.6823839999999848
20
-66.0838959999999958
11
195.93947
21
-65.993938
0
LINE
8
BLACK
6
CONTINUOUS
10
195.93947
20
-65.993938
11
196.184866999999997
21
-65.8757609999999971
0
LINE
8
BLACK
6
CONTINUOUS
10
196.184866999999997
20
-65.8757609999999971
11
196.4154889999999796
21
-65.7308510000000012
0
LINE
8
BLACK
6
CONTINUOUS
10
196.4154889999999796
20
-65.7308510000000012
11
196.628436999999991
21
-65.5610309999999998
0
LINE
8
BLACK
6
CONTINUOUS
10
196.628436999999991
20
-65.5610309999999998
11
196.821031000000005
21
-65.3684370000000001
0
LINE
8
BLACK
6
CONTINUOUS
10
196.821031000000005
20
-65.3684370000000001
11
196.9908509999999922
21
-65.1554890000000029
0
LINE
8
BLACK
6
CONTINUOUS
10
196.9908509999999922
20
-65.1554890000000029
11
197.1357610000000022
21
-64.9248669999999919
0
LINE
8
BLACK
6
CONTINUOUS
10
197.1357610000000022
20
-64.9248669999999919
11
197.2539380000000051
21
-64.6794699999999949
0
LINE
8
BLACK
6
CONTINUOUS
10
197.2539380000000051
20
-64.6794699999999949
11
197.3438960000000009
21
-64.4223839999999939
0
LINE
8
BLACK
6
CONTINUOUS
10
197.3438960000000009
20
-64.4223839999999939
11
197.4045040000000029
21
-64.156842999999995
0
LINE
8
BLACK
6
CONTINUOUS
10
197.4045040000000029
20
-64.156842999999995
11
197.4350000000000023
21
-63.8861849999999976
0
LINE
8
BLACK
6
CONTINUOUS
10
197.4350000000000023
20
-63.8861849999999976
11
197.4350000000000023
21
-63.6138149999999953
0
LINE
8
BLACK
6
CONTINUOUS
10
197.4350000000000023
20
-63.6138149999999953
11
197.4045040000000029
21
-63.3431569999999979
0
LINE
8
BLACK
6
CONTINUOUS
10
197.4045040000000029
20
-63.3431569999999979
11
197.3438960000000009
21
-63.077615999999999
0
LINE
8
BLACK
6
CONTINUOUS
10
197.3438960000000009
20
-63.077615999999999
11
197.2539380000000051
21
-62.820529999999998
0
LINE
8
BLACK
6
CONTINUOUS
10
197.2539380000000051
20
-62.820529999999998
11
197.1357610000000022
21
-62.5751329999999939
0
LINE
8
BLACK
6
CONTINUOUS
10
197.1357610000000022
20
-62.5751329999999939
11
196.9908509999999922
21
-62.3445109999999971
0
LINE
8
BLACK
6
CONTINUOUS
10
196.9908509999999922
20
-62.3445109999999971
11
196.821031000000005
21
-62.1315629999999999
0
LINE
8
BLACK
6
CONTINUOUS
10
196.821031000000005
20
-62.1315629999999999
11
196.628436999999991
21
-61.9389690000000002
0
LINE
8
BLACK
6
CONTINUOUS
10
196.628436999999991
20
-61.9389690000000002
11
196.4154889999999796
21
-61.7691489999999988
0
LINE
8
BLACK
6
CONTINUOUS
10
196.4154889999999796
20
-61.7691489999999988
11
196.184866999999997
21
-61.6242389999999958
0
LINE
8
BLACK
6
CONTINUOUS
10
196.184866999999997
20
-61.6242389999999958
11
195.93947
21
-61.506062
0
LINE
8
BLACK
6
CONTINUOUS
10
195.93947
20
-61.506062
11
195.6823839999999848
21
-61.4161039999999971
0
LINE
8
BLACK
6
CONTINUOUS
10
195.6823839999999848
20
-61.4161039999999971
11
195.4168430000000001
21
-61.3554959999999951
0
LINE
8
BLACK
6
CONTINUOUS
10
195.4168430000000001
20
-61.3554959999999951
11
195.1461850000000027
21
-61.3249999999999957
0
LINE
8
BLACK
6
CONTINUOUS
10
195.1461850000000027
20
-61.3249999999999957
11
194.8738149999999791
21
-61.3249999999999957
0
LINE
8
BLACK
6
CONTINUOUS
10
194.8738149999999791
20
-61.3249999999999957
11
194.6031569999999817
21
-61.3554959999999951
0
LINE
8
BLACK
6
CONTINUOUS
10
194.6031569999999817
20
-61.3554959999999951
11
194.337615999999997
21
-61.4161039999999971
0
LINE
8
BLACK
6
CONTINUOUS
10
194.337615999999997
20
-61.4161039999999971
11
194.0805299999999818
21
-61.506062
0
LINE
8
BLACK
6
CONTINUOUS
10
194.0805299999999818
20
-61.506062
11
193.8351329999999848
21
-61.6242389999999958
0
LINE
8
BLACK
6
CONTINUOUS
10
193.8351329999999848
20
-61.6242389999999958
11
193.6045110000000022
21
-61.7691489999999988
0
LINE
8
BLACK
6
CONTINUOUS
10
193.6045110000000022
20
-61.7691489999999988
11
193.3915629999999908
21
-61.9389690000000002
0
LINE
8
BLACK
6
CONTINUOUS
10
193.3915629999999908
20
-61.9389690000000002
11
193.1989690000000053
21
-62.1315629999999999
0
LINE
8
BLACK
6
CONTINUOUS
10
193.1989690000000053
20
-62.1315629999999999
11
193.0291489999999897
21
-62.3445109999999971
0
LINE
8
BLACK
6
CONTINUOUS
10
193.0291489999999897
20
-62.3445109999999971
11
192.8842389999999796
21
-62.5751329999999939
0
LINE
8
BLACK
6
CONTINUOUS
10
192.8842389999999796
20
-62.5751329999999939
11
192.7660620000000051
21
-62.820529999999998
0
LINE
8
BLACK
6
CONTINUOUS
10
192.7660620000000051
20
-62.820529999999998
11
192.6761039999999809
21
-63.077615999999999
0
LINE
8
BLACK
6
CONTINUOUS
10
192.6761039999999809
20
-63.077615999999999
11
192.6154959999999789
21
-63.3431569999999979
0
LINE
8
BLACK
6
CONTINUOUS
10
192.6154959999999789
20
-63.3431569999999979
11
192.5849999999999795
21
-63.6138149999999953
0
LINE
8
BLACK
6
CONTINUOUS
10
192.5849999999999795
20
-63.6138149999999953
11
192.5849999999999795
21
-63.8861849999999976
  0
ENDSEC
  0
EOF
