M48
; DRILL file {KiCad 9.0.5} date 2025-11-02T21:15:16+0700
; FORMAT={-:-/ absolute / metric / decimal}
; #@! TF.CreationDate,2025-11-02T21:15:16+07:00
; #@! TF.GenerationSoftware,Kicad,Pcbnew,9.0.5
; #@! TF.FileFunction,Plated,1,2,PTH
FMAT,2
METRIC
; #@! TA.AperFunction,Plated,PTH,ViaDrill
T1C0.300
; #@! TA.AperFunction,Plated,PTH,ComponentDrill
T2C1.000
; #@! TA.AperFunction,Plated,PTH,ComponentDrill
T3C1.200
; #@! TA.AperFunction,Plated,PTH,ComponentDrill
T4C3.000
%
G90
G05
T1
X101.45Y-74.498
X104.61Y-75.82
X115.27Y-102.65
X118.75Y-102.65
X121.77Y-79.68
X122.08Y-120.42
X126.56Y-95.44
X128.84Y-65.56
X128.84Y-82.56
X128.84Y-84.06
X128.84Y-101.06
X131.37Y-119.09
X137.37Y-67.995
X137.39Y-101.995
X139.95Y-93.73
X143.63Y-80.52
X152.24Y-115.6
X155.36Y-66.475
X155.36Y-100.475
X161.7Y-77.46
X173.36Y-63.475
X173.37Y-97.505
X175.17Y-110.64
X179.65Y-80.51
X191.33Y-66.43
X191.38Y-100.485
X197.54Y-83.46
X209.4Y-69.43
X209.42Y-103.48
X215.55Y-83.52
X224.29Y-67.06
X224.29Y-84.06
X227.36Y-69.44
X227.52Y-103.44
T2
X102.75Y-71.958
X102.75Y-74.498
X102.75Y-77.038
X102.75Y-79.578
X102.75Y-82.118
X102.75Y-84.658
X102.75Y-87.198
X102.75Y-89.738
X102.75Y-92.278
X105.29Y-92.278
X107.83Y-92.278
X110.37Y-92.278
X112.91Y-92.278
X115.45Y-92.278
X117.99Y-71.958
X117.99Y-74.498
X117.99Y-77.038
X117.99Y-79.578
X117.99Y-82.118
X117.99Y-84.658
X117.99Y-87.198
X117.99Y-89.738
X117.99Y-92.278
T3
X109.72Y-99.89
X109.72Y-102.43
X109.72Y-104.97
X109.72Y-107.51
T4
X112.494Y-122.239
X112.518Y-127.701
X126.53Y-74.95
X126.53Y-91.95
X126.53Y-108.95
X131.53Y-77.15
X131.53Y-94.15
X131.53Y-111.15
X134.212Y-128.663
X139.56Y-129.775
X144.53Y-73.45
X144.53Y-90.45
X144.53Y-107.45
X149.53Y-75.65
X149.53Y-92.65
X149.53Y-109.65
X152.98Y-125.65
X157.98Y-127.85
X162.53Y-70.45
X162.53Y-87.45
X162.53Y-104.45
X167.53Y-72.65
X167.53Y-89.65
X167.53Y-106.65
X180.53Y-73.45
X180.53Y-90.45
X180.53Y-107.45
X185.53Y-75.65
X185.53Y-92.65
X185.53Y-109.65
X198.53Y-76.45
X198.53Y-93.45
X198.53Y-110.45
X203.53Y-78.65
X203.53Y-95.65
X203.53Y-112.65
X216.53Y-76.45
X216.53Y-93.45
X216.53Y-110.45
X221.53Y-78.65
X221.53Y-95.65
X221.53Y-112.65
M30
