M48
; DRILL file {KiCad 9.0.5} date 2025-11-02T21:15:16+0700
; FORMAT={-:-/ absolute / metric / decimal}
; #@! TF.CreationDate,2025-11-02T21:15:16+07:00
; #@! TF.GenerationSoftware,Kicad,Pcbnew,9.0.5
; #@! TF.FileFunction,NonPlated,1,2,NPTH
FMAT,2
METRIC
; #@! TA.AperFunction,NonPlated,NPTH,ComponentDrill
T1C1.700
; #@! TA.AperFunction,NonPlated,NPTH,ComponentDrill
T2C2.200
; #@! TA.AperFunction,NonPlated,NPTH,ComponentDrill
T3C3.400
%
G90
G05
T1
X115.716Y-120.257
X120.19Y-130.306
X126.03Y-71.2
X126.03Y-88.2
X126.03Y-105.2
X132.944Y-125.098
X137.03Y-71.2
X137.03Y-88.2
X137.03Y-105.2
X143.703Y-122.811
X144.03Y-69.7
X144.03Y-86.7
X144.03Y-103.7
X152.48Y-121.9
X155.03Y-69.7
X155.03Y-86.7
X155.03Y-103.7
X162.03Y-66.7
X162.03Y-83.7
X162.03Y-100.7
X163.48Y-121.9
X173.03Y-66.7
X173.03Y-83.7
X173.03Y-100.7
X180.03Y-69.7
X180.03Y-86.7
X180.03Y-103.7
X191.03Y-69.7
X191.03Y-86.7
X191.03Y-103.7
X198.03Y-72.7
X198.03Y-89.7
X198.03Y-106.7
X209.03Y-72.7
X209.03Y-89.7
X209.03Y-106.7
X216.03Y-72.7
X216.03Y-89.7
X216.03Y-106.7
X227.03Y-72.7
X227.03Y-89.7
X227.03Y-106.7
T2
X104.9Y-112.885
X119.91Y-66.87
X161.36Y-111.21
X192.91Y-114.44
X195.01Y-63.75
T3
X117.953Y-125.281
X131.53Y-71.2
X131.53Y-88.2
X131.53Y-105.2
X138.323Y-123.955
X149.53Y-69.7
X149.53Y-86.7
X149.53Y-103.7
X157.98Y-121.9
X167.53Y-66.7
X167.53Y-83.7
X167.53Y-100.7
X185.53Y-69.7
X185.53Y-86.7
X185.53Y-103.7
X203.53Y-72.7
X203.53Y-89.7
X203.53Y-106.7
X221.53Y-72.7
X221.53Y-89.7
X221.53Y-106.7
M30
