%TF.GenerationSoftware,KiCad,Pcbnew,9.0.5*%
%TF.CreationDate,2025-11-02T20:14:42+07:00*%
%TF.ProjectId,moon_knight_v1,6d6f6f6e-5f6b-46e6-9967-68745f76312e,rev?*%
%TF.SameCoordinates,Original*%
%TF.FileFunction,Legend,Top*%
%TF.FilePolarity,Positive*%
%FSLAX46Y46*%
G04 Gerber Fmt 4.6, Leading zero omitted, Abs format (unit mm)*
G04 Created by KiCad (PCBNEW 9.0.5) date 2025-11-02 20:14:42*
%MOMM*%
%LPD*%
G01*
G04 APERTURE LIST*
%ADD10C,0.100000*%
%ADD11C,0.150000*%
%ADD12C,0.125000*%
%ADD13C,0.120000*%
G04 APERTURE END LIST*
D10*
X69215074Y-97777419D02*
X69215074Y-96777419D01*
X69215074Y-96777419D02*
X69548407Y-97491704D01*
X69548407Y-97491704D02*
X69881740Y-96777419D01*
X69881740Y-96777419D02*
X69881740Y-97777419D01*
X70357931Y-97777419D02*
X70357931Y-96777419D01*
X70929359Y-97777419D02*
X70500788Y-97205990D01*
X70929359Y-96777419D02*
X70357931Y-97348847D01*
X71881740Y-97777419D02*
X71310312Y-97777419D01*
X71596026Y-97777419D02*
X71596026Y-96777419D01*
X71596026Y-96777419D02*
X71500788Y-96920276D01*
X71500788Y-96920276D02*
X71405550Y-97015514D01*
X71405550Y-97015514D02*
X71310312Y-97063133D01*
D11*
X127239285Y-45289819D02*
X127239285Y-44289819D01*
X127239285Y-44766009D02*
X127810713Y-44766009D01*
X127810713Y-45289819D02*
X127810713Y-44289819D01*
X128810713Y-45289819D02*
X128239285Y-45289819D01*
X128524999Y-45289819D02*
X128524999Y-44289819D01*
X128524999Y-44289819D02*
X128429761Y-44432676D01*
X128429761Y-44432676D02*
X128334523Y-44527914D01*
X128334523Y-44527914D02*
X128239285Y-44575533D01*
D12*
X131035999Y-85088333D02*
X130797904Y-85254999D01*
X131035999Y-85374047D02*
X130535999Y-85374047D01*
X130535999Y-85374047D02*
X130535999Y-85183571D01*
X130535999Y-85183571D02*
X130559809Y-85135952D01*
X130559809Y-85135952D02*
X130583618Y-85112142D01*
X130583618Y-85112142D02*
X130631237Y-85088333D01*
X130631237Y-85088333D02*
X130702666Y-85088333D01*
X130702666Y-85088333D02*
X130750285Y-85112142D01*
X130750285Y-85112142D02*
X130774094Y-85135952D01*
X130774094Y-85135952D02*
X130797904Y-85183571D01*
X130797904Y-85183571D02*
X130797904Y-85374047D01*
X130583618Y-84897856D02*
X130559809Y-84874047D01*
X130559809Y-84874047D02*
X130535999Y-84826428D01*
X130535999Y-84826428D02*
X130535999Y-84707380D01*
X130535999Y-84707380D02*
X130559809Y-84659761D01*
X130559809Y-84659761D02*
X130583618Y-84635952D01*
X130583618Y-84635952D02*
X130631237Y-84612142D01*
X130631237Y-84612142D02*
X130678856Y-84612142D01*
X130678856Y-84612142D02*
X130750285Y-84635952D01*
X130750285Y-84635952D02*
X131035999Y-84921666D01*
X131035999Y-84921666D02*
X131035999Y-84612142D01*
X130555999Y-84254046D02*
X130555999Y-83944522D01*
X130555999Y-83944522D02*
X130746475Y-84111189D01*
X130746475Y-84111189D02*
X130746475Y-84039760D01*
X130746475Y-84039760D02*
X130770285Y-83992141D01*
X130770285Y-83992141D02*
X130794094Y-83968332D01*
X130794094Y-83968332D02*
X130841713Y-83944522D01*
X130841713Y-83944522D02*
X130960761Y-83944522D01*
X130960761Y-83944522D02*
X131008380Y-83968332D01*
X131008380Y-83968332D02*
X131032190Y-83992141D01*
X131032190Y-83992141D02*
X131055999Y-84039760D01*
X131055999Y-84039760D02*
X131055999Y-84182617D01*
X131055999Y-84182617D02*
X131032190Y-84230236D01*
X131032190Y-84230236D02*
X131008380Y-84254046D01*
X130555999Y-83777856D02*
X130555999Y-83468332D01*
X130555999Y-83468332D02*
X130746475Y-83634999D01*
X130746475Y-83634999D02*
X130746475Y-83563570D01*
X130746475Y-83563570D02*
X130770285Y-83515951D01*
X130770285Y-83515951D02*
X130794094Y-83492142D01*
X130794094Y-83492142D02*
X130841713Y-83468332D01*
X130841713Y-83468332D02*
X130960761Y-83468332D01*
X130960761Y-83468332D02*
X131008380Y-83492142D01*
X131008380Y-83492142D02*
X131032190Y-83515951D01*
X131032190Y-83515951D02*
X131055999Y-83563570D01*
X131055999Y-83563570D02*
X131055999Y-83706427D01*
X131055999Y-83706427D02*
X131032190Y-83754046D01*
X131032190Y-83754046D02*
X131008380Y-83777856D01*
X130555999Y-82777857D02*
X130555999Y-82682619D01*
X130555999Y-82682619D02*
X130579809Y-82635000D01*
X130579809Y-82635000D02*
X130627428Y-82587381D01*
X130627428Y-82587381D02*
X130722666Y-82563571D01*
X130722666Y-82563571D02*
X130889332Y-82563571D01*
X130889332Y-82563571D02*
X130984570Y-82587381D01*
X130984570Y-82587381D02*
X131032190Y-82635000D01*
X131032190Y-82635000D02*
X131055999Y-82682619D01*
X131055999Y-82682619D02*
X131055999Y-82777857D01*
X131055999Y-82777857D02*
X131032190Y-82825476D01*
X131032190Y-82825476D02*
X130984570Y-82873095D01*
X130984570Y-82873095D02*
X130889332Y-82896904D01*
X130889332Y-82896904D02*
X130722666Y-82896904D01*
X130722666Y-82896904D02*
X130627428Y-82873095D01*
X130627428Y-82873095D02*
X130579809Y-82825476D01*
X130579809Y-82825476D02*
X130555999Y-82777857D01*
X131055999Y-82349285D02*
X130555999Y-82349285D01*
X131055999Y-82134999D02*
X130794094Y-82134999D01*
X130794094Y-82134999D02*
X130746475Y-82158809D01*
X130746475Y-82158809D02*
X130722666Y-82206428D01*
X130722666Y-82206428D02*
X130722666Y-82277856D01*
X130722666Y-82277856D02*
X130746475Y-82325475D01*
X130746475Y-82325475D02*
X130770285Y-82349285D01*
X131055999Y-81896904D02*
X130722666Y-81896904D01*
X130770285Y-81896904D02*
X130746475Y-81873094D01*
X130746475Y-81873094D02*
X130722666Y-81825475D01*
X130722666Y-81825475D02*
X130722666Y-81754047D01*
X130722666Y-81754047D02*
X130746475Y-81706428D01*
X130746475Y-81706428D02*
X130794094Y-81682618D01*
X130794094Y-81682618D02*
X131055999Y-81682618D01*
X130794094Y-81682618D02*
X130746475Y-81658809D01*
X130746475Y-81658809D02*
X130722666Y-81611190D01*
X130722666Y-81611190D02*
X130722666Y-81539761D01*
X130722666Y-81539761D02*
X130746475Y-81492142D01*
X130746475Y-81492142D02*
X130794094Y-81468332D01*
X130794094Y-81468332D02*
X131055999Y-81468332D01*
X131032190Y-81254046D02*
X131055999Y-81206427D01*
X131055999Y-81206427D02*
X131055999Y-81111189D01*
X131055999Y-81111189D02*
X131032190Y-81063570D01*
X131032190Y-81063570D02*
X130984570Y-81039761D01*
X130984570Y-81039761D02*
X130960761Y-81039761D01*
X130960761Y-81039761D02*
X130913142Y-81063570D01*
X130913142Y-81063570D02*
X130889332Y-81111189D01*
X130889332Y-81111189D02*
X130889332Y-81182618D01*
X130889332Y-81182618D02*
X130865523Y-81230237D01*
X130865523Y-81230237D02*
X130817904Y-81254046D01*
X130817904Y-81254046D02*
X130794094Y-81254046D01*
X130794094Y-81254046D02*
X130746475Y-81230237D01*
X130746475Y-81230237D02*
X130722666Y-81182618D01*
X130722666Y-81182618D02*
X130722666Y-81111189D01*
X130722666Y-81111189D02*
X130746475Y-81063570D01*
D11*
X127037744Y-76637320D02*
X127037744Y-75637320D01*
X127037744Y-75637320D02*
X127371077Y-76351605D01*
X127371077Y-76351605D02*
X127704410Y-75637320D01*
X127704410Y-75637320D02*
X127704410Y-76637320D01*
X128752029Y-76542081D02*
X128704410Y-76589701D01*
X128704410Y-76589701D02*
X128561553Y-76637320D01*
X128561553Y-76637320D02*
X128466315Y-76637320D01*
X128466315Y-76637320D02*
X128323458Y-76589701D01*
X128323458Y-76589701D02*
X128228220Y-76494462D01*
X128228220Y-76494462D02*
X128180601Y-76399224D01*
X128180601Y-76399224D02*
X128132982Y-76208748D01*
X128132982Y-76208748D02*
X128132982Y-76065891D01*
X128132982Y-76065891D02*
X128180601Y-75875415D01*
X128180601Y-75875415D02*
X128228220Y-75780177D01*
X128228220Y-75780177D02*
X128323458Y-75684939D01*
X128323458Y-75684939D02*
X128466315Y-75637320D01*
X128466315Y-75637320D02*
X128561553Y-75637320D01*
X128561553Y-75637320D02*
X128704410Y-75684939D01*
X128704410Y-75684939D02*
X128752029Y-75732558D01*
X129180601Y-75637320D02*
X129180601Y-76446843D01*
X129180601Y-76446843D02*
X129228220Y-76542081D01*
X129228220Y-76542081D02*
X129275839Y-76589701D01*
X129275839Y-76589701D02*
X129371077Y-76637320D01*
X129371077Y-76637320D02*
X129561553Y-76637320D01*
X129561553Y-76637320D02*
X129656791Y-76589701D01*
X129656791Y-76589701D02*
X129704410Y-76542081D01*
X129704410Y-76542081D02*
X129752029Y-76446843D01*
X129752029Y-76446843D02*
X129752029Y-75637320D01*
X130752029Y-76637320D02*
X130180601Y-76637320D01*
X130466315Y-76637320D02*
X130466315Y-75637320D01*
X130466315Y-75637320D02*
X130371077Y-75780177D01*
X130371077Y-75780177D02*
X130275839Y-75875415D01*
X130275839Y-75875415D02*
X130180601Y-75923034D01*
X142249285Y-91304819D02*
X142249285Y-90304819D01*
X142249285Y-90781009D02*
X142820713Y-90781009D01*
X142820713Y-91304819D02*
X142820713Y-90304819D01*
X143249285Y-90400057D02*
X143296904Y-90352438D01*
X143296904Y-90352438D02*
X143392142Y-90304819D01*
X143392142Y-90304819D02*
X143630237Y-90304819D01*
X143630237Y-90304819D02*
X143725475Y-90352438D01*
X143725475Y-90352438D02*
X143773094Y-90400057D01*
X143773094Y-90400057D02*
X143820713Y-90495295D01*
X143820713Y-90495295D02*
X143820713Y-90590533D01*
X143820713Y-90590533D02*
X143773094Y-90733390D01*
X143773094Y-90733390D02*
X143201666Y-91304819D01*
X143201666Y-91304819D02*
X143820713Y-91304819D01*
X52139285Y-42169819D02*
X52139285Y-41169819D01*
X52139285Y-41646009D02*
X52710713Y-41646009D01*
X52710713Y-42169819D02*
X52710713Y-41169819D01*
X53615475Y-41503152D02*
X53615475Y-42169819D01*
X53377380Y-41122200D02*
X53139285Y-41836485D01*
X53139285Y-41836485D02*
X53758332Y-41836485D01*
X130526904Y-86809819D02*
X130526904Y-85809819D01*
X130526904Y-85809819D02*
X130764999Y-85809819D01*
X130764999Y-85809819D02*
X130907856Y-85857438D01*
X130907856Y-85857438D02*
X131003094Y-85952676D01*
X131003094Y-85952676D02*
X131050713Y-86047914D01*
X131050713Y-86047914D02*
X131098332Y-86238390D01*
X131098332Y-86238390D02*
X131098332Y-86381247D01*
X131098332Y-86381247D02*
X131050713Y-86571723D01*
X131050713Y-86571723D02*
X131003094Y-86666961D01*
X131003094Y-86666961D02*
X130907856Y-86762200D01*
X130907856Y-86762200D02*
X130764999Y-86809819D01*
X130764999Y-86809819D02*
X130526904Y-86809819D01*
X131479285Y-85905057D02*
X131526904Y-85857438D01*
X131526904Y-85857438D02*
X131622142Y-85809819D01*
X131622142Y-85809819D02*
X131860237Y-85809819D01*
X131860237Y-85809819D02*
X131955475Y-85857438D01*
X131955475Y-85857438D02*
X132003094Y-85905057D01*
X132003094Y-85905057D02*
X132050713Y-86000295D01*
X132050713Y-86000295D02*
X132050713Y-86095533D01*
X132050713Y-86095533D02*
X132003094Y-86238390D01*
X132003094Y-86238390D02*
X131431666Y-86809819D01*
X131431666Y-86809819D02*
X132050713Y-86809819D01*
X132431666Y-85905057D02*
X132479285Y-85857438D01*
X132479285Y-85857438D02*
X132574523Y-85809819D01*
X132574523Y-85809819D02*
X132812618Y-85809819D01*
X132812618Y-85809819D02*
X132907856Y-85857438D01*
X132907856Y-85857438D02*
X132955475Y-85905057D01*
X132955475Y-85905057D02*
X133003094Y-86000295D01*
X133003094Y-86000295D02*
X133003094Y-86095533D01*
X133003094Y-86095533D02*
X132955475Y-86238390D01*
X132955475Y-86238390D02*
X132384047Y-86809819D01*
X132384047Y-86809819D02*
X133003094Y-86809819D01*
D10*
X139813609Y-90388884D02*
X140623132Y-90388884D01*
X140623132Y-90388884D02*
X140718370Y-90436503D01*
X140718370Y-90436503D02*
X140765990Y-90484122D01*
X140765990Y-90484122D02*
X140813609Y-90579360D01*
X140813609Y-90579360D02*
X140813609Y-90769836D01*
X140813609Y-90769836D02*
X140765990Y-90865074D01*
X140765990Y-90865074D02*
X140718370Y-90912693D01*
X140718370Y-90912693D02*
X140623132Y-90960312D01*
X140623132Y-90960312D02*
X139813609Y-90960312D01*
X140765990Y-91388884D02*
X140813609Y-91531741D01*
X140813609Y-91531741D02*
X140813609Y-91769836D01*
X140813609Y-91769836D02*
X140765990Y-91865074D01*
X140765990Y-91865074D02*
X140718370Y-91912693D01*
X140718370Y-91912693D02*
X140623132Y-91960312D01*
X140623132Y-91960312D02*
X140527894Y-91960312D01*
X140527894Y-91960312D02*
X140432656Y-91912693D01*
X140432656Y-91912693D02*
X140385037Y-91865074D01*
X140385037Y-91865074D02*
X140337418Y-91769836D01*
X140337418Y-91769836D02*
X140289799Y-91579360D01*
X140289799Y-91579360D02*
X140242180Y-91484122D01*
X140242180Y-91484122D02*
X140194561Y-91436503D01*
X140194561Y-91436503D02*
X140099323Y-91388884D01*
X140099323Y-91388884D02*
X140004085Y-91388884D01*
X140004085Y-91388884D02*
X139908847Y-91436503D01*
X139908847Y-91436503D02*
X139861228Y-91484122D01*
X139861228Y-91484122D02*
X139813609Y-91579360D01*
X139813609Y-91579360D02*
X139813609Y-91817455D01*
X139813609Y-91817455D02*
X139861228Y-91960312D01*
X140289799Y-92722217D02*
X140337418Y-92865074D01*
X140337418Y-92865074D02*
X140385037Y-92912693D01*
X140385037Y-92912693D02*
X140480275Y-92960312D01*
X140480275Y-92960312D02*
X140623132Y-92960312D01*
X140623132Y-92960312D02*
X140718370Y-92912693D01*
X140718370Y-92912693D02*
X140765990Y-92865074D01*
X140765990Y-92865074D02*
X140813609Y-92769836D01*
X140813609Y-92769836D02*
X140813609Y-92388884D01*
X140813609Y-92388884D02*
X139813609Y-92388884D01*
X139813609Y-92388884D02*
X139813609Y-92722217D01*
X139813609Y-92722217D02*
X139861228Y-92817455D01*
X139861228Y-92817455D02*
X139908847Y-92865074D01*
X139908847Y-92865074D02*
X140004085Y-92912693D01*
X140004085Y-92912693D02*
X140099323Y-92912693D01*
X140099323Y-92912693D02*
X140194561Y-92865074D01*
X140194561Y-92865074D02*
X140242180Y-92817455D01*
X140242180Y-92817455D02*
X140289799Y-92722217D01*
X140289799Y-92722217D02*
X140289799Y-92388884D01*
X140908847Y-93150789D02*
X140908847Y-93912693D01*
X140718370Y-94722217D02*
X140765990Y-94674598D01*
X140765990Y-94674598D02*
X140813609Y-94531741D01*
X140813609Y-94531741D02*
X140813609Y-94436503D01*
X140813609Y-94436503D02*
X140765990Y-94293646D01*
X140765990Y-94293646D02*
X140670751Y-94198408D01*
X140670751Y-94198408D02*
X140575513Y-94150789D01*
X140575513Y-94150789D02*
X140385037Y-94103170D01*
X140385037Y-94103170D02*
X140242180Y-94103170D01*
X140242180Y-94103170D02*
X140051704Y-94150789D01*
X140051704Y-94150789D02*
X139956466Y-94198408D01*
X139956466Y-94198408D02*
X139861228Y-94293646D01*
X139861228Y-94293646D02*
X139813609Y-94436503D01*
X139813609Y-94436503D02*
X139813609Y-94531741D01*
X139813609Y-94531741D02*
X139861228Y-94674598D01*
X139861228Y-94674598D02*
X139908847Y-94722217D01*
X140908847Y-94912694D02*
X140908847Y-95674598D01*
X140813609Y-96436503D02*
X140813609Y-95865075D01*
X140813609Y-96150789D02*
X139813609Y-96150789D01*
X139813609Y-96150789D02*
X139956466Y-96055551D01*
X139956466Y-96055551D02*
X140051704Y-95960313D01*
X140051704Y-95960313D02*
X140099323Y-95865075D01*
D11*
X85789285Y-89629819D02*
X85789285Y-88629819D01*
X85789285Y-89106009D02*
X86360713Y-89106009D01*
X86360713Y-89629819D02*
X86360713Y-88629819D01*
X86741666Y-88629819D02*
X87360713Y-88629819D01*
X87360713Y-88629819D02*
X87027380Y-89010771D01*
X87027380Y-89010771D02*
X87170237Y-89010771D01*
X87170237Y-89010771D02*
X87265475Y-89058390D01*
X87265475Y-89058390D02*
X87313094Y-89106009D01*
X87313094Y-89106009D02*
X87360713Y-89201247D01*
X87360713Y-89201247D02*
X87360713Y-89439342D01*
X87360713Y-89439342D02*
X87313094Y-89534580D01*
X87313094Y-89534580D02*
X87265475Y-89582200D01*
X87265475Y-89582200D02*
X87170237Y-89629819D01*
X87170237Y-89629819D02*
X86884523Y-89629819D01*
X86884523Y-89629819D02*
X86789285Y-89582200D01*
X86789285Y-89582200D02*
X86741666Y-89534580D01*
X50769285Y-97779819D02*
X50769285Y-96779819D01*
X50769285Y-97256009D02*
X51340713Y-97256009D01*
X51340713Y-97779819D02*
X51340713Y-96779819D01*
X52293094Y-96779819D02*
X51816904Y-96779819D01*
X51816904Y-96779819D02*
X51769285Y-97256009D01*
X51769285Y-97256009D02*
X51816904Y-97208390D01*
X51816904Y-97208390D02*
X51912142Y-97160771D01*
X51912142Y-97160771D02*
X52150237Y-97160771D01*
X52150237Y-97160771D02*
X52245475Y-97208390D01*
X52245475Y-97208390D02*
X52293094Y-97256009D01*
X52293094Y-97256009D02*
X52340713Y-97351247D01*
X52340713Y-97351247D02*
X52340713Y-97589342D01*
X52340713Y-97589342D02*
X52293094Y-97684580D01*
X52293094Y-97684580D02*
X52245475Y-97732200D01*
X52245475Y-97732200D02*
X52150237Y-97779819D01*
X52150237Y-97779819D02*
X51912142Y-97779819D01*
X51912142Y-97779819D02*
X51816904Y-97732200D01*
X51816904Y-97732200D02*
X51769285Y-97684580D01*
D12*
X127395999Y-85008333D02*
X127157904Y-85174999D01*
X127395999Y-85294047D02*
X126895999Y-85294047D01*
X126895999Y-85294047D02*
X126895999Y-85103571D01*
X126895999Y-85103571D02*
X126919809Y-85055952D01*
X126919809Y-85055952D02*
X126943618Y-85032142D01*
X126943618Y-85032142D02*
X126991237Y-85008333D01*
X126991237Y-85008333D02*
X127062666Y-85008333D01*
X127062666Y-85008333D02*
X127110285Y-85032142D01*
X127110285Y-85032142D02*
X127134094Y-85055952D01*
X127134094Y-85055952D02*
X127157904Y-85103571D01*
X127157904Y-85103571D02*
X127157904Y-85294047D01*
X127395999Y-84532142D02*
X127395999Y-84817856D01*
X127395999Y-84674999D02*
X126895999Y-84674999D01*
X126895999Y-84674999D02*
X126967428Y-84722618D01*
X126967428Y-84722618D02*
X127015047Y-84770237D01*
X127015047Y-84770237D02*
X127038856Y-84817856D01*
X126885999Y-84204048D02*
X126885999Y-83894524D01*
X126885999Y-83894524D02*
X127076475Y-84061191D01*
X127076475Y-84061191D02*
X127076475Y-83989762D01*
X127076475Y-83989762D02*
X127100285Y-83942143D01*
X127100285Y-83942143D02*
X127124094Y-83918334D01*
X127124094Y-83918334D02*
X127171713Y-83894524D01*
X127171713Y-83894524D02*
X127290761Y-83894524D01*
X127290761Y-83894524D02*
X127338380Y-83918334D01*
X127338380Y-83918334D02*
X127362190Y-83942143D01*
X127362190Y-83942143D02*
X127385999Y-83989762D01*
X127385999Y-83989762D02*
X127385999Y-84132619D01*
X127385999Y-84132619D02*
X127362190Y-84180238D01*
X127362190Y-84180238D02*
X127338380Y-84204048D01*
X126885999Y-83727858D02*
X126885999Y-83418334D01*
X126885999Y-83418334D02*
X127076475Y-83585001D01*
X127076475Y-83585001D02*
X127076475Y-83513572D01*
X127076475Y-83513572D02*
X127100285Y-83465953D01*
X127100285Y-83465953D02*
X127124094Y-83442144D01*
X127124094Y-83442144D02*
X127171713Y-83418334D01*
X127171713Y-83418334D02*
X127290761Y-83418334D01*
X127290761Y-83418334D02*
X127338380Y-83442144D01*
X127338380Y-83442144D02*
X127362190Y-83465953D01*
X127362190Y-83465953D02*
X127385999Y-83513572D01*
X127385999Y-83513572D02*
X127385999Y-83656429D01*
X127385999Y-83656429D02*
X127362190Y-83704048D01*
X127362190Y-83704048D02*
X127338380Y-83727858D01*
X126885999Y-82727859D02*
X126885999Y-82632621D01*
X126885999Y-82632621D02*
X126909809Y-82585002D01*
X126909809Y-82585002D02*
X126957428Y-82537383D01*
X126957428Y-82537383D02*
X127052666Y-82513573D01*
X127052666Y-82513573D02*
X127219332Y-82513573D01*
X127219332Y-82513573D02*
X127314570Y-82537383D01*
X127314570Y-82537383D02*
X127362190Y-82585002D01*
X127362190Y-82585002D02*
X127385999Y-82632621D01*
X127385999Y-82632621D02*
X127385999Y-82727859D01*
X127385999Y-82727859D02*
X127362190Y-82775478D01*
X127362190Y-82775478D02*
X127314570Y-82823097D01*
X127314570Y-82823097D02*
X127219332Y-82846906D01*
X127219332Y-82846906D02*
X127052666Y-82846906D01*
X127052666Y-82846906D02*
X126957428Y-82823097D01*
X126957428Y-82823097D02*
X126909809Y-82775478D01*
X126909809Y-82775478D02*
X126885999Y-82727859D01*
X127385999Y-82299287D02*
X126885999Y-82299287D01*
X127385999Y-82085001D02*
X127124094Y-82085001D01*
X127124094Y-82085001D02*
X127076475Y-82108811D01*
X127076475Y-82108811D02*
X127052666Y-82156430D01*
X127052666Y-82156430D02*
X127052666Y-82227858D01*
X127052666Y-82227858D02*
X127076475Y-82275477D01*
X127076475Y-82275477D02*
X127100285Y-82299287D01*
X127385999Y-81846906D02*
X127052666Y-81846906D01*
X127100285Y-81846906D02*
X127076475Y-81823096D01*
X127076475Y-81823096D02*
X127052666Y-81775477D01*
X127052666Y-81775477D02*
X127052666Y-81704049D01*
X127052666Y-81704049D02*
X127076475Y-81656430D01*
X127076475Y-81656430D02*
X127124094Y-81632620D01*
X127124094Y-81632620D02*
X127385999Y-81632620D01*
X127124094Y-81632620D02*
X127076475Y-81608811D01*
X127076475Y-81608811D02*
X127052666Y-81561192D01*
X127052666Y-81561192D02*
X127052666Y-81489763D01*
X127052666Y-81489763D02*
X127076475Y-81442144D01*
X127076475Y-81442144D02*
X127124094Y-81418334D01*
X127124094Y-81418334D02*
X127385999Y-81418334D01*
X127362190Y-81204048D02*
X127385999Y-81156429D01*
X127385999Y-81156429D02*
X127385999Y-81061191D01*
X127385999Y-81061191D02*
X127362190Y-81013572D01*
X127362190Y-81013572D02*
X127314570Y-80989763D01*
X127314570Y-80989763D02*
X127290761Y-80989763D01*
X127290761Y-80989763D02*
X127243142Y-81013572D01*
X127243142Y-81013572D02*
X127219332Y-81061191D01*
X127219332Y-81061191D02*
X127219332Y-81132620D01*
X127219332Y-81132620D02*
X127195523Y-81180239D01*
X127195523Y-81180239D02*
X127147904Y-81204048D01*
X127147904Y-81204048D02*
X127124094Y-81204048D01*
X127124094Y-81204048D02*
X127076475Y-81180239D01*
X127076475Y-81180239D02*
X127052666Y-81132620D01*
X127052666Y-81132620D02*
X127052666Y-81061191D01*
X127052666Y-81061191D02*
X127076475Y-81013572D01*
D11*
X72690713Y-55759580D02*
X72643094Y-55807200D01*
X72643094Y-55807200D02*
X72500237Y-55854819D01*
X72500237Y-55854819D02*
X72404999Y-55854819D01*
X72404999Y-55854819D02*
X72262142Y-55807200D01*
X72262142Y-55807200D02*
X72166904Y-55711961D01*
X72166904Y-55711961D02*
X72119285Y-55616723D01*
X72119285Y-55616723D02*
X72071666Y-55426247D01*
X72071666Y-55426247D02*
X72071666Y-55283390D01*
X72071666Y-55283390D02*
X72119285Y-55092914D01*
X72119285Y-55092914D02*
X72166904Y-54997676D01*
X72166904Y-54997676D02*
X72262142Y-54902438D01*
X72262142Y-54902438D02*
X72404999Y-54854819D01*
X72404999Y-54854819D02*
X72500237Y-54854819D01*
X72500237Y-54854819D02*
X72643094Y-54902438D01*
X72643094Y-54902438D02*
X72690713Y-54950057D01*
X73119285Y-55854819D02*
X73119285Y-54854819D01*
X73119285Y-55331009D02*
X73690713Y-55331009D01*
X73690713Y-55854819D02*
X73690713Y-54854819D01*
X74071666Y-54854819D02*
X74690713Y-54854819D01*
X74690713Y-54854819D02*
X74357380Y-55235771D01*
X74357380Y-55235771D02*
X74500237Y-55235771D01*
X74500237Y-55235771D02*
X74595475Y-55283390D01*
X74595475Y-55283390D02*
X74643094Y-55331009D01*
X74643094Y-55331009D02*
X74690713Y-55426247D01*
X74690713Y-55426247D02*
X74690713Y-55664342D01*
X74690713Y-55664342D02*
X74643094Y-55759580D01*
X74643094Y-55759580D02*
X74595475Y-55807200D01*
X74595475Y-55807200D02*
X74500237Y-55854819D01*
X74500237Y-55854819D02*
X74214523Y-55854819D01*
X74214523Y-55854819D02*
X74119285Y-55807200D01*
X74119285Y-55807200D02*
X74071666Y-55759580D01*
X54690713Y-58759580D02*
X54643094Y-58807200D01*
X54643094Y-58807200D02*
X54500237Y-58854819D01*
X54500237Y-58854819D02*
X54404999Y-58854819D01*
X54404999Y-58854819D02*
X54262142Y-58807200D01*
X54262142Y-58807200D02*
X54166904Y-58711961D01*
X54166904Y-58711961D02*
X54119285Y-58616723D01*
X54119285Y-58616723D02*
X54071666Y-58426247D01*
X54071666Y-58426247D02*
X54071666Y-58283390D01*
X54071666Y-58283390D02*
X54119285Y-58092914D01*
X54119285Y-58092914D02*
X54166904Y-57997676D01*
X54166904Y-57997676D02*
X54262142Y-57902438D01*
X54262142Y-57902438D02*
X54404999Y-57854819D01*
X54404999Y-57854819D02*
X54500237Y-57854819D01*
X54500237Y-57854819D02*
X54643094Y-57902438D01*
X54643094Y-57902438D02*
X54690713Y-57950057D01*
X55119285Y-58854819D02*
X55119285Y-57854819D01*
X55119285Y-58331009D02*
X55690713Y-58331009D01*
X55690713Y-58854819D02*
X55690713Y-57854819D01*
X56595475Y-58188152D02*
X56595475Y-58854819D01*
X56357380Y-57807200D02*
X56119285Y-58521485D01*
X56119285Y-58521485D02*
X56738332Y-58521485D01*
X108690713Y-60259580D02*
X108643094Y-60307200D01*
X108643094Y-60307200D02*
X108500237Y-60354819D01*
X108500237Y-60354819D02*
X108404999Y-60354819D01*
X108404999Y-60354819D02*
X108262142Y-60307200D01*
X108262142Y-60307200D02*
X108166904Y-60211961D01*
X108166904Y-60211961D02*
X108119285Y-60116723D01*
X108119285Y-60116723D02*
X108071666Y-59926247D01*
X108071666Y-59926247D02*
X108071666Y-59783390D01*
X108071666Y-59783390D02*
X108119285Y-59592914D01*
X108119285Y-59592914D02*
X108166904Y-59497676D01*
X108166904Y-59497676D02*
X108262142Y-59402438D01*
X108262142Y-59402438D02*
X108404999Y-59354819D01*
X108404999Y-59354819D02*
X108500237Y-59354819D01*
X108500237Y-59354819D02*
X108643094Y-59402438D01*
X108643094Y-59402438D02*
X108690713Y-59450057D01*
X109119285Y-60354819D02*
X109119285Y-59354819D01*
X109119285Y-59831009D02*
X109690713Y-59831009D01*
X109690713Y-60354819D02*
X109690713Y-59354819D01*
X110690713Y-60354819D02*
X110119285Y-60354819D01*
X110404999Y-60354819D02*
X110404999Y-59354819D01*
X110404999Y-59354819D02*
X110309761Y-59497676D01*
X110309761Y-59497676D02*
X110214523Y-59592914D01*
X110214523Y-59592914D02*
X110119285Y-59640533D01*
X99947879Y-111142999D02*
X99891400Y-111179676D01*
X99891400Y-111179676D02*
X99741764Y-111196553D01*
X99741764Y-111196553D02*
X99648607Y-111176752D01*
X99648607Y-111176752D02*
X99518773Y-111100472D01*
X99518773Y-111100472D02*
X99445417Y-110987514D01*
X99445417Y-110987514D02*
X99418640Y-110884456D01*
X99418640Y-110884456D02*
X99411663Y-110688242D01*
X99411663Y-110688242D02*
X99441365Y-110548507D01*
X99441365Y-110548507D02*
X99527546Y-110372093D01*
X99527546Y-110372093D02*
X99593925Y-110288837D01*
X99593925Y-110288837D02*
X99706883Y-110215481D01*
X99706883Y-110215481D02*
X99856519Y-110198605D01*
X99856519Y-110198605D02*
X99949676Y-110218406D01*
X99949676Y-110218406D02*
X100079511Y-110294686D01*
X100079511Y-110294686D02*
X100116189Y-110351165D01*
X100347284Y-111325260D02*
X100555196Y-110347113D01*
X100456190Y-110812897D02*
X101015132Y-110931704D01*
X100906226Y-111444067D02*
X101114138Y-110465920D01*
X101513542Y-110648181D02*
X101570021Y-110611504D01*
X101570021Y-110611504D02*
X101673079Y-110584726D01*
X101673079Y-110584726D02*
X101905971Y-110634229D01*
X101905971Y-110634229D02*
X101989228Y-110700609D01*
X101989228Y-110700609D02*
X102025906Y-110757088D01*
X102025906Y-110757088D02*
X102052683Y-110860145D01*
X102052683Y-110860145D02*
X102032882Y-110953302D01*
X102032882Y-110953302D02*
X101956602Y-111083137D01*
X101956602Y-111083137D02*
X101278853Y-111523272D01*
X101278853Y-111523272D02*
X101884373Y-111651979D01*
X102697805Y-110802538D02*
X102790962Y-110822340D01*
X102790962Y-110822340D02*
X102874218Y-110888719D01*
X102874218Y-110888719D02*
X102910896Y-110945198D01*
X102910896Y-110945198D02*
X102937674Y-111048256D01*
X102937674Y-111048256D02*
X102944650Y-111244470D01*
X102944650Y-111244470D02*
X102895147Y-111477362D01*
X102895147Y-111477362D02*
X102808966Y-111653776D01*
X102808966Y-111653776D02*
X102742587Y-111737032D01*
X102742587Y-111737032D02*
X102686108Y-111773710D01*
X102686108Y-111773710D02*
X102583050Y-111800487D01*
X102583050Y-111800487D02*
X102489893Y-111780686D01*
X102489893Y-111780686D02*
X102406637Y-111714307D01*
X102406637Y-111714307D02*
X102369959Y-111657828D01*
X102369959Y-111657828D02*
X102343182Y-111554770D01*
X102343182Y-111554770D02*
X102336206Y-111358556D01*
X102336206Y-111358556D02*
X102385708Y-111125663D01*
X102385708Y-111125663D02*
X102471889Y-110949250D01*
X102471889Y-110949250D02*
X102538269Y-110865994D01*
X102538269Y-110865994D02*
X102594748Y-110829316D01*
X102594748Y-110829316D02*
X102697805Y-110802538D01*
X18690713Y-61759580D02*
X18643094Y-61807200D01*
X18643094Y-61807200D02*
X18500237Y-61854819D01*
X18500237Y-61854819D02*
X18404999Y-61854819D01*
X18404999Y-61854819D02*
X18262142Y-61807200D01*
X18262142Y-61807200D02*
X18166904Y-61711961D01*
X18166904Y-61711961D02*
X18119285Y-61616723D01*
X18119285Y-61616723D02*
X18071666Y-61426247D01*
X18071666Y-61426247D02*
X18071666Y-61283390D01*
X18071666Y-61283390D02*
X18119285Y-61092914D01*
X18119285Y-61092914D02*
X18166904Y-60997676D01*
X18166904Y-60997676D02*
X18262142Y-60902438D01*
X18262142Y-60902438D02*
X18404999Y-60854819D01*
X18404999Y-60854819D02*
X18500237Y-60854819D01*
X18500237Y-60854819D02*
X18643094Y-60902438D01*
X18643094Y-60902438D02*
X18690713Y-60950057D01*
X19119285Y-61854819D02*
X19119285Y-60854819D01*
X19119285Y-61331009D02*
X19690713Y-61331009D01*
X19690713Y-61854819D02*
X19690713Y-60854819D01*
X20595475Y-60854819D02*
X20404999Y-60854819D01*
X20404999Y-60854819D02*
X20309761Y-60902438D01*
X20309761Y-60902438D02*
X20262142Y-60950057D01*
X20262142Y-60950057D02*
X20166904Y-61092914D01*
X20166904Y-61092914D02*
X20119285Y-61283390D01*
X20119285Y-61283390D02*
X20119285Y-61664342D01*
X20119285Y-61664342D02*
X20166904Y-61759580D01*
X20166904Y-61759580D02*
X20214523Y-61807200D01*
X20214523Y-61807200D02*
X20309761Y-61854819D01*
X20309761Y-61854819D02*
X20500237Y-61854819D01*
X20500237Y-61854819D02*
X20595475Y-61807200D01*
X20595475Y-61807200D02*
X20643094Y-61759580D01*
X20643094Y-61759580D02*
X20690713Y-61664342D01*
X20690713Y-61664342D02*
X20690713Y-61426247D01*
X20690713Y-61426247D02*
X20643094Y-61331009D01*
X20643094Y-61331009D02*
X20595475Y-61283390D01*
X20595475Y-61283390D02*
X20500237Y-61235771D01*
X20500237Y-61235771D02*
X20309761Y-61235771D01*
X20309761Y-61235771D02*
X20214523Y-61283390D01*
X20214523Y-61283390D02*
X20166904Y-61331009D01*
X20166904Y-61331009D02*
X20119285Y-61426247D01*
X36214523Y-95759580D02*
X36166904Y-95807200D01*
X36166904Y-95807200D02*
X36024047Y-95854819D01*
X36024047Y-95854819D02*
X35928809Y-95854819D01*
X35928809Y-95854819D02*
X35785952Y-95807200D01*
X35785952Y-95807200D02*
X35690714Y-95711961D01*
X35690714Y-95711961D02*
X35643095Y-95616723D01*
X35643095Y-95616723D02*
X35595476Y-95426247D01*
X35595476Y-95426247D02*
X35595476Y-95283390D01*
X35595476Y-95283390D02*
X35643095Y-95092914D01*
X35643095Y-95092914D02*
X35690714Y-94997676D01*
X35690714Y-94997676D02*
X35785952Y-94902438D01*
X35785952Y-94902438D02*
X35928809Y-94854819D01*
X35928809Y-94854819D02*
X36024047Y-94854819D01*
X36024047Y-94854819D02*
X36166904Y-94902438D01*
X36166904Y-94902438D02*
X36214523Y-94950057D01*
X36643095Y-95854819D02*
X36643095Y-94854819D01*
X36643095Y-95331009D02*
X37214523Y-95331009D01*
X37214523Y-95854819D02*
X37214523Y-94854819D01*
X38214523Y-95854819D02*
X37643095Y-95854819D01*
X37928809Y-95854819D02*
X37928809Y-94854819D01*
X37928809Y-94854819D02*
X37833571Y-94997676D01*
X37833571Y-94997676D02*
X37738333Y-95092914D01*
X37738333Y-95092914D02*
X37643095Y-95140533D01*
X38547857Y-94854819D02*
X39214523Y-94854819D01*
X39214523Y-94854819D02*
X38785952Y-95854819D01*
X90690713Y-58759580D02*
X90643094Y-58807200D01*
X90643094Y-58807200D02*
X90500237Y-58854819D01*
X90500237Y-58854819D02*
X90404999Y-58854819D01*
X90404999Y-58854819D02*
X90262142Y-58807200D01*
X90262142Y-58807200D02*
X90166904Y-58711961D01*
X90166904Y-58711961D02*
X90119285Y-58616723D01*
X90119285Y-58616723D02*
X90071666Y-58426247D01*
X90071666Y-58426247D02*
X90071666Y-58283390D01*
X90071666Y-58283390D02*
X90119285Y-58092914D01*
X90119285Y-58092914D02*
X90166904Y-57997676D01*
X90166904Y-57997676D02*
X90262142Y-57902438D01*
X90262142Y-57902438D02*
X90404999Y-57854819D01*
X90404999Y-57854819D02*
X90500237Y-57854819D01*
X90500237Y-57854819D02*
X90643094Y-57902438D01*
X90643094Y-57902438D02*
X90690713Y-57950057D01*
X91119285Y-58854819D02*
X91119285Y-57854819D01*
X91119285Y-58331009D02*
X91690713Y-58331009D01*
X91690713Y-58854819D02*
X91690713Y-57854819D01*
X92119285Y-57950057D02*
X92166904Y-57902438D01*
X92166904Y-57902438D02*
X92262142Y-57854819D01*
X92262142Y-57854819D02*
X92500237Y-57854819D01*
X92500237Y-57854819D02*
X92595475Y-57902438D01*
X92595475Y-57902438D02*
X92643094Y-57950057D01*
X92643094Y-57950057D02*
X92690713Y-58045295D01*
X92690713Y-58045295D02*
X92690713Y-58140533D01*
X92690713Y-58140533D02*
X92643094Y-58283390D01*
X92643094Y-58283390D02*
X92071666Y-58854819D01*
X92071666Y-58854819D02*
X92690713Y-58854819D01*
X90214523Y-92759580D02*
X90166904Y-92807200D01*
X90166904Y-92807200D02*
X90024047Y-92854819D01*
X90024047Y-92854819D02*
X89928809Y-92854819D01*
X89928809Y-92854819D02*
X89785952Y-92807200D01*
X89785952Y-92807200D02*
X89690714Y-92711961D01*
X89690714Y-92711961D02*
X89643095Y-92616723D01*
X89643095Y-92616723D02*
X89595476Y-92426247D01*
X89595476Y-92426247D02*
X89595476Y-92283390D01*
X89595476Y-92283390D02*
X89643095Y-92092914D01*
X89643095Y-92092914D02*
X89690714Y-91997676D01*
X89690714Y-91997676D02*
X89785952Y-91902438D01*
X89785952Y-91902438D02*
X89928809Y-91854819D01*
X89928809Y-91854819D02*
X90024047Y-91854819D01*
X90024047Y-91854819D02*
X90166904Y-91902438D01*
X90166904Y-91902438D02*
X90214523Y-91950057D01*
X90643095Y-92854819D02*
X90643095Y-91854819D01*
X90643095Y-92331009D02*
X91214523Y-92331009D01*
X91214523Y-92854819D02*
X91214523Y-91854819D01*
X92214523Y-92854819D02*
X91643095Y-92854819D01*
X91928809Y-92854819D02*
X91928809Y-91854819D01*
X91928809Y-91854819D02*
X91833571Y-91997676D01*
X91833571Y-91997676D02*
X91738333Y-92092914D01*
X91738333Y-92092914D02*
X91643095Y-92140533D01*
X93071666Y-92188152D02*
X93071666Y-92854819D01*
X92833571Y-91807200D02*
X92595476Y-92521485D01*
X92595476Y-92521485D02*
X93214523Y-92521485D01*
X108214523Y-77259580D02*
X108166904Y-77307200D01*
X108166904Y-77307200D02*
X108024047Y-77354819D01*
X108024047Y-77354819D02*
X107928809Y-77354819D01*
X107928809Y-77354819D02*
X107785952Y-77307200D01*
X107785952Y-77307200D02*
X107690714Y-77211961D01*
X107690714Y-77211961D02*
X107643095Y-77116723D01*
X107643095Y-77116723D02*
X107595476Y-76926247D01*
X107595476Y-76926247D02*
X107595476Y-76783390D01*
X107595476Y-76783390D02*
X107643095Y-76592914D01*
X107643095Y-76592914D02*
X107690714Y-76497676D01*
X107690714Y-76497676D02*
X107785952Y-76402438D01*
X107785952Y-76402438D02*
X107928809Y-76354819D01*
X107928809Y-76354819D02*
X108024047Y-76354819D01*
X108024047Y-76354819D02*
X108166904Y-76402438D01*
X108166904Y-76402438D02*
X108214523Y-76450057D01*
X108643095Y-77354819D02*
X108643095Y-76354819D01*
X108643095Y-76831009D02*
X109214523Y-76831009D01*
X109214523Y-77354819D02*
X109214523Y-76354819D01*
X110214523Y-77354819D02*
X109643095Y-77354819D01*
X109928809Y-77354819D02*
X109928809Y-76354819D01*
X109928809Y-76354819D02*
X109833571Y-76497676D01*
X109833571Y-76497676D02*
X109738333Y-76592914D01*
X109738333Y-76592914D02*
X109643095Y-76640533D01*
X110595476Y-76450057D02*
X110643095Y-76402438D01*
X110643095Y-76402438D02*
X110738333Y-76354819D01*
X110738333Y-76354819D02*
X110976428Y-76354819D01*
X110976428Y-76354819D02*
X111071666Y-76402438D01*
X111071666Y-76402438D02*
X111119285Y-76450057D01*
X111119285Y-76450057D02*
X111166904Y-76545295D01*
X111166904Y-76545295D02*
X111166904Y-76640533D01*
X111166904Y-76640533D02*
X111119285Y-76783390D01*
X111119285Y-76783390D02*
X110547857Y-77354819D01*
X110547857Y-77354819D02*
X111166904Y-77354819D01*
X18214523Y-95759580D02*
X18166904Y-95807200D01*
X18166904Y-95807200D02*
X18024047Y-95854819D01*
X18024047Y-95854819D02*
X17928809Y-95854819D01*
X17928809Y-95854819D02*
X17785952Y-95807200D01*
X17785952Y-95807200D02*
X17690714Y-95711961D01*
X17690714Y-95711961D02*
X17643095Y-95616723D01*
X17643095Y-95616723D02*
X17595476Y-95426247D01*
X17595476Y-95426247D02*
X17595476Y-95283390D01*
X17595476Y-95283390D02*
X17643095Y-95092914D01*
X17643095Y-95092914D02*
X17690714Y-94997676D01*
X17690714Y-94997676D02*
X17785952Y-94902438D01*
X17785952Y-94902438D02*
X17928809Y-94854819D01*
X17928809Y-94854819D02*
X18024047Y-94854819D01*
X18024047Y-94854819D02*
X18166904Y-94902438D01*
X18166904Y-94902438D02*
X18214523Y-94950057D01*
X18643095Y-95854819D02*
X18643095Y-94854819D01*
X18643095Y-95331009D02*
X19214523Y-95331009D01*
X19214523Y-95854819D02*
X19214523Y-94854819D01*
X20214523Y-95854819D02*
X19643095Y-95854819D01*
X19928809Y-95854819D02*
X19928809Y-94854819D01*
X19928809Y-94854819D02*
X19833571Y-94997676D01*
X19833571Y-94997676D02*
X19738333Y-95092914D01*
X19738333Y-95092914D02*
X19643095Y-95140533D01*
X20785952Y-95283390D02*
X20690714Y-95235771D01*
X20690714Y-95235771D02*
X20643095Y-95188152D01*
X20643095Y-95188152D02*
X20595476Y-95092914D01*
X20595476Y-95092914D02*
X20595476Y-95045295D01*
X20595476Y-95045295D02*
X20643095Y-94950057D01*
X20643095Y-94950057D02*
X20690714Y-94902438D01*
X20690714Y-94902438D02*
X20785952Y-94854819D01*
X20785952Y-94854819D02*
X20976428Y-94854819D01*
X20976428Y-94854819D02*
X21071666Y-94902438D01*
X21071666Y-94902438D02*
X21119285Y-94950057D01*
X21119285Y-94950057D02*
X21166904Y-95045295D01*
X21166904Y-95045295D02*
X21166904Y-95092914D01*
X21166904Y-95092914D02*
X21119285Y-95188152D01*
X21119285Y-95188152D02*
X21071666Y-95235771D01*
X21071666Y-95235771D02*
X20976428Y-95283390D01*
X20976428Y-95283390D02*
X20785952Y-95283390D01*
X20785952Y-95283390D02*
X20690714Y-95331009D01*
X20690714Y-95331009D02*
X20643095Y-95378628D01*
X20643095Y-95378628D02*
X20595476Y-95473866D01*
X20595476Y-95473866D02*
X20595476Y-95664342D01*
X20595476Y-95664342D02*
X20643095Y-95759580D01*
X20643095Y-95759580D02*
X20690714Y-95807200D01*
X20690714Y-95807200D02*
X20785952Y-95854819D01*
X20785952Y-95854819D02*
X20976428Y-95854819D01*
X20976428Y-95854819D02*
X21071666Y-95807200D01*
X21071666Y-95807200D02*
X21119285Y-95759580D01*
X21119285Y-95759580D02*
X21166904Y-95664342D01*
X21166904Y-95664342D02*
X21166904Y-95473866D01*
X21166904Y-95473866D02*
X21119285Y-95378628D01*
X21119285Y-95378628D02*
X21071666Y-95331009D01*
X21071666Y-95331009D02*
X20976428Y-95283390D01*
X72214523Y-72759580D02*
X72166904Y-72807200D01*
X72166904Y-72807200D02*
X72024047Y-72854819D01*
X72024047Y-72854819D02*
X71928809Y-72854819D01*
X71928809Y-72854819D02*
X71785952Y-72807200D01*
X71785952Y-72807200D02*
X71690714Y-72711961D01*
X71690714Y-72711961D02*
X71643095Y-72616723D01*
X71643095Y-72616723D02*
X71595476Y-72426247D01*
X71595476Y-72426247D02*
X71595476Y-72283390D01*
X71595476Y-72283390D02*
X71643095Y-72092914D01*
X71643095Y-72092914D02*
X71690714Y-71997676D01*
X71690714Y-71997676D02*
X71785952Y-71902438D01*
X71785952Y-71902438D02*
X71928809Y-71854819D01*
X71928809Y-71854819D02*
X72024047Y-71854819D01*
X72024047Y-71854819D02*
X72166904Y-71902438D01*
X72166904Y-71902438D02*
X72214523Y-71950057D01*
X72643095Y-72854819D02*
X72643095Y-71854819D01*
X72643095Y-72331009D02*
X73214523Y-72331009D01*
X73214523Y-72854819D02*
X73214523Y-71854819D01*
X74214523Y-72854819D02*
X73643095Y-72854819D01*
X73928809Y-72854819D02*
X73928809Y-71854819D01*
X73928809Y-71854819D02*
X73833571Y-71997676D01*
X73833571Y-71997676D02*
X73738333Y-72092914D01*
X73738333Y-72092914D02*
X73643095Y-72140533D01*
X74833571Y-71854819D02*
X74928809Y-71854819D01*
X74928809Y-71854819D02*
X75024047Y-71902438D01*
X75024047Y-71902438D02*
X75071666Y-71950057D01*
X75071666Y-71950057D02*
X75119285Y-72045295D01*
X75119285Y-72045295D02*
X75166904Y-72235771D01*
X75166904Y-72235771D02*
X75166904Y-72473866D01*
X75166904Y-72473866D02*
X75119285Y-72664342D01*
X75119285Y-72664342D02*
X75071666Y-72759580D01*
X75071666Y-72759580D02*
X75024047Y-72807200D01*
X75024047Y-72807200D02*
X74928809Y-72854819D01*
X74928809Y-72854819D02*
X74833571Y-72854819D01*
X74833571Y-72854819D02*
X74738333Y-72807200D01*
X74738333Y-72807200D02*
X74690714Y-72759580D01*
X74690714Y-72759580D02*
X74643095Y-72664342D01*
X74643095Y-72664342D02*
X74595476Y-72473866D01*
X74595476Y-72473866D02*
X74595476Y-72235771D01*
X74595476Y-72235771D02*
X74643095Y-72045295D01*
X74643095Y-72045295D02*
X74690714Y-71950057D01*
X74690714Y-71950057D02*
X74738333Y-71902438D01*
X74738333Y-71902438D02*
X74833571Y-71854819D01*
X81764523Y-110959580D02*
X81716904Y-111007200D01*
X81716904Y-111007200D02*
X81574047Y-111054819D01*
X81574047Y-111054819D02*
X81478809Y-111054819D01*
X81478809Y-111054819D02*
X81335952Y-111007200D01*
X81335952Y-111007200D02*
X81240714Y-110911961D01*
X81240714Y-110911961D02*
X81193095Y-110816723D01*
X81193095Y-110816723D02*
X81145476Y-110626247D01*
X81145476Y-110626247D02*
X81145476Y-110483390D01*
X81145476Y-110483390D02*
X81193095Y-110292914D01*
X81193095Y-110292914D02*
X81240714Y-110197676D01*
X81240714Y-110197676D02*
X81335952Y-110102438D01*
X81335952Y-110102438D02*
X81478809Y-110054819D01*
X81478809Y-110054819D02*
X81574047Y-110054819D01*
X81574047Y-110054819D02*
X81716904Y-110102438D01*
X81716904Y-110102438D02*
X81764523Y-110150057D01*
X82193095Y-111054819D02*
X82193095Y-110054819D01*
X82193095Y-110531009D02*
X82764523Y-110531009D01*
X82764523Y-111054819D02*
X82764523Y-110054819D01*
X83764523Y-111054819D02*
X83193095Y-111054819D01*
X83478809Y-111054819D02*
X83478809Y-110054819D01*
X83478809Y-110054819D02*
X83383571Y-110197676D01*
X83383571Y-110197676D02*
X83288333Y-110292914D01*
X83288333Y-110292914D02*
X83193095Y-110340533D01*
X84240714Y-111054819D02*
X84431190Y-111054819D01*
X84431190Y-111054819D02*
X84526428Y-111007200D01*
X84526428Y-111007200D02*
X84574047Y-110959580D01*
X84574047Y-110959580D02*
X84669285Y-110816723D01*
X84669285Y-110816723D02*
X84716904Y-110626247D01*
X84716904Y-110626247D02*
X84716904Y-110245295D01*
X84716904Y-110245295D02*
X84669285Y-110150057D01*
X84669285Y-110150057D02*
X84621666Y-110102438D01*
X84621666Y-110102438D02*
X84526428Y-110054819D01*
X84526428Y-110054819D02*
X84335952Y-110054819D01*
X84335952Y-110054819D02*
X84240714Y-110102438D01*
X84240714Y-110102438D02*
X84193095Y-110150057D01*
X84193095Y-110150057D02*
X84145476Y-110245295D01*
X84145476Y-110245295D02*
X84145476Y-110483390D01*
X84145476Y-110483390D02*
X84193095Y-110578628D01*
X84193095Y-110578628D02*
X84240714Y-110626247D01*
X84240714Y-110626247D02*
X84335952Y-110673866D01*
X84335952Y-110673866D02*
X84526428Y-110673866D01*
X84526428Y-110673866D02*
X84621666Y-110626247D01*
X84621666Y-110626247D02*
X84669285Y-110578628D01*
X84669285Y-110578628D02*
X84716904Y-110483390D01*
X90214523Y-75759580D02*
X90166904Y-75807200D01*
X90166904Y-75807200D02*
X90024047Y-75854819D01*
X90024047Y-75854819D02*
X89928809Y-75854819D01*
X89928809Y-75854819D02*
X89785952Y-75807200D01*
X89785952Y-75807200D02*
X89690714Y-75711961D01*
X89690714Y-75711961D02*
X89643095Y-75616723D01*
X89643095Y-75616723D02*
X89595476Y-75426247D01*
X89595476Y-75426247D02*
X89595476Y-75283390D01*
X89595476Y-75283390D02*
X89643095Y-75092914D01*
X89643095Y-75092914D02*
X89690714Y-74997676D01*
X89690714Y-74997676D02*
X89785952Y-74902438D01*
X89785952Y-74902438D02*
X89928809Y-74854819D01*
X89928809Y-74854819D02*
X90024047Y-74854819D01*
X90024047Y-74854819D02*
X90166904Y-74902438D01*
X90166904Y-74902438D02*
X90214523Y-74950057D01*
X90643095Y-75854819D02*
X90643095Y-74854819D01*
X90643095Y-75331009D02*
X91214523Y-75331009D01*
X91214523Y-75854819D02*
X91214523Y-74854819D01*
X92214523Y-75854819D02*
X91643095Y-75854819D01*
X91928809Y-75854819D02*
X91928809Y-74854819D01*
X91928809Y-74854819D02*
X91833571Y-74997676D01*
X91833571Y-74997676D02*
X91738333Y-75092914D01*
X91738333Y-75092914D02*
X91643095Y-75140533D01*
X93166904Y-75854819D02*
X92595476Y-75854819D01*
X92881190Y-75854819D02*
X92881190Y-74854819D01*
X92881190Y-74854819D02*
X92785952Y-74997676D01*
X92785952Y-74997676D02*
X92690714Y-75092914D01*
X92690714Y-75092914D02*
X92595476Y-75140533D01*
D13*
X124667538Y-104996799D02*
X124686845Y-105047096D01*
X124686845Y-105047096D02*
X124675162Y-105166996D01*
X124675162Y-105166996D02*
X124644173Y-105236599D01*
X124644173Y-105236599D02*
X124562887Y-105325510D01*
X124562887Y-105325510D02*
X124462294Y-105364124D01*
X124462294Y-105364124D02*
X124377196Y-105367936D01*
X124377196Y-105367936D02*
X124222494Y-105340759D01*
X124222494Y-105340759D02*
X124118089Y-105294275D01*
X124118089Y-105294275D02*
X123994377Y-105197494D01*
X123994377Y-105197494D02*
X123940268Y-105131703D01*
X123940268Y-105131703D02*
X123901654Y-105031110D01*
X123901654Y-105031110D02*
X123913336Y-104911210D01*
X123913336Y-104911210D02*
X123944326Y-104841606D01*
X123944326Y-104841606D02*
X124025612Y-104752696D01*
X124025612Y-104752696D02*
X124075908Y-104733389D01*
X124876594Y-104714573D02*
X124145757Y-104389184D01*
X124493775Y-104544131D02*
X124679711Y-104126510D01*
X125062530Y-104296952D02*
X124331694Y-103971563D01*
X124540750Y-103689337D02*
X124521443Y-103639041D01*
X124521443Y-103639041D02*
X124517631Y-103553943D01*
X124517631Y-103553943D02*
X124595104Y-103379934D01*
X124595104Y-103379934D02*
X124660896Y-103325825D01*
X124660896Y-103325825D02*
X124711192Y-103306518D01*
X124711192Y-103306518D02*
X124796290Y-103302706D01*
X124796290Y-103302706D02*
X124865894Y-103333695D01*
X124865894Y-103333695D02*
X124954804Y-103414981D01*
X124954804Y-103414981D02*
X125186488Y-104018539D01*
X125186488Y-104018539D02*
X125387920Y-103566116D01*
X125697814Y-102870081D02*
X125511878Y-103287702D01*
X125604846Y-103078892D02*
X124874010Y-102753503D01*
X124874010Y-102753503D02*
X124947425Y-102869590D01*
X124947425Y-102869590D02*
X124986039Y-102970183D01*
X124986039Y-102970183D02*
X124989852Y-103055281D01*
D11*
X72214523Y-89759580D02*
X72166904Y-89807200D01*
X72166904Y-89807200D02*
X72024047Y-89854819D01*
X72024047Y-89854819D02*
X71928809Y-89854819D01*
X71928809Y-89854819D02*
X71785952Y-89807200D01*
X71785952Y-89807200D02*
X71690714Y-89711961D01*
X71690714Y-89711961D02*
X71643095Y-89616723D01*
X71643095Y-89616723D02*
X71595476Y-89426247D01*
X71595476Y-89426247D02*
X71595476Y-89283390D01*
X71595476Y-89283390D02*
X71643095Y-89092914D01*
X71643095Y-89092914D02*
X71690714Y-88997676D01*
X71690714Y-88997676D02*
X71785952Y-88902438D01*
X71785952Y-88902438D02*
X71928809Y-88854819D01*
X71928809Y-88854819D02*
X72024047Y-88854819D01*
X72024047Y-88854819D02*
X72166904Y-88902438D01*
X72166904Y-88902438D02*
X72214523Y-88950057D01*
X72643095Y-89854819D02*
X72643095Y-88854819D01*
X72643095Y-89331009D02*
X73214523Y-89331009D01*
X73214523Y-89854819D02*
X73214523Y-88854819D01*
X74214523Y-89854819D02*
X73643095Y-89854819D01*
X73928809Y-89854819D02*
X73928809Y-88854819D01*
X73928809Y-88854819D02*
X73833571Y-88997676D01*
X73833571Y-88997676D02*
X73738333Y-89092914D01*
X73738333Y-89092914D02*
X73643095Y-89140533D01*
X75119285Y-88854819D02*
X74643095Y-88854819D01*
X74643095Y-88854819D02*
X74595476Y-89331009D01*
X74595476Y-89331009D02*
X74643095Y-89283390D01*
X74643095Y-89283390D02*
X74738333Y-89235771D01*
X74738333Y-89235771D02*
X74976428Y-89235771D01*
X74976428Y-89235771D02*
X75071666Y-89283390D01*
X75071666Y-89283390D02*
X75119285Y-89331009D01*
X75119285Y-89331009D02*
X75166904Y-89426247D01*
X75166904Y-89426247D02*
X75166904Y-89664342D01*
X75166904Y-89664342D02*
X75119285Y-89759580D01*
X75119285Y-89759580D02*
X75071666Y-89807200D01*
X75071666Y-89807200D02*
X74976428Y-89854819D01*
X74976428Y-89854819D02*
X74738333Y-89854819D01*
X74738333Y-89854819D02*
X74643095Y-89807200D01*
X74643095Y-89807200D02*
X74595476Y-89759580D01*
X18690713Y-78759580D02*
X18643094Y-78807200D01*
X18643094Y-78807200D02*
X18500237Y-78854819D01*
X18500237Y-78854819D02*
X18404999Y-78854819D01*
X18404999Y-78854819D02*
X18262142Y-78807200D01*
X18262142Y-78807200D02*
X18166904Y-78711961D01*
X18166904Y-78711961D02*
X18119285Y-78616723D01*
X18119285Y-78616723D02*
X18071666Y-78426247D01*
X18071666Y-78426247D02*
X18071666Y-78283390D01*
X18071666Y-78283390D02*
X18119285Y-78092914D01*
X18119285Y-78092914D02*
X18166904Y-77997676D01*
X18166904Y-77997676D02*
X18262142Y-77902438D01*
X18262142Y-77902438D02*
X18404999Y-77854819D01*
X18404999Y-77854819D02*
X18500237Y-77854819D01*
X18500237Y-77854819D02*
X18643094Y-77902438D01*
X18643094Y-77902438D02*
X18690713Y-77950057D01*
X19119285Y-78854819D02*
X19119285Y-77854819D01*
X19119285Y-78331009D02*
X19690713Y-78331009D01*
X19690713Y-78854819D02*
X19690713Y-77854819D01*
X20071666Y-77854819D02*
X20738332Y-77854819D01*
X20738332Y-77854819D02*
X20309761Y-78854819D01*
X36690713Y-61759580D02*
X36643094Y-61807200D01*
X36643094Y-61807200D02*
X36500237Y-61854819D01*
X36500237Y-61854819D02*
X36404999Y-61854819D01*
X36404999Y-61854819D02*
X36262142Y-61807200D01*
X36262142Y-61807200D02*
X36166904Y-61711961D01*
X36166904Y-61711961D02*
X36119285Y-61616723D01*
X36119285Y-61616723D02*
X36071666Y-61426247D01*
X36071666Y-61426247D02*
X36071666Y-61283390D01*
X36071666Y-61283390D02*
X36119285Y-61092914D01*
X36119285Y-61092914D02*
X36166904Y-60997676D01*
X36166904Y-60997676D02*
X36262142Y-60902438D01*
X36262142Y-60902438D02*
X36404999Y-60854819D01*
X36404999Y-60854819D02*
X36500237Y-60854819D01*
X36500237Y-60854819D02*
X36643094Y-60902438D01*
X36643094Y-60902438D02*
X36690713Y-60950057D01*
X37119285Y-61854819D02*
X37119285Y-60854819D01*
X37119285Y-61331009D02*
X37690713Y-61331009D01*
X37690713Y-61854819D02*
X37690713Y-60854819D01*
X38643094Y-60854819D02*
X38166904Y-60854819D01*
X38166904Y-60854819D02*
X38119285Y-61331009D01*
X38119285Y-61331009D02*
X38166904Y-61283390D01*
X38166904Y-61283390D02*
X38262142Y-61235771D01*
X38262142Y-61235771D02*
X38500237Y-61235771D01*
X38500237Y-61235771D02*
X38595475Y-61283390D01*
X38595475Y-61283390D02*
X38643094Y-61331009D01*
X38643094Y-61331009D02*
X38690713Y-61426247D01*
X38690713Y-61426247D02*
X38690713Y-61664342D01*
X38690713Y-61664342D02*
X38643094Y-61759580D01*
X38643094Y-61759580D02*
X38595475Y-61807200D01*
X38595475Y-61807200D02*
X38500237Y-61854819D01*
X38500237Y-61854819D02*
X38262142Y-61854819D01*
X38262142Y-61854819D02*
X38166904Y-61807200D01*
X38166904Y-61807200D02*
X38119285Y-61759580D01*
X54214523Y-92759580D02*
X54166904Y-92807200D01*
X54166904Y-92807200D02*
X54024047Y-92854819D01*
X54024047Y-92854819D02*
X53928809Y-92854819D01*
X53928809Y-92854819D02*
X53785952Y-92807200D01*
X53785952Y-92807200D02*
X53690714Y-92711961D01*
X53690714Y-92711961D02*
X53643095Y-92616723D01*
X53643095Y-92616723D02*
X53595476Y-92426247D01*
X53595476Y-92426247D02*
X53595476Y-92283390D01*
X53595476Y-92283390D02*
X53643095Y-92092914D01*
X53643095Y-92092914D02*
X53690714Y-91997676D01*
X53690714Y-91997676D02*
X53785952Y-91902438D01*
X53785952Y-91902438D02*
X53928809Y-91854819D01*
X53928809Y-91854819D02*
X54024047Y-91854819D01*
X54024047Y-91854819D02*
X54166904Y-91902438D01*
X54166904Y-91902438D02*
X54214523Y-91950057D01*
X54643095Y-92854819D02*
X54643095Y-91854819D01*
X54643095Y-92331009D02*
X55214523Y-92331009D01*
X55214523Y-92854819D02*
X55214523Y-91854819D01*
X56214523Y-92854819D02*
X55643095Y-92854819D01*
X55928809Y-92854819D02*
X55928809Y-91854819D01*
X55928809Y-91854819D02*
X55833571Y-91997676D01*
X55833571Y-91997676D02*
X55738333Y-92092914D01*
X55738333Y-92092914D02*
X55643095Y-92140533D01*
X57071666Y-91854819D02*
X56881190Y-91854819D01*
X56881190Y-91854819D02*
X56785952Y-91902438D01*
X56785952Y-91902438D02*
X56738333Y-91950057D01*
X56738333Y-91950057D02*
X56643095Y-92092914D01*
X56643095Y-92092914D02*
X56595476Y-92283390D01*
X56595476Y-92283390D02*
X56595476Y-92664342D01*
X56595476Y-92664342D02*
X56643095Y-92759580D01*
X56643095Y-92759580D02*
X56690714Y-92807200D01*
X56690714Y-92807200D02*
X56785952Y-92854819D01*
X56785952Y-92854819D02*
X56976428Y-92854819D01*
X56976428Y-92854819D02*
X57071666Y-92807200D01*
X57071666Y-92807200D02*
X57119285Y-92759580D01*
X57119285Y-92759580D02*
X57166904Y-92664342D01*
X57166904Y-92664342D02*
X57166904Y-92426247D01*
X57166904Y-92426247D02*
X57119285Y-92331009D01*
X57119285Y-92331009D02*
X57071666Y-92283390D01*
X57071666Y-92283390D02*
X56976428Y-92235771D01*
X56976428Y-92235771D02*
X56785952Y-92235771D01*
X56785952Y-92235771D02*
X56690714Y-92283390D01*
X56690714Y-92283390D02*
X56643095Y-92331009D01*
X56643095Y-92331009D02*
X56595476Y-92426247D01*
X36690713Y-78759580D02*
X36643094Y-78807200D01*
X36643094Y-78807200D02*
X36500237Y-78854819D01*
X36500237Y-78854819D02*
X36404999Y-78854819D01*
X36404999Y-78854819D02*
X36262142Y-78807200D01*
X36262142Y-78807200D02*
X36166904Y-78711961D01*
X36166904Y-78711961D02*
X36119285Y-78616723D01*
X36119285Y-78616723D02*
X36071666Y-78426247D01*
X36071666Y-78426247D02*
X36071666Y-78283390D01*
X36071666Y-78283390D02*
X36119285Y-78092914D01*
X36119285Y-78092914D02*
X36166904Y-77997676D01*
X36166904Y-77997676D02*
X36262142Y-77902438D01*
X36262142Y-77902438D02*
X36404999Y-77854819D01*
X36404999Y-77854819D02*
X36500237Y-77854819D01*
X36500237Y-77854819D02*
X36643094Y-77902438D01*
X36643094Y-77902438D02*
X36690713Y-77950057D01*
X37119285Y-78854819D02*
X37119285Y-77854819D01*
X37119285Y-78331009D02*
X37690713Y-78331009D01*
X37690713Y-78854819D02*
X37690713Y-77854819D01*
X38309761Y-78283390D02*
X38214523Y-78235771D01*
X38214523Y-78235771D02*
X38166904Y-78188152D01*
X38166904Y-78188152D02*
X38119285Y-78092914D01*
X38119285Y-78092914D02*
X38119285Y-78045295D01*
X38119285Y-78045295D02*
X38166904Y-77950057D01*
X38166904Y-77950057D02*
X38214523Y-77902438D01*
X38214523Y-77902438D02*
X38309761Y-77854819D01*
X38309761Y-77854819D02*
X38500237Y-77854819D01*
X38500237Y-77854819D02*
X38595475Y-77902438D01*
X38595475Y-77902438D02*
X38643094Y-77950057D01*
X38643094Y-77950057D02*
X38690713Y-78045295D01*
X38690713Y-78045295D02*
X38690713Y-78092914D01*
X38690713Y-78092914D02*
X38643094Y-78188152D01*
X38643094Y-78188152D02*
X38595475Y-78235771D01*
X38595475Y-78235771D02*
X38500237Y-78283390D01*
X38500237Y-78283390D02*
X38309761Y-78283390D01*
X38309761Y-78283390D02*
X38214523Y-78331009D01*
X38214523Y-78331009D02*
X38166904Y-78378628D01*
X38166904Y-78378628D02*
X38119285Y-78473866D01*
X38119285Y-78473866D02*
X38119285Y-78664342D01*
X38119285Y-78664342D02*
X38166904Y-78759580D01*
X38166904Y-78759580D02*
X38214523Y-78807200D01*
X38214523Y-78807200D02*
X38309761Y-78854819D01*
X38309761Y-78854819D02*
X38500237Y-78854819D01*
X38500237Y-78854819D02*
X38595475Y-78807200D01*
X38595475Y-78807200D02*
X38643094Y-78759580D01*
X38643094Y-78759580D02*
X38690713Y-78664342D01*
X38690713Y-78664342D02*
X38690713Y-78473866D01*
X38690713Y-78473866D02*
X38643094Y-78378628D01*
X38643094Y-78378628D02*
X38595475Y-78331009D01*
X38595475Y-78331009D02*
X38500237Y-78283390D01*
X54690713Y-75759580D02*
X54643094Y-75807200D01*
X54643094Y-75807200D02*
X54500237Y-75854819D01*
X54500237Y-75854819D02*
X54404999Y-75854819D01*
X54404999Y-75854819D02*
X54262142Y-75807200D01*
X54262142Y-75807200D02*
X54166904Y-75711961D01*
X54166904Y-75711961D02*
X54119285Y-75616723D01*
X54119285Y-75616723D02*
X54071666Y-75426247D01*
X54071666Y-75426247D02*
X54071666Y-75283390D01*
X54071666Y-75283390D02*
X54119285Y-75092914D01*
X54119285Y-75092914D02*
X54166904Y-74997676D01*
X54166904Y-74997676D02*
X54262142Y-74902438D01*
X54262142Y-74902438D02*
X54404999Y-74854819D01*
X54404999Y-74854819D02*
X54500237Y-74854819D01*
X54500237Y-74854819D02*
X54643094Y-74902438D01*
X54643094Y-74902438D02*
X54690713Y-74950057D01*
X55119285Y-75854819D02*
X55119285Y-74854819D01*
X55119285Y-75331009D02*
X55690713Y-75331009D01*
X55690713Y-75854819D02*
X55690713Y-74854819D01*
X56214523Y-75854819D02*
X56404999Y-75854819D01*
X56404999Y-75854819D02*
X56500237Y-75807200D01*
X56500237Y-75807200D02*
X56547856Y-75759580D01*
X56547856Y-75759580D02*
X56643094Y-75616723D01*
X56643094Y-75616723D02*
X56690713Y-75426247D01*
X56690713Y-75426247D02*
X56690713Y-75045295D01*
X56690713Y-75045295D02*
X56643094Y-74950057D01*
X56643094Y-74950057D02*
X56595475Y-74902438D01*
X56595475Y-74902438D02*
X56500237Y-74854819D01*
X56500237Y-74854819D02*
X56309761Y-74854819D01*
X56309761Y-74854819D02*
X56214523Y-74902438D01*
X56214523Y-74902438D02*
X56166904Y-74950057D01*
X56166904Y-74950057D02*
X56119285Y-75045295D01*
X56119285Y-75045295D02*
X56119285Y-75283390D01*
X56119285Y-75283390D02*
X56166904Y-75378628D01*
X56166904Y-75378628D02*
X56214523Y-75426247D01*
X56214523Y-75426247D02*
X56309761Y-75473866D01*
X56309761Y-75473866D02*
X56500237Y-75473866D01*
X56500237Y-75473866D02*
X56595475Y-75426247D01*
X56595475Y-75426247D02*
X56643094Y-75378628D01*
X56643094Y-75378628D02*
X56690713Y-75283390D01*
X108214523Y-94259580D02*
X108166904Y-94307200D01*
X108166904Y-94307200D02*
X108024047Y-94354819D01*
X108024047Y-94354819D02*
X107928809Y-94354819D01*
X107928809Y-94354819D02*
X107785952Y-94307200D01*
X107785952Y-94307200D02*
X107690714Y-94211961D01*
X107690714Y-94211961D02*
X107643095Y-94116723D01*
X107643095Y-94116723D02*
X107595476Y-93926247D01*
X107595476Y-93926247D02*
X107595476Y-93783390D01*
X107595476Y-93783390D02*
X107643095Y-93592914D01*
X107643095Y-93592914D02*
X107690714Y-93497676D01*
X107690714Y-93497676D02*
X107785952Y-93402438D01*
X107785952Y-93402438D02*
X107928809Y-93354819D01*
X107928809Y-93354819D02*
X108024047Y-93354819D01*
X108024047Y-93354819D02*
X108166904Y-93402438D01*
X108166904Y-93402438D02*
X108214523Y-93450057D01*
X108643095Y-94354819D02*
X108643095Y-93354819D01*
X108643095Y-93831009D02*
X109214523Y-93831009D01*
X109214523Y-94354819D02*
X109214523Y-93354819D01*
X110214523Y-94354819D02*
X109643095Y-94354819D01*
X109928809Y-94354819D02*
X109928809Y-93354819D01*
X109928809Y-93354819D02*
X109833571Y-93497676D01*
X109833571Y-93497676D02*
X109738333Y-93592914D01*
X109738333Y-93592914D02*
X109643095Y-93640533D01*
X110547857Y-93354819D02*
X111166904Y-93354819D01*
X111166904Y-93354819D02*
X110833571Y-93735771D01*
X110833571Y-93735771D02*
X110976428Y-93735771D01*
X110976428Y-93735771D02*
X111071666Y-93783390D01*
X111071666Y-93783390D02*
X111119285Y-93831009D01*
X111119285Y-93831009D02*
X111166904Y-93926247D01*
X111166904Y-93926247D02*
X111166904Y-94164342D01*
X111166904Y-94164342D02*
X111119285Y-94259580D01*
X111119285Y-94259580D02*
X111071666Y-94307200D01*
X111071666Y-94307200D02*
X110976428Y-94354819D01*
X110976428Y-94354819D02*
X110690714Y-94354819D01*
X110690714Y-94354819D02*
X110595476Y-94307200D01*
X110595476Y-94307200D02*
X110547857Y-94259580D01*
D13*
%TO.C,R2*%
X131751190Y-81907936D02*
X131751190Y-83362064D01*
X133571190Y-81907936D02*
X133571190Y-83362064D01*
D11*
%TO.C,MCU1*%
X129541189Y-51282500D02*
X145541191Y-51282500D01*
X129541189Y-75182502D02*
X131341190Y-75182501D01*
X145541191Y-75182502D02*
X143741190Y-75182501D01*
X128433497Y-52020962D02*
G75*
G02*
X129541189Y-51282500I1107693J-461539D01*
G01*
X129541189Y-75182502D02*
G75*
G02*
X128433497Y-74444040I1J1200001D01*
G01*
X145541191Y-51282500D02*
G75*
G02*
X146648883Y-52020962I-1J-1200001D01*
G01*
X146648883Y-74444040D02*
G75*
G02*
X145541191Y-75182502I-1107693J461539D01*
G01*
D13*
%TO.C,D22*%
X129381190Y-87355000D02*
X129381190Y-89355000D01*
X129381190Y-87355000D02*
X133391190Y-87355000D01*
X129381190Y-89355000D02*
X133391190Y-89355000D01*
D10*
X130971190Y-88355000D02*
X131391190Y-88355000D01*
X131391190Y-87815000D02*
X131391190Y-88905000D01*
X131391190Y-88355000D02*
X131991190Y-87955000D01*
X131991190Y-87955000D02*
X131991190Y-88755000D01*
X131991190Y-88355000D02*
X132491190Y-88355000D01*
X131991190Y-88755000D02*
X131391190Y-88355000D01*
%TO.C,USB_C_1*%
X135191190Y-90565000D02*
X149191190Y-90565000D01*
X149191190Y-79065000D01*
X135191190Y-79065000D01*
X135191190Y-90565000D01*
X141561190Y-89315000D02*
X149061190Y-89315000D01*
X149061190Y-80315000D01*
X141561190Y-80315000D01*
X141561190Y-89315000D01*
D13*
%TO.C,R1*%
X128081190Y-81857937D02*
X128081190Y-83312065D01*
X129901190Y-81857935D02*
X129901190Y-83312063D01*
%TD*%
M02*
