%TF.GenerationSoftware,KiCad,Pcbnew,9.0.5*%
%TF.CreationDate,2025-11-02T20:14:42+07:00*%
%TF.ProjectId,moon_knight_v1,6d6f6f6e-5f6b-46e6-9967-68745f76312e,rev?*%
%TF.SameCoordinates,Original*%
%TF.FileFunction,Paste,Bot*%
%TF.FilePolarity,Positive*%
%FSLAX46Y46*%
G04 Gerber Fmt 4.6, Leading zero omitted, Abs format (unit mm)*
G04 Created by KiCad (PCBNEW 9.0.5) date 2025-11-02 20:14:42*
%MOMM*%
%LPD*%
G01*
G04 APERTURE LIST*
G04 Aperture macros list*
%AMRoundRect*
0 Rectangle with rounded corners*
0 $1 Rounding radius*
0 $2 $3 $4 $5 $6 $7 $8 $9 X,Y pos of 4 corners*
0 Add a 4 corners polygon primitive as box body*
4,1,4,$2,$3,$4,$5,$6,$7,$8,$9,$2,$3,0*
0 Add four circle primitives for the rounded corners*
1,1,$1+$1,$2,$3*
1,1,$1+$1,$4,$5*
1,1,$1+$1,$6,$7*
1,1,$1+$1,$8,$9*
0 Add four rect primitives between the rounded corners*
20,1,$1+$1,$2,$3,$4,$5,0*
20,1,$1+$1,$4,$5,$6,$7,0*
20,1,$1+$1,$6,$7,$8,$9,0*
20,1,$1+$1,$8,$9,$2,$3,0*%
%AMFreePoly0*
4,1,18,-0.410000,0.593000,-0.403758,0.624380,-0.385983,0.650983,-0.359380,0.668758,-0.328000,0.675000,0.328000,0.675000,0.359380,0.668758,0.385983,0.650983,0.403758,0.624380,0.410000,0.593000,0.410000,-0.593000,0.403758,-0.624380,0.385983,-0.650983,0.359380,-0.668758,0.328000,-0.675000,0.000000,-0.675000,-0.410000,-0.265000,-0.410000,0.593000,-0.410000,0.593000,$1*%
G04 Aperture macros list end*
%ADD10RoundRect,0.250000X-0.650000X0.325000X-0.650000X-0.325000X0.650000X-0.325000X0.650000X0.325000X0*%
%ADD11RoundRect,0.225000X-0.375000X0.225000X-0.375000X-0.225000X0.375000X-0.225000X0.375000X0.225000X0*%
%ADD12RoundRect,0.260000X1.065000X1.040000X-1.065000X1.040000X-1.065000X-1.040000X1.065000X-1.040000X0*%
%ADD13RoundRect,0.225000X-0.358074X-0.251064X0.053021X-0.434095X0.358074X0.251064X-0.053021X0.434095X0*%
%ADD14RoundRect,0.260000X1.257955X0.795848X-0.825499X1.238699X-1.257955X-0.795848X0.825499X-1.238699X0*%
%ADD15RoundRect,0.082000X-0.593000X0.328000X-0.593000X-0.328000X0.593000X-0.328000X0.593000X0.328000X0*%
%ADD16FreePoly0,270.000000*%
%ADD17RoundRect,0.082000X0.593000X-0.328000X0.593000X0.328000X-0.593000X0.328000X-0.593000X-0.328000X0*%
%ADD18FreePoly0,90.000000*%
%ADD19RoundRect,0.082000X-0.511846X0.444124X-0.648237X-0.197541X0.511846X-0.444124X0.648237X0.197541X0*%
%ADD20FreePoly0,258.000000*%
%ADD21RoundRect,0.250000X-0.568225X0.453041X-0.703367X-0.182755X0.568225X-0.453041X0.703367X0.182755X0*%
%ADD22RoundRect,0.250000X0.412500X1.100000X-0.412500X1.100000X-0.412500X-1.100000X0.412500X-1.100000X0*%
%ADD23RoundRect,0.250000X0.625000X-0.400000X0.625000X0.400000X-0.625000X0.400000X-0.625000X-0.400000X0*%
%ADD24RoundRect,0.082000X-0.540838X-0.408323X0.058448X-0.675142X0.540838X0.408323X-0.058448X0.675142X0*%
%ADD25FreePoly0,336.000000*%
%ADD26RoundRect,0.250000X-0.561281X-0.461615X0.032523X-0.725994X0.561281X0.461615X-0.032523X0.725994X0*%
%ADD27RoundRect,0.260000X-0.516913X1.395932X-1.383262X-0.549920X0.516913X-1.395932X1.383262X0.549920X0*%
%ADD28RoundRect,0.225000X-0.320025X0.298050X-0.413585X-0.142116X0.320025X-0.298050X0.413585X0.142116X0*%
G04 APERTURE END LIST*
D10*
%TO.C,C4*%
X56521190Y-44640000D03*
X56521190Y-47590000D03*
%TD*%
D11*
%TO.C,D14*%
X104181190Y-87815000D03*
X104181190Y-91115000D03*
%TD*%
%TO.C,D1*%
X122371190Y-56715000D03*
X122371190Y-60015000D03*
%TD*%
D12*
%TO.C,CH3*%
X72136190Y-51565000D03*
X83626190Y-53765000D03*
%TD*%
D13*
%TO.C,D21*%
X135078078Y-102272267D03*
X138092778Y-103614497D03*
%TD*%
D11*
%TO.C,D17*%
X50181190Y-90815000D03*
X50181190Y-94115000D03*
%TD*%
D10*
%TO.C,C13*%
X110521190Y-80140000D03*
X110521190Y-83090000D03*
%TD*%
%TO.C,C6*%
X20521190Y-47640000D03*
X20521190Y-50590000D03*
%TD*%
%TO.C,C11*%
X104231190Y-61650000D03*
X104231190Y-64600000D03*
%TD*%
D11*
%TO.C,D6*%
X32181190Y-56815000D03*
X32181190Y-60115000D03*
%TD*%
D12*
%TO.C,CH4*%
X54136190Y-54565000D03*
X65626190Y-56765000D03*
%TD*%
%TO.C,CH1*%
X108136190Y-56065000D03*
X119626190Y-58265000D03*
%TD*%
D10*
%TO.C,C17*%
X38521190Y-81640000D03*
X38521190Y-84590000D03*
%TD*%
%TO.C,C1*%
X110521190Y-46140000D03*
X110521190Y-49090000D03*
%TD*%
D11*
%TO.C,D5*%
X50181190Y-56815000D03*
X50181190Y-60115000D03*
%TD*%
D14*
%TO.C,CH20*%
X100743360Y-107023794D03*
X111524870Y-111564624D03*
%TD*%
D15*
%TO.C,LED12*%
X119071190Y-65175000D03*
X119071190Y-63675000D03*
X113621190Y-65175000D03*
D16*
X113621190Y-63675000D03*
%TD*%
D12*
%TO.C,CH6*%
X18136190Y-57565000D03*
X29626190Y-59765000D03*
%TD*%
D17*
%TO.C,LED6*%
X23621190Y-48175000D03*
X23621190Y-49675000D03*
X29071190Y-48175000D03*
D18*
X29071190Y-49675000D03*
%TD*%
D11*
%TO.C,D18*%
X32181190Y-90815000D03*
X32181190Y-94115000D03*
%TD*%
D19*
%TO.C,LED20*%
X113079828Y-101579725D03*
X113391696Y-100112504D03*
X107748924Y-100446606D03*
D20*
X108060792Y-98979385D03*
%TD*%
D11*
%TO.C,D16*%
X68181190Y-87815000D03*
X68181190Y-91115000D03*
%TD*%
%TO.C,D3*%
X86181190Y-50815000D03*
X86181190Y-54115000D03*
%TD*%
D10*
%TO.C,C10*%
X86231190Y-58650000D03*
X86231190Y-61600000D03*
%TD*%
D11*
%TO.C,D10*%
X86181190Y-67815000D03*
X86181190Y-71115000D03*
%TD*%
D12*
%TO.C,CH17*%
X36136190Y-91565000D03*
X47626190Y-93765000D03*
%TD*%
%TO.C,CH2*%
X90136190Y-54565000D03*
X101626190Y-56765000D03*
%TD*%
D17*
%TO.C,LED5*%
X41621190Y-48175000D03*
X41621190Y-49675000D03*
X47071190Y-48175000D03*
D18*
X47071190Y-49675000D03*
%TD*%
D10*
%TO.C,C15*%
X74521190Y-75640000D03*
X74521190Y-78590000D03*
%TD*%
D11*
%TO.C,D9*%
X68181190Y-70815000D03*
X68181190Y-74115000D03*
%TD*%
D21*
%TO.C,C20*%
X116567860Y-100252232D03*
X115954520Y-103137768D03*
%TD*%
D10*
%TO.C,C8*%
X50221190Y-64640000D03*
X50221190Y-67590000D03*
%TD*%
D17*
%TO.C,LED13*%
X113621190Y-80675000D03*
X113621190Y-82175000D03*
X119071190Y-80675000D03*
D18*
X119071190Y-82175000D03*
%TD*%
D22*
%TO.C,C24*%
X139043690Y-64925000D03*
X135918690Y-64925000D03*
%TD*%
%TO.C,C23*%
X139073690Y-61085000D03*
X135948690Y-61085000D03*
%TD*%
D11*
%TO.C,D4*%
X68181190Y-53815000D03*
X68181190Y-57115000D03*
%TD*%
D12*
%TO.C,CH14*%
X90136190Y-88565000D03*
X101626190Y-90765000D03*
%TD*%
D10*
%TO.C,C5*%
X38521190Y-47640000D03*
X38521190Y-50590000D03*
%TD*%
D12*
%TO.C,CH12*%
X108136190Y-73065000D03*
X119626190Y-75265000D03*
%TD*%
D17*
%TO.C,LED2*%
X95621190Y-45175000D03*
X95621190Y-46675000D03*
X101071190Y-45175000D03*
D18*
X101071190Y-46675000D03*
%TD*%
D11*
%TO.C,D12*%
X122181190Y-72315000D03*
X122181190Y-75615000D03*
%TD*%
D17*
%TO.C,LED14*%
X95621190Y-79175000D03*
X95621190Y-80675000D03*
X101071190Y-79175000D03*
D18*
X101071190Y-80675000D03*
%TD*%
D12*
%TO.C,CH18*%
X18136190Y-91565000D03*
X29626190Y-93765000D03*
%TD*%
%TO.C,CH10*%
X72136190Y-68565000D03*
X83626190Y-70765000D03*
%TD*%
D23*
%TO.C,R3*%
X119531190Y-53565000D03*
X119531190Y-50465000D03*
%TD*%
D11*
%TO.C,D2*%
X104181190Y-53815000D03*
X104181190Y-57115000D03*
%TD*%
D17*
%TO.C,LED15*%
X77621190Y-76175000D03*
X77621190Y-77675000D03*
X83071190Y-76175000D03*
D18*
X83071190Y-77675000D03*
%TD*%
D11*
%TO.C,D15*%
X86181190Y-84815000D03*
X86181190Y-88115000D03*
%TD*%
D15*
%TO.C,LED9*%
X65071190Y-63675000D03*
X65071190Y-62175000D03*
X59621190Y-63675000D03*
D16*
X59621190Y-62175000D03*
%TD*%
D10*
%TO.C,C18*%
X20521190Y-81640000D03*
X20521190Y-84590000D03*
%TD*%
%TO.C,C9*%
X68221190Y-61660000D03*
X68221190Y-64610000D03*
%TD*%
D15*
%TO.C,LED10*%
X83071190Y-60675000D03*
X83071190Y-59175000D03*
X77621190Y-60675000D03*
D16*
X77621190Y-59175000D03*
%TD*%
D17*
%TO.C,LED3*%
X77621190Y-42175000D03*
X77621190Y-43675000D03*
X83071190Y-42175000D03*
D18*
X83071190Y-43675000D03*
%TD*%
D10*
%TO.C,C2*%
X92521190Y-44640000D03*
X92521190Y-47590000D03*
%TD*%
D11*
%TO.C,D13*%
X122181190Y-89315000D03*
X122181190Y-92615000D03*
%TD*%
D10*
%TO.C,C19*%
X95771190Y-96850000D03*
X95771190Y-99800000D03*
%TD*%
D15*
%TO.C,LED7*%
X29071190Y-66675000D03*
X29071190Y-65175000D03*
X23621190Y-66675000D03*
D16*
X23621190Y-65175000D03*
%TD*%
D22*
%TO.C,C22*%
X139153690Y-57125000D03*
X136028690Y-57125000D03*
%TD*%
D11*
%TO.C,D19*%
X95781190Y-106015000D03*
X95781190Y-109315000D03*
%TD*%
D15*
%TO.C,LED8*%
X47071190Y-66675000D03*
X47071190Y-65175000D03*
X41621190Y-66675000D03*
D16*
X41621190Y-65175000D03*
%TD*%
D10*
%TO.C,C16*%
X56521190Y-78640000D03*
X56521190Y-81590000D03*
%TD*%
D15*
%TO.C,LED11*%
X101071190Y-63675000D03*
X101071190Y-62175000D03*
X95621190Y-63675000D03*
D16*
X95621190Y-62175000D03*
%TD*%
D24*
%TO.C,LED21*%
X127270074Y-102254971D03*
X125899756Y-101644866D03*
X125053360Y-107233794D03*
D25*
X123683042Y-106623689D03*
%TD*%
D10*
%TO.C,C14*%
X92521190Y-78640000D03*
X92521190Y-81590000D03*
%TD*%
D12*
%TO.C,CH19*%
X81686190Y-106765000D03*
X93176190Y-108965000D03*
%TD*%
D26*
%TO.C,C21*%
X126713710Y-98585063D03*
X129408670Y-99784937D03*
%TD*%
D11*
%TO.C,D11*%
X104181190Y-70815000D03*
X104181190Y-74115000D03*
%TD*%
D12*
%TO.C,CH11*%
X90136190Y-71565000D03*
X101626190Y-73765000D03*
%TD*%
D17*
%TO.C,LED1*%
X113621190Y-46675000D03*
X113621190Y-48175000D03*
X119071190Y-46675000D03*
D18*
X119071190Y-48175000D03*
%TD*%
D27*
%TO.C,CH21*%
X130030285Y-115453743D03*
X136713489Y-105851926D03*
%TD*%
D12*
%TO.C,CH15*%
X72136190Y-85565000D03*
X83626190Y-87765000D03*
%TD*%
%TO.C,CH7*%
X18136190Y-74565000D03*
X29626190Y-76765000D03*
%TD*%
%TO.C,CH5*%
X36136190Y-57565000D03*
X47626190Y-59765000D03*
%TD*%
D17*
%TO.C,LED17*%
X41621190Y-82175000D03*
X41621190Y-83675000D03*
X47071190Y-82175000D03*
D18*
X47071190Y-83675000D03*
%TD*%
D17*
%TO.C,LED4*%
X59621190Y-45175000D03*
X59621190Y-46675000D03*
X65071190Y-45175000D03*
D18*
X65071190Y-46675000D03*
%TD*%
D11*
%TO.C,D7*%
X32181190Y-73815000D03*
X32181190Y-77115000D03*
%TD*%
D12*
%TO.C,CH16*%
X54136190Y-88565000D03*
X65626190Y-90765000D03*
%TD*%
D10*
%TO.C,C7*%
X32231190Y-64660000D03*
X32231190Y-67610000D03*
%TD*%
D12*
%TO.C,CH8*%
X36136190Y-74565000D03*
X47626190Y-76765000D03*
%TD*%
D10*
%TO.C,C3*%
X74521190Y-41640000D03*
X74521190Y-44590000D03*
%TD*%
D17*
%TO.C,LED18*%
X23621190Y-82175000D03*
X23621190Y-83675000D03*
X29071190Y-82175000D03*
D18*
X29071190Y-83675000D03*
%TD*%
D28*
%TO.C,D20*%
X114686284Y-109220699D03*
X114000176Y-112448587D03*
%TD*%
D12*
%TO.C,CH9*%
X54136190Y-71565000D03*
X65626190Y-73765000D03*
%TD*%
D17*
%TO.C,LED16*%
X59621190Y-79175000D03*
X59621190Y-80675000D03*
X65071190Y-79175000D03*
D18*
X65071190Y-80675000D03*
%TD*%
D12*
%TO.C,CH13*%
X108136190Y-90065000D03*
X119626190Y-92265000D03*
%TD*%
D11*
%TO.C,D8*%
X50181190Y-73815000D03*
X50181190Y-77115000D03*
%TD*%
D10*
%TO.C,C12*%
X122221190Y-63155000D03*
X122221190Y-66105000D03*
%TD*%
D15*
%TO.C,LED19*%
X92621190Y-98875000D03*
X92621190Y-97375000D03*
X87171190Y-98875000D03*
D16*
X87171190Y-97375000D03*
%TD*%
M02*
