%TF.GenerationSoftware,KiCad,Pcbnew,9.0.5*%
%TF.CreationDate,2025-11-02T20:14:42+07:00*%
%TF.ProjectId,moon_knight_v1,6d6f6f6e-5f6b-46e6-9967-68745f76312e,rev?*%
%TF.SameCoordinates,Original*%
%TF.FileFunction,Legend,Bot*%
%TF.FilePolarity,Positive*%
%FSLAX46Y46*%
G04 Gerber Fmt 4.6, Leading zero omitted, Abs format (unit mm)*
G04 Created by KiCad (PCBNEW 9.0.5) date 2025-11-02 20:14:42*
%MOMM*%
%LPD*%
G01*
G04 APERTURE LIST*
%ADD10C,0.100000*%
%ADD11C,0.150000*%
%ADD12C,0.120000*%
%ADD13C,0.050000*%
G04 APERTURE END LIST*
D10*
X74361590Y-97037475D02*
X74361590Y-96037475D01*
X74361590Y-96037475D02*
X74123495Y-96037475D01*
X74123495Y-96037475D02*
X73980638Y-96085094D01*
X73980638Y-96085094D02*
X73885400Y-96180332D01*
X73885400Y-96180332D02*
X73837781Y-96275570D01*
X73837781Y-96275570D02*
X73790162Y-96466046D01*
X73790162Y-96466046D02*
X73790162Y-96608903D01*
X73790162Y-96608903D02*
X73837781Y-96799379D01*
X73837781Y-96799379D02*
X73885400Y-96894617D01*
X73885400Y-96894617D02*
X73980638Y-96989856D01*
X73980638Y-96989856D02*
X74123495Y-97037475D01*
X74123495Y-97037475D02*
X74361590Y-97037475D01*
X72980638Y-96989856D02*
X73075876Y-97037475D01*
X73075876Y-97037475D02*
X73266352Y-97037475D01*
X73266352Y-97037475D02*
X73361590Y-96989856D01*
X73361590Y-96989856D02*
X73409209Y-96894617D01*
X73409209Y-96894617D02*
X73409209Y-96513665D01*
X73409209Y-96513665D02*
X73361590Y-96418427D01*
X73361590Y-96418427D02*
X73266352Y-96370808D01*
X73266352Y-96370808D02*
X73075876Y-96370808D01*
X73075876Y-96370808D02*
X72980638Y-96418427D01*
X72980638Y-96418427D02*
X72933019Y-96513665D01*
X72933019Y-96513665D02*
X72933019Y-96608903D01*
X72933019Y-96608903D02*
X73409209Y-96704141D01*
X72552066Y-96989856D02*
X72456828Y-97037475D01*
X72456828Y-97037475D02*
X72266352Y-97037475D01*
X72266352Y-97037475D02*
X72171114Y-96989856D01*
X72171114Y-96989856D02*
X72123495Y-96894617D01*
X72123495Y-96894617D02*
X72123495Y-96846998D01*
X72123495Y-96846998D02*
X72171114Y-96751760D01*
X72171114Y-96751760D02*
X72266352Y-96704141D01*
X72266352Y-96704141D02*
X72409209Y-96704141D01*
X72409209Y-96704141D02*
X72504447Y-96656522D01*
X72504447Y-96656522D02*
X72552066Y-96561284D01*
X72552066Y-96561284D02*
X72552066Y-96513665D01*
X72552066Y-96513665D02*
X72504447Y-96418427D01*
X72504447Y-96418427D02*
X72409209Y-96370808D01*
X72409209Y-96370808D02*
X72266352Y-96370808D01*
X72266352Y-96370808D02*
X72171114Y-96418427D01*
X71694923Y-97037475D02*
X71694923Y-96370808D01*
X71694923Y-96037475D02*
X71742542Y-96085094D01*
X71742542Y-96085094D02*
X71694923Y-96132713D01*
X71694923Y-96132713D02*
X71647304Y-96085094D01*
X71647304Y-96085094D02*
X71694923Y-96037475D01*
X71694923Y-96037475D02*
X71694923Y-96132713D01*
X70790162Y-96370808D02*
X70790162Y-97180332D01*
X70790162Y-97180332D02*
X70837781Y-97275570D01*
X70837781Y-97275570D02*
X70885400Y-97323189D01*
X70885400Y-97323189D02*
X70980638Y-97370808D01*
X70980638Y-97370808D02*
X71123495Y-97370808D01*
X71123495Y-97370808D02*
X71218733Y-97323189D01*
X70790162Y-96989856D02*
X70885400Y-97037475D01*
X70885400Y-97037475D02*
X71075876Y-97037475D01*
X71075876Y-97037475D02*
X71171114Y-96989856D01*
X71171114Y-96989856D02*
X71218733Y-96942236D01*
X71218733Y-96942236D02*
X71266352Y-96846998D01*
X71266352Y-96846998D02*
X71266352Y-96561284D01*
X71266352Y-96561284D02*
X71218733Y-96466046D01*
X71218733Y-96466046D02*
X71171114Y-96418427D01*
X71171114Y-96418427D02*
X71075876Y-96370808D01*
X71075876Y-96370808D02*
X70885400Y-96370808D01*
X70885400Y-96370808D02*
X70790162Y-96418427D01*
X70313971Y-96370808D02*
X70313971Y-97037475D01*
X70313971Y-96466046D02*
X70266352Y-96418427D01*
X70266352Y-96418427D02*
X70171114Y-96370808D01*
X70171114Y-96370808D02*
X70028257Y-96370808D01*
X70028257Y-96370808D02*
X69933019Y-96418427D01*
X69933019Y-96418427D02*
X69885400Y-96513665D01*
X69885400Y-96513665D02*
X69885400Y-97037475D01*
X69028257Y-96989856D02*
X69123495Y-97037475D01*
X69123495Y-97037475D02*
X69313971Y-97037475D01*
X69313971Y-97037475D02*
X69409209Y-96989856D01*
X69409209Y-96989856D02*
X69456828Y-96894617D01*
X69456828Y-96894617D02*
X69456828Y-96513665D01*
X69456828Y-96513665D02*
X69409209Y-96418427D01*
X69409209Y-96418427D02*
X69313971Y-96370808D01*
X69313971Y-96370808D02*
X69123495Y-96370808D01*
X69123495Y-96370808D02*
X69028257Y-96418427D01*
X69028257Y-96418427D02*
X68980638Y-96513665D01*
X68980638Y-96513665D02*
X68980638Y-96608903D01*
X68980638Y-96608903D02*
X69456828Y-96704141D01*
X68123495Y-97037475D02*
X68123495Y-96037475D01*
X68123495Y-96989856D02*
X68218733Y-97037475D01*
X68218733Y-97037475D02*
X68409209Y-97037475D01*
X68409209Y-97037475D02*
X68504447Y-96989856D01*
X68504447Y-96989856D02*
X68552066Y-96942236D01*
X68552066Y-96942236D02*
X68599685Y-96846998D01*
X68599685Y-96846998D02*
X68599685Y-96561284D01*
X68599685Y-96561284D02*
X68552066Y-96466046D01*
X68552066Y-96466046D02*
X68504447Y-96418427D01*
X68504447Y-96418427D02*
X68409209Y-96370808D01*
X68409209Y-96370808D02*
X68218733Y-96370808D01*
X68218733Y-96370808D02*
X68123495Y-96418427D01*
X66885399Y-97037475D02*
X66885399Y-96037475D01*
X66885399Y-96418427D02*
X66790161Y-96370808D01*
X66790161Y-96370808D02*
X66599685Y-96370808D01*
X66599685Y-96370808D02*
X66504447Y-96418427D01*
X66504447Y-96418427D02*
X66456828Y-96466046D01*
X66456828Y-96466046D02*
X66409209Y-96561284D01*
X66409209Y-96561284D02*
X66409209Y-96846998D01*
X66409209Y-96846998D02*
X66456828Y-96942236D01*
X66456828Y-96942236D02*
X66504447Y-96989856D01*
X66504447Y-96989856D02*
X66599685Y-97037475D01*
X66599685Y-97037475D02*
X66790161Y-97037475D01*
X66790161Y-97037475D02*
X66885399Y-96989856D01*
X66075875Y-96370808D02*
X65837780Y-97037475D01*
X65599685Y-96370808D02*
X65837780Y-97037475D01*
X65837780Y-97037475D02*
X65933018Y-97275570D01*
X65933018Y-97275570D02*
X65980637Y-97323189D01*
X65980637Y-97323189D02*
X66075875Y-97370808D01*
X76647305Y-98647419D02*
X76647305Y-97647419D01*
X76647305Y-97647419D02*
X76409210Y-97647419D01*
X76409210Y-97647419D02*
X76266353Y-97695038D01*
X76266353Y-97695038D02*
X76171115Y-97790276D01*
X76171115Y-97790276D02*
X76123496Y-97885514D01*
X76123496Y-97885514D02*
X76075877Y-98075990D01*
X76075877Y-98075990D02*
X76075877Y-98218847D01*
X76075877Y-98218847D02*
X76123496Y-98409323D01*
X76123496Y-98409323D02*
X76171115Y-98504561D01*
X76171115Y-98504561D02*
X76266353Y-98599800D01*
X76266353Y-98599800D02*
X76409210Y-98647419D01*
X76409210Y-98647419D02*
X76647305Y-98647419D01*
X75266353Y-98599800D02*
X75361591Y-98647419D01*
X75361591Y-98647419D02*
X75552067Y-98647419D01*
X75552067Y-98647419D02*
X75647305Y-98599800D01*
X75647305Y-98599800D02*
X75694924Y-98504561D01*
X75694924Y-98504561D02*
X75694924Y-98123609D01*
X75694924Y-98123609D02*
X75647305Y-98028371D01*
X75647305Y-98028371D02*
X75552067Y-97980752D01*
X75552067Y-97980752D02*
X75361591Y-97980752D01*
X75361591Y-97980752D02*
X75266353Y-98028371D01*
X75266353Y-98028371D02*
X75218734Y-98123609D01*
X75218734Y-98123609D02*
X75218734Y-98218847D01*
X75218734Y-98218847D02*
X75694924Y-98314085D01*
X74409210Y-98599800D02*
X74504448Y-98647419D01*
X74504448Y-98647419D02*
X74694924Y-98647419D01*
X74694924Y-98647419D02*
X74790162Y-98599800D01*
X74790162Y-98599800D02*
X74837781Y-98504561D01*
X74837781Y-98504561D02*
X74837781Y-98123609D01*
X74837781Y-98123609D02*
X74790162Y-98028371D01*
X74790162Y-98028371D02*
X74694924Y-97980752D01*
X74694924Y-97980752D02*
X74504448Y-97980752D01*
X74504448Y-97980752D02*
X74409210Y-98028371D01*
X74409210Y-98028371D02*
X74361591Y-98123609D01*
X74361591Y-98123609D02*
X74361591Y-98218847D01*
X74361591Y-98218847D02*
X74837781Y-98314085D01*
X73933019Y-97980752D02*
X73933019Y-98980752D01*
X73933019Y-98028371D02*
X73837781Y-97980752D01*
X73837781Y-97980752D02*
X73647305Y-97980752D01*
X73647305Y-97980752D02*
X73552067Y-98028371D01*
X73552067Y-98028371D02*
X73504448Y-98075990D01*
X73504448Y-98075990D02*
X73456829Y-98171228D01*
X73456829Y-98171228D02*
X73456829Y-98456942D01*
X73456829Y-98456942D02*
X73504448Y-98552180D01*
X73504448Y-98552180D02*
X73552067Y-98599800D01*
X73552067Y-98599800D02*
X73647305Y-98647419D01*
X73647305Y-98647419D02*
X73837781Y-98647419D01*
X73837781Y-98647419D02*
X73933019Y-98599800D01*
X72599686Y-98647419D02*
X72599686Y-98123609D01*
X72599686Y-98123609D02*
X72647305Y-98028371D01*
X72647305Y-98028371D02*
X72742543Y-97980752D01*
X72742543Y-97980752D02*
X72933019Y-97980752D01*
X72933019Y-97980752D02*
X73028257Y-98028371D01*
X72599686Y-98599800D02*
X72694924Y-98647419D01*
X72694924Y-98647419D02*
X72933019Y-98647419D01*
X72933019Y-98647419D02*
X73028257Y-98599800D01*
X73028257Y-98599800D02*
X73075876Y-98504561D01*
X73075876Y-98504561D02*
X73075876Y-98409323D01*
X73075876Y-98409323D02*
X73028257Y-98314085D01*
X73028257Y-98314085D02*
X72933019Y-98266466D01*
X72933019Y-98266466D02*
X72694924Y-98266466D01*
X72694924Y-98266466D02*
X72599686Y-98218847D01*
X72123495Y-97980752D02*
X72123495Y-98647419D01*
X72123495Y-98075990D02*
X72075876Y-98028371D01*
X72075876Y-98028371D02*
X71980638Y-97980752D01*
X71980638Y-97980752D02*
X71837781Y-97980752D01*
X71837781Y-97980752D02*
X71742543Y-98028371D01*
X71742543Y-98028371D02*
X71694924Y-98123609D01*
X71694924Y-98123609D02*
X71694924Y-98647419D01*
X71266352Y-98599800D02*
X71171114Y-98647419D01*
X71171114Y-98647419D02*
X70980638Y-98647419D01*
X70980638Y-98647419D02*
X70885400Y-98599800D01*
X70885400Y-98599800D02*
X70837781Y-98504561D01*
X70837781Y-98504561D02*
X70837781Y-98456942D01*
X70837781Y-98456942D02*
X70885400Y-98361704D01*
X70885400Y-98361704D02*
X70980638Y-98314085D01*
X70980638Y-98314085D02*
X71123495Y-98314085D01*
X71123495Y-98314085D02*
X71218733Y-98266466D01*
X71218733Y-98266466D02*
X71266352Y-98171228D01*
X71266352Y-98171228D02*
X71266352Y-98123609D01*
X71266352Y-98123609D02*
X71218733Y-98028371D01*
X71218733Y-98028371D02*
X71123495Y-97980752D01*
X71123495Y-97980752D02*
X70980638Y-97980752D01*
X70980638Y-97980752D02*
X70885400Y-98028371D01*
X70409209Y-98647419D02*
X70409209Y-97647419D01*
X69980638Y-98647419D02*
X69980638Y-98123609D01*
X69980638Y-98123609D02*
X70028257Y-98028371D01*
X70028257Y-98028371D02*
X70123495Y-97980752D01*
X70123495Y-97980752D02*
X70266352Y-97980752D01*
X70266352Y-97980752D02*
X70361590Y-98028371D01*
X70361590Y-98028371D02*
X70409209Y-98075990D01*
X69075876Y-97980752D02*
X69075876Y-98647419D01*
X69504447Y-97980752D02*
X69504447Y-98504561D01*
X69504447Y-98504561D02*
X69456828Y-98599800D01*
X69456828Y-98599800D02*
X69361590Y-98647419D01*
X69361590Y-98647419D02*
X69218733Y-98647419D01*
X69218733Y-98647419D02*
X69123495Y-98599800D01*
X69123495Y-98599800D02*
X69075876Y-98552180D01*
X67552066Y-97647419D02*
X67552066Y-98361704D01*
X67552066Y-98361704D02*
X67599685Y-98504561D01*
X67599685Y-98504561D02*
X67694923Y-98599800D01*
X67694923Y-98599800D02*
X67837780Y-98647419D01*
X67837780Y-98647419D02*
X67933018Y-98647419D01*
X66647304Y-98647419D02*
X66647304Y-98123609D01*
X66647304Y-98123609D02*
X66694923Y-98028371D01*
X66694923Y-98028371D02*
X66790161Y-97980752D01*
X66790161Y-97980752D02*
X66980637Y-97980752D01*
X66980637Y-97980752D02*
X67075875Y-98028371D01*
X66647304Y-98599800D02*
X66742542Y-98647419D01*
X66742542Y-98647419D02*
X66980637Y-98647419D01*
X66980637Y-98647419D02*
X67075875Y-98599800D01*
X67075875Y-98599800D02*
X67123494Y-98504561D01*
X67123494Y-98504561D02*
X67123494Y-98409323D01*
X67123494Y-98409323D02*
X67075875Y-98314085D01*
X67075875Y-98314085D02*
X66980637Y-98266466D01*
X66980637Y-98266466D02*
X66742542Y-98266466D01*
X66742542Y-98266466D02*
X66647304Y-98218847D01*
X66171113Y-98647419D02*
X66171113Y-97980752D01*
X66171113Y-97647419D02*
X66218732Y-97695038D01*
X66218732Y-97695038D02*
X66171113Y-97742657D01*
X66171113Y-97742657D02*
X66123494Y-97695038D01*
X66123494Y-97695038D02*
X66171113Y-97647419D01*
X66171113Y-97647419D02*
X66171113Y-97742657D01*
X65694923Y-97980752D02*
X65694923Y-98647419D01*
X65694923Y-98075990D02*
X65647304Y-98028371D01*
X65647304Y-98028371D02*
X65552066Y-97980752D01*
X65552066Y-97980752D02*
X65409209Y-97980752D01*
X65409209Y-97980752D02*
X65313971Y-98028371D01*
X65313971Y-98028371D02*
X65266352Y-98123609D01*
X65266352Y-98123609D02*
X65266352Y-98647419D01*
D11*
X102636009Y-88250714D02*
X101636009Y-88250714D01*
X101636009Y-88250714D02*
X101636009Y-88488809D01*
X101636009Y-88488809D02*
X101683628Y-88631666D01*
X101683628Y-88631666D02*
X101778866Y-88726904D01*
X101778866Y-88726904D02*
X101874104Y-88774523D01*
X101874104Y-88774523D02*
X102064580Y-88822142D01*
X102064580Y-88822142D02*
X102207437Y-88822142D01*
X102207437Y-88822142D02*
X102397913Y-88774523D01*
X102397913Y-88774523D02*
X102493151Y-88726904D01*
X102493151Y-88726904D02*
X102588390Y-88631666D01*
X102588390Y-88631666D02*
X102636009Y-88488809D01*
X102636009Y-88488809D02*
X102636009Y-88250714D01*
X102636009Y-89774523D02*
X102636009Y-89203095D01*
X102636009Y-89488809D02*
X101636009Y-89488809D01*
X101636009Y-89488809D02*
X101778866Y-89393571D01*
X101778866Y-89393571D02*
X101874104Y-89298333D01*
X101874104Y-89298333D02*
X101921723Y-89203095D01*
X101969342Y-90631666D02*
X102636009Y-90631666D01*
X101588390Y-90393571D02*
X102302675Y-90155476D01*
X102302675Y-90155476D02*
X102302675Y-90774523D01*
X120826009Y-57626905D02*
X119826009Y-57626905D01*
X119826009Y-57626905D02*
X119826009Y-57865000D01*
X119826009Y-57865000D02*
X119873628Y-58007857D01*
X119873628Y-58007857D02*
X119968866Y-58103095D01*
X119968866Y-58103095D02*
X120064104Y-58150714D01*
X120064104Y-58150714D02*
X120254580Y-58198333D01*
X120254580Y-58198333D02*
X120397437Y-58198333D01*
X120397437Y-58198333D02*
X120587913Y-58150714D01*
X120587913Y-58150714D02*
X120683151Y-58103095D01*
X120683151Y-58103095D02*
X120778390Y-58007857D01*
X120778390Y-58007857D02*
X120826009Y-57865000D01*
X120826009Y-57865000D02*
X120826009Y-57626905D01*
X120826009Y-59150714D02*
X120826009Y-58579286D01*
X120826009Y-58865000D02*
X119826009Y-58865000D01*
X119826009Y-58865000D02*
X119968866Y-58769762D01*
X119968866Y-58769762D02*
X120064104Y-58674524D01*
X120064104Y-58674524D02*
X120111723Y-58579286D01*
D12*
X85463570Y-40322664D02*
X85501666Y-40360760D01*
X85501666Y-40360760D02*
X85615951Y-40398855D01*
X85615951Y-40398855D02*
X85692142Y-40398855D01*
X85692142Y-40398855D02*
X85806428Y-40360760D01*
X85806428Y-40360760D02*
X85882618Y-40284569D01*
X85882618Y-40284569D02*
X85920713Y-40208379D01*
X85920713Y-40208379D02*
X85958809Y-40055998D01*
X85958809Y-40055998D02*
X85958809Y-39941712D01*
X85958809Y-39941712D02*
X85920713Y-39789331D01*
X85920713Y-39789331D02*
X85882618Y-39713140D01*
X85882618Y-39713140D02*
X85806428Y-39636950D01*
X85806428Y-39636950D02*
X85692142Y-39598855D01*
X85692142Y-39598855D02*
X85615951Y-39598855D01*
X85615951Y-39598855D02*
X85501666Y-39636950D01*
X85501666Y-39636950D02*
X85463570Y-39675045D01*
X85120713Y-40398855D02*
X85120713Y-39598855D01*
X85120713Y-39979807D02*
X84663570Y-39979807D01*
X84663570Y-40398855D02*
X84663570Y-39598855D01*
X84358809Y-39598855D02*
X83863571Y-39598855D01*
X83863571Y-39598855D02*
X84130237Y-39903617D01*
X84130237Y-39903617D02*
X84015952Y-39903617D01*
X84015952Y-39903617D02*
X83939761Y-39941712D01*
X83939761Y-39941712D02*
X83901666Y-39979807D01*
X83901666Y-39979807D02*
X83863571Y-40055998D01*
X83863571Y-40055998D02*
X83863571Y-40246474D01*
X83863571Y-40246474D02*
X83901666Y-40322664D01*
X83901666Y-40322664D02*
X83939761Y-40360760D01*
X83939761Y-40360760D02*
X84015952Y-40398855D01*
X84015952Y-40398855D02*
X84244523Y-40398855D01*
X84244523Y-40398855D02*
X84320714Y-40360760D01*
X84320714Y-40360760D02*
X84358809Y-40322664D01*
D11*
X136696268Y-105679865D02*
X137103005Y-104766319D01*
X137103005Y-104766319D02*
X136885494Y-104669477D01*
X136885494Y-104669477D02*
X136735619Y-104654874D01*
X136735619Y-104654874D02*
X136609878Y-104703142D01*
X136609878Y-104703142D02*
X136527639Y-104770778D01*
X136527639Y-104770778D02*
X136406663Y-104925418D01*
X136406663Y-104925418D02*
X136348558Y-105055924D01*
X136348558Y-105055924D02*
X136314586Y-105249302D01*
X136314586Y-105249302D02*
X136319352Y-105355674D01*
X136319352Y-105355674D02*
X136367619Y-105481415D01*
X136367619Y-105481415D02*
X136478757Y-105583023D01*
X136478757Y-105583023D02*
X136696268Y-105679865D01*
X136194225Y-104465956D02*
X136170091Y-104403085D01*
X136170091Y-104403085D02*
X136102455Y-104320846D01*
X136102455Y-104320846D02*
X135884944Y-104224004D01*
X135884944Y-104224004D02*
X135778571Y-104228769D01*
X135778571Y-104228769D02*
X135715701Y-104252903D01*
X135715701Y-104252903D02*
X135633462Y-104320539D01*
X135633462Y-104320539D02*
X135594725Y-104407543D01*
X135594725Y-104407543D02*
X135580122Y-104557418D01*
X135580122Y-104557418D02*
X135869727Y-105311865D01*
X135869727Y-105311865D02*
X135304199Y-105060076D01*
X134434156Y-104672707D02*
X134956182Y-104905128D01*
X134695169Y-104788918D02*
X135101905Y-103875372D01*
X135101905Y-103875372D02*
X135130804Y-104044616D01*
X135130804Y-104044616D02*
X135179072Y-104170357D01*
X135179072Y-104170357D02*
X135246708Y-104252596D01*
X48636009Y-91250714D02*
X47636009Y-91250714D01*
X47636009Y-91250714D02*
X47636009Y-91488809D01*
X47636009Y-91488809D02*
X47683628Y-91631666D01*
X47683628Y-91631666D02*
X47778866Y-91726904D01*
X47778866Y-91726904D02*
X47874104Y-91774523D01*
X47874104Y-91774523D02*
X48064580Y-91822142D01*
X48064580Y-91822142D02*
X48207437Y-91822142D01*
X48207437Y-91822142D02*
X48397913Y-91774523D01*
X48397913Y-91774523D02*
X48493151Y-91726904D01*
X48493151Y-91726904D02*
X48588390Y-91631666D01*
X48588390Y-91631666D02*
X48636009Y-91488809D01*
X48636009Y-91488809D02*
X48636009Y-91250714D01*
X48636009Y-92774523D02*
X48636009Y-92203095D01*
X48636009Y-92488809D02*
X47636009Y-92488809D01*
X47636009Y-92488809D02*
X47778866Y-92393571D01*
X47778866Y-92393571D02*
X47874104Y-92298333D01*
X47874104Y-92298333D02*
X47921723Y-92203095D01*
X47636009Y-93107857D02*
X47636009Y-93774523D01*
X47636009Y-93774523D02*
X48636009Y-93345952D01*
X30636009Y-57726905D02*
X29636009Y-57726905D01*
X29636009Y-57726905D02*
X29636009Y-57965000D01*
X29636009Y-57965000D02*
X29683628Y-58107857D01*
X29683628Y-58107857D02*
X29778866Y-58203095D01*
X29778866Y-58203095D02*
X29874104Y-58250714D01*
X29874104Y-58250714D02*
X30064580Y-58298333D01*
X30064580Y-58298333D02*
X30207437Y-58298333D01*
X30207437Y-58298333D02*
X30397913Y-58250714D01*
X30397913Y-58250714D02*
X30493151Y-58203095D01*
X30493151Y-58203095D02*
X30588390Y-58107857D01*
X30588390Y-58107857D02*
X30636009Y-57965000D01*
X30636009Y-57965000D02*
X30636009Y-57726905D01*
X29636009Y-59155476D02*
X29636009Y-58965000D01*
X29636009Y-58965000D02*
X29683628Y-58869762D01*
X29683628Y-58869762D02*
X29731247Y-58822143D01*
X29731247Y-58822143D02*
X29874104Y-58726905D01*
X29874104Y-58726905D02*
X30064580Y-58679286D01*
X30064580Y-58679286D02*
X30445532Y-58679286D01*
X30445532Y-58679286D02*
X30540770Y-58726905D01*
X30540770Y-58726905D02*
X30588390Y-58774524D01*
X30588390Y-58774524D02*
X30636009Y-58869762D01*
X30636009Y-58869762D02*
X30636009Y-59060238D01*
X30636009Y-59060238D02*
X30588390Y-59155476D01*
X30588390Y-59155476D02*
X30540770Y-59203095D01*
X30540770Y-59203095D02*
X30445532Y-59250714D01*
X30445532Y-59250714D02*
X30207437Y-59250714D01*
X30207437Y-59250714D02*
X30112199Y-59203095D01*
X30112199Y-59203095D02*
X30064580Y-59155476D01*
X30064580Y-59155476D02*
X30016961Y-59060238D01*
X30016961Y-59060238D02*
X30016961Y-58869762D01*
X30016961Y-58869762D02*
X30064580Y-58774524D01*
X30064580Y-58774524D02*
X30112199Y-58726905D01*
X30112199Y-58726905D02*
X30207437Y-58679286D01*
D12*
X67463570Y-43322664D02*
X67501666Y-43360760D01*
X67501666Y-43360760D02*
X67615951Y-43398855D01*
X67615951Y-43398855D02*
X67692142Y-43398855D01*
X67692142Y-43398855D02*
X67806428Y-43360760D01*
X67806428Y-43360760D02*
X67882618Y-43284569D01*
X67882618Y-43284569D02*
X67920713Y-43208379D01*
X67920713Y-43208379D02*
X67958809Y-43055998D01*
X67958809Y-43055998D02*
X67958809Y-42941712D01*
X67958809Y-42941712D02*
X67920713Y-42789331D01*
X67920713Y-42789331D02*
X67882618Y-42713140D01*
X67882618Y-42713140D02*
X67806428Y-42636950D01*
X67806428Y-42636950D02*
X67692142Y-42598855D01*
X67692142Y-42598855D02*
X67615951Y-42598855D01*
X67615951Y-42598855D02*
X67501666Y-42636950D01*
X67501666Y-42636950D02*
X67463570Y-42675045D01*
X67120713Y-43398855D02*
X67120713Y-42598855D01*
X67120713Y-42979807D02*
X66663570Y-42979807D01*
X66663570Y-43398855D02*
X66663570Y-42598855D01*
X65939761Y-42865521D02*
X65939761Y-43398855D01*
X66130237Y-42560760D02*
X66320714Y-43132188D01*
X66320714Y-43132188D02*
X65825475Y-43132188D01*
X121463570Y-44822664D02*
X121501666Y-44860760D01*
X121501666Y-44860760D02*
X121615951Y-44898855D01*
X121615951Y-44898855D02*
X121692142Y-44898855D01*
X121692142Y-44898855D02*
X121806428Y-44860760D01*
X121806428Y-44860760D02*
X121882618Y-44784569D01*
X121882618Y-44784569D02*
X121920713Y-44708379D01*
X121920713Y-44708379D02*
X121958809Y-44555998D01*
X121958809Y-44555998D02*
X121958809Y-44441712D01*
X121958809Y-44441712D02*
X121920713Y-44289331D01*
X121920713Y-44289331D02*
X121882618Y-44213140D01*
X121882618Y-44213140D02*
X121806428Y-44136950D01*
X121806428Y-44136950D02*
X121692142Y-44098855D01*
X121692142Y-44098855D02*
X121615951Y-44098855D01*
X121615951Y-44098855D02*
X121501666Y-44136950D01*
X121501666Y-44136950D02*
X121463570Y-44175045D01*
X121120713Y-44898855D02*
X121120713Y-44098855D01*
X121120713Y-44479807D02*
X120663570Y-44479807D01*
X120663570Y-44898855D02*
X120663570Y-44098855D01*
X119863571Y-44898855D02*
X120320714Y-44898855D01*
X120092142Y-44898855D02*
X120092142Y-44098855D01*
X120092142Y-44098855D02*
X120168333Y-44213140D01*
X120168333Y-44213140D02*
X120244523Y-44289331D01*
X120244523Y-44289331D02*
X120320714Y-44327426D01*
D11*
X48636009Y-57726905D02*
X47636009Y-57726905D01*
X47636009Y-57726905D02*
X47636009Y-57965000D01*
X47636009Y-57965000D02*
X47683628Y-58107857D01*
X47683628Y-58107857D02*
X47778866Y-58203095D01*
X47778866Y-58203095D02*
X47874104Y-58250714D01*
X47874104Y-58250714D02*
X48064580Y-58298333D01*
X48064580Y-58298333D02*
X48207437Y-58298333D01*
X48207437Y-58298333D02*
X48397913Y-58250714D01*
X48397913Y-58250714D02*
X48493151Y-58203095D01*
X48493151Y-58203095D02*
X48588390Y-58107857D01*
X48588390Y-58107857D02*
X48636009Y-57965000D01*
X48636009Y-57965000D02*
X48636009Y-57726905D01*
X47636009Y-59203095D02*
X47636009Y-58726905D01*
X47636009Y-58726905D02*
X48112199Y-58679286D01*
X48112199Y-58679286D02*
X48064580Y-58726905D01*
X48064580Y-58726905D02*
X48016961Y-58822143D01*
X48016961Y-58822143D02*
X48016961Y-59060238D01*
X48016961Y-59060238D02*
X48064580Y-59155476D01*
X48064580Y-59155476D02*
X48112199Y-59203095D01*
X48112199Y-59203095D02*
X48207437Y-59250714D01*
X48207437Y-59250714D02*
X48445532Y-59250714D01*
X48445532Y-59250714D02*
X48540770Y-59203095D01*
X48540770Y-59203095D02*
X48588390Y-59155476D01*
X48588390Y-59155476D02*
X48636009Y-59060238D01*
X48636009Y-59060238D02*
X48636009Y-58822143D01*
X48636009Y-58822143D02*
X48588390Y-58726905D01*
X48588390Y-58726905D02*
X48540770Y-58679286D01*
D12*
X116489546Y-98877253D02*
X116518888Y-98922436D01*
X116518888Y-98922436D02*
X116622756Y-98983460D01*
X116622756Y-98983460D02*
X116697282Y-98999301D01*
X116697282Y-98999301D02*
X116816990Y-98985800D01*
X116816990Y-98985800D02*
X116907357Y-98927115D01*
X116907357Y-98927115D02*
X116960461Y-98860510D01*
X116960461Y-98860510D02*
X117029405Y-98719379D01*
X117029405Y-98719379D02*
X117053166Y-98607591D01*
X117053166Y-98607591D02*
X117047585Y-98450620D01*
X117047585Y-98450620D02*
X117026164Y-98368174D01*
X117026164Y-98368174D02*
X116967479Y-98277807D01*
X116967479Y-98277807D02*
X116863611Y-98216783D01*
X116863611Y-98216783D02*
X116789086Y-98200942D01*
X116789086Y-98200942D02*
X116669377Y-98214444D01*
X116669377Y-98214444D02*
X116624194Y-98243786D01*
X116138340Y-98880494D02*
X116304670Y-98097976D01*
X116225465Y-98470604D02*
X115778312Y-98375559D01*
X115691187Y-98785449D02*
X115857516Y-98002931D01*
X115506311Y-98006173D02*
X115476969Y-97960989D01*
X115476969Y-97960989D02*
X115410363Y-97907886D01*
X115410363Y-97907886D02*
X115224050Y-97868284D01*
X115224050Y-97868284D02*
X115141604Y-97889705D01*
X115141604Y-97889705D02*
X115096420Y-97919048D01*
X115096420Y-97919048D02*
X115043317Y-97985653D01*
X115043317Y-97985653D02*
X115027476Y-98060178D01*
X115027476Y-98060178D02*
X115040977Y-98179887D01*
X115040977Y-98179887D02*
X115393085Y-98722086D01*
X115393085Y-98722086D02*
X114908669Y-98619120D01*
X114590582Y-97733636D02*
X114516057Y-97717795D01*
X114516057Y-97717795D02*
X114433611Y-97739217D01*
X114433611Y-97739217D02*
X114388428Y-97768559D01*
X114388428Y-97768559D02*
X114335324Y-97835164D01*
X114335324Y-97835164D02*
X114266379Y-97976295D01*
X114266379Y-97976295D02*
X114226777Y-98162609D01*
X114226777Y-98162609D02*
X114232358Y-98319580D01*
X114232358Y-98319580D02*
X114253780Y-98402026D01*
X114253780Y-98402026D02*
X114283122Y-98447209D01*
X114283122Y-98447209D02*
X114349727Y-98500313D01*
X114349727Y-98500313D02*
X114424253Y-98516154D01*
X114424253Y-98516154D02*
X114506699Y-98494732D01*
X114506699Y-98494732D02*
X114551882Y-98465390D01*
X114551882Y-98465390D02*
X114604986Y-98398785D01*
X114604986Y-98398785D02*
X114673930Y-98257654D01*
X114673930Y-98257654D02*
X114713533Y-98071340D01*
X114713533Y-98071340D02*
X114707952Y-97914369D01*
X114707952Y-97914369D02*
X114686530Y-97831923D01*
X114686530Y-97831923D02*
X114657187Y-97786740D01*
X114657187Y-97786740D02*
X114590582Y-97733636D01*
D11*
X119802380Y-62247295D02*
X120183332Y-62247295D01*
X120183332Y-62247295D02*
X120183332Y-61447295D01*
X119535713Y-61828247D02*
X119269047Y-61828247D01*
X119154761Y-62247295D02*
X119535713Y-62247295D01*
X119535713Y-62247295D02*
X119535713Y-61447295D01*
X119535713Y-61447295D02*
X119154761Y-61447295D01*
X118811903Y-62247295D02*
X118811903Y-61447295D01*
X118811903Y-61447295D02*
X118621427Y-61447295D01*
X118621427Y-61447295D02*
X118507141Y-61485390D01*
X118507141Y-61485390D02*
X118430951Y-61561580D01*
X118430951Y-61561580D02*
X118392856Y-61637771D01*
X118392856Y-61637771D02*
X118354760Y-61790152D01*
X118354760Y-61790152D02*
X118354760Y-61904438D01*
X118354760Y-61904438D02*
X118392856Y-62056819D01*
X118392856Y-62056819D02*
X118430951Y-62133009D01*
X118430951Y-62133009D02*
X118507141Y-62209200D01*
X118507141Y-62209200D02*
X118621427Y-62247295D01*
X118621427Y-62247295D02*
X118811903Y-62247295D01*
X117592856Y-62247295D02*
X118049999Y-62247295D01*
X117821427Y-62247295D02*
X117821427Y-61447295D01*
X117821427Y-61447295D02*
X117897618Y-61561580D01*
X117897618Y-61561580D02*
X117973808Y-61637771D01*
X117973808Y-61637771D02*
X118049999Y-61675866D01*
X117288094Y-61523485D02*
X117249998Y-61485390D01*
X117249998Y-61485390D02*
X117173808Y-61447295D01*
X117173808Y-61447295D02*
X116983332Y-61447295D01*
X116983332Y-61447295D02*
X116907141Y-61485390D01*
X116907141Y-61485390D02*
X116869046Y-61523485D01*
X116869046Y-61523485D02*
X116830951Y-61599676D01*
X116830951Y-61599676D02*
X116830951Y-61675866D01*
X116830951Y-61675866D02*
X116869046Y-61790152D01*
X116869046Y-61790152D02*
X117326189Y-62247295D01*
X117326189Y-62247295D02*
X116830951Y-62247295D01*
D12*
X31463570Y-46322664D02*
X31501666Y-46360760D01*
X31501666Y-46360760D02*
X31615951Y-46398855D01*
X31615951Y-46398855D02*
X31692142Y-46398855D01*
X31692142Y-46398855D02*
X31806428Y-46360760D01*
X31806428Y-46360760D02*
X31882618Y-46284569D01*
X31882618Y-46284569D02*
X31920713Y-46208379D01*
X31920713Y-46208379D02*
X31958809Y-46055998D01*
X31958809Y-46055998D02*
X31958809Y-45941712D01*
X31958809Y-45941712D02*
X31920713Y-45789331D01*
X31920713Y-45789331D02*
X31882618Y-45713140D01*
X31882618Y-45713140D02*
X31806428Y-45636950D01*
X31806428Y-45636950D02*
X31692142Y-45598855D01*
X31692142Y-45598855D02*
X31615951Y-45598855D01*
X31615951Y-45598855D02*
X31501666Y-45636950D01*
X31501666Y-45636950D02*
X31463570Y-45675045D01*
X31120713Y-46398855D02*
X31120713Y-45598855D01*
X31120713Y-45979807D02*
X30663570Y-45979807D01*
X30663570Y-46398855D02*
X30663570Y-45598855D01*
X29939761Y-45598855D02*
X30092142Y-45598855D01*
X30092142Y-45598855D02*
X30168333Y-45636950D01*
X30168333Y-45636950D02*
X30206428Y-45675045D01*
X30206428Y-45675045D02*
X30282618Y-45789331D01*
X30282618Y-45789331D02*
X30320714Y-45941712D01*
X30320714Y-45941712D02*
X30320714Y-46246474D01*
X30320714Y-46246474D02*
X30282618Y-46322664D01*
X30282618Y-46322664D02*
X30244523Y-46360760D01*
X30244523Y-46360760D02*
X30168333Y-46398855D01*
X30168333Y-46398855D02*
X30015952Y-46398855D01*
X30015952Y-46398855D02*
X29939761Y-46360760D01*
X29939761Y-46360760D02*
X29901666Y-46322664D01*
X29901666Y-46322664D02*
X29863571Y-46246474D01*
X29863571Y-46246474D02*
X29863571Y-46055998D01*
X29863571Y-46055998D02*
X29901666Y-45979807D01*
X29901666Y-45979807D02*
X29939761Y-45941712D01*
X29939761Y-45941712D02*
X30015952Y-45903617D01*
X30015952Y-45903617D02*
X30168333Y-45903617D01*
X30168333Y-45903617D02*
X30244523Y-45941712D01*
X30244523Y-45941712D02*
X30282618Y-45979807D01*
X30282618Y-45979807D02*
X30320714Y-46055998D01*
D11*
X25061428Y-51827295D02*
X25442380Y-51827295D01*
X25442380Y-51827295D02*
X25442380Y-51027295D01*
X24794761Y-51408247D02*
X24528095Y-51408247D01*
X24413809Y-51827295D02*
X24794761Y-51827295D01*
X24794761Y-51827295D02*
X24794761Y-51027295D01*
X24794761Y-51027295D02*
X24413809Y-51027295D01*
X24070951Y-51827295D02*
X24070951Y-51027295D01*
X24070951Y-51027295D02*
X23880475Y-51027295D01*
X23880475Y-51027295D02*
X23766189Y-51065390D01*
X23766189Y-51065390D02*
X23689999Y-51141580D01*
X23689999Y-51141580D02*
X23651904Y-51217771D01*
X23651904Y-51217771D02*
X23613808Y-51370152D01*
X23613808Y-51370152D02*
X23613808Y-51484438D01*
X23613808Y-51484438D02*
X23651904Y-51636819D01*
X23651904Y-51636819D02*
X23689999Y-51713009D01*
X23689999Y-51713009D02*
X23766189Y-51789200D01*
X23766189Y-51789200D02*
X23880475Y-51827295D01*
X23880475Y-51827295D02*
X24070951Y-51827295D01*
X22928094Y-51027295D02*
X23080475Y-51027295D01*
X23080475Y-51027295D02*
X23156666Y-51065390D01*
X23156666Y-51065390D02*
X23194761Y-51103485D01*
X23194761Y-51103485D02*
X23270951Y-51217771D01*
X23270951Y-51217771D02*
X23309047Y-51370152D01*
X23309047Y-51370152D02*
X23309047Y-51674914D01*
X23309047Y-51674914D02*
X23270951Y-51751104D01*
X23270951Y-51751104D02*
X23232856Y-51789200D01*
X23232856Y-51789200D02*
X23156666Y-51827295D01*
X23156666Y-51827295D02*
X23004285Y-51827295D01*
X23004285Y-51827295D02*
X22928094Y-51789200D01*
X22928094Y-51789200D02*
X22889999Y-51751104D01*
X22889999Y-51751104D02*
X22851904Y-51674914D01*
X22851904Y-51674914D02*
X22851904Y-51484438D01*
X22851904Y-51484438D02*
X22889999Y-51408247D01*
X22889999Y-51408247D02*
X22928094Y-51370152D01*
X22928094Y-51370152D02*
X23004285Y-51332057D01*
X23004285Y-51332057D02*
X23156666Y-51332057D01*
X23156666Y-51332057D02*
X23232856Y-51370152D01*
X23232856Y-51370152D02*
X23270951Y-51408247D01*
X23270951Y-51408247D02*
X23309047Y-51484438D01*
X30636009Y-91250714D02*
X29636009Y-91250714D01*
X29636009Y-91250714D02*
X29636009Y-91488809D01*
X29636009Y-91488809D02*
X29683628Y-91631666D01*
X29683628Y-91631666D02*
X29778866Y-91726904D01*
X29778866Y-91726904D02*
X29874104Y-91774523D01*
X29874104Y-91774523D02*
X30064580Y-91822142D01*
X30064580Y-91822142D02*
X30207437Y-91822142D01*
X30207437Y-91822142D02*
X30397913Y-91774523D01*
X30397913Y-91774523D02*
X30493151Y-91726904D01*
X30493151Y-91726904D02*
X30588390Y-91631666D01*
X30588390Y-91631666D02*
X30636009Y-91488809D01*
X30636009Y-91488809D02*
X30636009Y-91250714D01*
X30636009Y-92774523D02*
X30636009Y-92203095D01*
X30636009Y-92488809D02*
X29636009Y-92488809D01*
X29636009Y-92488809D02*
X29778866Y-92393571D01*
X29778866Y-92393571D02*
X29874104Y-92298333D01*
X29874104Y-92298333D02*
X29921723Y-92203095D01*
X30064580Y-93345952D02*
X30016961Y-93250714D01*
X30016961Y-93250714D02*
X29969342Y-93203095D01*
X29969342Y-93203095D02*
X29874104Y-93155476D01*
X29874104Y-93155476D02*
X29826485Y-93155476D01*
X29826485Y-93155476D02*
X29731247Y-93203095D01*
X29731247Y-93203095D02*
X29683628Y-93250714D01*
X29683628Y-93250714D02*
X29636009Y-93345952D01*
X29636009Y-93345952D02*
X29636009Y-93536428D01*
X29636009Y-93536428D02*
X29683628Y-93631666D01*
X29683628Y-93631666D02*
X29731247Y-93679285D01*
X29731247Y-93679285D02*
X29826485Y-93726904D01*
X29826485Y-93726904D02*
X29874104Y-93726904D01*
X29874104Y-93726904D02*
X29969342Y-93679285D01*
X29969342Y-93679285D02*
X30016961Y-93631666D01*
X30016961Y-93631666D02*
X30064580Y-93536428D01*
X30064580Y-93536428D02*
X30064580Y-93345952D01*
X30064580Y-93345952D02*
X30112199Y-93250714D01*
X30112199Y-93250714D02*
X30159818Y-93203095D01*
X30159818Y-93203095D02*
X30255056Y-93155476D01*
X30255056Y-93155476D02*
X30445532Y-93155476D01*
X30445532Y-93155476D02*
X30540770Y-93203095D01*
X30540770Y-93203095D02*
X30588390Y-93250714D01*
X30588390Y-93250714D02*
X30636009Y-93345952D01*
X30636009Y-93345952D02*
X30636009Y-93536428D01*
X30636009Y-93536428D02*
X30588390Y-93631666D01*
X30588390Y-93631666D02*
X30540770Y-93679285D01*
X30540770Y-93679285D02*
X30445532Y-93726904D01*
X30445532Y-93726904D02*
X30255056Y-93726904D01*
X30255056Y-93726904D02*
X30159818Y-93679285D01*
X30159818Y-93679285D02*
X30112199Y-93631666D01*
X30112199Y-93631666D02*
X30064580Y-93536428D01*
X114403744Y-98868022D02*
X114776371Y-98947226D01*
X114776371Y-98947226D02*
X114942701Y-98164708D01*
X114230029Y-98402688D02*
X113969190Y-98347245D01*
X113770277Y-98733374D02*
X114142904Y-98812579D01*
X114142904Y-98812579D02*
X114309234Y-98030060D01*
X114309234Y-98030060D02*
X113936606Y-97950856D01*
X113434911Y-98662090D02*
X113601241Y-97879572D01*
X113601241Y-97879572D02*
X113414927Y-97839970D01*
X113414927Y-97839970D02*
X113295218Y-97853471D01*
X113295218Y-97853471D02*
X113204852Y-97912156D01*
X113204852Y-97912156D02*
X113151748Y-97978761D01*
X113151748Y-97978761D02*
X113082804Y-98119891D01*
X113082804Y-98119891D02*
X113059042Y-98231680D01*
X113059042Y-98231680D02*
X113064623Y-98388651D01*
X113064623Y-98388651D02*
X113086045Y-98471097D01*
X113086045Y-98471097D02*
X113144730Y-98561464D01*
X113144730Y-98561464D02*
X113248598Y-98622488D01*
X113248598Y-98622488D02*
X113434911Y-98662090D01*
X112840145Y-97795689D02*
X112810802Y-97750505D01*
X112810802Y-97750505D02*
X112744197Y-97697402D01*
X112744197Y-97697402D02*
X112557883Y-97657799D01*
X112557883Y-97657799D02*
X112475437Y-97679221D01*
X112475437Y-97679221D02*
X112430254Y-97708564D01*
X112430254Y-97708564D02*
X112377150Y-97775169D01*
X112377150Y-97775169D02*
X112361310Y-97849694D01*
X112361310Y-97849694D02*
X112374811Y-97969403D01*
X112374811Y-97969403D02*
X112726919Y-98511601D01*
X112726919Y-98511601D02*
X112242503Y-98408636D01*
X111924416Y-97523152D02*
X111849890Y-97507311D01*
X111849890Y-97507311D02*
X111767445Y-97528733D01*
X111767445Y-97528733D02*
X111722261Y-97558075D01*
X111722261Y-97558075D02*
X111669158Y-97624680D01*
X111669158Y-97624680D02*
X111600213Y-97765811D01*
X111600213Y-97765811D02*
X111560611Y-97952125D01*
X111560611Y-97952125D02*
X111566192Y-98109096D01*
X111566192Y-98109096D02*
X111587614Y-98191542D01*
X111587614Y-98191542D02*
X111616956Y-98236725D01*
X111616956Y-98236725D02*
X111683561Y-98289829D01*
X111683561Y-98289829D02*
X111758087Y-98305670D01*
X111758087Y-98305670D02*
X111840533Y-98284248D01*
X111840533Y-98284248D02*
X111885716Y-98254906D01*
X111885716Y-98254906D02*
X111938820Y-98188301D01*
X111938820Y-98188301D02*
X112007764Y-98047170D01*
X112007764Y-98047170D02*
X112047366Y-97860856D01*
X112047366Y-97860856D02*
X112041785Y-97703885D01*
X112041785Y-97703885D02*
X112020363Y-97621439D01*
X112020363Y-97621439D02*
X111991021Y-97576255D01*
X111991021Y-97576255D02*
X111924416Y-97523152D01*
X66636009Y-88250714D02*
X65636009Y-88250714D01*
X65636009Y-88250714D02*
X65636009Y-88488809D01*
X65636009Y-88488809D02*
X65683628Y-88631666D01*
X65683628Y-88631666D02*
X65778866Y-88726904D01*
X65778866Y-88726904D02*
X65874104Y-88774523D01*
X65874104Y-88774523D02*
X66064580Y-88822142D01*
X66064580Y-88822142D02*
X66207437Y-88822142D01*
X66207437Y-88822142D02*
X66397913Y-88774523D01*
X66397913Y-88774523D02*
X66493151Y-88726904D01*
X66493151Y-88726904D02*
X66588390Y-88631666D01*
X66588390Y-88631666D02*
X66636009Y-88488809D01*
X66636009Y-88488809D02*
X66636009Y-88250714D01*
X66636009Y-89774523D02*
X66636009Y-89203095D01*
X66636009Y-89488809D02*
X65636009Y-89488809D01*
X65636009Y-89488809D02*
X65778866Y-89393571D01*
X65778866Y-89393571D02*
X65874104Y-89298333D01*
X65874104Y-89298333D02*
X65921723Y-89203095D01*
X65636009Y-90631666D02*
X65636009Y-90441190D01*
X65636009Y-90441190D02*
X65683628Y-90345952D01*
X65683628Y-90345952D02*
X65731247Y-90298333D01*
X65731247Y-90298333D02*
X65874104Y-90203095D01*
X65874104Y-90203095D02*
X66064580Y-90155476D01*
X66064580Y-90155476D02*
X66445532Y-90155476D01*
X66445532Y-90155476D02*
X66540770Y-90203095D01*
X66540770Y-90203095D02*
X66588390Y-90250714D01*
X66588390Y-90250714D02*
X66636009Y-90345952D01*
X66636009Y-90345952D02*
X66636009Y-90536428D01*
X66636009Y-90536428D02*
X66588390Y-90631666D01*
X66588390Y-90631666D02*
X66540770Y-90679285D01*
X66540770Y-90679285D02*
X66445532Y-90726904D01*
X66445532Y-90726904D02*
X66207437Y-90726904D01*
X66207437Y-90726904D02*
X66112199Y-90679285D01*
X66112199Y-90679285D02*
X66064580Y-90631666D01*
X66064580Y-90631666D02*
X66016961Y-90536428D01*
X66016961Y-90536428D02*
X66016961Y-90345952D01*
X66016961Y-90345952D02*
X66064580Y-90250714D01*
X66064580Y-90250714D02*
X66112199Y-90203095D01*
X66112199Y-90203095D02*
X66207437Y-90155476D01*
X84636009Y-51726905D02*
X83636009Y-51726905D01*
X83636009Y-51726905D02*
X83636009Y-51965000D01*
X83636009Y-51965000D02*
X83683628Y-52107857D01*
X83683628Y-52107857D02*
X83778866Y-52203095D01*
X83778866Y-52203095D02*
X83874104Y-52250714D01*
X83874104Y-52250714D02*
X84064580Y-52298333D01*
X84064580Y-52298333D02*
X84207437Y-52298333D01*
X84207437Y-52298333D02*
X84397913Y-52250714D01*
X84397913Y-52250714D02*
X84493151Y-52203095D01*
X84493151Y-52203095D02*
X84588390Y-52107857D01*
X84588390Y-52107857D02*
X84636009Y-51965000D01*
X84636009Y-51965000D02*
X84636009Y-51726905D01*
X83636009Y-52631667D02*
X83636009Y-53250714D01*
X83636009Y-53250714D02*
X84016961Y-52917381D01*
X84016961Y-52917381D02*
X84016961Y-53060238D01*
X84016961Y-53060238D02*
X84064580Y-53155476D01*
X84064580Y-53155476D02*
X84112199Y-53203095D01*
X84112199Y-53203095D02*
X84207437Y-53250714D01*
X84207437Y-53250714D02*
X84445532Y-53250714D01*
X84445532Y-53250714D02*
X84540770Y-53203095D01*
X84540770Y-53203095D02*
X84588390Y-53155476D01*
X84588390Y-53155476D02*
X84636009Y-53060238D01*
X84636009Y-53060238D02*
X84636009Y-52774524D01*
X84636009Y-52774524D02*
X84588390Y-52679286D01*
X84588390Y-52679286D02*
X84540770Y-52631667D01*
X84636009Y-68250714D02*
X83636009Y-68250714D01*
X83636009Y-68250714D02*
X83636009Y-68488809D01*
X83636009Y-68488809D02*
X83683628Y-68631666D01*
X83683628Y-68631666D02*
X83778866Y-68726904D01*
X83778866Y-68726904D02*
X83874104Y-68774523D01*
X83874104Y-68774523D02*
X84064580Y-68822142D01*
X84064580Y-68822142D02*
X84207437Y-68822142D01*
X84207437Y-68822142D02*
X84397913Y-68774523D01*
X84397913Y-68774523D02*
X84493151Y-68726904D01*
X84493151Y-68726904D02*
X84588390Y-68631666D01*
X84588390Y-68631666D02*
X84636009Y-68488809D01*
X84636009Y-68488809D02*
X84636009Y-68250714D01*
X84636009Y-69774523D02*
X84636009Y-69203095D01*
X84636009Y-69488809D02*
X83636009Y-69488809D01*
X83636009Y-69488809D02*
X83778866Y-69393571D01*
X83778866Y-69393571D02*
X83874104Y-69298333D01*
X83874104Y-69298333D02*
X83921723Y-69203095D01*
X83636009Y-70393571D02*
X83636009Y-70488809D01*
X83636009Y-70488809D02*
X83683628Y-70584047D01*
X83683628Y-70584047D02*
X83731247Y-70631666D01*
X83731247Y-70631666D02*
X83826485Y-70679285D01*
X83826485Y-70679285D02*
X84016961Y-70726904D01*
X84016961Y-70726904D02*
X84255056Y-70726904D01*
X84255056Y-70726904D02*
X84445532Y-70679285D01*
X84445532Y-70679285D02*
X84540770Y-70631666D01*
X84540770Y-70631666D02*
X84588390Y-70584047D01*
X84588390Y-70584047D02*
X84636009Y-70488809D01*
X84636009Y-70488809D02*
X84636009Y-70393571D01*
X84636009Y-70393571D02*
X84588390Y-70298333D01*
X84588390Y-70298333D02*
X84540770Y-70250714D01*
X84540770Y-70250714D02*
X84445532Y-70203095D01*
X84445532Y-70203095D02*
X84255056Y-70155476D01*
X84255056Y-70155476D02*
X84016961Y-70155476D01*
X84016961Y-70155476D02*
X83826485Y-70203095D01*
X83826485Y-70203095D02*
X83731247Y-70250714D01*
X83731247Y-70250714D02*
X83683628Y-70298333D01*
X83683628Y-70298333D02*
X83636009Y-70393571D01*
D12*
X49844522Y-80322664D02*
X49882618Y-80360760D01*
X49882618Y-80360760D02*
X49996903Y-80398855D01*
X49996903Y-80398855D02*
X50073094Y-80398855D01*
X50073094Y-80398855D02*
X50187380Y-80360760D01*
X50187380Y-80360760D02*
X50263570Y-80284569D01*
X50263570Y-80284569D02*
X50301665Y-80208379D01*
X50301665Y-80208379D02*
X50339761Y-80055998D01*
X50339761Y-80055998D02*
X50339761Y-79941712D01*
X50339761Y-79941712D02*
X50301665Y-79789331D01*
X50301665Y-79789331D02*
X50263570Y-79713140D01*
X50263570Y-79713140D02*
X50187380Y-79636950D01*
X50187380Y-79636950D02*
X50073094Y-79598855D01*
X50073094Y-79598855D02*
X49996903Y-79598855D01*
X49996903Y-79598855D02*
X49882618Y-79636950D01*
X49882618Y-79636950D02*
X49844522Y-79675045D01*
X49501665Y-80398855D02*
X49501665Y-79598855D01*
X49501665Y-79979807D02*
X49044522Y-79979807D01*
X49044522Y-80398855D02*
X49044522Y-79598855D01*
X48244523Y-80398855D02*
X48701666Y-80398855D01*
X48473094Y-80398855D02*
X48473094Y-79598855D01*
X48473094Y-79598855D02*
X48549285Y-79713140D01*
X48549285Y-79713140D02*
X48625475Y-79789331D01*
X48625475Y-79789331D02*
X48701666Y-79827426D01*
X47977856Y-79598855D02*
X47444522Y-79598855D01*
X47444522Y-79598855D02*
X47787380Y-80398855D01*
X103463570Y-43322664D02*
X103501666Y-43360760D01*
X103501666Y-43360760D02*
X103615951Y-43398855D01*
X103615951Y-43398855D02*
X103692142Y-43398855D01*
X103692142Y-43398855D02*
X103806428Y-43360760D01*
X103806428Y-43360760D02*
X103882618Y-43284569D01*
X103882618Y-43284569D02*
X103920713Y-43208379D01*
X103920713Y-43208379D02*
X103958809Y-43055998D01*
X103958809Y-43055998D02*
X103958809Y-42941712D01*
X103958809Y-42941712D02*
X103920713Y-42789331D01*
X103920713Y-42789331D02*
X103882618Y-42713140D01*
X103882618Y-42713140D02*
X103806428Y-42636950D01*
X103806428Y-42636950D02*
X103692142Y-42598855D01*
X103692142Y-42598855D02*
X103615951Y-42598855D01*
X103615951Y-42598855D02*
X103501666Y-42636950D01*
X103501666Y-42636950D02*
X103463570Y-42675045D01*
X103120713Y-43398855D02*
X103120713Y-42598855D01*
X103120713Y-42979807D02*
X102663570Y-42979807D01*
X102663570Y-43398855D02*
X102663570Y-42598855D01*
X102320714Y-42675045D02*
X102282618Y-42636950D01*
X102282618Y-42636950D02*
X102206428Y-42598855D01*
X102206428Y-42598855D02*
X102015952Y-42598855D01*
X102015952Y-42598855D02*
X101939761Y-42636950D01*
X101939761Y-42636950D02*
X101901666Y-42675045D01*
X101901666Y-42675045D02*
X101863571Y-42751236D01*
X101863571Y-42751236D02*
X101863571Y-42827426D01*
X101863571Y-42827426D02*
X101901666Y-42941712D01*
X101901666Y-42941712D02*
X102358809Y-43398855D01*
X102358809Y-43398855D02*
X101863571Y-43398855D01*
D11*
X43061428Y-51827295D02*
X43442380Y-51827295D01*
X43442380Y-51827295D02*
X43442380Y-51027295D01*
X42794761Y-51408247D02*
X42528095Y-51408247D01*
X42413809Y-51827295D02*
X42794761Y-51827295D01*
X42794761Y-51827295D02*
X42794761Y-51027295D01*
X42794761Y-51027295D02*
X42413809Y-51027295D01*
X42070951Y-51827295D02*
X42070951Y-51027295D01*
X42070951Y-51027295D02*
X41880475Y-51027295D01*
X41880475Y-51027295D02*
X41766189Y-51065390D01*
X41766189Y-51065390D02*
X41689999Y-51141580D01*
X41689999Y-51141580D02*
X41651904Y-51217771D01*
X41651904Y-51217771D02*
X41613808Y-51370152D01*
X41613808Y-51370152D02*
X41613808Y-51484438D01*
X41613808Y-51484438D02*
X41651904Y-51636819D01*
X41651904Y-51636819D02*
X41689999Y-51713009D01*
X41689999Y-51713009D02*
X41766189Y-51789200D01*
X41766189Y-51789200D02*
X41880475Y-51827295D01*
X41880475Y-51827295D02*
X42070951Y-51827295D01*
X40889999Y-51027295D02*
X41270951Y-51027295D01*
X41270951Y-51027295D02*
X41309047Y-51408247D01*
X41309047Y-51408247D02*
X41270951Y-51370152D01*
X41270951Y-51370152D02*
X41194761Y-51332057D01*
X41194761Y-51332057D02*
X41004285Y-51332057D01*
X41004285Y-51332057D02*
X40928094Y-51370152D01*
X40928094Y-51370152D02*
X40889999Y-51408247D01*
X40889999Y-51408247D02*
X40851904Y-51484438D01*
X40851904Y-51484438D02*
X40851904Y-51674914D01*
X40851904Y-51674914D02*
X40889999Y-51751104D01*
X40889999Y-51751104D02*
X40928094Y-51789200D01*
X40928094Y-51789200D02*
X41004285Y-51827295D01*
X41004285Y-51827295D02*
X41194761Y-51827295D01*
X41194761Y-51827295D02*
X41270951Y-51789200D01*
X41270951Y-51789200D02*
X41309047Y-51751104D01*
X66636009Y-71726905D02*
X65636009Y-71726905D01*
X65636009Y-71726905D02*
X65636009Y-71965000D01*
X65636009Y-71965000D02*
X65683628Y-72107857D01*
X65683628Y-72107857D02*
X65778866Y-72203095D01*
X65778866Y-72203095D02*
X65874104Y-72250714D01*
X65874104Y-72250714D02*
X66064580Y-72298333D01*
X66064580Y-72298333D02*
X66207437Y-72298333D01*
X66207437Y-72298333D02*
X66397913Y-72250714D01*
X66397913Y-72250714D02*
X66493151Y-72203095D01*
X66493151Y-72203095D02*
X66588390Y-72107857D01*
X66588390Y-72107857D02*
X66636009Y-71965000D01*
X66636009Y-71965000D02*
X66636009Y-71726905D01*
X66636009Y-72774524D02*
X66636009Y-72965000D01*
X66636009Y-72965000D02*
X66588390Y-73060238D01*
X66588390Y-73060238D02*
X66540770Y-73107857D01*
X66540770Y-73107857D02*
X66397913Y-73203095D01*
X66397913Y-73203095D02*
X66207437Y-73250714D01*
X66207437Y-73250714D02*
X65826485Y-73250714D01*
X65826485Y-73250714D02*
X65731247Y-73203095D01*
X65731247Y-73203095D02*
X65683628Y-73155476D01*
X65683628Y-73155476D02*
X65636009Y-73060238D01*
X65636009Y-73060238D02*
X65636009Y-72869762D01*
X65636009Y-72869762D02*
X65683628Y-72774524D01*
X65683628Y-72774524D02*
X65731247Y-72726905D01*
X65731247Y-72726905D02*
X65826485Y-72679286D01*
X65826485Y-72679286D02*
X66064580Y-72679286D01*
X66064580Y-72679286D02*
X66159818Y-72726905D01*
X66159818Y-72726905D02*
X66207437Y-72774524D01*
X66207437Y-72774524D02*
X66255056Y-72869762D01*
X66255056Y-72869762D02*
X66255056Y-73060238D01*
X66255056Y-73060238D02*
X66207437Y-73155476D01*
X66207437Y-73155476D02*
X66159818Y-73203095D01*
X66159818Y-73203095D02*
X66064580Y-73250714D01*
X115442380Y-84327295D02*
X115823332Y-84327295D01*
X115823332Y-84327295D02*
X115823332Y-83527295D01*
X115175713Y-83908247D02*
X114909047Y-83908247D01*
X114794761Y-84327295D02*
X115175713Y-84327295D01*
X115175713Y-84327295D02*
X115175713Y-83527295D01*
X115175713Y-83527295D02*
X114794761Y-83527295D01*
X114451903Y-84327295D02*
X114451903Y-83527295D01*
X114451903Y-83527295D02*
X114261427Y-83527295D01*
X114261427Y-83527295D02*
X114147141Y-83565390D01*
X114147141Y-83565390D02*
X114070951Y-83641580D01*
X114070951Y-83641580D02*
X114032856Y-83717771D01*
X114032856Y-83717771D02*
X113994760Y-83870152D01*
X113994760Y-83870152D02*
X113994760Y-83984438D01*
X113994760Y-83984438D02*
X114032856Y-84136819D01*
X114032856Y-84136819D02*
X114070951Y-84213009D01*
X114070951Y-84213009D02*
X114147141Y-84289200D01*
X114147141Y-84289200D02*
X114261427Y-84327295D01*
X114261427Y-84327295D02*
X114451903Y-84327295D01*
X113232856Y-84327295D02*
X113689999Y-84327295D01*
X113461427Y-84327295D02*
X113461427Y-83527295D01*
X113461427Y-83527295D02*
X113537618Y-83641580D01*
X113537618Y-83641580D02*
X113613808Y-83717771D01*
X113613808Y-83717771D02*
X113689999Y-83755866D01*
X112966189Y-83527295D02*
X112470951Y-83527295D01*
X112470951Y-83527295D02*
X112737617Y-83832057D01*
X112737617Y-83832057D02*
X112623332Y-83832057D01*
X112623332Y-83832057D02*
X112547141Y-83870152D01*
X112547141Y-83870152D02*
X112509046Y-83908247D01*
X112509046Y-83908247D02*
X112470951Y-83984438D01*
X112470951Y-83984438D02*
X112470951Y-84174914D01*
X112470951Y-84174914D02*
X112509046Y-84251104D01*
X112509046Y-84251104D02*
X112547141Y-84289200D01*
X112547141Y-84289200D02*
X112623332Y-84327295D01*
X112623332Y-84327295D02*
X112851903Y-84327295D01*
X112851903Y-84327295D02*
X112928094Y-84289200D01*
X112928094Y-84289200D02*
X112966189Y-84251104D01*
X138124047Y-62984580D02*
X138171666Y-63032200D01*
X138171666Y-63032200D02*
X138314523Y-63079819D01*
X138314523Y-63079819D02*
X138409761Y-63079819D01*
X138409761Y-63079819D02*
X138552618Y-63032200D01*
X138552618Y-63032200D02*
X138647856Y-62936961D01*
X138647856Y-62936961D02*
X138695475Y-62841723D01*
X138695475Y-62841723D02*
X138743094Y-62651247D01*
X138743094Y-62651247D02*
X138743094Y-62508390D01*
X138743094Y-62508390D02*
X138695475Y-62317914D01*
X138695475Y-62317914D02*
X138647856Y-62222676D01*
X138647856Y-62222676D02*
X138552618Y-62127438D01*
X138552618Y-62127438D02*
X138409761Y-62079819D01*
X138409761Y-62079819D02*
X138314523Y-62079819D01*
X138314523Y-62079819D02*
X138171666Y-62127438D01*
X138171666Y-62127438D02*
X138124047Y-62175057D01*
X137743094Y-62175057D02*
X137695475Y-62127438D01*
X137695475Y-62127438D02*
X137600237Y-62079819D01*
X137600237Y-62079819D02*
X137362142Y-62079819D01*
X137362142Y-62079819D02*
X137266904Y-62127438D01*
X137266904Y-62127438D02*
X137219285Y-62175057D01*
X137219285Y-62175057D02*
X137171666Y-62270295D01*
X137171666Y-62270295D02*
X137171666Y-62365533D01*
X137171666Y-62365533D02*
X137219285Y-62508390D01*
X137219285Y-62508390D02*
X137790713Y-63079819D01*
X137790713Y-63079819D02*
X137171666Y-63079819D01*
X136314523Y-62413152D02*
X136314523Y-63079819D01*
X136552618Y-62032200D02*
X136790713Y-62746485D01*
X136790713Y-62746485D02*
X136171666Y-62746485D01*
X138154047Y-59144580D02*
X138201666Y-59192200D01*
X138201666Y-59192200D02*
X138344523Y-59239819D01*
X138344523Y-59239819D02*
X138439761Y-59239819D01*
X138439761Y-59239819D02*
X138582618Y-59192200D01*
X138582618Y-59192200D02*
X138677856Y-59096961D01*
X138677856Y-59096961D02*
X138725475Y-59001723D01*
X138725475Y-59001723D02*
X138773094Y-58811247D01*
X138773094Y-58811247D02*
X138773094Y-58668390D01*
X138773094Y-58668390D02*
X138725475Y-58477914D01*
X138725475Y-58477914D02*
X138677856Y-58382676D01*
X138677856Y-58382676D02*
X138582618Y-58287438D01*
X138582618Y-58287438D02*
X138439761Y-58239819D01*
X138439761Y-58239819D02*
X138344523Y-58239819D01*
X138344523Y-58239819D02*
X138201666Y-58287438D01*
X138201666Y-58287438D02*
X138154047Y-58335057D01*
X137773094Y-58335057D02*
X137725475Y-58287438D01*
X137725475Y-58287438D02*
X137630237Y-58239819D01*
X137630237Y-58239819D02*
X137392142Y-58239819D01*
X137392142Y-58239819D02*
X137296904Y-58287438D01*
X137296904Y-58287438D02*
X137249285Y-58335057D01*
X137249285Y-58335057D02*
X137201666Y-58430295D01*
X137201666Y-58430295D02*
X137201666Y-58525533D01*
X137201666Y-58525533D02*
X137249285Y-58668390D01*
X137249285Y-58668390D02*
X137820713Y-59239819D01*
X137820713Y-59239819D02*
X137201666Y-59239819D01*
X136868332Y-58239819D02*
X136249285Y-58239819D01*
X136249285Y-58239819D02*
X136582618Y-58620771D01*
X136582618Y-58620771D02*
X136439761Y-58620771D01*
X136439761Y-58620771D02*
X136344523Y-58668390D01*
X136344523Y-58668390D02*
X136296904Y-58716009D01*
X136296904Y-58716009D02*
X136249285Y-58811247D01*
X136249285Y-58811247D02*
X136249285Y-59049342D01*
X136249285Y-59049342D02*
X136296904Y-59144580D01*
X136296904Y-59144580D02*
X136344523Y-59192200D01*
X136344523Y-59192200D02*
X136439761Y-59239819D01*
X136439761Y-59239819D02*
X136725475Y-59239819D01*
X136725475Y-59239819D02*
X136820713Y-59192200D01*
X136820713Y-59192200D02*
X136868332Y-59144580D01*
X66636009Y-54726905D02*
X65636009Y-54726905D01*
X65636009Y-54726905D02*
X65636009Y-54965000D01*
X65636009Y-54965000D02*
X65683628Y-55107857D01*
X65683628Y-55107857D02*
X65778866Y-55203095D01*
X65778866Y-55203095D02*
X65874104Y-55250714D01*
X65874104Y-55250714D02*
X66064580Y-55298333D01*
X66064580Y-55298333D02*
X66207437Y-55298333D01*
X66207437Y-55298333D02*
X66397913Y-55250714D01*
X66397913Y-55250714D02*
X66493151Y-55203095D01*
X66493151Y-55203095D02*
X66588390Y-55107857D01*
X66588390Y-55107857D02*
X66636009Y-54965000D01*
X66636009Y-54965000D02*
X66636009Y-54726905D01*
X65969342Y-56155476D02*
X66636009Y-56155476D01*
X65588390Y-55917381D02*
X66302675Y-55679286D01*
X66302675Y-55679286D02*
X66302675Y-56298333D01*
D12*
X103844522Y-77322664D02*
X103882618Y-77360760D01*
X103882618Y-77360760D02*
X103996903Y-77398855D01*
X103996903Y-77398855D02*
X104073094Y-77398855D01*
X104073094Y-77398855D02*
X104187380Y-77360760D01*
X104187380Y-77360760D02*
X104263570Y-77284569D01*
X104263570Y-77284569D02*
X104301665Y-77208379D01*
X104301665Y-77208379D02*
X104339761Y-77055998D01*
X104339761Y-77055998D02*
X104339761Y-76941712D01*
X104339761Y-76941712D02*
X104301665Y-76789331D01*
X104301665Y-76789331D02*
X104263570Y-76713140D01*
X104263570Y-76713140D02*
X104187380Y-76636950D01*
X104187380Y-76636950D02*
X104073094Y-76598855D01*
X104073094Y-76598855D02*
X103996903Y-76598855D01*
X103996903Y-76598855D02*
X103882618Y-76636950D01*
X103882618Y-76636950D02*
X103844522Y-76675045D01*
X103501665Y-77398855D02*
X103501665Y-76598855D01*
X103501665Y-76979807D02*
X103044522Y-76979807D01*
X103044522Y-77398855D02*
X103044522Y-76598855D01*
X102244523Y-77398855D02*
X102701666Y-77398855D01*
X102473094Y-77398855D02*
X102473094Y-76598855D01*
X102473094Y-76598855D02*
X102549285Y-76713140D01*
X102549285Y-76713140D02*
X102625475Y-76789331D01*
X102625475Y-76789331D02*
X102701666Y-76827426D01*
X101558808Y-76865521D02*
X101558808Y-77398855D01*
X101749284Y-76560760D02*
X101939761Y-77132188D01*
X101939761Y-77132188D02*
X101444522Y-77132188D01*
X121844522Y-61822664D02*
X121882618Y-61860760D01*
X121882618Y-61860760D02*
X121996903Y-61898855D01*
X121996903Y-61898855D02*
X122073094Y-61898855D01*
X122073094Y-61898855D02*
X122187380Y-61860760D01*
X122187380Y-61860760D02*
X122263570Y-61784569D01*
X122263570Y-61784569D02*
X122301665Y-61708379D01*
X122301665Y-61708379D02*
X122339761Y-61555998D01*
X122339761Y-61555998D02*
X122339761Y-61441712D01*
X122339761Y-61441712D02*
X122301665Y-61289331D01*
X122301665Y-61289331D02*
X122263570Y-61213140D01*
X122263570Y-61213140D02*
X122187380Y-61136950D01*
X122187380Y-61136950D02*
X122073094Y-61098855D01*
X122073094Y-61098855D02*
X121996903Y-61098855D01*
X121996903Y-61098855D02*
X121882618Y-61136950D01*
X121882618Y-61136950D02*
X121844522Y-61175045D01*
X121501665Y-61898855D02*
X121501665Y-61098855D01*
X121501665Y-61479807D02*
X121044522Y-61479807D01*
X121044522Y-61898855D02*
X121044522Y-61098855D01*
X120244523Y-61898855D02*
X120701666Y-61898855D01*
X120473094Y-61898855D02*
X120473094Y-61098855D01*
X120473094Y-61098855D02*
X120549285Y-61213140D01*
X120549285Y-61213140D02*
X120625475Y-61289331D01*
X120625475Y-61289331D02*
X120701666Y-61327426D01*
X119939761Y-61175045D02*
X119901665Y-61136950D01*
X119901665Y-61136950D02*
X119825475Y-61098855D01*
X119825475Y-61098855D02*
X119634999Y-61098855D01*
X119634999Y-61098855D02*
X119558808Y-61136950D01*
X119558808Y-61136950D02*
X119520713Y-61175045D01*
X119520713Y-61175045D02*
X119482618Y-61251236D01*
X119482618Y-61251236D02*
X119482618Y-61327426D01*
X119482618Y-61327426D02*
X119520713Y-61441712D01*
X119520713Y-61441712D02*
X119977856Y-61898855D01*
X119977856Y-61898855D02*
X119482618Y-61898855D01*
D11*
X97061428Y-48827295D02*
X97442380Y-48827295D01*
X97442380Y-48827295D02*
X97442380Y-48027295D01*
X96794761Y-48408247D02*
X96528095Y-48408247D01*
X96413809Y-48827295D02*
X96794761Y-48827295D01*
X96794761Y-48827295D02*
X96794761Y-48027295D01*
X96794761Y-48027295D02*
X96413809Y-48027295D01*
X96070951Y-48827295D02*
X96070951Y-48027295D01*
X96070951Y-48027295D02*
X95880475Y-48027295D01*
X95880475Y-48027295D02*
X95766189Y-48065390D01*
X95766189Y-48065390D02*
X95689999Y-48141580D01*
X95689999Y-48141580D02*
X95651904Y-48217771D01*
X95651904Y-48217771D02*
X95613808Y-48370152D01*
X95613808Y-48370152D02*
X95613808Y-48484438D01*
X95613808Y-48484438D02*
X95651904Y-48636819D01*
X95651904Y-48636819D02*
X95689999Y-48713009D01*
X95689999Y-48713009D02*
X95766189Y-48789200D01*
X95766189Y-48789200D02*
X95880475Y-48827295D01*
X95880475Y-48827295D02*
X96070951Y-48827295D01*
X95309047Y-48103485D02*
X95270951Y-48065390D01*
X95270951Y-48065390D02*
X95194761Y-48027295D01*
X95194761Y-48027295D02*
X95004285Y-48027295D01*
X95004285Y-48027295D02*
X94928094Y-48065390D01*
X94928094Y-48065390D02*
X94889999Y-48103485D01*
X94889999Y-48103485D02*
X94851904Y-48179676D01*
X94851904Y-48179676D02*
X94851904Y-48255866D01*
X94851904Y-48255866D02*
X94889999Y-48370152D01*
X94889999Y-48370152D02*
X95347142Y-48827295D01*
X95347142Y-48827295D02*
X94851904Y-48827295D01*
X120636009Y-72750714D02*
X119636009Y-72750714D01*
X119636009Y-72750714D02*
X119636009Y-72988809D01*
X119636009Y-72988809D02*
X119683628Y-73131666D01*
X119683628Y-73131666D02*
X119778866Y-73226904D01*
X119778866Y-73226904D02*
X119874104Y-73274523D01*
X119874104Y-73274523D02*
X120064580Y-73322142D01*
X120064580Y-73322142D02*
X120207437Y-73322142D01*
X120207437Y-73322142D02*
X120397913Y-73274523D01*
X120397913Y-73274523D02*
X120493151Y-73226904D01*
X120493151Y-73226904D02*
X120588390Y-73131666D01*
X120588390Y-73131666D02*
X120636009Y-72988809D01*
X120636009Y-72988809D02*
X120636009Y-72750714D01*
X120636009Y-74274523D02*
X120636009Y-73703095D01*
X120636009Y-73988809D02*
X119636009Y-73988809D01*
X119636009Y-73988809D02*
X119778866Y-73893571D01*
X119778866Y-73893571D02*
X119874104Y-73798333D01*
X119874104Y-73798333D02*
X119921723Y-73703095D01*
X119731247Y-74655476D02*
X119683628Y-74703095D01*
X119683628Y-74703095D02*
X119636009Y-74798333D01*
X119636009Y-74798333D02*
X119636009Y-75036428D01*
X119636009Y-75036428D02*
X119683628Y-75131666D01*
X119683628Y-75131666D02*
X119731247Y-75179285D01*
X119731247Y-75179285D02*
X119826485Y-75226904D01*
X119826485Y-75226904D02*
X119921723Y-75226904D01*
X119921723Y-75226904D02*
X120064580Y-75179285D01*
X120064580Y-75179285D02*
X120636009Y-74607857D01*
X120636009Y-74607857D02*
X120636009Y-75226904D01*
X97442380Y-82827295D02*
X97823332Y-82827295D01*
X97823332Y-82827295D02*
X97823332Y-82027295D01*
X97175713Y-82408247D02*
X96909047Y-82408247D01*
X96794761Y-82827295D02*
X97175713Y-82827295D01*
X97175713Y-82827295D02*
X97175713Y-82027295D01*
X97175713Y-82027295D02*
X96794761Y-82027295D01*
X96451903Y-82827295D02*
X96451903Y-82027295D01*
X96451903Y-82027295D02*
X96261427Y-82027295D01*
X96261427Y-82027295D02*
X96147141Y-82065390D01*
X96147141Y-82065390D02*
X96070951Y-82141580D01*
X96070951Y-82141580D02*
X96032856Y-82217771D01*
X96032856Y-82217771D02*
X95994760Y-82370152D01*
X95994760Y-82370152D02*
X95994760Y-82484438D01*
X95994760Y-82484438D02*
X96032856Y-82636819D01*
X96032856Y-82636819D02*
X96070951Y-82713009D01*
X96070951Y-82713009D02*
X96147141Y-82789200D01*
X96147141Y-82789200D02*
X96261427Y-82827295D01*
X96261427Y-82827295D02*
X96451903Y-82827295D01*
X95232856Y-82827295D02*
X95689999Y-82827295D01*
X95461427Y-82827295D02*
X95461427Y-82027295D01*
X95461427Y-82027295D02*
X95537618Y-82141580D01*
X95537618Y-82141580D02*
X95613808Y-82217771D01*
X95613808Y-82217771D02*
X95689999Y-82255866D01*
X94547141Y-82293961D02*
X94547141Y-82827295D01*
X94737617Y-81989200D02*
X94928094Y-82560628D01*
X94928094Y-82560628D02*
X94432855Y-82560628D01*
D12*
X31844522Y-80322664D02*
X31882618Y-80360760D01*
X31882618Y-80360760D02*
X31996903Y-80398855D01*
X31996903Y-80398855D02*
X32073094Y-80398855D01*
X32073094Y-80398855D02*
X32187380Y-80360760D01*
X32187380Y-80360760D02*
X32263570Y-80284569D01*
X32263570Y-80284569D02*
X32301665Y-80208379D01*
X32301665Y-80208379D02*
X32339761Y-80055998D01*
X32339761Y-80055998D02*
X32339761Y-79941712D01*
X32339761Y-79941712D02*
X32301665Y-79789331D01*
X32301665Y-79789331D02*
X32263570Y-79713140D01*
X32263570Y-79713140D02*
X32187380Y-79636950D01*
X32187380Y-79636950D02*
X32073094Y-79598855D01*
X32073094Y-79598855D02*
X31996903Y-79598855D01*
X31996903Y-79598855D02*
X31882618Y-79636950D01*
X31882618Y-79636950D02*
X31844522Y-79675045D01*
X31501665Y-80398855D02*
X31501665Y-79598855D01*
X31501665Y-79979807D02*
X31044522Y-79979807D01*
X31044522Y-80398855D02*
X31044522Y-79598855D01*
X30244523Y-80398855D02*
X30701666Y-80398855D01*
X30473094Y-80398855D02*
X30473094Y-79598855D01*
X30473094Y-79598855D02*
X30549285Y-79713140D01*
X30549285Y-79713140D02*
X30625475Y-79789331D01*
X30625475Y-79789331D02*
X30701666Y-79827426D01*
X29787380Y-79941712D02*
X29863570Y-79903617D01*
X29863570Y-79903617D02*
X29901665Y-79865521D01*
X29901665Y-79865521D02*
X29939761Y-79789331D01*
X29939761Y-79789331D02*
X29939761Y-79751236D01*
X29939761Y-79751236D02*
X29901665Y-79675045D01*
X29901665Y-79675045D02*
X29863570Y-79636950D01*
X29863570Y-79636950D02*
X29787380Y-79598855D01*
X29787380Y-79598855D02*
X29634999Y-79598855D01*
X29634999Y-79598855D02*
X29558808Y-79636950D01*
X29558808Y-79636950D02*
X29520713Y-79675045D01*
X29520713Y-79675045D02*
X29482618Y-79751236D01*
X29482618Y-79751236D02*
X29482618Y-79789331D01*
X29482618Y-79789331D02*
X29520713Y-79865521D01*
X29520713Y-79865521D02*
X29558808Y-79903617D01*
X29558808Y-79903617D02*
X29634999Y-79941712D01*
X29634999Y-79941712D02*
X29787380Y-79941712D01*
X29787380Y-79941712D02*
X29863570Y-79979807D01*
X29863570Y-79979807D02*
X29901665Y-80017902D01*
X29901665Y-80017902D02*
X29939761Y-80094093D01*
X29939761Y-80094093D02*
X29939761Y-80246474D01*
X29939761Y-80246474D02*
X29901665Y-80322664D01*
X29901665Y-80322664D02*
X29863570Y-80360760D01*
X29863570Y-80360760D02*
X29787380Y-80398855D01*
X29787380Y-80398855D02*
X29634999Y-80398855D01*
X29634999Y-80398855D02*
X29558808Y-80360760D01*
X29558808Y-80360760D02*
X29520713Y-80322664D01*
X29520713Y-80322664D02*
X29482618Y-80246474D01*
X29482618Y-80246474D02*
X29482618Y-80094093D01*
X29482618Y-80094093D02*
X29520713Y-80017902D01*
X29520713Y-80017902D02*
X29558808Y-79979807D01*
X29558808Y-79979807D02*
X29634999Y-79941712D01*
X85844522Y-57322664D02*
X85882618Y-57360760D01*
X85882618Y-57360760D02*
X85996903Y-57398855D01*
X85996903Y-57398855D02*
X86073094Y-57398855D01*
X86073094Y-57398855D02*
X86187380Y-57360760D01*
X86187380Y-57360760D02*
X86263570Y-57284569D01*
X86263570Y-57284569D02*
X86301665Y-57208379D01*
X86301665Y-57208379D02*
X86339761Y-57055998D01*
X86339761Y-57055998D02*
X86339761Y-56941712D01*
X86339761Y-56941712D02*
X86301665Y-56789331D01*
X86301665Y-56789331D02*
X86263570Y-56713140D01*
X86263570Y-56713140D02*
X86187380Y-56636950D01*
X86187380Y-56636950D02*
X86073094Y-56598855D01*
X86073094Y-56598855D02*
X85996903Y-56598855D01*
X85996903Y-56598855D02*
X85882618Y-56636950D01*
X85882618Y-56636950D02*
X85844522Y-56675045D01*
X85501665Y-57398855D02*
X85501665Y-56598855D01*
X85501665Y-56979807D02*
X85044522Y-56979807D01*
X85044522Y-57398855D02*
X85044522Y-56598855D01*
X84244523Y-57398855D02*
X84701666Y-57398855D01*
X84473094Y-57398855D02*
X84473094Y-56598855D01*
X84473094Y-56598855D02*
X84549285Y-56713140D01*
X84549285Y-56713140D02*
X84625475Y-56789331D01*
X84625475Y-56789331D02*
X84701666Y-56827426D01*
X83749284Y-56598855D02*
X83673094Y-56598855D01*
X83673094Y-56598855D02*
X83596903Y-56636950D01*
X83596903Y-56636950D02*
X83558808Y-56675045D01*
X83558808Y-56675045D02*
X83520713Y-56751236D01*
X83520713Y-56751236D02*
X83482618Y-56903617D01*
X83482618Y-56903617D02*
X83482618Y-57094093D01*
X83482618Y-57094093D02*
X83520713Y-57246474D01*
X83520713Y-57246474D02*
X83558808Y-57322664D01*
X83558808Y-57322664D02*
X83596903Y-57360760D01*
X83596903Y-57360760D02*
X83673094Y-57398855D01*
X83673094Y-57398855D02*
X83749284Y-57398855D01*
X83749284Y-57398855D02*
X83825475Y-57360760D01*
X83825475Y-57360760D02*
X83863570Y-57322664D01*
X83863570Y-57322664D02*
X83901665Y-57246474D01*
X83901665Y-57246474D02*
X83939761Y-57094093D01*
X83939761Y-57094093D02*
X83939761Y-56903617D01*
X83939761Y-56903617D02*
X83901665Y-56751236D01*
X83901665Y-56751236D02*
X83863570Y-56675045D01*
X83863570Y-56675045D02*
X83825475Y-56636950D01*
X83825475Y-56636950D02*
X83749284Y-56598855D01*
D11*
X121816009Y-51848333D02*
X121339818Y-51515000D01*
X121816009Y-51276905D02*
X120816009Y-51276905D01*
X120816009Y-51276905D02*
X120816009Y-51657857D01*
X120816009Y-51657857D02*
X120863628Y-51753095D01*
X120863628Y-51753095D02*
X120911247Y-51800714D01*
X120911247Y-51800714D02*
X121006485Y-51848333D01*
X121006485Y-51848333D02*
X121149342Y-51848333D01*
X121149342Y-51848333D02*
X121244580Y-51800714D01*
X121244580Y-51800714D02*
X121292199Y-51753095D01*
X121292199Y-51753095D02*
X121339818Y-51657857D01*
X121339818Y-51657857D02*
X121339818Y-51276905D01*
X120816009Y-52181667D02*
X120816009Y-52800714D01*
X120816009Y-52800714D02*
X121196961Y-52467381D01*
X121196961Y-52467381D02*
X121196961Y-52610238D01*
X121196961Y-52610238D02*
X121244580Y-52705476D01*
X121244580Y-52705476D02*
X121292199Y-52753095D01*
X121292199Y-52753095D02*
X121387437Y-52800714D01*
X121387437Y-52800714D02*
X121625532Y-52800714D01*
X121625532Y-52800714D02*
X121720770Y-52753095D01*
X121720770Y-52753095D02*
X121768390Y-52705476D01*
X121768390Y-52705476D02*
X121816009Y-52610238D01*
X121816009Y-52610238D02*
X121816009Y-52324524D01*
X121816009Y-52324524D02*
X121768390Y-52229286D01*
X121768390Y-52229286D02*
X121720770Y-52181667D01*
X102636009Y-54726905D02*
X101636009Y-54726905D01*
X101636009Y-54726905D02*
X101636009Y-54965000D01*
X101636009Y-54965000D02*
X101683628Y-55107857D01*
X101683628Y-55107857D02*
X101778866Y-55203095D01*
X101778866Y-55203095D02*
X101874104Y-55250714D01*
X101874104Y-55250714D02*
X102064580Y-55298333D01*
X102064580Y-55298333D02*
X102207437Y-55298333D01*
X102207437Y-55298333D02*
X102397913Y-55250714D01*
X102397913Y-55250714D02*
X102493151Y-55203095D01*
X102493151Y-55203095D02*
X102588390Y-55107857D01*
X102588390Y-55107857D02*
X102636009Y-54965000D01*
X102636009Y-54965000D02*
X102636009Y-54726905D01*
X101731247Y-55679286D02*
X101683628Y-55726905D01*
X101683628Y-55726905D02*
X101636009Y-55822143D01*
X101636009Y-55822143D02*
X101636009Y-56060238D01*
X101636009Y-56060238D02*
X101683628Y-56155476D01*
X101683628Y-56155476D02*
X101731247Y-56203095D01*
X101731247Y-56203095D02*
X101826485Y-56250714D01*
X101826485Y-56250714D02*
X101921723Y-56250714D01*
X101921723Y-56250714D02*
X102064580Y-56203095D01*
X102064580Y-56203095D02*
X102636009Y-55631667D01*
X102636009Y-55631667D02*
X102636009Y-56250714D01*
X79442380Y-79827295D02*
X79823332Y-79827295D01*
X79823332Y-79827295D02*
X79823332Y-79027295D01*
X79175713Y-79408247D02*
X78909047Y-79408247D01*
X78794761Y-79827295D02*
X79175713Y-79827295D01*
X79175713Y-79827295D02*
X79175713Y-79027295D01*
X79175713Y-79027295D02*
X78794761Y-79027295D01*
X78451903Y-79827295D02*
X78451903Y-79027295D01*
X78451903Y-79027295D02*
X78261427Y-79027295D01*
X78261427Y-79027295D02*
X78147141Y-79065390D01*
X78147141Y-79065390D02*
X78070951Y-79141580D01*
X78070951Y-79141580D02*
X78032856Y-79217771D01*
X78032856Y-79217771D02*
X77994760Y-79370152D01*
X77994760Y-79370152D02*
X77994760Y-79484438D01*
X77994760Y-79484438D02*
X78032856Y-79636819D01*
X78032856Y-79636819D02*
X78070951Y-79713009D01*
X78070951Y-79713009D02*
X78147141Y-79789200D01*
X78147141Y-79789200D02*
X78261427Y-79827295D01*
X78261427Y-79827295D02*
X78451903Y-79827295D01*
X77232856Y-79827295D02*
X77689999Y-79827295D01*
X77461427Y-79827295D02*
X77461427Y-79027295D01*
X77461427Y-79027295D02*
X77537618Y-79141580D01*
X77537618Y-79141580D02*
X77613808Y-79217771D01*
X77613808Y-79217771D02*
X77689999Y-79255866D01*
X76509046Y-79027295D02*
X76889998Y-79027295D01*
X76889998Y-79027295D02*
X76928094Y-79408247D01*
X76928094Y-79408247D02*
X76889998Y-79370152D01*
X76889998Y-79370152D02*
X76813808Y-79332057D01*
X76813808Y-79332057D02*
X76623332Y-79332057D01*
X76623332Y-79332057D02*
X76547141Y-79370152D01*
X76547141Y-79370152D02*
X76509046Y-79408247D01*
X76509046Y-79408247D02*
X76470951Y-79484438D01*
X76470951Y-79484438D02*
X76470951Y-79674914D01*
X76470951Y-79674914D02*
X76509046Y-79751104D01*
X76509046Y-79751104D02*
X76547141Y-79789200D01*
X76547141Y-79789200D02*
X76623332Y-79827295D01*
X76623332Y-79827295D02*
X76813808Y-79827295D01*
X76813808Y-79827295D02*
X76889998Y-79789200D01*
X76889998Y-79789200D02*
X76928094Y-79751104D01*
X84636009Y-85250714D02*
X83636009Y-85250714D01*
X83636009Y-85250714D02*
X83636009Y-85488809D01*
X83636009Y-85488809D02*
X83683628Y-85631666D01*
X83683628Y-85631666D02*
X83778866Y-85726904D01*
X83778866Y-85726904D02*
X83874104Y-85774523D01*
X83874104Y-85774523D02*
X84064580Y-85822142D01*
X84064580Y-85822142D02*
X84207437Y-85822142D01*
X84207437Y-85822142D02*
X84397913Y-85774523D01*
X84397913Y-85774523D02*
X84493151Y-85726904D01*
X84493151Y-85726904D02*
X84588390Y-85631666D01*
X84588390Y-85631666D02*
X84636009Y-85488809D01*
X84636009Y-85488809D02*
X84636009Y-85250714D01*
X84636009Y-86774523D02*
X84636009Y-86203095D01*
X84636009Y-86488809D02*
X83636009Y-86488809D01*
X83636009Y-86488809D02*
X83778866Y-86393571D01*
X83778866Y-86393571D02*
X83874104Y-86298333D01*
X83874104Y-86298333D02*
X83921723Y-86203095D01*
X83636009Y-87679285D02*
X83636009Y-87203095D01*
X83636009Y-87203095D02*
X84112199Y-87155476D01*
X84112199Y-87155476D02*
X84064580Y-87203095D01*
X84064580Y-87203095D02*
X84016961Y-87298333D01*
X84016961Y-87298333D02*
X84016961Y-87536428D01*
X84016961Y-87536428D02*
X84064580Y-87631666D01*
X84064580Y-87631666D02*
X84112199Y-87679285D01*
X84112199Y-87679285D02*
X84207437Y-87726904D01*
X84207437Y-87726904D02*
X84445532Y-87726904D01*
X84445532Y-87726904D02*
X84540770Y-87679285D01*
X84540770Y-87679285D02*
X84588390Y-87631666D01*
X84588390Y-87631666D02*
X84636009Y-87536428D01*
X84636009Y-87536428D02*
X84636009Y-87298333D01*
X84636009Y-87298333D02*
X84588390Y-87203095D01*
X84588390Y-87203095D02*
X84540770Y-87155476D01*
X65421428Y-60747295D02*
X65802380Y-60747295D01*
X65802380Y-60747295D02*
X65802380Y-59947295D01*
X65154761Y-60328247D02*
X64888095Y-60328247D01*
X64773809Y-60747295D02*
X65154761Y-60747295D01*
X65154761Y-60747295D02*
X65154761Y-59947295D01*
X65154761Y-59947295D02*
X64773809Y-59947295D01*
X64430951Y-60747295D02*
X64430951Y-59947295D01*
X64430951Y-59947295D02*
X64240475Y-59947295D01*
X64240475Y-59947295D02*
X64126189Y-59985390D01*
X64126189Y-59985390D02*
X64049999Y-60061580D01*
X64049999Y-60061580D02*
X64011904Y-60137771D01*
X64011904Y-60137771D02*
X63973808Y-60290152D01*
X63973808Y-60290152D02*
X63973808Y-60404438D01*
X63973808Y-60404438D02*
X64011904Y-60556819D01*
X64011904Y-60556819D02*
X64049999Y-60633009D01*
X64049999Y-60633009D02*
X64126189Y-60709200D01*
X64126189Y-60709200D02*
X64240475Y-60747295D01*
X64240475Y-60747295D02*
X64430951Y-60747295D01*
X63592856Y-60747295D02*
X63440475Y-60747295D01*
X63440475Y-60747295D02*
X63364285Y-60709200D01*
X63364285Y-60709200D02*
X63326189Y-60671104D01*
X63326189Y-60671104D02*
X63249999Y-60556819D01*
X63249999Y-60556819D02*
X63211904Y-60404438D01*
X63211904Y-60404438D02*
X63211904Y-60099676D01*
X63211904Y-60099676D02*
X63249999Y-60023485D01*
X63249999Y-60023485D02*
X63288094Y-59985390D01*
X63288094Y-59985390D02*
X63364285Y-59947295D01*
X63364285Y-59947295D02*
X63516666Y-59947295D01*
X63516666Y-59947295D02*
X63592856Y-59985390D01*
X63592856Y-59985390D02*
X63630951Y-60023485D01*
X63630951Y-60023485D02*
X63669047Y-60099676D01*
X63669047Y-60099676D02*
X63669047Y-60290152D01*
X63669047Y-60290152D02*
X63630951Y-60366342D01*
X63630951Y-60366342D02*
X63592856Y-60404438D01*
X63592856Y-60404438D02*
X63516666Y-60442533D01*
X63516666Y-60442533D02*
X63364285Y-60442533D01*
X63364285Y-60442533D02*
X63288094Y-60404438D01*
X63288094Y-60404438D02*
X63249999Y-60366342D01*
X63249999Y-60366342D02*
X63211904Y-60290152D01*
X83802380Y-57747295D02*
X84183332Y-57747295D01*
X84183332Y-57747295D02*
X84183332Y-56947295D01*
X83535713Y-57328247D02*
X83269047Y-57328247D01*
X83154761Y-57747295D02*
X83535713Y-57747295D01*
X83535713Y-57747295D02*
X83535713Y-56947295D01*
X83535713Y-56947295D02*
X83154761Y-56947295D01*
X82811903Y-57747295D02*
X82811903Y-56947295D01*
X82811903Y-56947295D02*
X82621427Y-56947295D01*
X82621427Y-56947295D02*
X82507141Y-56985390D01*
X82507141Y-56985390D02*
X82430951Y-57061580D01*
X82430951Y-57061580D02*
X82392856Y-57137771D01*
X82392856Y-57137771D02*
X82354760Y-57290152D01*
X82354760Y-57290152D02*
X82354760Y-57404438D01*
X82354760Y-57404438D02*
X82392856Y-57556819D01*
X82392856Y-57556819D02*
X82430951Y-57633009D01*
X82430951Y-57633009D02*
X82507141Y-57709200D01*
X82507141Y-57709200D02*
X82621427Y-57747295D01*
X82621427Y-57747295D02*
X82811903Y-57747295D01*
X81592856Y-57747295D02*
X82049999Y-57747295D01*
X81821427Y-57747295D02*
X81821427Y-56947295D01*
X81821427Y-56947295D02*
X81897618Y-57061580D01*
X81897618Y-57061580D02*
X81973808Y-57137771D01*
X81973808Y-57137771D02*
X82049999Y-57175866D01*
X81097617Y-56947295D02*
X81021427Y-56947295D01*
X81021427Y-56947295D02*
X80945236Y-56985390D01*
X80945236Y-56985390D02*
X80907141Y-57023485D01*
X80907141Y-57023485D02*
X80869046Y-57099676D01*
X80869046Y-57099676D02*
X80830951Y-57252057D01*
X80830951Y-57252057D02*
X80830951Y-57442533D01*
X80830951Y-57442533D02*
X80869046Y-57594914D01*
X80869046Y-57594914D02*
X80907141Y-57671104D01*
X80907141Y-57671104D02*
X80945236Y-57709200D01*
X80945236Y-57709200D02*
X81021427Y-57747295D01*
X81021427Y-57747295D02*
X81097617Y-57747295D01*
X81097617Y-57747295D02*
X81173808Y-57709200D01*
X81173808Y-57709200D02*
X81211903Y-57671104D01*
X81211903Y-57671104D02*
X81249998Y-57594914D01*
X81249998Y-57594914D02*
X81288094Y-57442533D01*
X81288094Y-57442533D02*
X81288094Y-57252057D01*
X81288094Y-57252057D02*
X81249998Y-57099676D01*
X81249998Y-57099676D02*
X81211903Y-57023485D01*
X81211903Y-57023485D02*
X81173808Y-56985390D01*
X81173808Y-56985390D02*
X81097617Y-56947295D01*
X79061428Y-45827295D02*
X79442380Y-45827295D01*
X79442380Y-45827295D02*
X79442380Y-45027295D01*
X78794761Y-45408247D02*
X78528095Y-45408247D01*
X78413809Y-45827295D02*
X78794761Y-45827295D01*
X78794761Y-45827295D02*
X78794761Y-45027295D01*
X78794761Y-45027295D02*
X78413809Y-45027295D01*
X78070951Y-45827295D02*
X78070951Y-45027295D01*
X78070951Y-45027295D02*
X77880475Y-45027295D01*
X77880475Y-45027295D02*
X77766189Y-45065390D01*
X77766189Y-45065390D02*
X77689999Y-45141580D01*
X77689999Y-45141580D02*
X77651904Y-45217771D01*
X77651904Y-45217771D02*
X77613808Y-45370152D01*
X77613808Y-45370152D02*
X77613808Y-45484438D01*
X77613808Y-45484438D02*
X77651904Y-45636819D01*
X77651904Y-45636819D02*
X77689999Y-45713009D01*
X77689999Y-45713009D02*
X77766189Y-45789200D01*
X77766189Y-45789200D02*
X77880475Y-45827295D01*
X77880475Y-45827295D02*
X78070951Y-45827295D01*
X77347142Y-45027295D02*
X76851904Y-45027295D01*
X76851904Y-45027295D02*
X77118570Y-45332057D01*
X77118570Y-45332057D02*
X77004285Y-45332057D01*
X77004285Y-45332057D02*
X76928094Y-45370152D01*
X76928094Y-45370152D02*
X76889999Y-45408247D01*
X76889999Y-45408247D02*
X76851904Y-45484438D01*
X76851904Y-45484438D02*
X76851904Y-45674914D01*
X76851904Y-45674914D02*
X76889999Y-45751104D01*
X76889999Y-45751104D02*
X76928094Y-45789200D01*
X76928094Y-45789200D02*
X77004285Y-45827295D01*
X77004285Y-45827295D02*
X77232856Y-45827295D01*
X77232856Y-45827295D02*
X77309047Y-45789200D01*
X77309047Y-45789200D02*
X77347142Y-45751104D01*
X120636009Y-89750714D02*
X119636009Y-89750714D01*
X119636009Y-89750714D02*
X119636009Y-89988809D01*
X119636009Y-89988809D02*
X119683628Y-90131666D01*
X119683628Y-90131666D02*
X119778866Y-90226904D01*
X119778866Y-90226904D02*
X119874104Y-90274523D01*
X119874104Y-90274523D02*
X120064580Y-90322142D01*
X120064580Y-90322142D02*
X120207437Y-90322142D01*
X120207437Y-90322142D02*
X120397913Y-90274523D01*
X120397913Y-90274523D02*
X120493151Y-90226904D01*
X120493151Y-90226904D02*
X120588390Y-90131666D01*
X120588390Y-90131666D02*
X120636009Y-89988809D01*
X120636009Y-89988809D02*
X120636009Y-89750714D01*
X120636009Y-91274523D02*
X120636009Y-90703095D01*
X120636009Y-90988809D02*
X119636009Y-90988809D01*
X119636009Y-90988809D02*
X119778866Y-90893571D01*
X119778866Y-90893571D02*
X119874104Y-90798333D01*
X119874104Y-90798333D02*
X119921723Y-90703095D01*
X119636009Y-91607857D02*
X119636009Y-92226904D01*
X119636009Y-92226904D02*
X120016961Y-91893571D01*
X120016961Y-91893571D02*
X120016961Y-92036428D01*
X120016961Y-92036428D02*
X120064580Y-92131666D01*
X120064580Y-92131666D02*
X120112199Y-92179285D01*
X120112199Y-92179285D02*
X120207437Y-92226904D01*
X120207437Y-92226904D02*
X120445532Y-92226904D01*
X120445532Y-92226904D02*
X120540770Y-92179285D01*
X120540770Y-92179285D02*
X120588390Y-92131666D01*
X120588390Y-92131666D02*
X120636009Y-92036428D01*
X120636009Y-92036428D02*
X120636009Y-91750714D01*
X120636009Y-91750714D02*
X120588390Y-91655476D01*
X120588390Y-91655476D02*
X120540770Y-91607857D01*
X29421428Y-63747295D02*
X29802380Y-63747295D01*
X29802380Y-63747295D02*
X29802380Y-62947295D01*
X29154761Y-63328247D02*
X28888095Y-63328247D01*
X28773809Y-63747295D02*
X29154761Y-63747295D01*
X29154761Y-63747295D02*
X29154761Y-62947295D01*
X29154761Y-62947295D02*
X28773809Y-62947295D01*
X28430951Y-63747295D02*
X28430951Y-62947295D01*
X28430951Y-62947295D02*
X28240475Y-62947295D01*
X28240475Y-62947295D02*
X28126189Y-62985390D01*
X28126189Y-62985390D02*
X28049999Y-63061580D01*
X28049999Y-63061580D02*
X28011904Y-63137771D01*
X28011904Y-63137771D02*
X27973808Y-63290152D01*
X27973808Y-63290152D02*
X27973808Y-63404438D01*
X27973808Y-63404438D02*
X28011904Y-63556819D01*
X28011904Y-63556819D02*
X28049999Y-63633009D01*
X28049999Y-63633009D02*
X28126189Y-63709200D01*
X28126189Y-63709200D02*
X28240475Y-63747295D01*
X28240475Y-63747295D02*
X28430951Y-63747295D01*
X27707142Y-62947295D02*
X27173808Y-62947295D01*
X27173808Y-62947295D02*
X27516666Y-63747295D01*
X138234047Y-55184580D02*
X138281666Y-55232200D01*
X138281666Y-55232200D02*
X138424523Y-55279819D01*
X138424523Y-55279819D02*
X138519761Y-55279819D01*
X138519761Y-55279819D02*
X138662618Y-55232200D01*
X138662618Y-55232200D02*
X138757856Y-55136961D01*
X138757856Y-55136961D02*
X138805475Y-55041723D01*
X138805475Y-55041723D02*
X138853094Y-54851247D01*
X138853094Y-54851247D02*
X138853094Y-54708390D01*
X138853094Y-54708390D02*
X138805475Y-54517914D01*
X138805475Y-54517914D02*
X138757856Y-54422676D01*
X138757856Y-54422676D02*
X138662618Y-54327438D01*
X138662618Y-54327438D02*
X138519761Y-54279819D01*
X138519761Y-54279819D02*
X138424523Y-54279819D01*
X138424523Y-54279819D02*
X138281666Y-54327438D01*
X138281666Y-54327438D02*
X138234047Y-54375057D01*
X137853094Y-54375057D02*
X137805475Y-54327438D01*
X137805475Y-54327438D02*
X137710237Y-54279819D01*
X137710237Y-54279819D02*
X137472142Y-54279819D01*
X137472142Y-54279819D02*
X137376904Y-54327438D01*
X137376904Y-54327438D02*
X137329285Y-54375057D01*
X137329285Y-54375057D02*
X137281666Y-54470295D01*
X137281666Y-54470295D02*
X137281666Y-54565533D01*
X137281666Y-54565533D02*
X137329285Y-54708390D01*
X137329285Y-54708390D02*
X137900713Y-55279819D01*
X137900713Y-55279819D02*
X137281666Y-55279819D01*
X136900713Y-54375057D02*
X136853094Y-54327438D01*
X136853094Y-54327438D02*
X136757856Y-54279819D01*
X136757856Y-54279819D02*
X136519761Y-54279819D01*
X136519761Y-54279819D02*
X136424523Y-54327438D01*
X136424523Y-54327438D02*
X136376904Y-54375057D01*
X136376904Y-54375057D02*
X136329285Y-54470295D01*
X136329285Y-54470295D02*
X136329285Y-54565533D01*
X136329285Y-54565533D02*
X136376904Y-54708390D01*
X136376904Y-54708390D02*
X136948332Y-55279819D01*
X136948332Y-55279819D02*
X136329285Y-55279819D01*
X94236009Y-106450714D02*
X93236009Y-106450714D01*
X93236009Y-106450714D02*
X93236009Y-106688809D01*
X93236009Y-106688809D02*
X93283628Y-106831666D01*
X93283628Y-106831666D02*
X93378866Y-106926904D01*
X93378866Y-106926904D02*
X93474104Y-106974523D01*
X93474104Y-106974523D02*
X93664580Y-107022142D01*
X93664580Y-107022142D02*
X93807437Y-107022142D01*
X93807437Y-107022142D02*
X93997913Y-106974523D01*
X93997913Y-106974523D02*
X94093151Y-106926904D01*
X94093151Y-106926904D02*
X94188390Y-106831666D01*
X94188390Y-106831666D02*
X94236009Y-106688809D01*
X94236009Y-106688809D02*
X94236009Y-106450714D01*
X94236009Y-107974523D02*
X94236009Y-107403095D01*
X94236009Y-107688809D02*
X93236009Y-107688809D01*
X93236009Y-107688809D02*
X93378866Y-107593571D01*
X93378866Y-107593571D02*
X93474104Y-107498333D01*
X93474104Y-107498333D02*
X93521723Y-107403095D01*
X94236009Y-108450714D02*
X94236009Y-108641190D01*
X94236009Y-108641190D02*
X94188390Y-108736428D01*
X94188390Y-108736428D02*
X94140770Y-108784047D01*
X94140770Y-108784047D02*
X93997913Y-108879285D01*
X93997913Y-108879285D02*
X93807437Y-108926904D01*
X93807437Y-108926904D02*
X93426485Y-108926904D01*
X93426485Y-108926904D02*
X93331247Y-108879285D01*
X93331247Y-108879285D02*
X93283628Y-108831666D01*
X93283628Y-108831666D02*
X93236009Y-108736428D01*
X93236009Y-108736428D02*
X93236009Y-108545952D01*
X93236009Y-108545952D02*
X93283628Y-108450714D01*
X93283628Y-108450714D02*
X93331247Y-108403095D01*
X93331247Y-108403095D02*
X93426485Y-108355476D01*
X93426485Y-108355476D02*
X93664580Y-108355476D01*
X93664580Y-108355476D02*
X93759818Y-108403095D01*
X93759818Y-108403095D02*
X93807437Y-108450714D01*
X93807437Y-108450714D02*
X93855056Y-108545952D01*
X93855056Y-108545952D02*
X93855056Y-108736428D01*
X93855056Y-108736428D02*
X93807437Y-108831666D01*
X93807437Y-108831666D02*
X93759818Y-108879285D01*
X93759818Y-108879285D02*
X93664580Y-108926904D01*
X47421428Y-63747295D02*
X47802380Y-63747295D01*
X47802380Y-63747295D02*
X47802380Y-62947295D01*
X47154761Y-63328247D02*
X46888095Y-63328247D01*
X46773809Y-63747295D02*
X47154761Y-63747295D01*
X47154761Y-63747295D02*
X47154761Y-62947295D01*
X47154761Y-62947295D02*
X46773809Y-62947295D01*
X46430951Y-63747295D02*
X46430951Y-62947295D01*
X46430951Y-62947295D02*
X46240475Y-62947295D01*
X46240475Y-62947295D02*
X46126189Y-62985390D01*
X46126189Y-62985390D02*
X46049999Y-63061580D01*
X46049999Y-63061580D02*
X46011904Y-63137771D01*
X46011904Y-63137771D02*
X45973808Y-63290152D01*
X45973808Y-63290152D02*
X45973808Y-63404438D01*
X45973808Y-63404438D02*
X46011904Y-63556819D01*
X46011904Y-63556819D02*
X46049999Y-63633009D01*
X46049999Y-63633009D02*
X46126189Y-63709200D01*
X46126189Y-63709200D02*
X46240475Y-63747295D01*
X46240475Y-63747295D02*
X46430951Y-63747295D01*
X45516666Y-63290152D02*
X45592856Y-63252057D01*
X45592856Y-63252057D02*
X45630951Y-63213961D01*
X45630951Y-63213961D02*
X45669047Y-63137771D01*
X45669047Y-63137771D02*
X45669047Y-63099676D01*
X45669047Y-63099676D02*
X45630951Y-63023485D01*
X45630951Y-63023485D02*
X45592856Y-62985390D01*
X45592856Y-62985390D02*
X45516666Y-62947295D01*
X45516666Y-62947295D02*
X45364285Y-62947295D01*
X45364285Y-62947295D02*
X45288094Y-62985390D01*
X45288094Y-62985390D02*
X45249999Y-63023485D01*
X45249999Y-63023485D02*
X45211904Y-63099676D01*
X45211904Y-63099676D02*
X45211904Y-63137771D01*
X45211904Y-63137771D02*
X45249999Y-63213961D01*
X45249999Y-63213961D02*
X45288094Y-63252057D01*
X45288094Y-63252057D02*
X45364285Y-63290152D01*
X45364285Y-63290152D02*
X45516666Y-63290152D01*
X45516666Y-63290152D02*
X45592856Y-63328247D01*
X45592856Y-63328247D02*
X45630951Y-63366342D01*
X45630951Y-63366342D02*
X45669047Y-63442533D01*
X45669047Y-63442533D02*
X45669047Y-63594914D01*
X45669047Y-63594914D02*
X45630951Y-63671104D01*
X45630951Y-63671104D02*
X45592856Y-63709200D01*
X45592856Y-63709200D02*
X45516666Y-63747295D01*
X45516666Y-63747295D02*
X45364285Y-63747295D01*
X45364285Y-63747295D02*
X45288094Y-63709200D01*
X45288094Y-63709200D02*
X45249999Y-63671104D01*
X45249999Y-63671104D02*
X45211904Y-63594914D01*
X45211904Y-63594914D02*
X45211904Y-63442533D01*
X45211904Y-63442533D02*
X45249999Y-63366342D01*
X45249999Y-63366342D02*
X45288094Y-63328247D01*
X45288094Y-63328247D02*
X45364285Y-63290152D01*
X101802380Y-60747295D02*
X102183332Y-60747295D01*
X102183332Y-60747295D02*
X102183332Y-59947295D01*
X101535713Y-60328247D02*
X101269047Y-60328247D01*
X101154761Y-60747295D02*
X101535713Y-60747295D01*
X101535713Y-60747295D02*
X101535713Y-59947295D01*
X101535713Y-59947295D02*
X101154761Y-59947295D01*
X100811903Y-60747295D02*
X100811903Y-59947295D01*
X100811903Y-59947295D02*
X100621427Y-59947295D01*
X100621427Y-59947295D02*
X100507141Y-59985390D01*
X100507141Y-59985390D02*
X100430951Y-60061580D01*
X100430951Y-60061580D02*
X100392856Y-60137771D01*
X100392856Y-60137771D02*
X100354760Y-60290152D01*
X100354760Y-60290152D02*
X100354760Y-60404438D01*
X100354760Y-60404438D02*
X100392856Y-60556819D01*
X100392856Y-60556819D02*
X100430951Y-60633009D01*
X100430951Y-60633009D02*
X100507141Y-60709200D01*
X100507141Y-60709200D02*
X100621427Y-60747295D01*
X100621427Y-60747295D02*
X100811903Y-60747295D01*
X99592856Y-60747295D02*
X100049999Y-60747295D01*
X99821427Y-60747295D02*
X99821427Y-59947295D01*
X99821427Y-59947295D02*
X99897618Y-60061580D01*
X99897618Y-60061580D02*
X99973808Y-60137771D01*
X99973808Y-60137771D02*
X100049999Y-60175866D01*
X98830951Y-60747295D02*
X99288094Y-60747295D01*
X99059522Y-60747295D02*
X99059522Y-59947295D01*
X99059522Y-59947295D02*
X99135713Y-60061580D01*
X99135713Y-60061580D02*
X99211903Y-60137771D01*
X99211903Y-60137771D02*
X99288094Y-60175866D01*
X124892884Y-100396190D02*
X125047831Y-100048173D01*
X125047831Y-100048173D02*
X124316995Y-99722784D01*
X124401602Y-100469360D02*
X124293139Y-100712972D01*
X124629474Y-100987820D02*
X124784421Y-100639802D01*
X124784421Y-100639802D02*
X124053585Y-100314413D01*
X124053585Y-100314413D02*
X123898637Y-100662430D01*
X124490021Y-101301036D02*
X123759185Y-100975646D01*
X123759185Y-100975646D02*
X123681711Y-101149655D01*
X123681711Y-101149655D02*
X123670028Y-101269555D01*
X123670028Y-101269555D02*
X123708642Y-101370148D01*
X123708642Y-101370148D02*
X123762751Y-101435939D01*
X123762751Y-101435939D02*
X123886463Y-101532720D01*
X123886463Y-101532720D02*
X123990869Y-101579204D01*
X123990869Y-101579204D02*
X124145570Y-101606381D01*
X124145570Y-101606381D02*
X124230668Y-101602569D01*
X124230668Y-101602569D02*
X124331261Y-101563955D01*
X124331261Y-101563955D02*
X124412547Y-101475044D01*
X124412547Y-101475044D02*
X124490021Y-101301036D01*
X123518893Y-101702670D02*
X123468597Y-101721977D01*
X123468597Y-101721977D02*
X123402806Y-101776086D01*
X123402806Y-101776086D02*
X123325332Y-101950095D01*
X123325332Y-101950095D02*
X123329144Y-102035193D01*
X123329144Y-102035193D02*
X123348451Y-102085490D01*
X123348451Y-102085490D02*
X123402560Y-102151281D01*
X123402560Y-102151281D02*
X123472164Y-102182270D01*
X123472164Y-102182270D02*
X123592064Y-102193953D01*
X123592064Y-102193953D02*
X124195621Y-101962269D01*
X124195621Y-101962269D02*
X123994190Y-102414691D01*
X123684295Y-103110726D02*
X123870232Y-102693105D01*
X123777263Y-102901916D02*
X123046427Y-102576526D01*
X123046427Y-102576526D02*
X123181822Y-102553407D01*
X123181822Y-102553407D02*
X123282415Y-102514793D01*
X123282415Y-102514793D02*
X123348206Y-102460684D01*
D12*
X95394522Y-95522664D02*
X95432618Y-95560760D01*
X95432618Y-95560760D02*
X95546903Y-95598855D01*
X95546903Y-95598855D02*
X95623094Y-95598855D01*
X95623094Y-95598855D02*
X95737380Y-95560760D01*
X95737380Y-95560760D02*
X95813570Y-95484569D01*
X95813570Y-95484569D02*
X95851665Y-95408379D01*
X95851665Y-95408379D02*
X95889761Y-95255998D01*
X95889761Y-95255998D02*
X95889761Y-95141712D01*
X95889761Y-95141712D02*
X95851665Y-94989331D01*
X95851665Y-94989331D02*
X95813570Y-94913140D01*
X95813570Y-94913140D02*
X95737380Y-94836950D01*
X95737380Y-94836950D02*
X95623094Y-94798855D01*
X95623094Y-94798855D02*
X95546903Y-94798855D01*
X95546903Y-94798855D02*
X95432618Y-94836950D01*
X95432618Y-94836950D02*
X95394522Y-94875045D01*
X95051665Y-95598855D02*
X95051665Y-94798855D01*
X95051665Y-95179807D02*
X94594522Y-95179807D01*
X94594522Y-95598855D02*
X94594522Y-94798855D01*
X93794523Y-95598855D02*
X94251666Y-95598855D01*
X94023094Y-95598855D02*
X94023094Y-94798855D01*
X94023094Y-94798855D02*
X94099285Y-94913140D01*
X94099285Y-94913140D02*
X94175475Y-94989331D01*
X94175475Y-94989331D02*
X94251666Y-95027426D01*
X93413570Y-95598855D02*
X93261189Y-95598855D01*
X93261189Y-95598855D02*
X93184999Y-95560760D01*
X93184999Y-95560760D02*
X93146903Y-95522664D01*
X93146903Y-95522664D02*
X93070713Y-95408379D01*
X93070713Y-95408379D02*
X93032618Y-95255998D01*
X93032618Y-95255998D02*
X93032618Y-94951236D01*
X93032618Y-94951236D02*
X93070713Y-94875045D01*
X93070713Y-94875045D02*
X93108808Y-94836950D01*
X93108808Y-94836950D02*
X93184999Y-94798855D01*
X93184999Y-94798855D02*
X93337380Y-94798855D01*
X93337380Y-94798855D02*
X93413570Y-94836950D01*
X93413570Y-94836950D02*
X93451665Y-94875045D01*
X93451665Y-94875045D02*
X93489761Y-94951236D01*
X93489761Y-94951236D02*
X93489761Y-95141712D01*
X93489761Y-95141712D02*
X93451665Y-95217902D01*
X93451665Y-95217902D02*
X93413570Y-95255998D01*
X93413570Y-95255998D02*
X93337380Y-95294093D01*
X93337380Y-95294093D02*
X93184999Y-95294093D01*
X93184999Y-95294093D02*
X93108808Y-95255998D01*
X93108808Y-95255998D02*
X93070713Y-95217902D01*
X93070713Y-95217902D02*
X93032618Y-95141712D01*
D11*
X102636009Y-71250714D02*
X101636009Y-71250714D01*
X101636009Y-71250714D02*
X101636009Y-71488809D01*
X101636009Y-71488809D02*
X101683628Y-71631666D01*
X101683628Y-71631666D02*
X101778866Y-71726904D01*
X101778866Y-71726904D02*
X101874104Y-71774523D01*
X101874104Y-71774523D02*
X102064580Y-71822142D01*
X102064580Y-71822142D02*
X102207437Y-71822142D01*
X102207437Y-71822142D02*
X102397913Y-71774523D01*
X102397913Y-71774523D02*
X102493151Y-71726904D01*
X102493151Y-71726904D02*
X102588390Y-71631666D01*
X102588390Y-71631666D02*
X102636009Y-71488809D01*
X102636009Y-71488809D02*
X102636009Y-71250714D01*
X102636009Y-72774523D02*
X102636009Y-72203095D01*
X102636009Y-72488809D02*
X101636009Y-72488809D01*
X101636009Y-72488809D02*
X101778866Y-72393571D01*
X101778866Y-72393571D02*
X101874104Y-72298333D01*
X101874104Y-72298333D02*
X101921723Y-72203095D01*
X102636009Y-73726904D02*
X102636009Y-73155476D01*
X102636009Y-73441190D02*
X101636009Y-73441190D01*
X101636009Y-73441190D02*
X101778866Y-73345952D01*
X101778866Y-73345952D02*
X101874104Y-73250714D01*
X101874104Y-73250714D02*
X101921723Y-73155476D01*
D12*
X103844522Y-60322664D02*
X103882618Y-60360760D01*
X103882618Y-60360760D02*
X103996903Y-60398855D01*
X103996903Y-60398855D02*
X104073094Y-60398855D01*
X104073094Y-60398855D02*
X104187380Y-60360760D01*
X104187380Y-60360760D02*
X104263570Y-60284569D01*
X104263570Y-60284569D02*
X104301665Y-60208379D01*
X104301665Y-60208379D02*
X104339761Y-60055998D01*
X104339761Y-60055998D02*
X104339761Y-59941712D01*
X104339761Y-59941712D02*
X104301665Y-59789331D01*
X104301665Y-59789331D02*
X104263570Y-59713140D01*
X104263570Y-59713140D02*
X104187380Y-59636950D01*
X104187380Y-59636950D02*
X104073094Y-59598855D01*
X104073094Y-59598855D02*
X103996903Y-59598855D01*
X103996903Y-59598855D02*
X103882618Y-59636950D01*
X103882618Y-59636950D02*
X103844522Y-59675045D01*
X103501665Y-60398855D02*
X103501665Y-59598855D01*
X103501665Y-59979807D02*
X103044522Y-59979807D01*
X103044522Y-60398855D02*
X103044522Y-59598855D01*
X102244523Y-60398855D02*
X102701666Y-60398855D01*
X102473094Y-60398855D02*
X102473094Y-59598855D01*
X102473094Y-59598855D02*
X102549285Y-59713140D01*
X102549285Y-59713140D02*
X102625475Y-59789331D01*
X102625475Y-59789331D02*
X102701666Y-59827426D01*
X101482618Y-60398855D02*
X101939761Y-60398855D01*
X101711189Y-60398855D02*
X101711189Y-59598855D01*
X101711189Y-59598855D02*
X101787380Y-59713140D01*
X101787380Y-59713140D02*
X101863570Y-59789331D01*
X101863570Y-59789331D02*
X101939761Y-59827426D01*
D11*
X115061428Y-50327295D02*
X115442380Y-50327295D01*
X115442380Y-50327295D02*
X115442380Y-49527295D01*
X114794761Y-49908247D02*
X114528095Y-49908247D01*
X114413809Y-50327295D02*
X114794761Y-50327295D01*
X114794761Y-50327295D02*
X114794761Y-49527295D01*
X114794761Y-49527295D02*
X114413809Y-49527295D01*
X114070951Y-50327295D02*
X114070951Y-49527295D01*
X114070951Y-49527295D02*
X113880475Y-49527295D01*
X113880475Y-49527295D02*
X113766189Y-49565390D01*
X113766189Y-49565390D02*
X113689999Y-49641580D01*
X113689999Y-49641580D02*
X113651904Y-49717771D01*
X113651904Y-49717771D02*
X113613808Y-49870152D01*
X113613808Y-49870152D02*
X113613808Y-49984438D01*
X113613808Y-49984438D02*
X113651904Y-50136819D01*
X113651904Y-50136819D02*
X113689999Y-50213009D01*
X113689999Y-50213009D02*
X113766189Y-50289200D01*
X113766189Y-50289200D02*
X113880475Y-50327295D01*
X113880475Y-50327295D02*
X114070951Y-50327295D01*
X112851904Y-50327295D02*
X113309047Y-50327295D01*
X113080475Y-50327295D02*
X113080475Y-49527295D01*
X113080475Y-49527295D02*
X113156666Y-49641580D01*
X113156666Y-49641580D02*
X113232856Y-49717771D01*
X113232856Y-49717771D02*
X113309047Y-49755866D01*
X135487605Y-113054328D02*
X135550476Y-113030194D01*
X135550476Y-113030194D02*
X135652083Y-112919056D01*
X135652083Y-112919056D02*
X135690820Y-112832051D01*
X135690820Y-112832051D02*
X135705423Y-112682177D01*
X135705423Y-112682177D02*
X135657155Y-112556435D01*
X135657155Y-112556435D02*
X135589519Y-112474196D01*
X135589519Y-112474196D02*
X135434879Y-112353221D01*
X135434879Y-112353221D02*
X135304373Y-112295115D01*
X135304373Y-112295115D02*
X135110996Y-112261144D01*
X135110996Y-112261144D02*
X135004623Y-112265909D01*
X135004623Y-112265909D02*
X134878882Y-112314177D01*
X134878882Y-112314177D02*
X134777274Y-112425315D01*
X134777274Y-112425315D02*
X134738537Y-112512319D01*
X134738537Y-112512319D02*
X134723934Y-112662194D01*
X134723934Y-112662194D02*
X134748068Y-112725065D01*
X135400294Y-113484584D02*
X134486748Y-113077847D01*
X134921770Y-113271531D02*
X134689349Y-113793557D01*
X135167873Y-114006610D02*
X134254327Y-113599873D01*
X134167016Y-114030130D02*
X134104145Y-114054263D01*
X134104145Y-114054263D02*
X134021906Y-114121899D01*
X134021906Y-114121899D02*
X133925064Y-114339410D01*
X133925064Y-114339410D02*
X133929830Y-114445783D01*
X133929830Y-114445783D02*
X133953963Y-114508653D01*
X133953963Y-114508653D02*
X134021599Y-114590892D01*
X134021599Y-114590892D02*
X134108604Y-114629629D01*
X134108604Y-114629629D02*
X134258478Y-114644232D01*
X134258478Y-114644232D02*
X135012925Y-114354627D01*
X135012925Y-114354627D02*
X134761136Y-114920155D01*
X134373768Y-115790199D02*
X134606189Y-115268173D01*
X134489978Y-115529186D02*
X133576433Y-115122449D01*
X133576433Y-115122449D02*
X133745676Y-115093550D01*
X133745676Y-115093550D02*
X133871417Y-115045282D01*
X133871417Y-115045282D02*
X133953656Y-114977647D01*
D12*
X85844522Y-74322664D02*
X85882618Y-74360760D01*
X85882618Y-74360760D02*
X85996903Y-74398855D01*
X85996903Y-74398855D02*
X86073094Y-74398855D01*
X86073094Y-74398855D02*
X86187380Y-74360760D01*
X86187380Y-74360760D02*
X86263570Y-74284569D01*
X86263570Y-74284569D02*
X86301665Y-74208379D01*
X86301665Y-74208379D02*
X86339761Y-74055998D01*
X86339761Y-74055998D02*
X86339761Y-73941712D01*
X86339761Y-73941712D02*
X86301665Y-73789331D01*
X86301665Y-73789331D02*
X86263570Y-73713140D01*
X86263570Y-73713140D02*
X86187380Y-73636950D01*
X86187380Y-73636950D02*
X86073094Y-73598855D01*
X86073094Y-73598855D02*
X85996903Y-73598855D01*
X85996903Y-73598855D02*
X85882618Y-73636950D01*
X85882618Y-73636950D02*
X85844522Y-73675045D01*
X85501665Y-74398855D02*
X85501665Y-73598855D01*
X85501665Y-73979807D02*
X85044522Y-73979807D01*
X85044522Y-74398855D02*
X85044522Y-73598855D01*
X84244523Y-74398855D02*
X84701666Y-74398855D01*
X84473094Y-74398855D02*
X84473094Y-73598855D01*
X84473094Y-73598855D02*
X84549285Y-73713140D01*
X84549285Y-73713140D02*
X84625475Y-73789331D01*
X84625475Y-73789331D02*
X84701666Y-73827426D01*
X83520713Y-73598855D02*
X83901665Y-73598855D01*
X83901665Y-73598855D02*
X83939761Y-73979807D01*
X83939761Y-73979807D02*
X83901665Y-73941712D01*
X83901665Y-73941712D02*
X83825475Y-73903617D01*
X83825475Y-73903617D02*
X83634999Y-73903617D01*
X83634999Y-73903617D02*
X83558808Y-73941712D01*
X83558808Y-73941712D02*
X83520713Y-73979807D01*
X83520713Y-73979807D02*
X83482618Y-74055998D01*
X83482618Y-74055998D02*
X83482618Y-74246474D01*
X83482618Y-74246474D02*
X83520713Y-74322664D01*
X83520713Y-74322664D02*
X83558808Y-74360760D01*
X83558808Y-74360760D02*
X83634999Y-74398855D01*
X83634999Y-74398855D02*
X83825475Y-74398855D01*
X83825475Y-74398855D02*
X83901665Y-74360760D01*
X83901665Y-74360760D02*
X83939761Y-74322664D01*
X31463570Y-63322664D02*
X31501666Y-63360760D01*
X31501666Y-63360760D02*
X31615951Y-63398855D01*
X31615951Y-63398855D02*
X31692142Y-63398855D01*
X31692142Y-63398855D02*
X31806428Y-63360760D01*
X31806428Y-63360760D02*
X31882618Y-63284569D01*
X31882618Y-63284569D02*
X31920713Y-63208379D01*
X31920713Y-63208379D02*
X31958809Y-63055998D01*
X31958809Y-63055998D02*
X31958809Y-62941712D01*
X31958809Y-62941712D02*
X31920713Y-62789331D01*
X31920713Y-62789331D02*
X31882618Y-62713140D01*
X31882618Y-62713140D02*
X31806428Y-62636950D01*
X31806428Y-62636950D02*
X31692142Y-62598855D01*
X31692142Y-62598855D02*
X31615951Y-62598855D01*
X31615951Y-62598855D02*
X31501666Y-62636950D01*
X31501666Y-62636950D02*
X31463570Y-62675045D01*
X31120713Y-63398855D02*
X31120713Y-62598855D01*
X31120713Y-62979807D02*
X30663570Y-62979807D01*
X30663570Y-63398855D02*
X30663570Y-62598855D01*
X30358809Y-62598855D02*
X29825475Y-62598855D01*
X29825475Y-62598855D02*
X30168333Y-63398855D01*
X49463570Y-46322664D02*
X49501666Y-46360760D01*
X49501666Y-46360760D02*
X49615951Y-46398855D01*
X49615951Y-46398855D02*
X49692142Y-46398855D01*
X49692142Y-46398855D02*
X49806428Y-46360760D01*
X49806428Y-46360760D02*
X49882618Y-46284569D01*
X49882618Y-46284569D02*
X49920713Y-46208379D01*
X49920713Y-46208379D02*
X49958809Y-46055998D01*
X49958809Y-46055998D02*
X49958809Y-45941712D01*
X49958809Y-45941712D02*
X49920713Y-45789331D01*
X49920713Y-45789331D02*
X49882618Y-45713140D01*
X49882618Y-45713140D02*
X49806428Y-45636950D01*
X49806428Y-45636950D02*
X49692142Y-45598855D01*
X49692142Y-45598855D02*
X49615951Y-45598855D01*
X49615951Y-45598855D02*
X49501666Y-45636950D01*
X49501666Y-45636950D02*
X49463570Y-45675045D01*
X49120713Y-46398855D02*
X49120713Y-45598855D01*
X49120713Y-45979807D02*
X48663570Y-45979807D01*
X48663570Y-46398855D02*
X48663570Y-45598855D01*
X47901666Y-45598855D02*
X48282618Y-45598855D01*
X48282618Y-45598855D02*
X48320714Y-45979807D01*
X48320714Y-45979807D02*
X48282618Y-45941712D01*
X48282618Y-45941712D02*
X48206428Y-45903617D01*
X48206428Y-45903617D02*
X48015952Y-45903617D01*
X48015952Y-45903617D02*
X47939761Y-45941712D01*
X47939761Y-45941712D02*
X47901666Y-45979807D01*
X47901666Y-45979807D02*
X47863571Y-46055998D01*
X47863571Y-46055998D02*
X47863571Y-46246474D01*
X47863571Y-46246474D02*
X47901666Y-46322664D01*
X47901666Y-46322664D02*
X47939761Y-46360760D01*
X47939761Y-46360760D02*
X48015952Y-46398855D01*
X48015952Y-46398855D02*
X48206428Y-46398855D01*
X48206428Y-46398855D02*
X48282618Y-46360760D01*
X48282618Y-46360760D02*
X48320714Y-46322664D01*
D11*
X43442380Y-85827295D02*
X43823332Y-85827295D01*
X43823332Y-85827295D02*
X43823332Y-85027295D01*
X43175713Y-85408247D02*
X42909047Y-85408247D01*
X42794761Y-85827295D02*
X43175713Y-85827295D01*
X43175713Y-85827295D02*
X43175713Y-85027295D01*
X43175713Y-85027295D02*
X42794761Y-85027295D01*
X42451903Y-85827295D02*
X42451903Y-85027295D01*
X42451903Y-85027295D02*
X42261427Y-85027295D01*
X42261427Y-85027295D02*
X42147141Y-85065390D01*
X42147141Y-85065390D02*
X42070951Y-85141580D01*
X42070951Y-85141580D02*
X42032856Y-85217771D01*
X42032856Y-85217771D02*
X41994760Y-85370152D01*
X41994760Y-85370152D02*
X41994760Y-85484438D01*
X41994760Y-85484438D02*
X42032856Y-85636819D01*
X42032856Y-85636819D02*
X42070951Y-85713009D01*
X42070951Y-85713009D02*
X42147141Y-85789200D01*
X42147141Y-85789200D02*
X42261427Y-85827295D01*
X42261427Y-85827295D02*
X42451903Y-85827295D01*
X41232856Y-85827295D02*
X41689999Y-85827295D01*
X41461427Y-85827295D02*
X41461427Y-85027295D01*
X41461427Y-85027295D02*
X41537618Y-85141580D01*
X41537618Y-85141580D02*
X41613808Y-85217771D01*
X41613808Y-85217771D02*
X41689999Y-85255866D01*
X40966189Y-85027295D02*
X40432855Y-85027295D01*
X40432855Y-85027295D02*
X40775713Y-85827295D01*
X61061428Y-48827295D02*
X61442380Y-48827295D01*
X61442380Y-48827295D02*
X61442380Y-48027295D01*
X60794761Y-48408247D02*
X60528095Y-48408247D01*
X60413809Y-48827295D02*
X60794761Y-48827295D01*
X60794761Y-48827295D02*
X60794761Y-48027295D01*
X60794761Y-48027295D02*
X60413809Y-48027295D01*
X60070951Y-48827295D02*
X60070951Y-48027295D01*
X60070951Y-48027295D02*
X59880475Y-48027295D01*
X59880475Y-48027295D02*
X59766189Y-48065390D01*
X59766189Y-48065390D02*
X59689999Y-48141580D01*
X59689999Y-48141580D02*
X59651904Y-48217771D01*
X59651904Y-48217771D02*
X59613808Y-48370152D01*
X59613808Y-48370152D02*
X59613808Y-48484438D01*
X59613808Y-48484438D02*
X59651904Y-48636819D01*
X59651904Y-48636819D02*
X59689999Y-48713009D01*
X59689999Y-48713009D02*
X59766189Y-48789200D01*
X59766189Y-48789200D02*
X59880475Y-48827295D01*
X59880475Y-48827295D02*
X60070951Y-48827295D01*
X58928094Y-48293961D02*
X58928094Y-48827295D01*
X59118570Y-47989200D02*
X59309047Y-48560628D01*
X59309047Y-48560628D02*
X58813808Y-48560628D01*
X30636009Y-74726905D02*
X29636009Y-74726905D01*
X29636009Y-74726905D02*
X29636009Y-74965000D01*
X29636009Y-74965000D02*
X29683628Y-75107857D01*
X29683628Y-75107857D02*
X29778866Y-75203095D01*
X29778866Y-75203095D02*
X29874104Y-75250714D01*
X29874104Y-75250714D02*
X30064580Y-75298333D01*
X30064580Y-75298333D02*
X30207437Y-75298333D01*
X30207437Y-75298333D02*
X30397913Y-75250714D01*
X30397913Y-75250714D02*
X30493151Y-75203095D01*
X30493151Y-75203095D02*
X30588390Y-75107857D01*
X30588390Y-75107857D02*
X30636009Y-74965000D01*
X30636009Y-74965000D02*
X30636009Y-74726905D01*
X29636009Y-75631667D02*
X29636009Y-76298333D01*
X29636009Y-76298333D02*
X30636009Y-75869762D01*
D12*
X67844522Y-77322664D02*
X67882618Y-77360760D01*
X67882618Y-77360760D02*
X67996903Y-77398855D01*
X67996903Y-77398855D02*
X68073094Y-77398855D01*
X68073094Y-77398855D02*
X68187380Y-77360760D01*
X68187380Y-77360760D02*
X68263570Y-77284569D01*
X68263570Y-77284569D02*
X68301665Y-77208379D01*
X68301665Y-77208379D02*
X68339761Y-77055998D01*
X68339761Y-77055998D02*
X68339761Y-76941712D01*
X68339761Y-76941712D02*
X68301665Y-76789331D01*
X68301665Y-76789331D02*
X68263570Y-76713140D01*
X68263570Y-76713140D02*
X68187380Y-76636950D01*
X68187380Y-76636950D02*
X68073094Y-76598855D01*
X68073094Y-76598855D02*
X67996903Y-76598855D01*
X67996903Y-76598855D02*
X67882618Y-76636950D01*
X67882618Y-76636950D02*
X67844522Y-76675045D01*
X67501665Y-77398855D02*
X67501665Y-76598855D01*
X67501665Y-76979807D02*
X67044522Y-76979807D01*
X67044522Y-77398855D02*
X67044522Y-76598855D01*
X66244523Y-77398855D02*
X66701666Y-77398855D01*
X66473094Y-77398855D02*
X66473094Y-76598855D01*
X66473094Y-76598855D02*
X66549285Y-76713140D01*
X66549285Y-76713140D02*
X66625475Y-76789331D01*
X66625475Y-76789331D02*
X66701666Y-76827426D01*
X65558808Y-76598855D02*
X65711189Y-76598855D01*
X65711189Y-76598855D02*
X65787380Y-76636950D01*
X65787380Y-76636950D02*
X65825475Y-76675045D01*
X65825475Y-76675045D02*
X65901665Y-76789331D01*
X65901665Y-76789331D02*
X65939761Y-76941712D01*
X65939761Y-76941712D02*
X65939761Y-77246474D01*
X65939761Y-77246474D02*
X65901665Y-77322664D01*
X65901665Y-77322664D02*
X65863570Y-77360760D01*
X65863570Y-77360760D02*
X65787380Y-77398855D01*
X65787380Y-77398855D02*
X65634999Y-77398855D01*
X65634999Y-77398855D02*
X65558808Y-77360760D01*
X65558808Y-77360760D02*
X65520713Y-77322664D01*
X65520713Y-77322664D02*
X65482618Y-77246474D01*
X65482618Y-77246474D02*
X65482618Y-77055998D01*
X65482618Y-77055998D02*
X65520713Y-76979807D01*
X65520713Y-76979807D02*
X65558808Y-76941712D01*
X65558808Y-76941712D02*
X65634999Y-76903617D01*
X65634999Y-76903617D02*
X65787380Y-76903617D01*
X65787380Y-76903617D02*
X65863570Y-76941712D01*
X65863570Y-76941712D02*
X65901665Y-76979807D01*
X65901665Y-76979807D02*
X65939761Y-77055998D01*
X49463570Y-63322664D02*
X49501666Y-63360760D01*
X49501666Y-63360760D02*
X49615951Y-63398855D01*
X49615951Y-63398855D02*
X49692142Y-63398855D01*
X49692142Y-63398855D02*
X49806428Y-63360760D01*
X49806428Y-63360760D02*
X49882618Y-63284569D01*
X49882618Y-63284569D02*
X49920713Y-63208379D01*
X49920713Y-63208379D02*
X49958809Y-63055998D01*
X49958809Y-63055998D02*
X49958809Y-62941712D01*
X49958809Y-62941712D02*
X49920713Y-62789331D01*
X49920713Y-62789331D02*
X49882618Y-62713140D01*
X49882618Y-62713140D02*
X49806428Y-62636950D01*
X49806428Y-62636950D02*
X49692142Y-62598855D01*
X49692142Y-62598855D02*
X49615951Y-62598855D01*
X49615951Y-62598855D02*
X49501666Y-62636950D01*
X49501666Y-62636950D02*
X49463570Y-62675045D01*
X49120713Y-63398855D02*
X49120713Y-62598855D01*
X49120713Y-62979807D02*
X48663570Y-62979807D01*
X48663570Y-63398855D02*
X48663570Y-62598855D01*
X48168333Y-62941712D02*
X48244523Y-62903617D01*
X48244523Y-62903617D02*
X48282618Y-62865521D01*
X48282618Y-62865521D02*
X48320714Y-62789331D01*
X48320714Y-62789331D02*
X48320714Y-62751236D01*
X48320714Y-62751236D02*
X48282618Y-62675045D01*
X48282618Y-62675045D02*
X48244523Y-62636950D01*
X48244523Y-62636950D02*
X48168333Y-62598855D01*
X48168333Y-62598855D02*
X48015952Y-62598855D01*
X48015952Y-62598855D02*
X47939761Y-62636950D01*
X47939761Y-62636950D02*
X47901666Y-62675045D01*
X47901666Y-62675045D02*
X47863571Y-62751236D01*
X47863571Y-62751236D02*
X47863571Y-62789331D01*
X47863571Y-62789331D02*
X47901666Y-62865521D01*
X47901666Y-62865521D02*
X47939761Y-62903617D01*
X47939761Y-62903617D02*
X48015952Y-62941712D01*
X48015952Y-62941712D02*
X48168333Y-62941712D01*
X48168333Y-62941712D02*
X48244523Y-62979807D01*
X48244523Y-62979807D02*
X48282618Y-63017902D01*
X48282618Y-63017902D02*
X48320714Y-63094093D01*
X48320714Y-63094093D02*
X48320714Y-63246474D01*
X48320714Y-63246474D02*
X48282618Y-63322664D01*
X48282618Y-63322664D02*
X48244523Y-63360760D01*
X48244523Y-63360760D02*
X48168333Y-63398855D01*
X48168333Y-63398855D02*
X48015952Y-63398855D01*
X48015952Y-63398855D02*
X47939761Y-63360760D01*
X47939761Y-63360760D02*
X47901666Y-63322664D01*
X47901666Y-63322664D02*
X47863571Y-63246474D01*
X47863571Y-63246474D02*
X47863571Y-63094093D01*
X47863571Y-63094093D02*
X47901666Y-63017902D01*
X47901666Y-63017902D02*
X47939761Y-62979807D01*
X47939761Y-62979807D02*
X48015952Y-62941712D01*
D11*
X25442380Y-85827295D02*
X25823332Y-85827295D01*
X25823332Y-85827295D02*
X25823332Y-85027295D01*
X25175713Y-85408247D02*
X24909047Y-85408247D01*
X24794761Y-85827295D02*
X25175713Y-85827295D01*
X25175713Y-85827295D02*
X25175713Y-85027295D01*
X25175713Y-85027295D02*
X24794761Y-85027295D01*
X24451903Y-85827295D02*
X24451903Y-85027295D01*
X24451903Y-85027295D02*
X24261427Y-85027295D01*
X24261427Y-85027295D02*
X24147141Y-85065390D01*
X24147141Y-85065390D02*
X24070951Y-85141580D01*
X24070951Y-85141580D02*
X24032856Y-85217771D01*
X24032856Y-85217771D02*
X23994760Y-85370152D01*
X23994760Y-85370152D02*
X23994760Y-85484438D01*
X23994760Y-85484438D02*
X24032856Y-85636819D01*
X24032856Y-85636819D02*
X24070951Y-85713009D01*
X24070951Y-85713009D02*
X24147141Y-85789200D01*
X24147141Y-85789200D02*
X24261427Y-85827295D01*
X24261427Y-85827295D02*
X24451903Y-85827295D01*
X23232856Y-85827295D02*
X23689999Y-85827295D01*
X23461427Y-85827295D02*
X23461427Y-85027295D01*
X23461427Y-85027295D02*
X23537618Y-85141580D01*
X23537618Y-85141580D02*
X23613808Y-85217771D01*
X23613808Y-85217771D02*
X23689999Y-85255866D01*
X22775713Y-85370152D02*
X22851903Y-85332057D01*
X22851903Y-85332057D02*
X22889998Y-85293961D01*
X22889998Y-85293961D02*
X22928094Y-85217771D01*
X22928094Y-85217771D02*
X22928094Y-85179676D01*
X22928094Y-85179676D02*
X22889998Y-85103485D01*
X22889998Y-85103485D02*
X22851903Y-85065390D01*
X22851903Y-85065390D02*
X22775713Y-85027295D01*
X22775713Y-85027295D02*
X22623332Y-85027295D01*
X22623332Y-85027295D02*
X22547141Y-85065390D01*
X22547141Y-85065390D02*
X22509046Y-85103485D01*
X22509046Y-85103485D02*
X22470951Y-85179676D01*
X22470951Y-85179676D02*
X22470951Y-85217771D01*
X22470951Y-85217771D02*
X22509046Y-85293961D01*
X22509046Y-85293961D02*
X22547141Y-85332057D01*
X22547141Y-85332057D02*
X22623332Y-85370152D01*
X22623332Y-85370152D02*
X22775713Y-85370152D01*
X22775713Y-85370152D02*
X22851903Y-85408247D01*
X22851903Y-85408247D02*
X22889998Y-85446342D01*
X22889998Y-85446342D02*
X22928094Y-85522533D01*
X22928094Y-85522533D02*
X22928094Y-85674914D01*
X22928094Y-85674914D02*
X22889998Y-85751104D01*
X22889998Y-85751104D02*
X22851903Y-85789200D01*
X22851903Y-85789200D02*
X22775713Y-85827295D01*
X22775713Y-85827295D02*
X22623332Y-85827295D01*
X22623332Y-85827295D02*
X22547141Y-85789200D01*
X22547141Y-85789200D02*
X22509046Y-85751104D01*
X22509046Y-85751104D02*
X22470951Y-85674914D01*
X22470951Y-85674914D02*
X22470951Y-85522533D01*
X22470951Y-85522533D02*
X22509046Y-85446342D01*
X22509046Y-85446342D02*
X22547141Y-85408247D01*
X22547141Y-85408247D02*
X22623332Y-85370152D01*
X113084279Y-109325631D02*
X112106131Y-109117719D01*
X112106131Y-109117719D02*
X112056628Y-109350612D01*
X112056628Y-109350612D02*
X112073505Y-109500248D01*
X112073505Y-109500248D02*
X112146861Y-109613206D01*
X112146861Y-109613206D02*
X112230117Y-109679585D01*
X112230117Y-109679585D02*
X112406531Y-109765766D01*
X112406531Y-109765766D02*
X112546266Y-109795467D01*
X112546266Y-109795467D02*
X112742480Y-109788491D01*
X112742480Y-109788491D02*
X112845538Y-109761714D01*
X112845538Y-109761714D02*
X112958496Y-109688358D01*
X112958496Y-109688358D02*
X113034776Y-109558523D01*
X113034776Y-109558523D02*
X113084279Y-109325631D01*
X112001277Y-110069090D02*
X111944798Y-110105767D01*
X111944798Y-110105767D02*
X111878418Y-110189024D01*
X111878418Y-110189024D02*
X111828916Y-110421916D01*
X111828916Y-110421916D02*
X111855693Y-110524974D01*
X111855693Y-110524974D02*
X111892371Y-110581453D01*
X111892371Y-110581453D02*
X111975627Y-110647832D01*
X111975627Y-110647832D02*
X112068784Y-110667633D01*
X112068784Y-110667633D02*
X112218420Y-110650756D01*
X112218420Y-110650756D02*
X112896168Y-110210622D01*
X112896168Y-110210622D02*
X112767461Y-110816142D01*
X111660606Y-111213750D02*
X111640805Y-111306907D01*
X111640805Y-111306907D02*
X111667582Y-111409964D01*
X111667582Y-111409964D02*
X111704260Y-111466443D01*
X111704260Y-111466443D02*
X111787517Y-111532823D01*
X111787517Y-111532823D02*
X111963930Y-111619004D01*
X111963930Y-111619004D02*
X112196822Y-111668506D01*
X112196822Y-111668506D02*
X112393037Y-111661530D01*
X112393037Y-111661530D02*
X112496094Y-111634753D01*
X112496094Y-111634753D02*
X112552573Y-111598075D01*
X112552573Y-111598075D02*
X112618953Y-111514819D01*
X112618953Y-111514819D02*
X112638754Y-111421662D01*
X112638754Y-111421662D02*
X112611976Y-111318604D01*
X112611976Y-111318604D02*
X112575299Y-111262125D01*
X112575299Y-111262125D02*
X112492042Y-111195746D01*
X112492042Y-111195746D02*
X112315629Y-111109565D01*
X112315629Y-111109565D02*
X112082737Y-111060062D01*
X112082737Y-111060062D02*
X111886522Y-111067038D01*
X111886522Y-111067038D02*
X111783465Y-111093816D01*
X111783465Y-111093816D02*
X111726986Y-111130494D01*
X111726986Y-111130494D02*
X111660606Y-111213750D01*
D12*
X67463570Y-60322664D02*
X67501666Y-60360760D01*
X67501666Y-60360760D02*
X67615951Y-60398855D01*
X67615951Y-60398855D02*
X67692142Y-60398855D01*
X67692142Y-60398855D02*
X67806428Y-60360760D01*
X67806428Y-60360760D02*
X67882618Y-60284569D01*
X67882618Y-60284569D02*
X67920713Y-60208379D01*
X67920713Y-60208379D02*
X67958809Y-60055998D01*
X67958809Y-60055998D02*
X67958809Y-59941712D01*
X67958809Y-59941712D02*
X67920713Y-59789331D01*
X67920713Y-59789331D02*
X67882618Y-59713140D01*
X67882618Y-59713140D02*
X67806428Y-59636950D01*
X67806428Y-59636950D02*
X67692142Y-59598855D01*
X67692142Y-59598855D02*
X67615951Y-59598855D01*
X67615951Y-59598855D02*
X67501666Y-59636950D01*
X67501666Y-59636950D02*
X67463570Y-59675045D01*
X67120713Y-60398855D02*
X67120713Y-59598855D01*
X67120713Y-59979807D02*
X66663570Y-59979807D01*
X66663570Y-60398855D02*
X66663570Y-59598855D01*
X66244523Y-60398855D02*
X66092142Y-60398855D01*
X66092142Y-60398855D02*
X66015952Y-60360760D01*
X66015952Y-60360760D02*
X65977856Y-60322664D01*
X65977856Y-60322664D02*
X65901666Y-60208379D01*
X65901666Y-60208379D02*
X65863571Y-60055998D01*
X65863571Y-60055998D02*
X65863571Y-59751236D01*
X65863571Y-59751236D02*
X65901666Y-59675045D01*
X65901666Y-59675045D02*
X65939761Y-59636950D01*
X65939761Y-59636950D02*
X66015952Y-59598855D01*
X66015952Y-59598855D02*
X66168333Y-59598855D01*
X66168333Y-59598855D02*
X66244523Y-59636950D01*
X66244523Y-59636950D02*
X66282618Y-59675045D01*
X66282618Y-59675045D02*
X66320714Y-59751236D01*
X66320714Y-59751236D02*
X66320714Y-59941712D01*
X66320714Y-59941712D02*
X66282618Y-60017902D01*
X66282618Y-60017902D02*
X66244523Y-60055998D01*
X66244523Y-60055998D02*
X66168333Y-60094093D01*
X66168333Y-60094093D02*
X66015952Y-60094093D01*
X66015952Y-60094093D02*
X65939761Y-60055998D01*
X65939761Y-60055998D02*
X65901666Y-60017902D01*
X65901666Y-60017902D02*
X65863571Y-59941712D01*
D11*
X61442380Y-82827295D02*
X61823332Y-82827295D01*
X61823332Y-82827295D02*
X61823332Y-82027295D01*
X61175713Y-82408247D02*
X60909047Y-82408247D01*
X60794761Y-82827295D02*
X61175713Y-82827295D01*
X61175713Y-82827295D02*
X61175713Y-82027295D01*
X61175713Y-82027295D02*
X60794761Y-82027295D01*
X60451903Y-82827295D02*
X60451903Y-82027295D01*
X60451903Y-82027295D02*
X60261427Y-82027295D01*
X60261427Y-82027295D02*
X60147141Y-82065390D01*
X60147141Y-82065390D02*
X60070951Y-82141580D01*
X60070951Y-82141580D02*
X60032856Y-82217771D01*
X60032856Y-82217771D02*
X59994760Y-82370152D01*
X59994760Y-82370152D02*
X59994760Y-82484438D01*
X59994760Y-82484438D02*
X60032856Y-82636819D01*
X60032856Y-82636819D02*
X60070951Y-82713009D01*
X60070951Y-82713009D02*
X60147141Y-82789200D01*
X60147141Y-82789200D02*
X60261427Y-82827295D01*
X60261427Y-82827295D02*
X60451903Y-82827295D01*
X59232856Y-82827295D02*
X59689999Y-82827295D01*
X59461427Y-82827295D02*
X59461427Y-82027295D01*
X59461427Y-82027295D02*
X59537618Y-82141580D01*
X59537618Y-82141580D02*
X59613808Y-82217771D01*
X59613808Y-82217771D02*
X59689999Y-82255866D01*
X58547141Y-82027295D02*
X58699522Y-82027295D01*
X58699522Y-82027295D02*
X58775713Y-82065390D01*
X58775713Y-82065390D02*
X58813808Y-82103485D01*
X58813808Y-82103485D02*
X58889998Y-82217771D01*
X58889998Y-82217771D02*
X58928094Y-82370152D01*
X58928094Y-82370152D02*
X58928094Y-82674914D01*
X58928094Y-82674914D02*
X58889998Y-82751104D01*
X58889998Y-82751104D02*
X58851903Y-82789200D01*
X58851903Y-82789200D02*
X58775713Y-82827295D01*
X58775713Y-82827295D02*
X58623332Y-82827295D01*
X58623332Y-82827295D02*
X58547141Y-82789200D01*
X58547141Y-82789200D02*
X58509046Y-82751104D01*
X58509046Y-82751104D02*
X58470951Y-82674914D01*
X58470951Y-82674914D02*
X58470951Y-82484438D01*
X58470951Y-82484438D02*
X58509046Y-82408247D01*
X58509046Y-82408247D02*
X58547141Y-82370152D01*
X58547141Y-82370152D02*
X58623332Y-82332057D01*
X58623332Y-82332057D02*
X58775713Y-82332057D01*
X58775713Y-82332057D02*
X58851903Y-82370152D01*
X58851903Y-82370152D02*
X58889998Y-82408247D01*
X58889998Y-82408247D02*
X58928094Y-82484438D01*
D12*
X121844522Y-78822664D02*
X121882618Y-78860760D01*
X121882618Y-78860760D02*
X121996903Y-78898855D01*
X121996903Y-78898855D02*
X122073094Y-78898855D01*
X122073094Y-78898855D02*
X122187380Y-78860760D01*
X122187380Y-78860760D02*
X122263570Y-78784569D01*
X122263570Y-78784569D02*
X122301665Y-78708379D01*
X122301665Y-78708379D02*
X122339761Y-78555998D01*
X122339761Y-78555998D02*
X122339761Y-78441712D01*
X122339761Y-78441712D02*
X122301665Y-78289331D01*
X122301665Y-78289331D02*
X122263570Y-78213140D01*
X122263570Y-78213140D02*
X122187380Y-78136950D01*
X122187380Y-78136950D02*
X122073094Y-78098855D01*
X122073094Y-78098855D02*
X121996903Y-78098855D01*
X121996903Y-78098855D02*
X121882618Y-78136950D01*
X121882618Y-78136950D02*
X121844522Y-78175045D01*
X121501665Y-78898855D02*
X121501665Y-78098855D01*
X121501665Y-78479807D02*
X121044522Y-78479807D01*
X121044522Y-78898855D02*
X121044522Y-78098855D01*
X120244523Y-78898855D02*
X120701666Y-78898855D01*
X120473094Y-78898855D02*
X120473094Y-78098855D01*
X120473094Y-78098855D02*
X120549285Y-78213140D01*
X120549285Y-78213140D02*
X120625475Y-78289331D01*
X120625475Y-78289331D02*
X120701666Y-78327426D01*
X119977856Y-78098855D02*
X119482618Y-78098855D01*
X119482618Y-78098855D02*
X119749284Y-78403617D01*
X119749284Y-78403617D02*
X119634999Y-78403617D01*
X119634999Y-78403617D02*
X119558808Y-78441712D01*
X119558808Y-78441712D02*
X119520713Y-78479807D01*
X119520713Y-78479807D02*
X119482618Y-78555998D01*
X119482618Y-78555998D02*
X119482618Y-78746474D01*
X119482618Y-78746474D02*
X119520713Y-78822664D01*
X119520713Y-78822664D02*
X119558808Y-78860760D01*
X119558808Y-78860760D02*
X119634999Y-78898855D01*
X119634999Y-78898855D02*
X119863570Y-78898855D01*
X119863570Y-78898855D02*
X119939761Y-78860760D01*
X119939761Y-78860760D02*
X119977856Y-78822664D01*
D11*
X48636009Y-74726905D02*
X47636009Y-74726905D01*
X47636009Y-74726905D02*
X47636009Y-74965000D01*
X47636009Y-74965000D02*
X47683628Y-75107857D01*
X47683628Y-75107857D02*
X47778866Y-75203095D01*
X47778866Y-75203095D02*
X47874104Y-75250714D01*
X47874104Y-75250714D02*
X48064580Y-75298333D01*
X48064580Y-75298333D02*
X48207437Y-75298333D01*
X48207437Y-75298333D02*
X48397913Y-75250714D01*
X48397913Y-75250714D02*
X48493151Y-75203095D01*
X48493151Y-75203095D02*
X48588390Y-75107857D01*
X48588390Y-75107857D02*
X48636009Y-74965000D01*
X48636009Y-74965000D02*
X48636009Y-74726905D01*
X48064580Y-75869762D02*
X48016961Y-75774524D01*
X48016961Y-75774524D02*
X47969342Y-75726905D01*
X47969342Y-75726905D02*
X47874104Y-75679286D01*
X47874104Y-75679286D02*
X47826485Y-75679286D01*
X47826485Y-75679286D02*
X47731247Y-75726905D01*
X47731247Y-75726905D02*
X47683628Y-75774524D01*
X47683628Y-75774524D02*
X47636009Y-75869762D01*
X47636009Y-75869762D02*
X47636009Y-76060238D01*
X47636009Y-76060238D02*
X47683628Y-76155476D01*
X47683628Y-76155476D02*
X47731247Y-76203095D01*
X47731247Y-76203095D02*
X47826485Y-76250714D01*
X47826485Y-76250714D02*
X47874104Y-76250714D01*
X47874104Y-76250714D02*
X47969342Y-76203095D01*
X47969342Y-76203095D02*
X48016961Y-76155476D01*
X48016961Y-76155476D02*
X48064580Y-76060238D01*
X48064580Y-76060238D02*
X48064580Y-75869762D01*
X48064580Y-75869762D02*
X48112199Y-75774524D01*
X48112199Y-75774524D02*
X48159818Y-75726905D01*
X48159818Y-75726905D02*
X48255056Y-75679286D01*
X48255056Y-75679286D02*
X48445532Y-75679286D01*
X48445532Y-75679286D02*
X48540770Y-75726905D01*
X48540770Y-75726905D02*
X48588390Y-75774524D01*
X48588390Y-75774524D02*
X48636009Y-75869762D01*
X48636009Y-75869762D02*
X48636009Y-76060238D01*
X48636009Y-76060238D02*
X48588390Y-76155476D01*
X48588390Y-76155476D02*
X48540770Y-76203095D01*
X48540770Y-76203095D02*
X48445532Y-76250714D01*
X48445532Y-76250714D02*
X48255056Y-76250714D01*
X48255056Y-76250714D02*
X48159818Y-76203095D01*
X48159818Y-76203095D02*
X48112199Y-76155476D01*
X48112199Y-76155476D02*
X48064580Y-76060238D01*
X93352380Y-95947295D02*
X93733332Y-95947295D01*
X93733332Y-95947295D02*
X93733332Y-95147295D01*
X93085713Y-95528247D02*
X92819047Y-95528247D01*
X92704761Y-95947295D02*
X93085713Y-95947295D01*
X93085713Y-95947295D02*
X93085713Y-95147295D01*
X93085713Y-95147295D02*
X92704761Y-95147295D01*
X92361903Y-95947295D02*
X92361903Y-95147295D01*
X92361903Y-95147295D02*
X92171427Y-95147295D01*
X92171427Y-95147295D02*
X92057141Y-95185390D01*
X92057141Y-95185390D02*
X91980951Y-95261580D01*
X91980951Y-95261580D02*
X91942856Y-95337771D01*
X91942856Y-95337771D02*
X91904760Y-95490152D01*
X91904760Y-95490152D02*
X91904760Y-95604438D01*
X91904760Y-95604438D02*
X91942856Y-95756819D01*
X91942856Y-95756819D02*
X91980951Y-95833009D01*
X91980951Y-95833009D02*
X92057141Y-95909200D01*
X92057141Y-95909200D02*
X92171427Y-95947295D01*
X92171427Y-95947295D02*
X92361903Y-95947295D01*
X91142856Y-95947295D02*
X91599999Y-95947295D01*
X91371427Y-95947295D02*
X91371427Y-95147295D01*
X91371427Y-95147295D02*
X91447618Y-95261580D01*
X91447618Y-95261580D02*
X91523808Y-95337771D01*
X91523808Y-95337771D02*
X91599999Y-95375866D01*
X90761903Y-95947295D02*
X90609522Y-95947295D01*
X90609522Y-95947295D02*
X90533332Y-95909200D01*
X90533332Y-95909200D02*
X90495236Y-95871104D01*
X90495236Y-95871104D02*
X90419046Y-95756819D01*
X90419046Y-95756819D02*
X90380951Y-95604438D01*
X90380951Y-95604438D02*
X90380951Y-95299676D01*
X90380951Y-95299676D02*
X90419046Y-95223485D01*
X90419046Y-95223485D02*
X90457141Y-95185390D01*
X90457141Y-95185390D02*
X90533332Y-95147295D01*
X90533332Y-95147295D02*
X90685713Y-95147295D01*
X90685713Y-95147295D02*
X90761903Y-95185390D01*
X90761903Y-95185390D02*
X90799998Y-95223485D01*
X90799998Y-95223485D02*
X90838094Y-95299676D01*
X90838094Y-95299676D02*
X90838094Y-95490152D01*
X90838094Y-95490152D02*
X90799998Y-95566342D01*
X90799998Y-95566342D02*
X90761903Y-95604438D01*
X90761903Y-95604438D02*
X90685713Y-95642533D01*
X90685713Y-95642533D02*
X90533332Y-95642533D01*
X90533332Y-95642533D02*
X90457141Y-95604438D01*
X90457141Y-95604438D02*
X90419046Y-95566342D01*
X90419046Y-95566342D02*
X90380951Y-95490152D01*
D12*
%TO.C,C4*%
X55611190Y-45403748D02*
X55611190Y-46826252D01*
X57431190Y-45403748D02*
X57431190Y-46826252D01*
%TO.C,D14*%
X103181190Y-87105000D02*
X103181190Y-91115000D01*
X103181190Y-87105000D02*
X105181190Y-87105000D01*
D10*
X103641190Y-89115000D02*
X104731190Y-89115000D01*
X103781190Y-89715000D02*
X104581190Y-89715000D01*
X104181190Y-88695000D02*
X104181190Y-89115000D01*
X104181190Y-89115000D02*
X103781190Y-89715000D01*
X104181190Y-89715000D02*
X104181190Y-90215000D01*
X104581190Y-89715000D02*
X104181190Y-89115000D01*
D12*
X105181190Y-87105000D02*
X105181190Y-91115000D01*
%TO.C,D1*%
X121371190Y-56005000D02*
X121371190Y-60015000D01*
X121371190Y-56005000D02*
X123371190Y-56005000D01*
D10*
X121831190Y-58015000D02*
X122921190Y-58015000D01*
X121971190Y-58615000D02*
X122771190Y-58615000D01*
X122371190Y-57595000D02*
X122371190Y-58015000D01*
X122371190Y-58015000D02*
X121971190Y-58615000D01*
X122371190Y-58615000D02*
X122371190Y-59115000D01*
X122771190Y-58615000D02*
X122371190Y-58015000D01*
D12*
X123371190Y-56005000D02*
X123371190Y-60015000D01*
%TO.C,CH3*%
X72877190Y-49290000D02*
X72877190Y-49990000D01*
X72877190Y-49290000D02*
X73877190Y-49290000D01*
X81881190Y-51440000D02*
X80881190Y-51440000D01*
X81881190Y-51440000D02*
X82681190Y-52240000D01*
X81881190Y-56090000D02*
X80881190Y-56090000D01*
X82681190Y-55290000D02*
X81881190Y-56090000D01*
D13*
X87281190Y-40915000D02*
X73481190Y-40915000D01*
X73481190Y-54715000D01*
X87281190Y-54715000D01*
X87281190Y-40915000D01*
X87381190Y-40815000D02*
X73381190Y-40815000D01*
X73381190Y-54815000D01*
X87381190Y-54815000D01*
X87381190Y-40815000D01*
D10*
X89381190Y-39315000D02*
X71381190Y-39315000D01*
X71381190Y-56315000D01*
X89381190Y-56315000D01*
X89381190Y-39315000D01*
D12*
X73931190Y-53940000D02*
G75*
G02*
X73131190Y-53140000I0J800000D01*
G01*
%TO.C,D21*%
X134022724Y-102897029D02*
X134836197Y-101069938D01*
X134022724Y-102897029D02*
X137686041Y-104528043D01*
X134836197Y-101069938D02*
X138499515Y-102700952D01*
D10*
X135881998Y-102630195D02*
X136265687Y-102801024D01*
X136046049Y-103294339D02*
X136489392Y-102298574D01*
X136265687Y-102801024D02*
X136651120Y-103410484D01*
X136651120Y-103410484D02*
X136976509Y-102679648D01*
X136813814Y-103045066D02*
X137270587Y-103248434D01*
X136976509Y-102679648D02*
X136265687Y-102801024D01*
D12*
%TO.C,D17*%
X49181190Y-90105000D02*
X49181190Y-94115000D01*
X49181190Y-90105000D02*
X51181190Y-90105000D01*
D10*
X49641190Y-92115000D02*
X50731190Y-92115000D01*
X49781190Y-92715000D02*
X50581190Y-92715000D01*
X50181190Y-91695000D02*
X50181190Y-92115000D01*
X50181190Y-92115000D02*
X49781190Y-92715000D01*
X50181190Y-92715000D02*
X50181190Y-93215000D01*
X50581190Y-92715000D02*
X50181190Y-92115000D01*
D12*
X51181190Y-90105000D02*
X51181190Y-94115000D01*
%TO.C,C13*%
X109611190Y-80903748D02*
X109611190Y-82326252D01*
X111431190Y-80903748D02*
X111431190Y-82326252D01*
%TO.C,C6*%
X19611190Y-48403748D02*
X19611190Y-49826252D01*
X21431190Y-48403748D02*
X21431190Y-49826252D01*
%TO.C,C11*%
X103321190Y-62413748D02*
X103321190Y-63836252D01*
X105141190Y-62413748D02*
X105141190Y-63836252D01*
%TO.C,D6*%
X31181190Y-56105000D02*
X31181190Y-60115000D01*
X31181190Y-56105000D02*
X33181190Y-56105000D01*
D10*
X31641190Y-58115000D02*
X32731190Y-58115000D01*
X31781190Y-58715000D02*
X32581190Y-58715000D01*
X32181190Y-57695000D02*
X32181190Y-58115000D01*
X32181190Y-58115000D02*
X31781190Y-58715000D01*
X32181190Y-58715000D02*
X32181190Y-59215000D01*
X32581190Y-58715000D02*
X32181190Y-58115000D01*
D12*
X33181190Y-56105000D02*
X33181190Y-60115000D01*
%TO.C,CH4*%
X54877190Y-52290000D02*
X54877190Y-52990000D01*
X54877190Y-52290000D02*
X55877190Y-52290000D01*
X63881190Y-54440000D02*
X62881190Y-54440000D01*
X63881190Y-54440000D02*
X64681190Y-55240000D01*
X63881190Y-59090000D02*
X62881190Y-59090000D01*
X64681190Y-58290000D02*
X63881190Y-59090000D01*
D13*
X69281190Y-43915000D02*
X55481190Y-43915000D01*
X55481190Y-57715000D01*
X69281190Y-57715000D01*
X69281190Y-43915000D01*
X69381190Y-43815000D02*
X55381190Y-43815000D01*
X55381190Y-57815000D01*
X69381190Y-57815000D01*
X69381190Y-43815000D01*
D10*
X71381190Y-42315000D02*
X53381190Y-42315000D01*
X53381190Y-59315000D01*
X71381190Y-59315000D01*
X71381190Y-42315000D01*
D12*
X55931190Y-56940000D02*
G75*
G02*
X55131190Y-56140000I0J800000D01*
G01*
%TO.C,CH1*%
X108877190Y-53790000D02*
X108877190Y-54490000D01*
X108877190Y-53790000D02*
X109877190Y-53790000D01*
X117881190Y-55940000D02*
X116881190Y-55940000D01*
X117881190Y-55940000D02*
X118681190Y-56740000D01*
X117881190Y-60590000D02*
X116881190Y-60590000D01*
X118681190Y-59790000D02*
X117881190Y-60590000D01*
D13*
X123281190Y-45415000D02*
X109481190Y-45415000D01*
X109481190Y-59215000D01*
X123281190Y-59215000D01*
X123281190Y-45415000D01*
X123381190Y-45315000D02*
X109381190Y-45315000D01*
X109381190Y-59315000D01*
X123381190Y-59315000D01*
X123381190Y-45315000D01*
D10*
X125381190Y-43815000D02*
X107381190Y-43815000D01*
X107381190Y-60815000D01*
X125381190Y-60815000D01*
X125381190Y-43815000D01*
D12*
X109931190Y-58440000D02*
G75*
G02*
X109131190Y-57640000I0J800000D01*
G01*
%TO.C,C17*%
X37611190Y-82403748D02*
X37611190Y-83826252D01*
X39431190Y-82403748D02*
X39431190Y-83826252D01*
%TO.C,C1*%
X109611190Y-46903748D02*
X109611190Y-48326252D01*
X111431190Y-46903748D02*
X111431190Y-48326252D01*
%TO.C,D5*%
X49181190Y-56105000D02*
X49181190Y-60115000D01*
X49181190Y-56105000D02*
X51181190Y-56105000D01*
D10*
X49641190Y-58115000D02*
X50731190Y-58115000D01*
X49781190Y-58715000D02*
X50581190Y-58715000D01*
X50181190Y-57695000D02*
X50181190Y-58115000D01*
X50181190Y-58115000D02*
X49781190Y-58715000D01*
X50181190Y-58715000D02*
X50181190Y-59215000D01*
X50581190Y-58715000D02*
X50181190Y-58115000D01*
D12*
X51181190Y-56105000D02*
X51181190Y-60115000D01*
%TO.C,CH20*%
X101941167Y-104952570D02*
X101795628Y-105637274D01*
X101941167Y-104952570D02*
X102919314Y-105160482D01*
X109334608Y-113476011D02*
X108356461Y-113268099D01*
X110283456Y-112859822D02*
X109334608Y-113476011D01*
X110301399Y-108927625D02*
X109323250Y-108719713D01*
X110301399Y-108927625D02*
X110917586Y-109876472D01*
X102005345Y-109720096D02*
G75*
G02*
X101389156Y-108771248I166329J782518D01*
G01*
D13*
X117771665Y-99755344D02*
X114902484Y-113253781D01*
X101404047Y-110384600D01*
X104273228Y-96886163D01*
X117771665Y-99755344D01*
X117890271Y-99678321D02*
X114979507Y-113372387D01*
X101285441Y-110461623D01*
X104196205Y-96767557D01*
X117890271Y-99678321D01*
D10*
X120158434Y-98626923D02*
X116623935Y-115255432D01*
X99017278Y-111513021D01*
X102551777Y-94884512D01*
X120158434Y-98626923D01*
D12*
%TO.C,LED12*%
X112846190Y-63175000D02*
X112366190Y-63175000D01*
X112846190Y-62695000D01*
X112846190Y-63175000D01*
G36*
X112846190Y-63175000D02*
G01*
X112366190Y-63175000D01*
X112846190Y-62695000D01*
X112846190Y-63175000D01*
G37*
%TO.C,CH6*%
X18877190Y-55290000D02*
X18877190Y-55990000D01*
X18877190Y-55290000D02*
X19877190Y-55290000D01*
X27881190Y-57440000D02*
X26881190Y-57440000D01*
X27881190Y-57440000D02*
X28681190Y-58240000D01*
X27881190Y-62090000D02*
X26881190Y-62090000D01*
X28681190Y-61290000D02*
X27881190Y-62090000D01*
D13*
X33281190Y-46915000D02*
X19481190Y-46915000D01*
X19481190Y-60715000D01*
X33281190Y-60715000D01*
X33281190Y-46915000D01*
X33381190Y-46815000D02*
X19381190Y-46815000D01*
X19381190Y-60815000D01*
X33381190Y-60815000D01*
X33381190Y-46815000D01*
D10*
X35381190Y-45315000D02*
X17381190Y-45315000D01*
X17381190Y-62315000D01*
X35381190Y-62315000D01*
X35381190Y-45315000D01*
D12*
X19931190Y-59940000D02*
G75*
G02*
X19131190Y-59140000I0J800000D01*
G01*
%TO.C,LED6*%
X29846190Y-50655000D02*
X29846190Y-50175000D01*
X30326190Y-50175000D01*
X29846190Y-50655000D01*
G36*
X29846190Y-50655000D02*
G01*
X29846190Y-50175000D01*
X30326190Y-50175000D01*
X29846190Y-50655000D01*
G37*
%TO.C,D18*%
X31181190Y-90105000D02*
X31181190Y-94115000D01*
X31181190Y-90105000D02*
X33181190Y-90105000D01*
D10*
X31641190Y-92115000D02*
X32731190Y-92115000D01*
X31781190Y-92715000D02*
X32581190Y-92715000D01*
X32181190Y-91695000D02*
X32181190Y-92115000D01*
X32181190Y-92115000D02*
X31781190Y-92715000D01*
X32181190Y-92715000D02*
X32181190Y-93215000D01*
X32581190Y-92715000D02*
X32181190Y-92115000D01*
D12*
X33181190Y-90105000D02*
X33181190Y-94115000D01*
%TO.C,LED20*%
X107406683Y-98329180D02*
X106937172Y-98229382D01*
X107506481Y-97859669D01*
X107406683Y-98329180D01*
G36*
X107406683Y-98329180D02*
G01*
X106937172Y-98229382D01*
X107506481Y-97859669D01*
X107406683Y-98329180D01*
G37*
%TO.C,D16*%
X67181190Y-87105000D02*
X67181190Y-91115000D01*
X67181190Y-87105000D02*
X69181190Y-87105000D01*
D10*
X67641190Y-89115000D02*
X68731190Y-89115000D01*
X67781190Y-89715000D02*
X68581190Y-89715000D01*
X68181190Y-88695000D02*
X68181190Y-89115000D01*
X68181190Y-89115000D02*
X67781190Y-89715000D01*
X68181190Y-89715000D02*
X68181190Y-90215000D01*
X68581190Y-89715000D02*
X68181190Y-89115000D01*
D12*
X69181190Y-87105000D02*
X69181190Y-91115000D01*
%TO.C,D3*%
X85181190Y-50105000D02*
X85181190Y-54115000D01*
X85181190Y-50105000D02*
X87181190Y-50105000D01*
D10*
X85641190Y-52115000D02*
X86731190Y-52115000D01*
X85781190Y-52715000D02*
X86581190Y-52715000D01*
X86181190Y-51695000D02*
X86181190Y-52115000D01*
X86181190Y-52115000D02*
X85781190Y-52715000D01*
X86181190Y-52715000D02*
X86181190Y-53215000D01*
X86581190Y-52715000D02*
X86181190Y-52115000D01*
D12*
X87181190Y-50105000D02*
X87181190Y-54115000D01*
%TO.C,C10*%
X85321190Y-59413748D02*
X85321190Y-60836252D01*
X87141190Y-59413748D02*
X87141190Y-60836252D01*
%TO.C,D10*%
X85181190Y-67105000D02*
X85181190Y-71115000D01*
X85181190Y-67105000D02*
X87181190Y-67105000D01*
D10*
X85641190Y-69115000D02*
X86731190Y-69115000D01*
X85781190Y-69715000D02*
X86581190Y-69715000D01*
X86181190Y-68695000D02*
X86181190Y-69115000D01*
X86181190Y-69115000D02*
X85781190Y-69715000D01*
X86181190Y-69715000D02*
X86181190Y-70215000D01*
X86581190Y-69715000D02*
X86181190Y-69115000D01*
D12*
X87181190Y-67105000D02*
X87181190Y-71115000D01*
%TO.C,CH17*%
X36877190Y-89290000D02*
X36877190Y-89990000D01*
X36877190Y-89290000D02*
X37877190Y-89290000D01*
X45881190Y-91440000D02*
X44881190Y-91440000D01*
X45881190Y-91440000D02*
X46681190Y-92240000D01*
X45881190Y-96090000D02*
X44881190Y-96090000D01*
X46681190Y-95290000D02*
X45881190Y-96090000D01*
D13*
X51281190Y-80915000D02*
X37481190Y-80915000D01*
X37481190Y-94715000D01*
X51281190Y-94715000D01*
X51281190Y-80915000D01*
X51381190Y-80815000D02*
X37381190Y-80815000D01*
X37381190Y-94815000D01*
X51381190Y-94815000D01*
X51381190Y-80815000D01*
D10*
X53381190Y-79315000D02*
X35381190Y-79315000D01*
X35381190Y-96315000D01*
X53381190Y-96315000D01*
X53381190Y-79315000D01*
D12*
X37931190Y-93940000D02*
G75*
G02*
X37131190Y-93140000I0J800000D01*
G01*
%TO.C,CH2*%
X90877190Y-52290000D02*
X90877190Y-52990000D01*
X90877190Y-52290000D02*
X91877190Y-52290000D01*
X99881190Y-54440000D02*
X98881190Y-54440000D01*
X99881190Y-54440000D02*
X100681190Y-55240000D01*
X99881190Y-59090000D02*
X98881190Y-59090000D01*
X100681190Y-58290000D02*
X99881190Y-59090000D01*
D13*
X105281190Y-43915000D02*
X91481190Y-43915000D01*
X91481190Y-57715000D01*
X105281190Y-57715000D01*
X105281190Y-43915000D01*
X105381190Y-43815000D02*
X91381190Y-43815000D01*
X91381190Y-57815000D01*
X105381190Y-57815000D01*
X105381190Y-43815000D01*
D10*
X107381190Y-42315000D02*
X89381190Y-42315000D01*
X89381190Y-59315000D01*
X107381190Y-59315000D01*
X107381190Y-42315000D01*
D12*
X91931190Y-56940000D02*
G75*
G02*
X91131190Y-56140000I0J800000D01*
G01*
%TO.C,LED5*%
X47846190Y-50655000D02*
X47846190Y-50175000D01*
X48326190Y-50175000D01*
X47846190Y-50655000D01*
G36*
X47846190Y-50655000D02*
G01*
X47846190Y-50175000D01*
X48326190Y-50175000D01*
X47846190Y-50655000D01*
G37*
%TO.C,C15*%
X73611190Y-76403748D02*
X73611190Y-77826252D01*
X75431190Y-76403748D02*
X75431190Y-77826252D01*
%TO.C,D9*%
X67181190Y-70105000D02*
X67181190Y-74115000D01*
X67181190Y-70105000D02*
X69181190Y-70105000D01*
D10*
X67641190Y-72115000D02*
X68731190Y-72115000D01*
X67781190Y-72715000D02*
X68581190Y-72715000D01*
X68181190Y-71695000D02*
X68181190Y-72115000D01*
X68181190Y-72115000D02*
X67781190Y-72715000D01*
X68181190Y-72715000D02*
X68181190Y-73215000D01*
X68581190Y-72715000D02*
X68181190Y-72115000D01*
D12*
X69181190Y-70105000D02*
X69181190Y-74115000D01*
%TO.C,C20*%
X115518953Y-100810091D02*
X115223198Y-102201510D01*
X117299182Y-101188490D02*
X117003427Y-102579909D01*
%TO.C,C8*%
X49311190Y-65403748D02*
X49311190Y-66826252D01*
X51131190Y-65403748D02*
X51131190Y-66826252D01*
%TO.C,LED13*%
X119846190Y-83155000D02*
X119846190Y-82675000D01*
X120326190Y-82675000D01*
X119846190Y-83155000D01*
G36*
X119846190Y-83155000D02*
G01*
X119846190Y-82675000D01*
X120326190Y-82675000D01*
X119846190Y-83155000D01*
G37*
%TO.C,C24*%
X138192442Y-63565000D02*
X136769938Y-63565000D01*
X138192442Y-66285000D02*
X136769938Y-66285000D01*
%TO.C,C23*%
X138222442Y-59725000D02*
X136799938Y-59725000D01*
X138222442Y-62445000D02*
X136799938Y-62445000D01*
%TO.C,D4*%
X67181190Y-53105000D02*
X67181190Y-57115000D01*
X67181190Y-53105000D02*
X69181190Y-53105000D01*
D10*
X67641190Y-55115000D02*
X68731190Y-55115000D01*
X67781190Y-55715000D02*
X68581190Y-55715000D01*
X68181190Y-54695000D02*
X68181190Y-55115000D01*
X68181190Y-55115000D02*
X67781190Y-55715000D01*
X68181190Y-55715000D02*
X68181190Y-56215000D01*
X68581190Y-55715000D02*
X68181190Y-55115000D01*
D12*
X69181190Y-53105000D02*
X69181190Y-57115000D01*
%TO.C,CH14*%
X90877190Y-86290000D02*
X90877190Y-86990000D01*
X90877190Y-86290000D02*
X91877190Y-86290000D01*
X99881190Y-88440000D02*
X98881190Y-88440000D01*
X99881190Y-88440000D02*
X100681190Y-89240000D01*
X99881190Y-93090000D02*
X98881190Y-93090000D01*
X100681190Y-92290000D02*
X99881190Y-93090000D01*
D13*
X105281190Y-77915000D02*
X91481190Y-77915000D01*
X91481190Y-91715000D01*
X105281190Y-91715000D01*
X105281190Y-77915000D01*
X105381190Y-77815000D02*
X91381190Y-77815000D01*
X91381190Y-91815000D01*
X105381190Y-91815000D01*
X105381190Y-77815000D01*
D10*
X107381190Y-76315000D02*
X89381190Y-76315000D01*
X89381190Y-93315000D01*
X107381190Y-93315000D01*
X107381190Y-76315000D01*
D12*
X91931190Y-90940000D02*
G75*
G02*
X91131190Y-90140000I0J800000D01*
G01*
%TO.C,C5*%
X37611190Y-48403748D02*
X37611190Y-49826252D01*
X39431190Y-48403748D02*
X39431190Y-49826252D01*
%TO.C,CH12*%
X108877190Y-70790000D02*
X108877190Y-71490000D01*
X108877190Y-70790000D02*
X109877190Y-70790000D01*
X117881190Y-72940000D02*
X116881190Y-72940000D01*
X117881190Y-72940000D02*
X118681190Y-73740000D01*
X117881190Y-77590000D02*
X116881190Y-77590000D01*
X118681190Y-76790000D02*
X117881190Y-77590000D01*
D13*
X123281190Y-62415000D02*
X109481190Y-62415000D01*
X109481190Y-76215000D01*
X123281190Y-76215000D01*
X123281190Y-62415000D01*
X123381190Y-62315000D02*
X109381190Y-62315000D01*
X109381190Y-76315000D01*
X123381190Y-76315000D01*
X123381190Y-62315000D01*
D10*
X125381190Y-60815000D02*
X107381190Y-60815000D01*
X107381190Y-77815000D01*
X125381190Y-77815000D01*
X125381190Y-60815000D01*
D12*
X109931190Y-75440000D02*
G75*
G02*
X109131190Y-74640000I0J800000D01*
G01*
%TO.C,LED2*%
X101846190Y-47655000D02*
X101846190Y-47175000D01*
X102326190Y-47175000D01*
X101846190Y-47655000D01*
G36*
X101846190Y-47655000D02*
G01*
X101846190Y-47175000D01*
X102326190Y-47175000D01*
X101846190Y-47655000D01*
G37*
%TO.C,D12*%
X121181190Y-71605000D02*
X121181190Y-75615000D01*
X121181190Y-71605000D02*
X123181190Y-71605000D01*
D10*
X121641190Y-73615000D02*
X122731190Y-73615000D01*
X121781190Y-74215000D02*
X122581190Y-74215000D01*
X122181190Y-73195000D02*
X122181190Y-73615000D01*
X122181190Y-73615000D02*
X121781190Y-74215000D01*
X122181190Y-74215000D02*
X122181190Y-74715000D01*
X122581190Y-74215000D02*
X122181190Y-73615000D01*
D12*
X123181190Y-71605000D02*
X123181190Y-75615000D01*
%TO.C,LED14*%
X101846190Y-81655000D02*
X101846190Y-81175000D01*
X102326190Y-81175000D01*
X101846190Y-81655000D01*
G36*
X101846190Y-81655000D02*
G01*
X101846190Y-81175000D01*
X102326190Y-81175000D01*
X101846190Y-81655000D01*
G37*
%TO.C,CH18*%
X18877190Y-89290000D02*
X18877190Y-89990000D01*
X18877190Y-89290000D02*
X19877190Y-89290000D01*
X27881190Y-91440000D02*
X26881190Y-91440000D01*
X27881190Y-91440000D02*
X28681190Y-92240000D01*
X27881190Y-96090000D02*
X26881190Y-96090000D01*
X28681190Y-95290000D02*
X27881190Y-96090000D01*
D13*
X33281190Y-80915000D02*
X19481190Y-80915000D01*
X19481190Y-94715000D01*
X33281190Y-94715000D01*
X33281190Y-80915000D01*
X33381190Y-80815000D02*
X19381190Y-80815000D01*
X19381190Y-94815000D01*
X33381190Y-94815000D01*
X33381190Y-80815000D01*
D10*
X35381190Y-79315000D02*
X17381190Y-79315000D01*
X17381190Y-96315000D01*
X35381190Y-96315000D01*
X35381190Y-79315000D01*
D12*
X19931190Y-93940000D02*
G75*
G02*
X19131190Y-93140000I0J800000D01*
G01*
%TO.C,CH10*%
X72877190Y-66290000D02*
X72877190Y-66990000D01*
X72877190Y-66290000D02*
X73877190Y-66290000D01*
X81881190Y-68440000D02*
X80881190Y-68440000D01*
X81881190Y-68440000D02*
X82681190Y-69240000D01*
X81881190Y-73090000D02*
X80881190Y-73090000D01*
X82681190Y-72290000D02*
X81881190Y-73090000D01*
D13*
X87281190Y-57915000D02*
X73481190Y-57915000D01*
X73481190Y-71715000D01*
X87281190Y-71715000D01*
X87281190Y-57915000D01*
X87381190Y-57815000D02*
X73381190Y-57815000D01*
X73381190Y-71815000D01*
X87381190Y-71815000D01*
X87381190Y-57815000D01*
D10*
X89381190Y-56315000D02*
X71381190Y-56315000D01*
X71381190Y-73315000D01*
X89381190Y-73315000D01*
X89381190Y-56315000D01*
D12*
X73931190Y-70940000D02*
G75*
G02*
X73131190Y-70140000I0J800000D01*
G01*
%TO.C,R3*%
X118621190Y-52742064D02*
X118621190Y-51287936D01*
X120441190Y-52742064D02*
X120441190Y-51287936D01*
%TO.C,D2*%
X103181190Y-53105000D02*
X103181190Y-57115000D01*
X103181190Y-53105000D02*
X105181190Y-53105000D01*
D10*
X103641190Y-55115000D02*
X104731190Y-55115000D01*
X103781190Y-55715000D02*
X104581190Y-55715000D01*
X104181190Y-54695000D02*
X104181190Y-55115000D01*
X104181190Y-55115000D02*
X103781190Y-55715000D01*
X104181190Y-55715000D02*
X104181190Y-56215000D01*
X104581190Y-55715000D02*
X104181190Y-55115000D01*
D12*
X105181190Y-53105000D02*
X105181190Y-57115000D01*
%TO.C,LED15*%
X83846190Y-78655000D02*
X83846190Y-78175000D01*
X84326190Y-78175000D01*
X83846190Y-78655000D01*
G36*
X83846190Y-78655000D02*
G01*
X83846190Y-78175000D01*
X84326190Y-78175000D01*
X83846190Y-78655000D01*
G37*
%TO.C,D15*%
X85181190Y-84105000D02*
X85181190Y-88115000D01*
X85181190Y-84105000D02*
X87181190Y-84105000D01*
D10*
X85641190Y-86115000D02*
X86731190Y-86115000D01*
X85781190Y-86715000D02*
X86581190Y-86715000D01*
X86181190Y-85695000D02*
X86181190Y-86115000D01*
X86181190Y-86115000D02*
X85781190Y-86715000D01*
X86181190Y-86715000D02*
X86181190Y-87215000D01*
X86581190Y-86715000D02*
X86181190Y-86115000D01*
D12*
X87181190Y-84105000D02*
X87181190Y-88115000D01*
%TO.C,LED9*%
X58846190Y-61675000D02*
X58366190Y-61675000D01*
X58846190Y-61195000D01*
X58846190Y-61675000D01*
G36*
X58846190Y-61675000D02*
G01*
X58366190Y-61675000D01*
X58846190Y-61195000D01*
X58846190Y-61675000D01*
G37*
%TO.C,C18*%
X19611190Y-82403748D02*
X19611190Y-83826252D01*
X21431190Y-82403748D02*
X21431190Y-83826252D01*
%TO.C,C9*%
X67311190Y-62423748D02*
X67311190Y-63846252D01*
X69131190Y-62423748D02*
X69131190Y-63846252D01*
%TO.C,LED10*%
X76846190Y-58675000D02*
X76366190Y-58675000D01*
X76846190Y-58195000D01*
X76846190Y-58675000D01*
G36*
X76846190Y-58675000D02*
G01*
X76366190Y-58675000D01*
X76846190Y-58195000D01*
X76846190Y-58675000D01*
G37*
%TO.C,LED3*%
X83846190Y-44655000D02*
X83846190Y-44175000D01*
X84326190Y-44175000D01*
X83846190Y-44655000D01*
G36*
X83846190Y-44655000D02*
G01*
X83846190Y-44175000D01*
X84326190Y-44175000D01*
X83846190Y-44655000D01*
G37*
%TO.C,C2*%
X91611190Y-45403748D02*
X91611190Y-46826252D01*
X93431190Y-45403748D02*
X93431190Y-46826252D01*
%TO.C,D13*%
X121181190Y-88605000D02*
X121181190Y-92615000D01*
X121181190Y-88605000D02*
X123181190Y-88605000D01*
D10*
X121641190Y-90615000D02*
X122731190Y-90615000D01*
X121781190Y-91215000D02*
X122581190Y-91215000D01*
X122181190Y-90195000D02*
X122181190Y-90615000D01*
X122181190Y-90615000D02*
X121781190Y-91215000D01*
X122181190Y-91215000D02*
X122181190Y-91715000D01*
X122581190Y-91215000D02*
X122181190Y-90615000D01*
D12*
X123181190Y-88605000D02*
X123181190Y-92615000D01*
%TO.C,C19*%
X94861190Y-97613748D02*
X94861190Y-99036252D01*
X96681190Y-97613748D02*
X96681190Y-99036252D01*
%TO.C,LED7*%
X22846190Y-64675000D02*
X22366190Y-64675000D01*
X22846190Y-64195000D01*
X22846190Y-64675000D01*
G36*
X22846190Y-64675000D02*
G01*
X22366190Y-64675000D01*
X22846190Y-64195000D01*
X22846190Y-64675000D01*
G37*
%TO.C,C22*%
X138302442Y-55765000D02*
X136879938Y-55765000D01*
X138302442Y-58485000D02*
X136879938Y-58485000D01*
%TO.C,D19*%
X94781190Y-105305000D02*
X94781190Y-109315000D01*
X94781190Y-105305000D02*
X96781190Y-105305000D01*
D10*
X95241190Y-107315000D02*
X96331190Y-107315000D01*
X95381190Y-107915000D02*
X96181190Y-107915000D01*
X95781190Y-106895000D02*
X95781190Y-107315000D01*
X95781190Y-107315000D02*
X95381190Y-107915000D01*
X95781190Y-107915000D02*
X95781190Y-108415000D01*
X96181190Y-107915000D02*
X95781190Y-107315000D01*
D12*
X96781190Y-105305000D02*
X96781190Y-109315000D01*
%TO.C,LED8*%
X40846190Y-64675000D02*
X40366190Y-64675000D01*
X40846190Y-64195000D01*
X40846190Y-64675000D01*
G36*
X40846190Y-64675000D02*
G01*
X40366190Y-64675000D01*
X40846190Y-64195000D01*
X40846190Y-64675000D01*
G37*
%TO.C,C16*%
X55611190Y-79403748D02*
X55611190Y-80826252D01*
X57431190Y-79403748D02*
X57431190Y-80826252D01*
%TO.C,LED11*%
X94846190Y-61675000D02*
X94366190Y-61675000D01*
X94846190Y-61195000D01*
X94846190Y-61675000D01*
G36*
X94846190Y-61675000D02*
G01*
X94366190Y-61675000D01*
X94846190Y-61195000D01*
X94846190Y-61675000D01*
G37*
%TO.C,LED21*%
X122911048Y-107128318D02*
X122715814Y-107566820D01*
X122472546Y-106933085D01*
X122911048Y-107128318D01*
G36*
X122911048Y-107128318D02*
G01*
X122715814Y-107566820D01*
X122472546Y-106933085D01*
X122911048Y-107128318D01*
G37*
%TO.C,C14*%
X91611190Y-79403748D02*
X91611190Y-80826252D01*
X93431190Y-79403748D02*
X93431190Y-80826252D01*
%TO.C,CH19*%
X82427190Y-104490000D02*
X82427190Y-105190000D01*
X82427190Y-104490000D02*
X83427190Y-104490000D01*
X91431190Y-106640000D02*
X90431190Y-106640000D01*
X91431190Y-106640000D02*
X92231190Y-107440000D01*
X91431190Y-111290000D02*
X90431190Y-111290000D01*
X92231190Y-110490000D02*
X91431190Y-111290000D01*
D13*
X96831190Y-96115000D02*
X83031190Y-96115000D01*
X83031190Y-109915000D01*
X96831190Y-109915000D01*
X96831190Y-96115000D01*
X96931190Y-96015000D02*
X82931190Y-96015000D01*
X82931190Y-110015000D01*
X96931190Y-110015000D01*
X96931190Y-96015000D01*
D10*
X98931190Y-94515000D02*
X80931190Y-94515000D01*
X80931190Y-111515000D01*
X98931190Y-111515000D01*
X98931190Y-94515000D01*
D12*
X83481190Y-109140000D02*
G75*
G02*
X82681190Y-108340000I0J800000D01*
G01*
%TO.C,C21*%
X127041299Y-99727034D02*
X128340821Y-100305619D01*
X127781559Y-98064381D02*
X129081081Y-98642966D01*
%TO.C,D11*%
X103181190Y-70105000D02*
X103181190Y-74115000D01*
X103181190Y-70105000D02*
X105181190Y-70105000D01*
D10*
X103641190Y-72115000D02*
X104731190Y-72115000D01*
X103781190Y-72715000D02*
X104581190Y-72715000D01*
X104181190Y-71695000D02*
X104181190Y-72115000D01*
X104181190Y-72115000D02*
X103781190Y-72715000D01*
X104181190Y-72715000D02*
X104181190Y-73215000D01*
X104581190Y-72715000D02*
X104181190Y-72115000D01*
D12*
X105181190Y-70105000D02*
X105181190Y-74115000D01*
%TO.C,CH11*%
X90877190Y-69290000D02*
X90877190Y-69990000D01*
X90877190Y-69290000D02*
X91877190Y-69290000D01*
X99881190Y-71440000D02*
X98881190Y-71440000D01*
X99881190Y-71440000D02*
X100681190Y-72240000D01*
X99881190Y-76090000D02*
X98881190Y-76090000D01*
X100681190Y-75290000D02*
X99881190Y-76090000D01*
D13*
X105281190Y-60915000D02*
X91481190Y-60915000D01*
X91481190Y-74715000D01*
X105281190Y-74715000D01*
X105281190Y-60915000D01*
X105381190Y-60815000D02*
X91381190Y-60815000D01*
X91381190Y-74815000D01*
X105381190Y-74815000D01*
X105381190Y-60815000D01*
D10*
X107381190Y-59315000D02*
X89381190Y-59315000D01*
X89381190Y-76315000D01*
X107381190Y-76315000D01*
X107381190Y-59315000D01*
D12*
X91931190Y-73940000D02*
G75*
G02*
X91131190Y-73140000I0J800000D01*
G01*
%TO.C,LED1*%
X119846190Y-49155000D02*
X119846190Y-48675000D01*
X120326190Y-48675000D01*
X119846190Y-49155000D01*
G36*
X119846190Y-49155000D02*
G01*
X119846190Y-48675000D01*
X120326190Y-48675000D01*
X119846190Y-49155000D01*
G37*
%TO.C,CH21*%
X128253361Y-113851480D02*
X128660097Y-112937934D01*
X128253361Y-113851480D02*
X128892843Y-114136195D01*
X133879740Y-106500400D02*
X133473005Y-107413946D01*
X133879740Y-106500400D02*
X134935966Y-106094953D01*
X137722280Y-107335500D02*
X138127728Y-108391726D01*
X138127728Y-108391726D02*
X137720990Y-109305271D01*
X132930048Y-114779928D02*
G75*
G02*
X131873822Y-115185376I-730837J325389D01*
G01*
%TO.C,CH15*%
X72877190Y-83290000D02*
X72877190Y-83990000D01*
X72877190Y-83290000D02*
X73877190Y-83290000D01*
X81881190Y-85440000D02*
X80881190Y-85440000D01*
X81881190Y-85440000D02*
X82681190Y-86240000D01*
X81881190Y-90090000D02*
X80881190Y-90090000D01*
X82681190Y-89290000D02*
X81881190Y-90090000D01*
D13*
X87281190Y-74915000D02*
X73481190Y-74915000D01*
X73481190Y-88715000D01*
X87281190Y-88715000D01*
X87281190Y-74915000D01*
X87381190Y-74815000D02*
X73381190Y-74815000D01*
X73381190Y-88815000D01*
X87381190Y-88815000D01*
X87381190Y-74815000D01*
D10*
X89381190Y-73315000D02*
X71381190Y-73315000D01*
X71381190Y-90315000D01*
X89381190Y-90315000D01*
X89381190Y-73315000D01*
D12*
X73931190Y-87940000D02*
G75*
G02*
X73131190Y-87140000I0J800000D01*
G01*
%TO.C,CH7*%
X18877190Y-72290000D02*
X18877190Y-72990000D01*
X18877190Y-72290000D02*
X19877190Y-72290000D01*
X27881190Y-74440000D02*
X26881190Y-74440000D01*
X27881190Y-74440000D02*
X28681190Y-75240000D01*
X27881190Y-79090000D02*
X26881190Y-79090000D01*
X28681190Y-78290000D02*
X27881190Y-79090000D01*
D13*
X33281190Y-63915000D02*
X19481190Y-63915000D01*
X19481190Y-77715000D01*
X33281190Y-77715000D01*
X33281190Y-63915000D01*
X33381190Y-63815000D02*
X19381190Y-63815000D01*
X19381190Y-77815000D01*
X33381190Y-77815000D01*
X33381190Y-63815000D01*
D10*
X35381190Y-62315000D02*
X17381190Y-62315000D01*
X17381190Y-79315000D01*
X35381190Y-79315000D01*
X35381190Y-62315000D01*
D12*
X19931190Y-76940000D02*
G75*
G02*
X19131190Y-76140000I0J800000D01*
G01*
%TO.C,CH5*%
X36877190Y-55290000D02*
X36877190Y-55990000D01*
X36877190Y-55290000D02*
X37877190Y-55290000D01*
X45881190Y-57440000D02*
X44881190Y-57440000D01*
X45881190Y-57440000D02*
X46681190Y-58240000D01*
X45881190Y-62090000D02*
X44881190Y-62090000D01*
X46681190Y-61290000D02*
X45881190Y-62090000D01*
D13*
X51281190Y-46915000D02*
X37481190Y-46915000D01*
X37481190Y-60715000D01*
X51281190Y-60715000D01*
X51281190Y-46915000D01*
X51381190Y-46815000D02*
X37381190Y-46815000D01*
X37381190Y-60815000D01*
X51381190Y-60815000D01*
X51381190Y-46815000D01*
D10*
X53381190Y-45315000D02*
X35381190Y-45315000D01*
X35381190Y-62315000D01*
X53381190Y-62315000D01*
X53381190Y-45315000D01*
D12*
X37931190Y-59940000D02*
G75*
G02*
X37131190Y-59140000I0J800000D01*
G01*
%TO.C,LED17*%
X47846190Y-84655000D02*
X47846190Y-84175000D01*
X48326190Y-84175000D01*
X47846190Y-84655000D01*
G36*
X47846190Y-84655000D02*
G01*
X47846190Y-84175000D01*
X48326190Y-84175000D01*
X47846190Y-84655000D01*
G37*
%TO.C,LED4*%
X65846190Y-47655000D02*
X65846190Y-47175000D01*
X66326190Y-47175000D01*
X65846190Y-47655000D01*
G36*
X65846190Y-47655000D02*
G01*
X65846190Y-47175000D01*
X66326190Y-47175000D01*
X65846190Y-47655000D01*
G37*
%TO.C,D7*%
X31181190Y-73105000D02*
X31181190Y-77115000D01*
X31181190Y-73105000D02*
X33181190Y-73105000D01*
D10*
X31641190Y-75115000D02*
X32731190Y-75115000D01*
X31781190Y-75715000D02*
X32581190Y-75715000D01*
X32181190Y-74695000D02*
X32181190Y-75115000D01*
X32181190Y-75115000D02*
X31781190Y-75715000D01*
X32181190Y-75715000D02*
X32181190Y-76215000D01*
X32581190Y-75715000D02*
X32181190Y-75115000D01*
D12*
X33181190Y-73105000D02*
X33181190Y-77115000D01*
%TO.C,CH16*%
X54877190Y-86290000D02*
X54877190Y-86990000D01*
X54877190Y-86290000D02*
X55877190Y-86290000D01*
X63881190Y-88440000D02*
X62881190Y-88440000D01*
X63881190Y-88440000D02*
X64681190Y-89240000D01*
X63881190Y-93090000D02*
X62881190Y-93090000D01*
X64681190Y-92290000D02*
X63881190Y-93090000D01*
D13*
X69281190Y-77915000D02*
X55481190Y-77915000D01*
X55481190Y-91715000D01*
X69281190Y-91715000D01*
X69281190Y-77915000D01*
X69381190Y-77815000D02*
X55381190Y-77815000D01*
X55381190Y-91815000D01*
X69381190Y-91815000D01*
X69381190Y-77815000D01*
D10*
X71381190Y-76315000D02*
X53381190Y-76315000D01*
X53381190Y-93315000D01*
X71381190Y-93315000D01*
X71381190Y-76315000D01*
D12*
X55931190Y-90940000D02*
G75*
G02*
X55131190Y-90140000I0J800000D01*
G01*
%TO.C,C7*%
X31321190Y-65423748D02*
X31321190Y-66846252D01*
X33141190Y-65423748D02*
X33141190Y-66846252D01*
%TO.C,CH8*%
X36877190Y-72290000D02*
X36877190Y-72990000D01*
X36877190Y-72290000D02*
X37877190Y-72290000D01*
X45881190Y-74440000D02*
X44881190Y-74440000D01*
X45881190Y-74440000D02*
X46681190Y-75240000D01*
X45881190Y-79090000D02*
X44881190Y-79090000D01*
X46681190Y-78290000D02*
X45881190Y-79090000D01*
D13*
X51281190Y-63915000D02*
X37481190Y-63915000D01*
X37481190Y-77715000D01*
X51281190Y-77715000D01*
X51281190Y-63915000D01*
X51381190Y-63815000D02*
X37381190Y-63815000D01*
X37381190Y-77815000D01*
X51381190Y-77815000D01*
X51381190Y-63815000D01*
D10*
X53381190Y-62315000D02*
X35381190Y-62315000D01*
X35381190Y-79315000D01*
X53381190Y-79315000D01*
X53381190Y-62315000D01*
D12*
X37931190Y-76940000D02*
G75*
G02*
X37131190Y-76140000I0J800000D01*
G01*
%TO.C,C3*%
X73611190Y-42403748D02*
X73611190Y-43826252D01*
X75431190Y-42403748D02*
X75431190Y-43826252D01*
%TO.C,LED18*%
X29846190Y-84655000D02*
X29846190Y-84175000D01*
X30326190Y-84175000D01*
X29846190Y-84655000D01*
G36*
X29846190Y-84655000D02*
G01*
X29846190Y-84175000D01*
X30326190Y-84175000D01*
X29846190Y-84655000D01*
G37*
%TO.C,D20*%
X113855754Y-108318303D02*
X113022028Y-112240675D01*
X113855754Y-108318303D02*
X115812049Y-108734126D01*
D10*
X113887799Y-110380019D02*
X114953980Y-110606643D01*
X113899993Y-110996015D02*
X114682511Y-111162345D01*
X114291252Y-111079180D02*
X114187296Y-111568254D01*
X114415999Y-110492291D02*
X113899993Y-110996015D01*
X114503322Y-110081469D02*
X114415999Y-110492291D01*
X114682511Y-111162345D02*
X114415999Y-110492291D01*
D12*
X115812049Y-108734126D02*
X114978323Y-112656498D01*
%TO.C,CH9*%
X54877190Y-69290000D02*
X54877190Y-69990000D01*
X54877190Y-69290000D02*
X55877190Y-69290000D01*
X63881190Y-71440000D02*
X62881190Y-71440000D01*
X63881190Y-71440000D02*
X64681190Y-72240000D01*
X63881190Y-76090000D02*
X62881190Y-76090000D01*
X64681190Y-75290000D02*
X63881190Y-76090000D01*
D13*
X69281190Y-60915000D02*
X55481190Y-60915000D01*
X55481190Y-74715000D01*
X69281190Y-74715000D01*
X69281190Y-60915000D01*
X69381190Y-60815000D02*
X55381190Y-60815000D01*
X55381190Y-74815000D01*
X69381190Y-74815000D01*
X69381190Y-60815000D01*
D10*
X71381190Y-59315000D02*
X53381190Y-59315000D01*
X53381190Y-76315000D01*
X71381190Y-76315000D01*
X71381190Y-59315000D01*
D12*
X55931190Y-73940000D02*
G75*
G02*
X55131190Y-73140000I0J800000D01*
G01*
%TO.C,LED16*%
X65846190Y-81655000D02*
X65846190Y-81175000D01*
X66326190Y-81175000D01*
X65846190Y-81655000D01*
G36*
X65846190Y-81655000D02*
G01*
X65846190Y-81175000D01*
X66326190Y-81175000D01*
X65846190Y-81655000D01*
G37*
%TO.C,CH13*%
X108877190Y-87790000D02*
X108877190Y-88490000D01*
X108877190Y-87790000D02*
X109877190Y-87790000D01*
X117881190Y-89940000D02*
X116881190Y-89940000D01*
X117881190Y-89940000D02*
X118681190Y-90740000D01*
X117881190Y-94590000D02*
X116881190Y-94590000D01*
X118681190Y-93790000D02*
X117881190Y-94590000D01*
D13*
X123281190Y-79415000D02*
X109481190Y-79415000D01*
X109481190Y-93215000D01*
X123281190Y-93215000D01*
X123281190Y-79415000D01*
X123381190Y-79315000D02*
X109381190Y-79315000D01*
X109381190Y-93315000D01*
X123381190Y-93315000D01*
X123381190Y-79315000D01*
D10*
X125381190Y-77815000D02*
X107381190Y-77815000D01*
X107381190Y-94815000D01*
X125381190Y-94815000D01*
X125381190Y-77815000D01*
D12*
X109931190Y-92440000D02*
G75*
G02*
X109131190Y-91640000I0J800000D01*
G01*
%TO.C,D8*%
X49181190Y-73105000D02*
X49181190Y-77115000D01*
X49181190Y-73105000D02*
X51181190Y-73105000D01*
D10*
X49641190Y-75115000D02*
X50731190Y-75115000D01*
X49781190Y-75715000D02*
X50581190Y-75715000D01*
X50181190Y-74695000D02*
X50181190Y-75115000D01*
X50181190Y-75115000D02*
X49781190Y-75715000D01*
X50181190Y-75715000D02*
X50181190Y-76215000D01*
X50581190Y-75715000D02*
X50181190Y-75115000D01*
D12*
X51181190Y-73105000D02*
X51181190Y-77115000D01*
%TO.C,C12*%
X121311190Y-63918748D02*
X121311190Y-65341252D01*
X123131190Y-63918748D02*
X123131190Y-65341252D01*
%TO.C,LED19*%
X86396190Y-96875000D02*
X85916190Y-96875000D01*
X86396190Y-96395000D01*
X86396190Y-96875000D01*
G36*
X86396190Y-96875000D02*
G01*
X85916190Y-96875000D01*
X86396190Y-96395000D01*
X86396190Y-96875000D01*
G37*
%TD*%
M02*
