%TF.GenerationSoftware,KiCad,Pcbnew,9.0.5*%
%TF.CreationDate,2025-11-02T20:14:42+07:00*%
%TF.ProjectId,moon_knight_v1,6d6f6f6e-5f6b-46e6-9967-68745f76312e,rev?*%
%TF.SameCoordinates,Original*%
%TF.FileFunction,Profile,NP*%
%FSLAX46Y46*%
G04 Gerber Fmt 4.6, Leading zero omitted, Abs format (unit mm)*
G04 Created by KiCad (PCBNEW 9.0.5) date 2025-11-02 20:14:42*
%MOMM*%
%LPD*%
G01*
G04 APERTURE LIST*
%TA.AperFunction,Profile*%
%ADD10C,0.050000*%
%TD*%
%TA.AperFunction,Profile*%
%ADD11C,0.100000*%
%TD*%
G04 APERTURE END LIST*
D10*
X111381190Y-41815000D02*
X109381190Y-40315000D01*
X51381190Y-40315000D02*
X49381190Y-42315000D01*
X51381190Y-40315000D02*
X67381190Y-40315000D01*
X15381190Y-43315000D02*
X47381190Y-43315000D01*
X111381190Y-41815000D02*
X126381190Y-41815000D01*
X93381190Y-40315000D02*
X109381190Y-40315000D01*
X126381190Y-41815000D02*
X132381190Y-48815000D01*
X80701952Y-113511900D02*
X55381190Y-99315000D01*
X98797085Y-113510900D02*
X116208119Y-117211698D01*
X98797085Y-113510900D02*
X80701952Y-113511900D01*
X49381190Y-42315000D02*
X48381190Y-43315000D01*
X132381190Y-48815000D02*
X149381190Y-48815000D01*
X91381190Y-37315000D02*
X93381190Y-40315000D01*
X15381190Y-99315000D02*
X15381190Y-43315000D01*
X15381190Y-99315000D02*
X55381190Y-99315000D01*
X149381190Y-90815000D02*
X133245843Y-124826988D01*
X69381190Y-37315000D02*
X91381190Y-37315000D01*
X48381190Y-43315000D02*
X47381190Y-43315000D01*
X149381190Y-90815000D02*
X149381190Y-48815000D01*
X133245843Y-124826988D02*
X116208119Y-117211698D01*
X67381190Y-40315000D02*
X69381190Y-37315000D01*
D11*
%TO.C,LED12*%
X114646191Y-65127843D02*
X114646191Y-63722159D01*
X115551738Y-62925001D02*
X117140642Y-62925001D01*
X117140642Y-65925000D02*
X115551737Y-65925000D01*
X118046189Y-63722159D02*
X118046189Y-65127843D01*
X114596706Y-63505281D02*
G75*
G02*
X114646191Y-63722159I-450505J-216876D01*
G01*
X114596706Y-63505282D02*
G75*
G02*
X115299479Y-62856702I450514J216880D01*
G01*
X114646191Y-65127844D02*
G75*
G02*
X114596706Y-65344721I-499990J-1D01*
G01*
X115299479Y-65993299D02*
G75*
G02*
X114596705Y-65344721I-252259J431700D01*
G01*
X115299479Y-65993299D02*
G75*
G02*
X115551737Y-65925000I252261J-431710D01*
G01*
X115551738Y-62925001D02*
G75*
G02*
X115299479Y-62856702I2J500009D01*
G01*
X117140643Y-65925001D02*
G75*
G02*
X117392901Y-65993300I-3J-500009D01*
G01*
X117392900Y-62856702D02*
G75*
G02*
X117140642Y-62925000I-252260J431712D01*
G01*
X117392901Y-62856704D02*
G75*
G02*
X118095670Y-63505279I252259J-431696D01*
G01*
X118046189Y-63722158D02*
G75*
G02*
X118095673Y-63505281I500361J-82D01*
G01*
X118095674Y-65344721D02*
G75*
G02*
X117392901Y-65993300I-450514J-216879D01*
G01*
X118095674Y-65344721D02*
G75*
G02*
X118046214Y-65127843I450516J216821D01*
G01*
%TO.C,LED6*%
X24646191Y-49627841D02*
X24646191Y-48222157D01*
X25551738Y-47425000D02*
X27140643Y-47425000D01*
X27140642Y-50424999D02*
X25551738Y-50424999D01*
X28046189Y-48222157D02*
X28046189Y-49627841D01*
X24596706Y-48005279D02*
G75*
G02*
X24646166Y-48222157I-450516J-216821D01*
G01*
X24596706Y-48005279D02*
G75*
G02*
X25299479Y-47356700I450514J216879D01*
G01*
X24646191Y-49627842D02*
G75*
G02*
X24596707Y-49844719I-500361J82D01*
G01*
X25299479Y-50493296D02*
G75*
G02*
X24596710Y-49844721I-252259J431696D01*
G01*
X25299480Y-50493298D02*
G75*
G02*
X25551738Y-50425000I252260J-431712D01*
G01*
X25551737Y-47424999D02*
G75*
G02*
X25299479Y-47356700I3J500009D01*
G01*
X27140642Y-50424999D02*
G75*
G02*
X27392901Y-50493298I-2J-500009D01*
G01*
X27392901Y-47356701D02*
G75*
G02*
X27140643Y-47425000I-252261J431710D01*
G01*
X27392901Y-47356701D02*
G75*
G02*
X28095675Y-48005279I252259J-431700D01*
G01*
X28046189Y-48222156D02*
G75*
G02*
X28095674Y-48005279I499990J1D01*
G01*
X28095674Y-49844718D02*
G75*
G02*
X27392901Y-50493298I-450514J-216880D01*
G01*
X28095674Y-49844719D02*
G75*
G02*
X28046189Y-49627841I450505J216876D01*
G01*
%TO.C,LED20*%
X108761331Y-100613590D02*
X109053589Y-99238623D01*
X110105086Y-98647159D02*
X111659269Y-98977510D01*
X111035534Y-101911952D02*
X109481350Y-101581600D01*
X112379289Y-99945522D02*
X112087031Y-101320489D01*
X108761332Y-100613591D02*
G75*
G02*
X108667836Y-100815440I-489039J103944D01*
G01*
X109050277Y-99016196D02*
G75*
G02*
X109053589Y-99238623I-485752J-118471D01*
G01*
X109050277Y-99016197D02*
G75*
G02*
X109872541Y-98527904I485761J118474D01*
G01*
X109220402Y-101595959D02*
G75*
G02*
X108667836Y-100815440I-156990J474713D01*
G01*
X109220402Y-101595959D02*
G75*
G02*
X109481350Y-101581600I156990J-474703D01*
G01*
X110105086Y-98647159D02*
G75*
G02*
X109872540Y-98527905I103963J489089D01*
G01*
X111035535Y-101911951D02*
G75*
G02*
X111268081Y-102031206I-103959J-489075D01*
G01*
X111920214Y-98963151D02*
G75*
G02*
X111659269Y-98977512I-156995J474747D01*
G01*
X111920215Y-98963153D02*
G75*
G02*
X112472781Y-99743669I156992J-474710D01*
G01*
X112090343Y-101542916D02*
G75*
G02*
X111268080Y-102031207I-485761J-118473D01*
G01*
X112090343Y-101542916D02*
G75*
G02*
X112087055Y-101320494I485751J118415D01*
G01*
X112379289Y-99945521D02*
G75*
G02*
X112472784Y-99743672I489400J-104109D01*
G01*
%TO.C,LED5*%
X42646191Y-49627841D02*
X42646191Y-48222157D01*
X43551738Y-47425000D02*
X45140643Y-47425000D01*
X45140642Y-50424999D02*
X43551738Y-50424999D01*
X46046189Y-48222157D02*
X46046189Y-49627841D01*
X42596706Y-48005279D02*
G75*
G02*
X42646166Y-48222157I-450516J-216821D01*
G01*
X42596706Y-48005279D02*
G75*
G02*
X43299479Y-47356700I450514J216879D01*
G01*
X42646191Y-49627842D02*
G75*
G02*
X42596707Y-49844719I-500361J82D01*
G01*
X43299479Y-50493296D02*
G75*
G02*
X42596710Y-49844721I-252259J431696D01*
G01*
X43299480Y-50493298D02*
G75*
G02*
X43551738Y-50425000I252260J-431712D01*
G01*
X43551737Y-47424999D02*
G75*
G02*
X43299479Y-47356700I3J500009D01*
G01*
X45140642Y-50424999D02*
G75*
G02*
X45392901Y-50493298I-2J-500009D01*
G01*
X45392901Y-47356701D02*
G75*
G02*
X45140643Y-47425000I-252261J431710D01*
G01*
X45392901Y-47356701D02*
G75*
G02*
X46095675Y-48005279I252259J-431700D01*
G01*
X46046189Y-48222156D02*
G75*
G02*
X46095674Y-48005279I499990J1D01*
G01*
X46095674Y-49844718D02*
G75*
G02*
X45392901Y-50493298I-450514J-216880D01*
G01*
X46095674Y-49844719D02*
G75*
G02*
X46046189Y-49627841I450505J216876D01*
G01*
%TO.C,LED13*%
X114646191Y-82127841D02*
X114646191Y-80722157D01*
X115551738Y-79925000D02*
X117140643Y-79925000D01*
X117140642Y-82924999D02*
X115551738Y-82924999D01*
X118046189Y-80722157D02*
X118046189Y-82127841D01*
X114596706Y-80505279D02*
G75*
G02*
X114646166Y-80722157I-450516J-216821D01*
G01*
X114596706Y-80505279D02*
G75*
G02*
X115299479Y-79856700I450514J216879D01*
G01*
X114646191Y-82127842D02*
G75*
G02*
X114596707Y-82344719I-500361J82D01*
G01*
X115299479Y-82993296D02*
G75*
G02*
X114596710Y-82344721I-252259J431696D01*
G01*
X115299480Y-82993298D02*
G75*
G02*
X115551738Y-82925000I252260J-431712D01*
G01*
X115551737Y-79924999D02*
G75*
G02*
X115299479Y-79856700I3J500009D01*
G01*
X117140642Y-82924999D02*
G75*
G02*
X117392901Y-82993298I-2J-500009D01*
G01*
X117392901Y-79856701D02*
G75*
G02*
X117140643Y-79925000I-252261J431710D01*
G01*
X117392901Y-79856701D02*
G75*
G02*
X118095675Y-80505279I252259J-431700D01*
G01*
X118046189Y-80722156D02*
G75*
G02*
X118095674Y-80505279I499990J1D01*
G01*
X118095674Y-82344718D02*
G75*
G02*
X117392901Y-82993298I-450514J-216880D01*
G01*
X118095674Y-82344719D02*
G75*
G02*
X118046189Y-82127841I450505J216876D01*
G01*
%TO.C,LED2*%
X96646191Y-46627841D02*
X96646191Y-45222157D01*
X97551738Y-44425000D02*
X99140643Y-44425000D01*
X99140642Y-47424999D02*
X97551738Y-47424999D01*
X100046189Y-45222157D02*
X100046189Y-46627841D01*
X96596706Y-45005279D02*
G75*
G02*
X96646166Y-45222157I-450516J-216821D01*
G01*
X96596706Y-45005279D02*
G75*
G02*
X97299479Y-44356700I450514J216879D01*
G01*
X96646191Y-46627842D02*
G75*
G02*
X96596707Y-46844719I-500361J82D01*
G01*
X97299479Y-47493296D02*
G75*
G02*
X96596710Y-46844721I-252259J431696D01*
G01*
X97299480Y-47493298D02*
G75*
G02*
X97551738Y-47425000I252260J-431712D01*
G01*
X97551737Y-44424999D02*
G75*
G02*
X97299479Y-44356700I3J500009D01*
G01*
X99140642Y-47424999D02*
G75*
G02*
X99392901Y-47493298I-2J-500009D01*
G01*
X99392901Y-44356701D02*
G75*
G02*
X99140643Y-44425000I-252261J431710D01*
G01*
X99392901Y-44356701D02*
G75*
G02*
X100095675Y-45005279I252259J-431700D01*
G01*
X100046189Y-45222156D02*
G75*
G02*
X100095674Y-45005279I499990J1D01*
G01*
X100095674Y-46844718D02*
G75*
G02*
X99392901Y-47493298I-450514J-216880D01*
G01*
X100095674Y-46844719D02*
G75*
G02*
X100046189Y-46627841I450505J216876D01*
G01*
%TO.C,LED14*%
X96646191Y-80627841D02*
X96646191Y-79222157D01*
X97551738Y-78425000D02*
X99140643Y-78425000D01*
X99140642Y-81424999D02*
X97551738Y-81424999D01*
X100046189Y-79222157D02*
X100046189Y-80627841D01*
X96596706Y-79005279D02*
G75*
G02*
X96646166Y-79222157I-450516J-216821D01*
G01*
X96596706Y-79005279D02*
G75*
G02*
X97299479Y-78356700I450514J216879D01*
G01*
X96646191Y-80627842D02*
G75*
G02*
X96596707Y-80844719I-500361J82D01*
G01*
X97299479Y-81493296D02*
G75*
G02*
X96596710Y-80844721I-252259J431696D01*
G01*
X97299480Y-81493298D02*
G75*
G02*
X97551738Y-81425000I252260J-431712D01*
G01*
X97551737Y-78424999D02*
G75*
G02*
X97299479Y-78356700I3J500009D01*
G01*
X99140642Y-81424999D02*
G75*
G02*
X99392901Y-81493298I-2J-500009D01*
G01*
X99392901Y-78356701D02*
G75*
G02*
X99140643Y-78425000I-252261J431710D01*
G01*
X99392901Y-78356701D02*
G75*
G02*
X100095675Y-79005279I252259J-431700D01*
G01*
X100046189Y-79222156D02*
G75*
G02*
X100095674Y-79005279I499990J1D01*
G01*
X100095674Y-80844718D02*
G75*
G02*
X99392901Y-81493298I-450514J-216880D01*
G01*
X100095674Y-80844719D02*
G75*
G02*
X100046189Y-80627841I450505J216876D01*
G01*
%TO.C,LED15*%
X78646191Y-77627841D02*
X78646191Y-76222157D01*
X79551738Y-75425000D02*
X81140643Y-75425000D01*
X81140642Y-78424999D02*
X79551738Y-78424999D01*
X82046189Y-76222157D02*
X82046189Y-77627841D01*
X78596706Y-76005279D02*
G75*
G02*
X78646166Y-76222157I-450516J-216821D01*
G01*
X78596706Y-76005279D02*
G75*
G02*
X79299479Y-75356700I450514J216879D01*
G01*
X78646191Y-77627842D02*
G75*
G02*
X78596707Y-77844719I-500361J82D01*
G01*
X79299479Y-78493296D02*
G75*
G02*
X78596710Y-77844721I-252259J431696D01*
G01*
X79299480Y-78493298D02*
G75*
G02*
X79551738Y-78425000I252260J-431712D01*
G01*
X79551737Y-75424999D02*
G75*
G02*
X79299479Y-75356700I3J500009D01*
G01*
X81140642Y-78424999D02*
G75*
G02*
X81392901Y-78493298I-2J-500009D01*
G01*
X81392901Y-75356701D02*
G75*
G02*
X81140643Y-75425000I-252261J431710D01*
G01*
X81392901Y-75356701D02*
G75*
G02*
X82095675Y-76005279I252259J-431700D01*
G01*
X82046189Y-76222156D02*
G75*
G02*
X82095674Y-76005279I499990J1D01*
G01*
X82095674Y-77844718D02*
G75*
G02*
X81392901Y-78493298I-450514J-216880D01*
G01*
X82095674Y-77844719D02*
G75*
G02*
X82046189Y-77627841I450505J216876D01*
G01*
%TO.C,LED9*%
X60646191Y-63627843D02*
X60646191Y-62222159D01*
X61551738Y-61425001D02*
X63140642Y-61425001D01*
X63140642Y-64425000D02*
X61551737Y-64425000D01*
X64046189Y-62222159D02*
X64046189Y-63627843D01*
X60596706Y-62005281D02*
G75*
G02*
X60646191Y-62222159I-450505J-216876D01*
G01*
X60596706Y-62005282D02*
G75*
G02*
X61299479Y-61356702I450514J216880D01*
G01*
X60646191Y-63627844D02*
G75*
G02*
X60596706Y-63844721I-499990J-1D01*
G01*
X61299479Y-64493299D02*
G75*
G02*
X60596705Y-63844721I-252259J431700D01*
G01*
X61299479Y-64493299D02*
G75*
G02*
X61551737Y-64425000I252261J-431710D01*
G01*
X61551738Y-61425001D02*
G75*
G02*
X61299479Y-61356702I2J500009D01*
G01*
X63140643Y-64425001D02*
G75*
G02*
X63392901Y-64493300I-3J-500009D01*
G01*
X63392900Y-61356702D02*
G75*
G02*
X63140642Y-61425000I-252260J431712D01*
G01*
X63392901Y-61356704D02*
G75*
G02*
X64095670Y-62005279I252259J-431696D01*
G01*
X64046189Y-62222158D02*
G75*
G02*
X64095673Y-62005281I500361J-82D01*
G01*
X64095674Y-63844721D02*
G75*
G02*
X63392901Y-64493300I-450514J-216879D01*
G01*
X64095674Y-63844721D02*
G75*
G02*
X64046214Y-63627843I450516J216821D01*
G01*
%TO.C,LED10*%
X78646191Y-60627843D02*
X78646191Y-59222159D01*
X79551738Y-58425001D02*
X81140642Y-58425001D01*
X81140642Y-61425000D02*
X79551737Y-61425000D01*
X82046189Y-59222159D02*
X82046189Y-60627843D01*
X78596706Y-59005281D02*
G75*
G02*
X78646191Y-59222159I-450505J-216876D01*
G01*
X78596706Y-59005282D02*
G75*
G02*
X79299479Y-58356702I450514J216880D01*
G01*
X78646191Y-60627844D02*
G75*
G02*
X78596706Y-60844721I-499990J-1D01*
G01*
X79299479Y-61493299D02*
G75*
G02*
X78596705Y-60844721I-252259J431700D01*
G01*
X79299479Y-61493299D02*
G75*
G02*
X79551737Y-61425000I252261J-431710D01*
G01*
X79551738Y-58425001D02*
G75*
G02*
X79299479Y-58356702I2J500009D01*
G01*
X81140643Y-61425001D02*
G75*
G02*
X81392901Y-61493300I-3J-500009D01*
G01*
X81392900Y-58356702D02*
G75*
G02*
X81140642Y-58425000I-252260J431712D01*
G01*
X81392901Y-58356704D02*
G75*
G02*
X82095670Y-59005279I252259J-431696D01*
G01*
X82046189Y-59222158D02*
G75*
G02*
X82095673Y-59005281I500361J-82D01*
G01*
X82095674Y-60844721D02*
G75*
G02*
X81392901Y-61493300I-450514J-216879D01*
G01*
X82095674Y-60844721D02*
G75*
G02*
X82046214Y-60627843I450516J216821D01*
G01*
%TO.C,LED3*%
X78646191Y-43627841D02*
X78646191Y-42222157D01*
X79551738Y-41425000D02*
X81140643Y-41425000D01*
X81140642Y-44424999D02*
X79551738Y-44424999D01*
X82046189Y-42222157D02*
X82046189Y-43627841D01*
X78596706Y-42005279D02*
G75*
G02*
X78646166Y-42222157I-450516J-216821D01*
G01*
X78596706Y-42005279D02*
G75*
G02*
X79299479Y-41356700I450514J216879D01*
G01*
X78646191Y-43627842D02*
G75*
G02*
X78596707Y-43844719I-500361J82D01*
G01*
X79299479Y-44493296D02*
G75*
G02*
X78596710Y-43844721I-252259J431696D01*
G01*
X79299480Y-44493298D02*
G75*
G02*
X79551738Y-44425000I252260J-431712D01*
G01*
X79551737Y-41424999D02*
G75*
G02*
X79299479Y-41356700I3J500009D01*
G01*
X81140642Y-44424999D02*
G75*
G02*
X81392901Y-44493298I-2J-500009D01*
G01*
X81392901Y-41356701D02*
G75*
G02*
X81140643Y-41425000I-252261J431710D01*
G01*
X81392901Y-41356701D02*
G75*
G02*
X82095675Y-42005279I252259J-431700D01*
G01*
X82046189Y-42222156D02*
G75*
G02*
X82095674Y-42005279I499990J1D01*
G01*
X82095674Y-43844718D02*
G75*
G02*
X81392901Y-44493298I-450514J-216880D01*
G01*
X82095674Y-43844719D02*
G75*
G02*
X82046189Y-43627841I450505J216876D01*
G01*
%TO.C,LED7*%
X24646191Y-66627843D02*
X24646191Y-65222159D01*
X25551738Y-64425001D02*
X27140642Y-64425001D01*
X27140642Y-67425000D02*
X25551737Y-67425000D01*
X28046189Y-65222159D02*
X28046189Y-66627843D01*
X24596706Y-65005281D02*
G75*
G02*
X24646191Y-65222159I-450505J-216876D01*
G01*
X24596706Y-65005282D02*
G75*
G02*
X25299479Y-64356702I450514J216880D01*
G01*
X24646191Y-66627844D02*
G75*
G02*
X24596706Y-66844721I-499990J-1D01*
G01*
X25299479Y-67493299D02*
G75*
G02*
X24596705Y-66844721I-252259J431700D01*
G01*
X25299479Y-67493299D02*
G75*
G02*
X25551737Y-67425000I252261J-431710D01*
G01*
X25551738Y-64425001D02*
G75*
G02*
X25299479Y-64356702I2J500009D01*
G01*
X27140643Y-67425001D02*
G75*
G02*
X27392901Y-67493300I-3J-500009D01*
G01*
X27392900Y-64356702D02*
G75*
G02*
X27140642Y-64425000I-252260J431712D01*
G01*
X27392901Y-64356704D02*
G75*
G02*
X28095670Y-65005279I252259J-431696D01*
G01*
X28046189Y-65222158D02*
G75*
G02*
X28095673Y-65005281I500361J-82D01*
G01*
X28095674Y-66844721D02*
G75*
G02*
X27392901Y-67493300I-450514J-216879D01*
G01*
X28095674Y-66844721D02*
G75*
G02*
X28046214Y-66627843I450516J216821D01*
G01*
%TO.C,LED8*%
X42646191Y-66627843D02*
X42646191Y-65222159D01*
X43551738Y-64425001D02*
X45140642Y-64425001D01*
X45140642Y-67425000D02*
X43551737Y-67425000D01*
X46046189Y-65222159D02*
X46046189Y-66627843D01*
X42596706Y-65005281D02*
G75*
G02*
X42646191Y-65222159I-450505J-216876D01*
G01*
X42596706Y-65005282D02*
G75*
G02*
X43299479Y-64356702I450514J216880D01*
G01*
X42646191Y-66627844D02*
G75*
G02*
X42596706Y-66844721I-499990J-1D01*
G01*
X43299479Y-67493299D02*
G75*
G02*
X42596705Y-66844721I-252259J431700D01*
G01*
X43299479Y-67493299D02*
G75*
G02*
X43551737Y-67425000I252261J-431710D01*
G01*
X43551738Y-64425001D02*
G75*
G02*
X43299479Y-64356702I2J500009D01*
G01*
X45140643Y-67425001D02*
G75*
G02*
X45392901Y-67493300I-3J-500009D01*
G01*
X45392900Y-64356702D02*
G75*
G02*
X45140642Y-64425000I-252260J431712D01*
G01*
X45392901Y-64356704D02*
G75*
G02*
X46095670Y-65005279I252259J-431696D01*
G01*
X46046189Y-65222158D02*
G75*
G02*
X46095673Y-65005281I500361J-82D01*
G01*
X46095674Y-66844721D02*
G75*
G02*
X45392901Y-67493300I-450514J-216879D01*
G01*
X46095674Y-66844721D02*
G75*
G02*
X46046214Y-66627843I450516J216821D01*
G01*
%TO.C,LED11*%
X96646191Y-63627843D02*
X96646191Y-62222159D01*
X97551738Y-61425001D02*
X99140642Y-61425001D01*
X99140642Y-64425000D02*
X97551737Y-64425000D01*
X100046189Y-62222159D02*
X100046189Y-63627843D01*
X96596706Y-62005281D02*
G75*
G02*
X96646191Y-62222159I-450505J-216876D01*
G01*
X96596706Y-62005282D02*
G75*
G02*
X97299479Y-61356702I450514J216880D01*
G01*
X96646191Y-63627844D02*
G75*
G02*
X96596706Y-63844721I-499990J-1D01*
G01*
X97299479Y-64493299D02*
G75*
G02*
X96596705Y-63844721I-252259J431700D01*
G01*
X97299479Y-64493299D02*
G75*
G02*
X97551737Y-64425000I252261J-431710D01*
G01*
X97551738Y-61425001D02*
G75*
G02*
X97299479Y-61356702I2J500009D01*
G01*
X99140643Y-64425001D02*
G75*
G02*
X99392901Y-64493300I-3J-500009D01*
G01*
X99392900Y-61356702D02*
G75*
G02*
X99140642Y-61425000I-252260J431712D01*
G01*
X99392901Y-61356704D02*
G75*
G02*
X100095670Y-62005279I252259J-431696D01*
G01*
X100046189Y-62222158D02*
G75*
G02*
X100095673Y-62005281I500361J-82D01*
G01*
X100095674Y-63844721D02*
G75*
G02*
X99392901Y-64493300I-450514J-216879D01*
G01*
X100095674Y-63844721D02*
G75*
G02*
X100046214Y-63627843I450516J216821D01*
G01*
%TO.C,LED21*%
X123783108Y-104554993D02*
X124429373Y-103103457D01*
X125427185Y-106278228D02*
X124143029Y-105706485D01*
X125525933Y-102600432D02*
X126810089Y-103172176D01*
X127170009Y-104323667D02*
X126523743Y-105775204D01*
X123783108Y-104554993D02*
G75*
G02*
X123618111Y-104757664I-456786J203378D01*
G01*
X123924774Y-105663480D02*
G75*
G02*
X124143029Y-105706485I14882J-499806D01*
G01*
X123924775Y-105663480D02*
G75*
G02*
X123618112Y-104757665I-14890J499777D01*
G01*
X124469582Y-102845229D02*
G75*
G02*
X124429371Y-103103456I-496970J-54856D01*
G01*
X124469584Y-102845228D02*
G75*
G02*
X125347938Y-102467007I496986J54859D01*
G01*
X125427186Y-106278229D02*
G75*
G02*
X125605186Y-106411647I-203363J-456764D01*
G01*
X125525932Y-102600432D02*
G75*
G02*
X125347932Y-102467013I203611J457092D01*
G01*
X126483535Y-106033433D02*
G75*
G02*
X125605185Y-106411648I-496980J-54863D01*
G01*
X126483535Y-106033433D02*
G75*
G02*
X126523743Y-105775204I497018J54855D01*
G01*
X127028344Y-103215181D02*
G75*
G02*
X126810099Y-103172153I-14834J499756D01*
G01*
X127028344Y-103215181D02*
G75*
G02*
X127335007Y-104120997I14888J-499778D01*
G01*
X127170010Y-104323666D02*
G75*
G02*
X127335007Y-104120997I456780J-203375D01*
G01*
%TO.C,LED1*%
X114646191Y-48127841D02*
X114646191Y-46722157D01*
X115551738Y-45925000D02*
X117140643Y-45925000D01*
X117140642Y-48924999D02*
X115551738Y-48924999D01*
X118046189Y-46722157D02*
X118046189Y-48127841D01*
X114596706Y-46505279D02*
G75*
G02*
X114646166Y-46722157I-450516J-216821D01*
G01*
X114596706Y-46505279D02*
G75*
G02*
X115299479Y-45856700I450514J216879D01*
G01*
X114646191Y-48127842D02*
G75*
G02*
X114596707Y-48344719I-500361J82D01*
G01*
X115299479Y-48993296D02*
G75*
G02*
X114596710Y-48344721I-252259J431696D01*
G01*
X115299480Y-48993298D02*
G75*
G02*
X115551738Y-48925000I252260J-431712D01*
G01*
X115551737Y-45924999D02*
G75*
G02*
X115299479Y-45856700I3J500009D01*
G01*
X117140642Y-48924999D02*
G75*
G02*
X117392901Y-48993298I-2J-500009D01*
G01*
X117392901Y-45856701D02*
G75*
G02*
X117140643Y-45925000I-252261J431710D01*
G01*
X117392901Y-45856701D02*
G75*
G02*
X118095675Y-46505279I252259J-431700D01*
G01*
X118046189Y-46722156D02*
G75*
G02*
X118095674Y-46505279I499990J1D01*
G01*
X118095674Y-48344718D02*
G75*
G02*
X117392901Y-48993298I-450514J-216880D01*
G01*
X118095674Y-48344719D02*
G75*
G02*
X118046189Y-48127841I450505J216876D01*
G01*
%TO.C,LED17*%
X42646191Y-83627841D02*
X42646191Y-82222157D01*
X43551738Y-81425000D02*
X45140643Y-81425000D01*
X45140642Y-84424999D02*
X43551738Y-84424999D01*
X46046189Y-82222157D02*
X46046189Y-83627841D01*
X42596706Y-82005279D02*
G75*
G02*
X42646166Y-82222157I-450516J-216821D01*
G01*
X42596706Y-82005279D02*
G75*
G02*
X43299479Y-81356700I450514J216879D01*
G01*
X42646191Y-83627842D02*
G75*
G02*
X42596707Y-83844719I-500361J82D01*
G01*
X43299479Y-84493296D02*
G75*
G02*
X42596710Y-83844721I-252259J431696D01*
G01*
X43299480Y-84493298D02*
G75*
G02*
X43551738Y-84425000I252260J-431712D01*
G01*
X43551737Y-81424999D02*
G75*
G02*
X43299479Y-81356700I3J500009D01*
G01*
X45140642Y-84424999D02*
G75*
G02*
X45392901Y-84493298I-2J-500009D01*
G01*
X45392901Y-81356701D02*
G75*
G02*
X45140643Y-81425000I-252261J431710D01*
G01*
X45392901Y-81356701D02*
G75*
G02*
X46095675Y-82005279I252259J-431700D01*
G01*
X46046189Y-82222156D02*
G75*
G02*
X46095674Y-82005279I499990J1D01*
G01*
X46095674Y-83844718D02*
G75*
G02*
X45392901Y-84493298I-450514J-216880D01*
G01*
X46095674Y-83844719D02*
G75*
G02*
X46046189Y-83627841I450505J216876D01*
G01*
%TO.C,LED4*%
X60646191Y-46627841D02*
X60646191Y-45222157D01*
X61551738Y-44425000D02*
X63140643Y-44425000D01*
X63140642Y-47424999D02*
X61551738Y-47424999D01*
X64046189Y-45222157D02*
X64046189Y-46627841D01*
X60596706Y-45005279D02*
G75*
G02*
X60646166Y-45222157I-450516J-216821D01*
G01*
X60596706Y-45005279D02*
G75*
G02*
X61299479Y-44356700I450514J216879D01*
G01*
X60646191Y-46627842D02*
G75*
G02*
X60596707Y-46844719I-500361J82D01*
G01*
X61299479Y-47493296D02*
G75*
G02*
X60596710Y-46844721I-252259J431696D01*
G01*
X61299480Y-47493298D02*
G75*
G02*
X61551738Y-47425000I252260J-431712D01*
G01*
X61551737Y-44424999D02*
G75*
G02*
X61299479Y-44356700I3J500009D01*
G01*
X63140642Y-47424999D02*
G75*
G02*
X63392901Y-47493298I-2J-500009D01*
G01*
X63392901Y-44356701D02*
G75*
G02*
X63140643Y-44425000I-252261J431710D01*
G01*
X63392901Y-44356701D02*
G75*
G02*
X64095675Y-45005279I252259J-431700D01*
G01*
X64046189Y-45222156D02*
G75*
G02*
X64095674Y-45005279I499990J1D01*
G01*
X64095674Y-46844718D02*
G75*
G02*
X63392901Y-47493298I-450514J-216880D01*
G01*
X64095674Y-46844719D02*
G75*
G02*
X64046189Y-46627841I450505J216876D01*
G01*
%TO.C,LED18*%
X24646191Y-83627841D02*
X24646191Y-82222157D01*
X25551738Y-81425000D02*
X27140643Y-81425000D01*
X27140642Y-84424999D02*
X25551738Y-84424999D01*
X28046189Y-82222157D02*
X28046189Y-83627841D01*
X24596706Y-82005279D02*
G75*
G02*
X24646166Y-82222157I-450516J-216821D01*
G01*
X24596706Y-82005279D02*
G75*
G02*
X25299479Y-81356700I450514J216879D01*
G01*
X24646191Y-83627842D02*
G75*
G02*
X24596707Y-83844719I-500361J82D01*
G01*
X25299479Y-84493296D02*
G75*
G02*
X24596710Y-83844721I-252259J431696D01*
G01*
X25299480Y-84493298D02*
G75*
G02*
X25551738Y-84425000I252260J-431712D01*
G01*
X25551737Y-81424999D02*
G75*
G02*
X25299479Y-81356700I3J500009D01*
G01*
X27140642Y-84424999D02*
G75*
G02*
X27392901Y-84493298I-2J-500009D01*
G01*
X27392901Y-81356701D02*
G75*
G02*
X27140643Y-81425000I-252261J431710D01*
G01*
X27392901Y-81356701D02*
G75*
G02*
X28095675Y-82005279I252259J-431700D01*
G01*
X28046189Y-82222156D02*
G75*
G02*
X28095674Y-82005279I499990J1D01*
G01*
X28095674Y-83844718D02*
G75*
G02*
X27392901Y-84493298I-450514J-216880D01*
G01*
X28095674Y-83844719D02*
G75*
G02*
X28046189Y-83627841I450505J216876D01*
G01*
%TO.C,LED16*%
X60646191Y-80627841D02*
X60646191Y-79222157D01*
X61551738Y-78425000D02*
X63140643Y-78425000D01*
X63140642Y-81424999D02*
X61551738Y-81424999D01*
X64046189Y-79222157D02*
X64046189Y-80627841D01*
X60596706Y-79005279D02*
G75*
G02*
X60646166Y-79222157I-450516J-216821D01*
G01*
X60596706Y-79005279D02*
G75*
G02*
X61299479Y-78356700I450514J216879D01*
G01*
X60646191Y-80627842D02*
G75*
G02*
X60596707Y-80844719I-500361J82D01*
G01*
X61299479Y-81493296D02*
G75*
G02*
X60596710Y-80844721I-252259J431696D01*
G01*
X61299480Y-81493298D02*
G75*
G02*
X61551738Y-81425000I252260J-431712D01*
G01*
X61551737Y-78424999D02*
G75*
G02*
X61299479Y-78356700I3J500009D01*
G01*
X63140642Y-81424999D02*
G75*
G02*
X63392901Y-81493298I-2J-500009D01*
G01*
X63392901Y-78356701D02*
G75*
G02*
X63140643Y-78425000I-252261J431710D01*
G01*
X63392901Y-78356701D02*
G75*
G02*
X64095675Y-79005279I252259J-431700D01*
G01*
X64046189Y-79222156D02*
G75*
G02*
X64095674Y-79005279I499990J1D01*
G01*
X64095674Y-80844718D02*
G75*
G02*
X63392901Y-81493298I-450514J-216880D01*
G01*
X64095674Y-80844719D02*
G75*
G02*
X64046189Y-80627841I450505J216876D01*
G01*
%TO.C,LED19*%
X88196191Y-98827843D02*
X88196191Y-97422159D01*
X89101738Y-96625001D02*
X90690642Y-96625001D01*
X90690642Y-99625000D02*
X89101737Y-99625000D01*
X91596189Y-97422159D02*
X91596189Y-98827843D01*
X88146706Y-97205281D02*
G75*
G02*
X88196191Y-97422159I-450505J-216876D01*
G01*
X88146706Y-97205282D02*
G75*
G02*
X88849479Y-96556702I450514J216880D01*
G01*
X88196191Y-98827844D02*
G75*
G02*
X88146706Y-99044721I-499990J-1D01*
G01*
X88849479Y-99693299D02*
G75*
G02*
X88146705Y-99044721I-252259J431700D01*
G01*
X88849479Y-99693299D02*
G75*
G02*
X89101737Y-99625000I252261J-431710D01*
G01*
X89101738Y-96625001D02*
G75*
G02*
X88849479Y-96556702I2J500009D01*
G01*
X90690643Y-99625001D02*
G75*
G02*
X90942901Y-99693300I-3J-500009D01*
G01*
X90942900Y-96556702D02*
G75*
G02*
X90690642Y-96625000I-252260J431712D01*
G01*
X90942901Y-96556704D02*
G75*
G02*
X91645670Y-97205279I252259J-431696D01*
G01*
X91596189Y-97422158D02*
G75*
G02*
X91645673Y-97205281I500361J-82D01*
G01*
X91645674Y-99044721D02*
G75*
G02*
X90942901Y-99693300I-450514J-216879D01*
G01*
X91645674Y-99044721D02*
G75*
G02*
X91596214Y-98827843I450516J216821D01*
G01*
%TD*%
M02*
