M48
; DRILL file {KiCad 9.0.5} date 2025-11-02T20:15:12+0700
; FORMAT={-:-/ absolute / metric / decimal}
; #@! TF.CreationDate,2025-11-02T20:15:12+07:00
; #@! TF.GenerationSoftware,Kicad,Pcbnew,9.0.5
; #@! TF.FileFunction,NonPlated,1,2,NPTH
FMAT,2
METRIC
; #@! TA.AperFunction,NonPlated,NPTH,ComponentDrill
T1C1.700
; #@! TA.AperFunction,NonPlated,NPTH,ComponentDrill
T2C2.200
; #@! TA.AperFunction,NonPlated,NPTH,ComponentDrill
T3C3.400
%
G90
G05
T1
X20.881Y-53.815
X20.881Y-70.815
X20.881Y-87.815
X31.881Y-53.815
X31.881Y-70.815
X31.881Y-87.815
X38.881Y-53.815
X38.881Y-70.815
X38.881Y-87.815
X49.881Y-53.815
X49.881Y-70.815
X49.881Y-87.815
X56.881Y-50.815
X56.881Y-67.815
X56.881Y-84.815
X67.881Y-50.815
X67.881Y-67.815
X67.881Y-84.815
X74.881Y-47.815
X74.881Y-64.815
X74.881Y-81.815
X84.431Y-103.015
X85.881Y-47.815
X85.881Y-64.815
X85.881Y-81.815
X92.881Y-50.815
X92.881Y-67.815
X92.881Y-84.815
X95.431Y-103.015
X103.881Y-50.815
X103.881Y-67.815
X103.881Y-84.815
X104.208Y-103.926
X110.881Y-52.315
X110.881Y-69.315
X110.881Y-86.315
X114.968Y-106.213
X121.881Y-52.315
X121.881Y-69.315
X121.881Y-86.315
X127.721Y-111.421
X132.195Y-101.372
T2
X52.901Y-44.865
X55.001Y-95.555
X86.551Y-92.325
X128.001Y-47.985
X143.011Y-94.0
T3
X26.381Y-53.815
X26.381Y-70.815
X26.381Y-87.815
X44.381Y-53.815
X44.381Y-70.815
X44.381Y-87.815
X62.381Y-50.815
X62.381Y-67.815
X62.381Y-84.815
X80.381Y-47.815
X80.381Y-64.815
X80.381Y-81.815
X89.931Y-103.015
X98.381Y-50.815
X98.381Y-67.815
X98.381Y-84.815
X109.588Y-105.07
X116.381Y-52.315
X116.381Y-69.315
X116.381Y-86.315
X129.958Y-106.396
M30
