M48
; DRILL file {KiCad 9.0.5} date 2025-11-02T20:15:12+0700
; FORMAT={-:-/ absolute / metric / decimal}
; #@! TF.CreationDate,2025-11-02T20:15:12+07:00
; #@! TF.GenerationSoftware,Kicad,Pcbnew,9.0.5
; #@! TF.FileFunction,Plated,1,2,PTH
FMAT,2
METRIC
; #@! TA.AperFunction,Plated,PTH,ViaDrill
T1C0.300
; #@! TA.AperFunction,Plated,PTH,ComponentDrill
T2C1.000
; #@! TA.AperFunction,Plated,PTH,ComponentDrill
T3C1.200
; #@! TA.AperFunction,Plated,PTH,ComponentDrill
T4C3.000
%
G90
G05
T1
X20.521Y-50.59
X20.581Y-47.535
X20.641Y-81.645
X23.621Y-49.675
X23.701Y-66.615
X29.071Y-83.675
X32.231Y-67.61
X38.521Y-47.64
X38.621Y-81.685
X50.221Y-67.59
X56.511Y-78.625
X56.521Y-47.59
X56.521Y-81.59
X56.531Y-44.625
X68.111Y-64.61
X74.521Y-41.64
X74.521Y-78.59
X74.561Y-75.675
X83.071Y-60.675
X92.484Y-44.677
X92.521Y-78.64
X95.621Y-62.175
X95.821Y-99.835
X101.071Y-63.685
X104.011Y-58.445
X109.991Y-80.395
X110.521Y-46.14
X110.521Y-83.09
X113.831Y-57.595
X115.931Y-103.075
X119.071Y-48.175
X119.071Y-63.675
X119.151Y-80.615
X122.361Y-66.035
X125.841Y-59.745
X125.851Y-70.595
X126.211Y-79.845
X128.651Y-55.613
X130.091Y-88.355
X130.381Y-50.315
X135.041Y-102.225
T2
X129.921Y-53.073
X129.921Y-55.613
X129.921Y-58.153
X129.921Y-60.693
X129.921Y-63.233
X129.921Y-65.773
X129.921Y-68.313
X129.921Y-70.853
X129.921Y-73.393
X132.461Y-73.393
X135.001Y-73.393
X137.541Y-73.393
X140.081Y-73.393
X142.621Y-73.393
X145.161Y-53.073
X145.161Y-55.613
X145.161Y-58.153
X145.161Y-60.693
X145.161Y-63.233
X145.161Y-65.773
X145.161Y-68.313
X145.161Y-70.853
X145.161Y-73.393
T3
X138.191Y-81.005
X138.191Y-83.545
X138.191Y-86.085
X138.191Y-88.625
T4
X21.381Y-57.565
X21.381Y-74.565
X21.381Y-91.565
X26.381Y-59.765
X26.381Y-76.765
X26.381Y-93.765
X39.381Y-57.565
X39.381Y-74.565
X39.381Y-91.565
X44.381Y-59.765
X44.381Y-76.765
X44.381Y-93.765
X57.381Y-54.565
X57.381Y-71.565
X57.381Y-88.565
X62.381Y-56.765
X62.381Y-73.765
X62.381Y-90.765
X75.381Y-51.565
X75.381Y-68.565
X75.381Y-85.565
X80.381Y-53.765
X80.381Y-70.765
X80.381Y-87.765
X84.931Y-106.765
X89.931Y-108.965
X93.381Y-54.565
X93.381Y-71.565
X93.381Y-88.565
X98.381Y-56.765
X98.381Y-73.765
X98.381Y-90.765
X103.917Y-107.698
X108.351Y-110.89
X111.381Y-56.065
X111.381Y-73.065
X111.381Y-90.065
X116.381Y-58.265
X116.381Y-75.265
X116.381Y-92.265
X131.35Y-112.489
X135.394Y-108.816
M30
