  0
SECTION
  2
HEADER
  9
$ANGBASE
  50
0.0
  9
$ANGDIR
  70
1
  9
$MEASUREMENT
  70
1
  0
ENDSEC
  0
SECTION
  2
TABLES
  0
TABLE
  2
LTYPE
  70
4
  0
LTYPE
  5
40F
  2
CONTINUOUS
  70
0
  3
Solid line
  72
65
  73
0
  40
0.0
  0
LTYPE
  5
410
  2
DASHDOT
 70
0
  3
Dash Dot ____ _ ____ _
 72
65
 73
4
 40
2.0
 49
1.25
 49
-0.25
 49
0.25
 49
-0.25
  0
LTYPE
  5
411
  2
DASHED
 70
0
  3
Dashed __ __ __ __ __
 72
65
 73
2
 40
0.75
 49
0.5
 49
-0.25
  0
LTYPE
  5
43B
  2
DOTTED
 70
0
  3
Dotted .  .  .  .
 72
65
 73
2
 40
0.2
 49
0.0
 49
-0.2
  0
ENDTAB
  0
TABLE
  2
STYLE
  70
4
  0
STYLE
  2
KICAD
  70
0
  40
0
  41
1
  42
1
  50
0
  71
0
  3
isocp.shx
  0
STYLE
  2
KICADB
  70
0
  40
0
  41
1
  42
1
  50
0
  71
0
  3
isocp.shx
  0
STYLE
  2
KICADI
  70
0
  40
0
  41
1
  42
1
  50
15
  71
0
  3
isocp.shx
  0
STYLE
  2
KICADBI
  70
0
  40
0
  41
1
  42
1
  50
15
  71
0
  3
isocp.shx
  0
ENDTAB
  0
TABLE
  2
LAYER
  70
1
  0
LAYER
  2
BLACK
  70
0
  62
7
  6
CONTINUOUS
  0
ENDTAB
  0
ENDSEC
  0
SECTION
  2
ENTITIES
0
LINE
8
BLACK
6
CONTINUOUS
10
61.3590749999999971
20
-105.1701479999999975
11
61.3662369999999981
21
-105.1767689999999931
0
LINE
8
BLACK
6
CONTINUOUS
10
61.3662369999999981
20
-105.1767689999999931
11
69.4776749999999907
21
-116.341204999999988
0
LINE
8
BLACK
6
CONTINUOUS
10
69.4776749999999907
20
-116.341204999999988
11
69.4817579999999992
21
-116.3500629999999916
0
LINE
8
BLACK
6
CONTINUOUS
10
69.4817579999999992
20
-116.3500629999999916
11
69.4787649999999957
21
-116.3689619999999962
0
LINE
8
BLACK
6
CONTINUOUS
10
69.4787649999999957
20
-116.3689619999999962
11
69.4787620000000032
21
-116.3689639999999912
0
LINE
8
BLACK
6
CONTINUOUS
10
69.4787620000000032
20
-116.3689639999999912
11
69.4721440000000001
21
-116.3761239999999901
0
LINE
8
BLACK
6
CONTINUOUS
10
69.4721440000000001
20
-116.3761239999999901
11
58.3077089999999956
21
-124.4875609999999995
0
LINE
8
BLACK
6
CONTINUOUS
10
58.3077089999999956
20
-124.4875609999999995
11
58.2988499999999945
21
-124.4916449999999912
0
LINE
8
BLACK
6
CONTINUOUS
10
58.2988499999999945
20
-124.4916449999999912
11
58.279950999999997
21
-124.4886519999999877
0
LINE
8
BLACK
6
CONTINUOUS
10
58.279950999999997
20
-124.4886519999999877
11
58.2799479999999974
21
-124.4886489999999952
0
LINE
8
BLACK
6
CONTINUOUS
10
58.2799479999999974
20
-124.4886489999999952
11
58.272788999999996
21
-124.4820309999999921
0
LINE
8
BLACK
6
CONTINUOUS
10
58.272788999999996
20
-124.4820309999999921
11
50.1613520000000008
21
-113.3175959999999947
0
LINE
8
BLACK
6
CONTINUOUS
10
50.1613520000000008
20
-113.3175959999999947
11
50.1572679999999949
21
-113.3087369999999936
0
LINE
8
BLACK
6
CONTINUOUS
10
50.1572679999999949
20
-113.3087369999999936
11
50.1602609999999984
21
-113.2898379999999889
0
LINE
8
BLACK
6
CONTINUOUS
10
50.1602609999999984
20
-113.2898379999999889
11
50.1668820000000011
21
-113.282675999999995
0
LINE
8
BLACK
6
CONTINUOUS
10
50.1668820000000011
20
-113.282675999999995
11
61.331317999999996
21
-105.1712379999999882
0
LINE
8
BLACK
6
CONTINUOUS
10
61.331317999999996
20
-105.1712379999999882
11
61.3401759999999996
21
-105.1671549999999939
0
LINE
8
BLACK
6
CONTINUOUS
10
61.3401759999999996
20
-105.1671549999999939
11
61.3590749999999971
21
-105.1701479999999975
0
LINE
8
BLACK
6
CONTINUOUS
10
50.2164959999999994
20
-113.3084309999999988
11
58.2985439999999997
21
-124.4324149999999918
0
LINE
8
BLACK
6
CONTINUOUS
10
58.2985439999999997
20
-124.4324149999999918
11
69.4225279999999998
21
-116.3503679999999889
0
LINE
8
BLACK
6
CONTINUOUS
10
69.4225279999999998
20
-116.3503679999999889
11
61.3404809999999969
21
-105.2263829999999984
0
LINE
8
BLACK
6
CONTINUOUS
10
61.3404809999999969
20
-105.2263829999999984
11
50.2164959999999994
21
-113.3084309999999988
0
LINE
8
BLACK
6
CONTINUOUS
10
80.5386179999999996
20
-95.7902459999999962
11
80.5442479999999961
21
-95.7982119999999924
0
LINE
8
BLACK
6
CONTINUOUS
10
80.5442479999999961
20
-95.7982119999999924
11
86.1572120000000012
21
-108.4051379999999938
0
LINE
8
BLACK
6
CONTINUOUS
10
86.1572120000000012
20
-108.4051379999999938
11
86.159364999999994
21
-108.4146519999999896
0
LINE
8
BLACK
6
CONTINUOUS
10
86.159364999999994
20
-108.4146519999999896
11
86.159364999999994
21
-108.4146530000000013
0
LINE
8
BLACK
6
CONTINUOUS
10
86.159364999999994
20
-108.4146530000000013
11
86.1525079999999974
21
-108.4325159999999926
0
LINE
8
BLACK
6
CONTINUOUS
10
86.1525079999999974
20
-108.4325159999999926
11
86.1445420000000013
21
-108.438145999999989
0
LINE
8
BLACK
6
CONTINUOUS
10
86.1445420000000013
20
-108.438145999999989
11
73.5376150000000024
21
-114.0511109999999917
0
LINE
8
BLACK
6
CONTINUOUS
10
73.5376150000000024
20
-114.0511109999999917
11
73.5281019999999899
21
-114.0532630000000012
0
LINE
8
BLACK
6
CONTINUOUS
10
73.5281019999999899
20
-114.0532630000000012
11
73.5281009999999924
21
-114.0532619999999895
0
LINE
8
BLACK
6
CONTINUOUS
10
73.5281009999999924
20
-114.0532619999999895
11
73.5281009999999924
21
-114.0532630000000012
0
LINE
8
BLACK
6
CONTINUOUS
10
73.5281009999999924
20
-114.0532630000000012
11
73.5102380000000011
21
-114.0464059999999904
0
LINE
8
BLACK
6
CONTINUOUS
10
73.5102380000000011
20
-114.0464059999999904
11
73.5046079999999904
21
-114.0384399999999943
0
LINE
8
BLACK
6
CONTINUOUS
10
73.5046079999999904
20
-114.0384399999999943
11
67.891643000000002
21
-101.4315129999999954
0
LINE
8
BLACK
6
CONTINUOUS
10
67.891643000000002
20
-101.4315129999999954
11
67.8894909999999925
21
-101.421999999999997
0
LINE
8
BLACK
6
CONTINUOUS
10
67.8894909999999925
20
-101.421999999999997
11
67.8963480000000033
21
-101.4041359999999941
0
LINE
8
BLACK
6
CONTINUOUS
10
67.8963480000000033
20
-101.4041359999999941
11
67.9043139999999994
21
-101.3985059999999976
0
LINE
8
BLACK
6
CONTINUOUS
10
67.9043139999999994
20
-101.3985059999999976
11
80.5112400000000008
21
-95.7855419999999924
0
LINE
8
BLACK
6
CONTINUOUS
10
80.5112400000000008
20
-95.7855419999999924
11
80.5207539999999966
21
-95.7833889999999997
0
LINE
8
BLACK
6
CONTINUOUS
10
80.5207539999999966
20
-95.7833889999999997
11
80.5386179999999996
21
-95.7902459999999962
0
LINE
8
BLACK
6
CONTINUOUS
10
67.9474889999999903
20
-101.4340150000000023
11
73.5401159999999976
21
-113.9952639999999917
0
LINE
8
BLACK
6
CONTINUOUS
10
73.5401159999999976
20
-113.9952639999999917
11
86.1013659999999987
21
-108.4026369999999986
0
LINE
8
BLACK
6
CONTINUOUS
10
86.1013659999999987
20
-108.4026369999999986
11
80.5087379999999939
21
-95.8413869999999974
0
LINE
8
BLACK
6
CONTINUOUS
10
80.5087379999999939
20
-95.8413869999999974
11
67.9474889999999903
21
-101.4340150000000023
0
LINE
8
BLACK
6
CONTINUOUS
10
102.7296589999999981
20
-95.3503570000000025
11
102.7335099999999954
21
-95.3593189999999993
0
LINE
8
BLACK
6
CONTINUOUS
10
102.7335099999999954
20
-95.3593189999999993
11
105.602690999999993
21
-108.8577559999999949
0
LINE
8
BLACK
6
CONTINUOUS
10
105.602690999999993
20
-108.8577559999999949
11
105.6028179999999992
21
-108.8675099999999958
0
LINE
8
BLACK
6
CONTINUOUS
10
105.6028179999999992
20
-108.8675099999999958
11
105.5923969999999912
21
-108.8835569999999962
0
LINE
8
BLACK
6
CONTINUOUS
10
105.5923969999999912
20
-108.8835569999999962
11
105.5834349999999944
21
-108.8874079999999935
0
LINE
8
BLACK
6
CONTINUOUS
10
105.5834349999999944
20
-108.8874079999999935
11
92.0849979999999988
21
-111.7565889999999911
0
LINE
8
BLACK
6
CONTINUOUS
10
92.0849979999999988
20
-111.7565889999999911
11
92.0752439999999979
21
-111.7567159999999973
0
LINE
8
BLACK
6
CONTINUOUS
10
92.0752439999999979
20
-111.7567159999999973
11
92.0591969999999975
21
-111.7462949999999893
0
LINE
8
BLACK
6
CONTINUOUS
10
92.0591969999999975
20
-111.7462949999999893
11
92.0553460000000001
21
-111.7373329999999925
0
LINE
8
BLACK
6
CONTINUOUS
10
92.0553460000000001
20
-111.7373329999999925
11
89.1861650000000026
21
-98.2388959999999969
0
LINE
8
BLACK
6
CONTINUOUS
10
89.1861650000000026
20
-98.2388959999999969
11
89.1860379999999964
21
-98.229141999999996
0
LINE
8
BLACK
6
CONTINUOUS
10
89.1860379999999964
20
-98.229141999999996
11
89.1964589999999902
21
-98.2130949999999956
0
LINE
8
BLACK
6
CONTINUOUS
10
89.1964589999999902
20
-98.2130949999999956
11
89.2054210000000012
21
-98.2092439999999982
0
LINE
8
BLACK
6
CONTINUOUS
10
89.2054210000000012
20
-98.2092439999999982
11
102.7038579999999968
21
-95.3400630000000007
0
LINE
8
BLACK
6
CONTINUOUS
10
102.7038579999999968
20
-95.3400630000000007
11
102.7136119999999977
21
-95.3399359999999945
0
LINE
8
BLACK
6
CONTINUOUS
10
102.7136119999999977
20
-95.3399359999999945
11
102.7296589999999981
21
-95.3503570000000025
0
LINE
8
BLACK
6
CONTINUOUS
10
89.2402699999999953
20
-98.2529540000000026
11
92.0990559999999903
21
-111.7024830000000009
0
LINE
8
BLACK
6
CONTINUOUS
10
92.0990559999999903
20
-111.7024830000000009
11
105.5485849999999886
21
-108.8436969999999917
0
LINE
8
BLACK
6
CONTINUOUS
10
105.5485849999999886
20
-108.8436969999999917
11
102.6897989999999936
21
-95.3941679999999934
0
LINE
8
BLACK
6
CONTINUOUS
10
102.6897989999999936
20
-95.3941679999999934
11
89.2402699999999953
21
-98.2529540000000026
0
LINE
8
BLACK
6
CONTINUOUS
10
123.973994999999988
20
-94.5652290000000022
11
123.9875249999999909
21
-94.5787589999999909
0
LINE
8
BLACK
6
CONTINUOUS
10
123.9875249999999909
20
-94.5787589999999909
11
123.9894279999999895
21
-94.588325999999995
0
LINE
8
BLACK
6
CONTINUOUS
10
123.9894279999999895
20
-94.588325999999995
11
123.9894279999999895
21
-108.3883259999999922
0
LINE
8
BLACK
6
CONTINUOUS
10
123.9894279999999895
20
-108.3883259999999922
11
123.9875249999999909
21
-108.3978929999999963
0
LINE
8
BLACK
6
CONTINUOUS
10
123.9875249999999909
20
-108.3978929999999963
11
123.973994999999988
21
-108.4114229999999992
0
LINE
8
BLACK
6
CONTINUOUS
10
123.973994999999988
20
-108.4114229999999992
11
123.9644279999999981
21
-108.4133259999999979
0
LINE
8
BLACK
6
CONTINUOUS
10
123.9644279999999981
20
-108.4133259999999979
11
110.1644280000000009
21
-108.4133259999999979
0
LINE
8
BLACK
6
CONTINUOUS
10
110.1644280000000009
20
-108.4133259999999979
11
110.1548609999999968
21
-108.4114229999999992
0
LINE
8
BLACK
6
CONTINUOUS
10
110.1548609999999968
20
-108.4114229999999992
11
110.1413309999999939
21
-108.3978929999999963
0
LINE
8
BLACK
6
CONTINUOUS
10
110.1413309999999939
20
-108.3978929999999963
11
110.1394279999999952
21
-108.3883259999999922
0
LINE
8
BLACK
6
CONTINUOUS
10
110.1394279999999952
20
-108.3883259999999922
11
110.1394279999999952
21
-94.588325999999995
0
LINE
8
BLACK
6
CONTINUOUS
10
110.1394279999999952
20
-94.588325999999995
11
110.1413309999999939
21
-94.5787589999999909
0
LINE
8
BLACK
6
CONTINUOUS
10
110.1413309999999939
20
-94.5787589999999909
11
110.1548609999999968
21
-94.5652290000000022
0
LINE
8
BLACK
6
CONTINUOUS
10
110.1548609999999968
20
-94.5652290000000022
11
110.1644280000000009
21
-94.5633259999999893
0
LINE
8
BLACK
6
CONTINUOUS
10
110.1644280000000009
20
-94.5633259999999893
11
123.9644279999999981
21
-94.5633259999999893
0
LINE
8
BLACK
6
CONTINUOUS
10
123.9644279999999981
20
-94.5633259999999893
11
123.973994999999988
21
-94.5652290000000022
0
LINE
8
BLACK
6
CONTINUOUS
10
110.1894279999999924
20
-94.6133260000000007
11
110.1894279999999924
21
-108.3633260000000007
0
LINE
8
BLACK
6
CONTINUOUS
10
110.1894279999999924
20
-108.3633260000000007
11
123.9394279999999924
21
-108.3633260000000007
0
LINE
8
BLACK
6
CONTINUOUS
10
123.9394279999999924
20
-108.3633260000000007
11
123.9394279999999924
21
-94.6133260000000007
0
LINE
8
BLACK
6
CONTINUOUS
10
123.9394279999999924
20
-94.6133260000000007
11
110.1894279999999924
21
-94.6133260000000007
0
LINE
8
BLACK
6
CONTINUOUS
10
77.5775229999999993
20
-46.9787529999999975
11
77.5794279999999929
21
-46.9883199999999945
0
LINE
8
BLACK
6
CONTINUOUS
10
77.5794279999999929
20
-46.9883199999999945
11
77.5894279999999981
21
-88.088319999999996
0
LINE
8
BLACK
6
CONTINUOUS
10
77.5894279999999981
20
-88.088319999999996
11
77.5875269999999944
21
-88.0978870000000001
0
LINE
8
BLACK
6
CONTINUOUS
10
77.5875269999999944
20
-88.0978870000000001
11
77.5841939999999965
21
-88.1012199999999979
0
LINE
8
BLACK
6
CONTINUOUS
10
77.5841939999999965
20
-88.1012199999999979
11
77.5824839999999938
21
-88.1056179999999927
0
LINE
8
BLACK
6
CONTINUOUS
10
77.5824839999999938
20
-88.1056179999999927
11
77.5744919999999922
21
-88.1112109999999973
0
LINE
8
BLACK
6
CONTINUOUS
10
77.5744919999999922
20
-88.1112109999999973
11
58.5644919999999942
21
-96.4712109999999967
0
LINE
8
BLACK
6
CONTINUOUS
10
58.5644919999999942
20
-96.4712109999999967
11
58.5549679999999952
21
-96.4733200000000011
0
LINE
8
BLACK
6
CONTINUOUS
10
58.5549679999999952
20
-96.4733200000000011
11
58.5371359999999967
21
-96.4663819999999959
0
LINE
8
BLACK
6
CONTINUOUS
10
58.5371359999999967
20
-96.4663819999999959
11
58.5294339999999949
21
-96.4488659999999953
0
LINE
8
BLACK
6
CONTINUOUS
10
58.5294339999999949
20
-96.4488659999999953
11
58.5363720000000001
21
-96.4310339999999968
0
LINE
8
BLACK
6
CONTINUOUS
10
58.5363720000000001
20
-96.4310339999999968
11
58.5443639999999945
21
-96.4254409999999922
0
LINE
8
BLACK
6
CONTINUOUS
10
58.5443639999999945
20
-96.4254409999999922
11
77.5394239999999968
21
-88.0720109999999892
0
LINE
8
BLACK
6
CONTINUOUS
10
77.5394239999999968
20
-88.0720109999999892
11
77.5294279999999958
21
-46.9883319999999998
0
LINE
8
BLACK
6
CONTINUOUS
10
77.5294279999999958
20
-46.9883319999999998
11
77.5313289999999995
21
-46.9787649999999957
0
LINE
8
BLACK
6
CONTINUOUS
10
77.5313289999999995
20
-46.9787649999999957
11
77.5448549999999983
21
-46.9652309999999957
0
LINE
8
BLACK
6
CONTINUOUS
10
77.5448549999999983
20
-46.9652309999999957
11
77.5639889999999923
21
-46.9652269999999987
0
LINE
8
BLACK
6
CONTINUOUS
10
77.5639889999999923
20
-46.9652269999999987
11
77.5775229999999993
21
-46.9787529999999975
0
LINE
8
BLACK
6
CONTINUOUS
10
169.4739950000000022
20
-80.0652290000000022
11
169.4875250000000051
21
-80.0787589999999909
0
LINE
8
BLACK
6
CONTINUOUS
10
169.4875250000000051
20
-80.0787589999999909
11
169.4894280000000037
21
-80.088325999999995
0
LINE
8
BLACK
6
CONTINUOUS
10
169.4894280000000037
20
-80.088325999999995
11
169.4894280000000037
21
-93.8883259999999922
0
LINE
8
BLACK
6
CONTINUOUS
10
169.4894280000000037
20
-93.8883259999999922
11
169.4875250000000051
21
-93.8978929999999963
0
LINE
8
BLACK
6
CONTINUOUS
10
169.4875250000000051
20
-93.8978929999999963
11
169.4739950000000022
21
-93.9114229999999992
0
LINE
8
BLACK
6
CONTINUOUS
10
169.4739950000000022
20
-93.9114229999999992
11
169.4644279999999981
21
-93.9133259999999979
0
LINE
8
BLACK
6
CONTINUOUS
10
169.4644279999999981
20
-93.9133259999999979
11
155.6644279999999867
21
-93.9133259999999979
0
LINE
8
BLACK
6
CONTINUOUS
10
155.6644279999999867
20
-93.9133259999999979
11
155.6548609999999826
21
-93.9114229999999992
0
LINE
8
BLACK
6
CONTINUOUS
10
155.6548609999999826
20
-93.9114229999999992
11
155.6413309999999797
21
-93.8978929999999963
0
LINE
8
BLACK
6
CONTINUOUS
10
155.6413309999999797
20
-93.8978929999999963
11
155.639427999999981
21
-93.8883259999999922
0
LINE
8
BLACK
6
CONTINUOUS
10
155.639427999999981
20
-93.8883259999999922
11
155.639427999999981
21
-80.088325999999995
0
LINE
8
BLACK
6
CONTINUOUS
10
155.639427999999981
20
-80.088325999999995
11
155.6413309999999797
21
-80.0787589999999909
0
LINE
8
BLACK
6
CONTINUOUS
10
155.6413309999999797
20
-80.0787589999999909
11
155.6548609999999826
21
-80.0652290000000022
0
LINE
8
BLACK
6
CONTINUOUS
10
155.6548609999999826
20
-80.0652290000000022
11
155.6644279999999867
21
-80.0633259999999893
0
LINE
8
BLACK
6
CONTINUOUS
10
155.6644279999999867
20
-80.0633259999999893
11
169.4644279999999981
21
-80.0633259999999893
0
LINE
8
BLACK
6
CONTINUOUS
10
169.4644279999999981
20
-80.0633259999999893
11
169.4739950000000022
21
-80.0652290000000022
0
LINE
8
BLACK
6
CONTINUOUS
10
155.6894279999999924
20
-80.1133260000000007
11
155.6894279999999924
21
-93.8633260000000007
0
LINE
8
BLACK
6
CONTINUOUS
10
155.6894279999999924
20
-93.8633260000000007
11
169.4394279999999924
21
-93.8633260000000007
0
LINE
8
BLACK
6
CONTINUOUS
10
169.4394279999999924
20
-93.8633260000000007
11
169.4394279999999924
21
-80.1133260000000007
0
LINE
8
BLACK
6
CONTINUOUS
10
169.4394279999999924
20
-80.1133260000000007
11
155.6894279999999924
21
-80.1133260000000007
0
LINE
8
BLACK
6
CONTINUOUS
10
187.4739950000000022
20
-80.0652290000000022
11
187.4875250000000051
21
-80.0787589999999909
0
LINE
8
BLACK
6
CONTINUOUS
10
187.4875250000000051
20
-80.0787589999999909
11
187.4894280000000037
21
-80.088325999999995
0
LINE
8
BLACK
6
CONTINUOUS
10
187.4894280000000037
20
-80.088325999999995
11
187.4894280000000037
21
-93.8883259999999922
0
LINE
8
BLACK
6
CONTINUOUS
10
187.4894280000000037
20
-93.8883259999999922
11
187.4875250000000051
21
-93.8978929999999963
0
LINE
8
BLACK
6
CONTINUOUS
10
187.4875250000000051
20
-93.8978929999999963
11
187.4739950000000022
21
-93.9114229999999992
0
LINE
8
BLACK
6
CONTINUOUS
10
187.4739950000000022
20
-93.9114229999999992
11
187.4644279999999981
21
-93.9133259999999979
0
LINE
8
BLACK
6
CONTINUOUS
10
187.4644279999999981
20
-93.9133259999999979
11
173.6644279999999867
21
-93.9133259999999979
0
LINE
8
BLACK
6
CONTINUOUS
10
173.6644279999999867
20
-93.9133259999999979
11
173.6548609999999826
21
-93.9114229999999992
0
LINE
8
BLACK
6
CONTINUOUS
10
173.6548609999999826
20
-93.9114229999999992
11
173.6413309999999797
21
-93.8978929999999963
0
LINE
8
BLACK
6
CONTINUOUS
10
173.6413309999999797
20
-93.8978929999999963
11
173.639427999999981
21
-93.8883259999999922
0
LINE
8
BLACK
6
CONTINUOUS
10
173.639427999999981
20
-93.8883259999999922
11
173.639427999999981
21
-80.088325999999995
0
LINE
8
BLACK
6
CONTINUOUS
10
173.639427999999981
20
-80.088325999999995
11
173.6413309999999797
21
-80.0787589999999909
0
LINE
8
BLACK
6
CONTINUOUS
10
173.6413309999999797
20
-80.0787589999999909
11
173.6548609999999826
21
-80.0652290000000022
0
LINE
8
BLACK
6
CONTINUOUS
10
173.6548609999999826
20
-80.0652290000000022
11
173.6644279999999867
21
-80.0633259999999893
0
LINE
8
BLACK
6
CONTINUOUS
10
173.6644279999999867
20
-80.0633259999999893
11
187.4644279999999981
21
-80.0633259999999893
0
LINE
8
BLACK
6
CONTINUOUS
10
187.4644279999999981
20
-80.0633259999999893
11
187.4739950000000022
21
-80.0652290000000022
0
LINE
8
BLACK
6
CONTINUOUS
10
173.6894279999999924
20
-80.1133260000000007
11
173.6894279999999924
21
-93.8633260000000007
0
LINE
8
BLACK
6
CONTINUOUS
10
173.6894279999999924
20
-93.8633260000000007
11
187.4394279999999924
21
-93.8633260000000007
0
LINE
8
BLACK
6
CONTINUOUS
10
187.4394279999999924
20
-93.8633260000000007
11
187.4394279999999924
21
-80.1133260000000007
0
LINE
8
BLACK
6
CONTINUOUS
10
187.4394279999999924
20
-80.1133260000000007
11
173.6894279999999924
21
-80.1133260000000007
0
LINE
8
BLACK
6
CONTINUOUS
10
97.4739950000000022
20
-78.5652290000000022
11
97.4875249999999909
21
-78.5787589999999909
0
LINE
8
BLACK
6
CONTINUOUS
10
97.4875249999999909
20
-78.5787589999999909
11
97.4894279999999895
21
-78.588325999999995
0
LINE
8
BLACK
6
CONTINUOUS
10
97.4894279999999895
20
-78.588325999999995
11
97.4894279999999895
21
-92.3883259999999922
0
LINE
8
BLACK
6
CONTINUOUS
10
97.4894279999999895
20
-92.3883259999999922
11
97.4875249999999909
21
-92.3978929999999963
0
LINE
8
BLACK
6
CONTINUOUS
10
97.4875249999999909
20
-92.3978929999999963
11
97.4739950000000022
21
-92.4114229999999992
0
LINE
8
BLACK
6
CONTINUOUS
10
97.4739950000000022
20
-92.4114229999999992
11
97.4644279999999981
21
-92.4133259999999979
0
LINE
8
BLACK
6
CONTINUOUS
10
97.4644279999999981
20
-92.4133259999999979
11
83.6644280000000009
21
-92.4133259999999979
0
LINE
8
BLACK
6
CONTINUOUS
10
83.6644280000000009
20
-92.4133259999999979
11
83.6548609999999968
21
-92.4114229999999992
0
LINE
8
BLACK
6
CONTINUOUS
10
83.6548609999999968
20
-92.4114229999999992
11
83.6413309999999939
21
-92.3978929999999963
0
LINE
8
BLACK
6
CONTINUOUS
10
83.6413309999999939
20
-92.3978929999999963
11
83.6394279999999952
21
-92.3883259999999922
0
LINE
8
BLACK
6
CONTINUOUS
10
83.6394279999999952
20
-92.3883259999999922
11
83.6394279999999952
21
-78.588325999999995
0
LINE
8
BLACK
6
CONTINUOUS
10
83.6394279999999952
20
-78.588325999999995
11
83.6413309999999939
21
-78.5787589999999909
0
LINE
8
BLACK
6
CONTINUOUS
10
83.6413309999999939
20
-78.5787589999999909
11
83.6548609999999968
21
-78.5652290000000022
0
LINE
8
BLACK
6
CONTINUOUS
10
83.6548609999999968
20
-78.5652290000000022
11
83.6644280000000009
21
-78.5633260000000035
0
LINE
8
BLACK
6
CONTINUOUS
10
83.6644280000000009
20
-78.5633260000000035
11
97.4644279999999981
21
-78.5633260000000035
0
LINE
8
BLACK
6
CONTINUOUS
10
97.4644279999999981
20
-78.5633260000000035
11
97.4739950000000022
21
-78.5652290000000022
0
LINE
8
BLACK
6
CONTINUOUS
10
83.6894279999999924
20
-78.6133260000000007
11
83.6894279999999924
21
-92.3633260000000007
0
LINE
8
BLACK
6
CONTINUOUS
10
83.6894279999999924
20
-92.3633260000000007
11
97.4394279999999924
21
-92.3633260000000007
0
LINE
8
BLACK
6
CONTINUOUS
10
97.4394279999999924
20
-92.3633260000000007
11
97.4394279999999924
21
-78.6133260000000007
0
LINE
8
BLACK
6
CONTINUOUS
10
97.4394279999999924
20
-78.6133260000000007
11
83.6894279999999924
21
-78.6133260000000007
0
LINE
8
BLACK
6
CONTINUOUS
10
115.473994999999988
20
-77.0652290000000022
11
115.4875249999999909
21
-77.0787589999999909
0
LINE
8
BLACK
6
CONTINUOUS
10
115.4875249999999909
20
-77.0787589999999909
11
115.4894279999999895
21
-77.088325999999995
0
LINE
8
BLACK
6
CONTINUOUS
10
115.4894279999999895
20
-77.088325999999995
11
115.4894279999999895
21
-90.8883259999999922
0
LINE
8
BLACK
6
CONTINUOUS
10
115.4894279999999895
20
-90.8883259999999922
11
115.4875249999999909
21
-90.8978929999999963
0
LINE
8
BLACK
6
CONTINUOUS
10
115.4875249999999909
20
-90.8978929999999963
11
115.473994999999988
21
-90.9114229999999992
0
LINE
8
BLACK
6
CONTINUOUS
10
115.473994999999988
20
-90.9114229999999992
11
115.4644279999999981
21
-90.9133259999999979
0
LINE
8
BLACK
6
CONTINUOUS
10
115.4644279999999981
20
-90.9133259999999979
11
101.6644280000000009
21
-90.9133259999999979
0
LINE
8
BLACK
6
CONTINUOUS
10
101.6644280000000009
20
-90.9133259999999979
11
101.6548609999999968
21
-90.9114229999999992
0
LINE
8
BLACK
6
CONTINUOUS
10
101.6548609999999968
20
-90.9114229999999992
11
101.6413309999999939
21
-90.8978929999999963
0
LINE
8
BLACK
6
CONTINUOUS
10
101.6413309999999939
20
-90.8978929999999963
11
101.6394279999999952
21
-90.8883259999999922
0
LINE
8
BLACK
6
CONTINUOUS
10
101.6394279999999952
20
-90.8883259999999922
11
101.6394279999999952
21
-77.088325999999995
0
LINE
8
BLACK
6
CONTINUOUS
10
101.6394279999999952
20
-77.088325999999995
11
101.6413309999999939
21
-77.0787589999999909
0
LINE
8
BLACK
6
CONTINUOUS
10
101.6413309999999939
20
-77.0787589999999909
11
101.6548609999999968
21
-77.0652290000000022
0
LINE
8
BLACK
6
CONTINUOUS
10
101.6548609999999968
20
-77.0652290000000022
11
101.6644280000000009
21
-77.0633260000000035
0
LINE
8
BLACK
6
CONTINUOUS
10
101.6644280000000009
20
-77.0633260000000035
11
115.4644279999999981
21
-77.0633260000000035
0
LINE
8
BLACK
6
CONTINUOUS
10
115.4644279999999981
20
-77.0633260000000035
11
115.473994999999988
21
-77.0652290000000022
0
LINE
8
BLACK
6
CONTINUOUS
10
101.6894279999999924
20
-77.1133260000000007
11
101.6894279999999924
21
-90.8633260000000007
0
LINE
8
BLACK
6
CONTINUOUS
10
101.6894279999999924
20
-90.8633260000000007
11
115.4394279999999924
21
-90.8633260000000007
0
LINE
8
BLACK
6
CONTINUOUS
10
115.4394279999999924
20
-90.8633260000000007
11
115.4394279999999924
21
-77.1133260000000007
0
LINE
8
BLACK
6
CONTINUOUS
10
115.4394279999999924
20
-77.1133260000000007
11
101.6894279999999924
21
-77.1133260000000007
0
LINE
8
BLACK
6
CONTINUOUS
10
151.4739950000000022
20
-77.0652290000000022
11
151.4875250000000051
21
-77.0787589999999909
0
LINE
8
BLACK
6
CONTINUOUS
10
151.4875250000000051
20
-77.0787589999999909
11
151.4894280000000037
21
-77.088325999999995
0
LINE
8
BLACK
6
CONTINUOUS
10
151.4894280000000037
20
-77.088325999999995
11
151.4894280000000037
21
-90.8883259999999922
0
LINE
8
BLACK
6
CONTINUOUS
10
151.4894280000000037
20
-90.8883259999999922
11
151.4875250000000051
21
-90.8978929999999963
0
LINE
8
BLACK
6
CONTINUOUS
10
151.4875250000000051
20
-90.8978929999999963
11
151.4739950000000022
21
-90.9114229999999992
0
LINE
8
BLACK
6
CONTINUOUS
10
151.4739950000000022
20
-90.9114229999999992
11
151.4644279999999981
21
-90.9133259999999979
0
LINE
8
BLACK
6
CONTINUOUS
10
151.4644279999999981
20
-90.9133259999999979
11
137.6644279999999867
21
-90.9133259999999979
0
LINE
8
BLACK
6
CONTINUOUS
10
137.6644279999999867
20
-90.9133259999999979
11
137.6548609999999826
21
-90.9114229999999992
0
LINE
8
BLACK
6
CONTINUOUS
10
137.6548609999999826
20
-90.9114229999999992
11
137.6413309999999797
21
-90.8978929999999963
0
LINE
8
BLACK
6
CONTINUOUS
10
137.6413309999999797
20
-90.8978929999999963
11
137.639427999999981
21
-90.8883259999999922
0
LINE
8
BLACK
6
CONTINUOUS
10
137.639427999999981
20
-90.8883259999999922
11
137.639427999999981
21
-77.088325999999995
0
LINE
8
BLACK
6
CONTINUOUS
10
137.639427999999981
20
-77.088325999999995
11
137.6413309999999797
21
-77.0787589999999909
0
LINE
8
BLACK
6
CONTINUOUS
10
137.6413309999999797
20
-77.0787589999999909
11
137.6548609999999826
21
-77.0652290000000022
0
LINE
8
BLACK
6
CONTINUOUS
10
137.6548609999999826
20
-77.0652290000000022
11
137.6644279999999867
21
-77.0633260000000035
0
LINE
8
BLACK
6
CONTINUOUS
10
137.6644279999999867
20
-77.0633260000000035
11
151.4644279999999981
21
-77.0633260000000035
0
LINE
8
BLACK
6
CONTINUOUS
10
151.4644279999999981
20
-77.0633260000000035
11
151.4739950000000022
21
-77.0652290000000022
0
LINE
8
BLACK
6
CONTINUOUS
10
137.6894279999999924
20
-77.1133260000000007
11
137.6894279999999924
21
-90.8633260000000007
0
LINE
8
BLACK
6
CONTINUOUS
10
137.6894279999999924
20
-90.8633260000000007
11
151.4394279999999924
21
-90.8633260000000007
0
LINE
8
BLACK
6
CONTINUOUS
10
151.4394279999999924
20
-90.8633260000000007
11
151.4394279999999924
21
-77.1133260000000007
0
LINE
8
BLACK
6
CONTINUOUS
10
151.4394279999999924
20
-77.1133260000000007
11
137.6894279999999924
21
-77.1133260000000007
0
LINE
8
BLACK
6
CONTINUOUS
10
133.4739950000000022
20
-74.0652290000000022
11
133.4875250000000051
21
-74.0787589999999909
0
LINE
8
BLACK
6
CONTINUOUS
10
133.4875250000000051
20
-74.0787589999999909
11
133.4894280000000037
21
-74.088325999999995
0
LINE
8
BLACK
6
CONTINUOUS
10
133.4894280000000037
20
-74.088325999999995
11
133.4894280000000037
21
-87.8883259999999922
0
LINE
8
BLACK
6
CONTINUOUS
10
133.4894280000000037
20
-87.8883259999999922
11
133.4875250000000051
21
-87.8978929999999963
0
LINE
8
BLACK
6
CONTINUOUS
10
133.4875250000000051
20
-87.8978929999999963
11
133.4739950000000022
21
-87.9114229999999992
0
LINE
8
BLACK
6
CONTINUOUS
10
133.4739950000000022
20
-87.9114229999999992
11
133.4644279999999981
21
-87.9133259999999979
0
LINE
8
BLACK
6
CONTINUOUS
10
133.4644279999999981
20
-87.9133259999999979
11
119.6644280000000009
21
-87.9133259999999979
0
LINE
8
BLACK
6
CONTINUOUS
10
119.6644280000000009
20
-87.9133259999999979
11
119.6548609999999968
21
-87.9114229999999992
0
LINE
8
BLACK
6
CONTINUOUS
10
119.6548609999999968
20
-87.9114229999999992
11
119.6413309999999939
21
-87.8978929999999963
0
LINE
8
BLACK
6
CONTINUOUS
10
119.6413309999999939
20
-87.8978929999999963
11
119.6394279999999952
21
-87.8883259999999922
0
LINE
8
BLACK
6
CONTINUOUS
10
119.6394279999999952
20
-87.8883259999999922
11
119.6394279999999952
21
-74.088325999999995
0
LINE
8
BLACK
6
CONTINUOUS
10
119.6394279999999952
20
-74.088325999999995
11
119.6413309999999939
21
-74.0787589999999909
0
LINE
8
BLACK
6
CONTINUOUS
10
119.6413309999999939
20
-74.0787589999999909
11
119.6548609999999968
21
-74.0652290000000022
0
LINE
8
BLACK
6
CONTINUOUS
10
119.6548609999999968
20
-74.0652290000000022
11
119.6644280000000009
21
-74.0633260000000035
0
LINE
8
BLACK
6
CONTINUOUS
10
119.6644280000000009
20
-74.0633260000000035
11
133.4644279999999981
21
-74.0633260000000035
0
LINE
8
BLACK
6
CONTINUOUS
10
133.4644279999999981
20
-74.0633260000000035
11
133.4739950000000022
21
-74.0652290000000022
0
LINE
8
BLACK
6
CONTINUOUS
10
119.6894279999999924
20
-74.1133260000000007
11
119.6894279999999924
21
-87.8633260000000007
0
LINE
8
BLACK
6
CONTINUOUS
10
119.6894279999999924
20
-87.8633260000000007
11
133.4394279999999924
21
-87.8633260000000007
0
LINE
8
BLACK
6
CONTINUOUS
10
133.4394279999999924
20
-87.8633260000000007
11
133.4394279999999924
21
-74.1133260000000007
0
LINE
8
BLACK
6
CONTINUOUS
10
133.4394279999999924
20
-74.1133260000000007
11
119.6894279999999924
21
-74.1133260000000007
0
LINE
8
BLACK
6
CONTINUOUS
10
60.901061999999996
20
-75.492131999999998
11
60.9281219999999948
21
-75.5191919999999897
0
LINE
8
BLACK
6
CONTINUOUS
10
60.9281219999999948
20
-75.5191919999999897
11
60.9319279999999992
21
-75.5383259999999979
0
LINE
8
BLACK
6
CONTINUOUS
10
60.9319279999999992
20
-75.5383259999999979
11
60.9319279999999992
21
-81.1183259999999962
0
LINE
8
BLACK
6
CONTINUOUS
10
60.9319279999999992
20
-81.1183259999999962
11
60.9281219999999948
21
-81.1374599999999901
0
LINE
8
BLACK
6
CONTINUOUS
10
60.9281219999999948
20
-81.1374599999999901
11
60.901061999999996
21
-81.164519999999996
0
LINE
8
BLACK
6
CONTINUOUS
10
60.901061999999996
20
-81.164519999999996
11
60.8819279999999949
21
-81.1683259999999933
0
LINE
8
BLACK
6
CONTINUOUS
10
60.8819279999999949
20
-81.1683259999999933
11
58.8619279999999989
21
-81.1683259999999933
0
LINE
8
BLACK
6
CONTINUOUS
10
58.8619279999999989
20
-81.1683259999999933
11
58.8427939999999978
21
-81.164519999999996
0
LINE
8
BLACK
6
CONTINUOUS
10
58.8427939999999978
20
-81.164519999999996
11
58.8157339999999991
21
-81.1374599999999901
0
LINE
8
BLACK
6
CONTINUOUS
10
58.8157339999999991
20
-81.1374599999999901
11
58.8119279999999947
21
-81.1183259999999962
0
LINE
8
BLACK
6
CONTINUOUS
10
58.8119279999999947
20
-81.1183259999999962
11
58.8119279999999947
21
-75.5383259999999979
0
LINE
8
BLACK
6
CONTINUOUS
10
58.8119279999999947
20
-75.5383259999999979
11
58.8157339999999991
21
-75.5191919999999897
0
LINE
8
BLACK
6
CONTINUOUS
10
58.8157339999999991
20
-75.5191919999999897
11
58.8427939999999978
21
-75.492131999999998
0
LINE
8
BLACK
6
CONTINUOUS
10
58.8427939999999978
20
-75.492131999999998
11
58.8619279999999989
21
-75.4883260000000007
0
LINE
8
BLACK
6
CONTINUOUS
10
58.8619279999999989
20
-75.4883260000000007
11
60.8819279999999949
21
-75.4883260000000007
0
LINE
8
BLACK
6
CONTINUOUS
10
60.8819279999999949
20
-75.4883260000000007
11
60.901061999999996
21
-75.492131999999998
0
LINE
8
BLACK
6
CONTINUOUS
10
58.9119279999999961
20
-75.588325999999995
11
58.9119279999999961
21
-81.068325999999999
0
LINE
8
BLACK
6
CONTINUOUS
10
58.9119279999999961
20
-81.068325999999999
11
60.8319279999999978
21
-81.068325999999999
0
LINE
8
BLACK
6
CONTINUOUS
10
60.8319279999999978
20
-81.068325999999999
11
60.8319279999999978
21
-75.588325999999995
0
LINE
8
BLACK
6
CONTINUOUS
10
60.8319279999999978
20
-75.588325999999995
11
58.9119279999999961
21
-75.588325999999995
0
LINE
8
BLACK
6
CONTINUOUS
10
169.4739950000000022
20
-63.0652289999999951
11
169.4875250000000051
21
-63.078758999999998
0
LINE
8
BLACK
6
CONTINUOUS
10
169.4875250000000051
20
-63.078758999999998
11
169.4894280000000037
21
-63.088325999999995
0
LINE
8
BLACK
6
CONTINUOUS
10
169.4894280000000037
20
-63.088325999999995
11
169.4894280000000037
21
-76.8883259999999922
0
LINE
8
BLACK
6
CONTINUOUS
10
169.4894280000000037
20
-76.8883259999999922
11
169.4875250000000051
21
-76.8978929999999963
0
LINE
8
BLACK
6
CONTINUOUS
10
169.4875250000000051
20
-76.8978929999999963
11
169.4739950000000022
21
-76.9114229999999992
0
LINE
8
BLACK
6
CONTINUOUS
10
169.4739950000000022
20
-76.9114229999999992
11
169.4644279999999981
21
-76.9133259999999979
0
LINE
8
BLACK
6
CONTINUOUS
10
169.4644279999999981
20
-76.9133259999999979
11
155.6644279999999867
21
-76.9133259999999979
0
LINE
8
BLACK
6
CONTINUOUS
10
155.6644279999999867
20
-76.9133259999999979
11
155.6548609999999826
21
-76.9114229999999992
0
LINE
8
BLACK
6
CONTINUOUS
10
155.6548609999999826
20
-76.9114229999999992
11
155.6413309999999797
21
-76.8978929999999963
0
LINE
8
BLACK
6
CONTINUOUS
10
155.6413309999999797
20
-76.8978929999999963
11
155.639427999999981
21
-76.8883259999999922
0
LINE
8
BLACK
6
CONTINUOUS
10
155.639427999999981
20
-76.8883259999999922
11
155.639427999999981
21
-63.088325999999995
0
LINE
8
BLACK
6
CONTINUOUS
10
155.639427999999981
20
-63.088325999999995
11
155.6413309999999797
21
-63.078758999999998
0
LINE
8
BLACK
6
CONTINUOUS
10
155.6413309999999797
20
-63.078758999999998
11
155.6548609999999826
21
-63.0652289999999951
0
LINE
8
BLACK
6
CONTINUOUS
10
155.6548609999999826
20
-63.0652289999999951
11
155.6644279999999867
21
-63.0633259999999964
0
LINE
8
BLACK
6
CONTINUOUS
10
155.6644279999999867
20
-63.0633259999999964
11
169.4644279999999981
21
-63.0633259999999964
0
LINE
8
BLACK
6
CONTINUOUS
10
169.4644279999999981
20
-63.0633259999999964
11
169.4739950000000022
21
-63.0652289999999951
0
LINE
8
BLACK
6
CONTINUOUS
10
155.6894279999999924
20
-63.1133259999999936
11
155.6894279999999924
21
-76.8633260000000007
0
LINE
8
BLACK
6
CONTINUOUS
10
155.6894279999999924
20
-76.8633260000000007
11
169.4394279999999924
21
-76.8633260000000007
0
LINE
8
BLACK
6
CONTINUOUS
10
169.4394279999999924
20
-76.8633260000000007
11
169.4394279999999924
21
-63.1133259999999936
0
LINE
8
BLACK
6
CONTINUOUS
10
169.4394279999999924
20
-63.1133259999999936
11
155.6894279999999924
21
-63.1133259999999936
0
LINE
8
BLACK
6
CONTINUOUS
10
187.4739950000000022
20
-63.0652289999999951
11
187.4875250000000051
21
-63.078758999999998
0
LINE
8
BLACK
6
CONTINUOUS
10
187.4875250000000051
20
-63.078758999999998
11
187.4894280000000037
21
-63.088325999999995
0
LINE
8
BLACK
6
CONTINUOUS
10
187.4894280000000037
20
-63.088325999999995
11
187.4894280000000037
21
-76.8883259999999922
0
LINE
8
BLACK
6
CONTINUOUS
10
187.4894280000000037
20
-76.8883259999999922
11
187.4875250000000051
21
-76.8978929999999963
0
LINE
8
BLACK
6
CONTINUOUS
10
187.4875250000000051
20
-76.8978929999999963
11
187.4739950000000022
21
-76.9114229999999992
0
LINE
8
BLACK
6
CONTINUOUS
10
187.4739950000000022
20
-76.9114229999999992
11
187.4644279999999981
21
-76.9133259999999979
0
LINE
8
BLACK
6
CONTINUOUS
10
187.4644279999999981
20
-76.9133259999999979
11
173.6644279999999867
21
-76.9133259999999979
0
LINE
8
BLACK
6
CONTINUOUS
10
173.6644279999999867
20
-76.9133259999999979
11
173.6548609999999826
21
-76.9114229999999992
0
LINE
8
BLACK
6
CONTINUOUS
10
173.6548609999999826
20
-76.9114229999999992
11
173.6413309999999797
21
-76.8978929999999963
0
LINE
8
BLACK
6
CONTINUOUS
10
173.6413309999999797
20
-76.8978929999999963
11
173.639427999999981
21
-76.8883259999999922
0
LINE
8
BLACK
6
CONTINUOUS
10
173.639427999999981
20
-76.8883259999999922
11
173.639427999999981
21
-63.088325999999995
0
LINE
8
BLACK
6
CONTINUOUS
10
173.639427999999981
20
-63.088325999999995
11
173.6413309999999797
21
-63.078758999999998
0
LINE
8
BLACK
6
CONTINUOUS
10
173.6413309999999797
20
-63.078758999999998
11
173.6548609999999826
21
-63.0652289999999951
0
LINE
8
BLACK
6
CONTINUOUS
10
173.6548609999999826
20
-63.0652289999999951
11
173.6644279999999867
21
-63.0633259999999964
0
LINE
8
BLACK
6
CONTINUOUS
10
173.6644279999999867
20
-63.0633259999999964
11
187.4644279999999981
21
-63.0633259999999964
0
LINE
8
BLACK
6
CONTINUOUS
10
187.4644279999999981
20
-63.0633259999999964
11
187.4739950000000022
21
-63.0652289999999951
0
LINE
8
BLACK
6
CONTINUOUS
10
173.6894279999999924
20
-63.1133259999999936
11
173.6894279999999924
21
-76.8633260000000007
0
LINE
8
BLACK
6
CONTINUOUS
10
173.6894279999999924
20
-76.8633260000000007
11
187.4394279999999924
21
-76.8633260000000007
0
LINE
8
BLACK
6
CONTINUOUS
10
187.4394279999999924
20
-76.8633260000000007
11
187.4394279999999924
21
-63.1133259999999936
0
LINE
8
BLACK
6
CONTINUOUS
10
187.4394279999999924
20
-63.1133259999999936
11
173.6894279999999924
21
-63.1133259999999936
0
LINE
8
BLACK
6
CONTINUOUS
10
97.4739950000000022
20
-61.5652289999999951
11
97.4875249999999909
21
-61.578758999999998
0
LINE
8
BLACK
6
CONTINUOUS
10
97.4875249999999909
20
-61.578758999999998
11
97.4894279999999895
21
-61.588325999999995
0
LINE
8
BLACK
6
CONTINUOUS
10
97.4894279999999895
20
-61.588325999999995
11
97.4894279999999895
21
-75.3883259999999922
0
LINE
8
BLACK
6
CONTINUOUS
10
97.4894279999999895
20
-75.3883259999999922
11
97.4875249999999909
21
-75.3978929999999963
0
LINE
8
BLACK
6
CONTINUOUS
10
97.4875249999999909
20
-75.3978929999999963
11
97.4739950000000022
21
-75.4114229999999992
0
LINE
8
BLACK
6
CONTINUOUS
10
97.4739950000000022
20
-75.4114229999999992
11
97.4644279999999981
21
-75.4133259999999979
0
LINE
8
BLACK
6
CONTINUOUS
10
97.4644279999999981
20
-75.4133259999999979
11
83.6644280000000009
21
-75.4133259999999979
0
LINE
8
BLACK
6
CONTINUOUS
10
83.6644280000000009
20
-75.4133259999999979
11
83.6548609999999968
21
-75.4114229999999992
0
LINE
8
BLACK
6
CONTINUOUS
10
83.6548609999999968
20
-75.4114229999999992
11
83.6413309999999939
21
-75.3978929999999963
0
LINE
8
BLACK
6
CONTINUOUS
10
83.6413309999999939
20
-75.3978929999999963
11
83.6394279999999952
21
-75.3883259999999922
0
LINE
8
BLACK
6
CONTINUOUS
10
83.6394279999999952
20
-75.3883259999999922
11
83.6394279999999952
21
-61.588325999999995
0
LINE
8
BLACK
6
CONTINUOUS
10
83.6394279999999952
20
-61.588325999999995
11
83.6413309999999939
21
-61.578758999999998
0
LINE
8
BLACK
6
CONTINUOUS
10
83.6413309999999939
20
-61.578758999999998
11
83.6548609999999968
21
-61.5652289999999951
0
LINE
8
BLACK
6
CONTINUOUS
10
83.6548609999999968
20
-61.5652289999999951
11
83.6644280000000009
21
-61.5633259999999964
0
LINE
8
BLACK
6
CONTINUOUS
10
83.6644280000000009
20
-61.5633259999999964
11
97.4644279999999981
21
-61.5633259999999964
0
LINE
8
BLACK
6
CONTINUOUS
10
97.4644279999999981
20
-61.5633259999999964
11
97.4739950000000022
21
-61.5652289999999951
0
LINE
8
BLACK
6
CONTINUOUS
10
83.6894279999999924
20
-61.6133260000000007
11
83.6894279999999924
21
-75.3633260000000007
0
LINE
8
BLACK
6
CONTINUOUS
10
83.6894279999999924
20
-75.3633260000000007
11
97.4394279999999924
21
-75.3633260000000007
0
LINE
8
BLACK
6
CONTINUOUS
10
97.4394279999999924
20
-75.3633260000000007
11
97.4394279999999924
21
-61.6133260000000007
0
LINE
8
BLACK
6
CONTINUOUS
10
97.4394279999999924
20
-61.6133260000000007
11
83.6894279999999924
21
-61.6133260000000007
0
LINE
8
BLACK
6
CONTINUOUS
10
115.473994999999988
20
-60.0652289999999951
11
115.4875249999999909
21
-60.078758999999998
0
LINE
8
BLACK
6
CONTINUOUS
10
115.4875249999999909
20
-60.078758999999998
11
115.4894279999999895
21
-60.088325999999995
0
LINE
8
BLACK
6
CONTINUOUS
10
115.4894279999999895
20
-60.088325999999995
11
115.4894279999999895
21
-73.8883259999999922
0
LINE
8
BLACK
6
CONTINUOUS
10
115.4894279999999895
20
-73.8883259999999922
11
115.4875249999999909
21
-73.8978929999999963
0
LINE
8
BLACK
6
CONTINUOUS
10
115.4875249999999909
20
-73.8978929999999963
11
115.473994999999988
21
-73.9114229999999992
0
LINE
8
BLACK
6
CONTINUOUS
10
115.473994999999988
20
-73.9114229999999992
11
115.4644279999999981
21
-73.9133259999999979
0
LINE
8
BLACK
6
CONTINUOUS
10
115.4644279999999981
20
-73.9133259999999979
11
101.6644280000000009
21
-73.9133259999999979
0
LINE
8
BLACK
6
CONTINUOUS
10
101.6644280000000009
20
-73.9133259999999979
11
101.6548609999999968
21
-73.9114229999999992
0
LINE
8
BLACK
6
CONTINUOUS
10
101.6548609999999968
20
-73.9114229999999992
11
101.6413309999999939
21
-73.8978929999999963
0
LINE
8
BLACK
6
CONTINUOUS
10
101.6413309999999939
20
-73.8978929999999963
11
101.6394279999999952
21
-73.8883259999999922
0
LINE
8
BLACK
6
CONTINUOUS
10
101.6394279999999952
20
-73.8883259999999922
11
101.6394279999999952
21
-60.088325999999995
0
LINE
8
BLACK
6
CONTINUOUS
10
101.6394279999999952
20
-60.088325999999995
11
101.6413309999999939
21
-60.078758999999998
0
LINE
8
BLACK
6
CONTINUOUS
10
101.6413309999999939
20
-60.078758999999998
11
101.6548609999999968
21
-60.0652289999999951
0
LINE
8
BLACK
6
CONTINUOUS
10
101.6548609999999968
20
-60.0652289999999951
11
101.6644280000000009
21
-60.0633259999999964
0
LINE
8
BLACK
6
CONTINUOUS
10
101.6644280000000009
20
-60.0633259999999964
11
115.4644279999999981
21
-60.0633259999999964
0
LINE
8
BLACK
6
CONTINUOUS
10
115.4644279999999981
20
-60.0633259999999964
11
115.473994999999988
21
-60.0652289999999951
0
LINE
8
BLACK
6
CONTINUOUS
10
101.6894279999999924
20
-60.1133260000000007
11
101.6894279999999924
21
-73.8633260000000007
0
LINE
8
BLACK
6
CONTINUOUS
10
101.6894279999999924
20
-73.8633260000000007
11
115.4394279999999924
21
-73.8633260000000007
0
LINE
8
BLACK
6
CONTINUOUS
10
115.4394279999999924
20
-73.8633260000000007
11
115.4394279999999924
21
-60.1133260000000007
0
LINE
8
BLACK
6
CONTINUOUS
10
115.4394279999999924
20
-60.1133260000000007
11
101.6894279999999924
21
-60.1133260000000007
0
LINE
8
BLACK
6
CONTINUOUS
10
151.4739950000000022
20
-60.0652289999999951
11
151.4875250000000051
21
-60.078758999999998
0
LINE
8
BLACK
6
CONTINUOUS
10
151.4875250000000051
20
-60.078758999999998
11
151.4894280000000037
21
-60.088325999999995
0
LINE
8
BLACK
6
CONTINUOUS
10
151.4894280000000037
20
-60.088325999999995
11
151.4894280000000037
21
-73.8883259999999922
0
LINE
8
BLACK
6
CONTINUOUS
10
151.4894280000000037
20
-73.8883259999999922
11
151.4875250000000051
21
-73.8978929999999963
0
LINE
8
BLACK
6
CONTINUOUS
10
151.4875250000000051
20
-73.8978929999999963
11
151.4739950000000022
21
-73.9114229999999992
0
LINE
8
BLACK
6
CONTINUOUS
10
151.4739950000000022
20
-73.9114229999999992
11
151.4644279999999981
21
-73.9133259999999979
0
LINE
8
BLACK
6
CONTINUOUS
10
151.4644279999999981
20
-73.9133259999999979
11
137.6644279999999867
21
-73.9133259999999979
0
LINE
8
BLACK
6
CONTINUOUS
10
137.6644279999999867
20
-73.9133259999999979
11
137.6548609999999826
21
-73.9114229999999992
0
LINE
8
BLACK
6
CONTINUOUS
10
137.6548609999999826
20
-73.9114229999999992
11
137.6413309999999797
21
-73.8978929999999963
0
LINE
8
BLACK
6
CONTINUOUS
10
137.6413309999999797
20
-73.8978929999999963
11
137.639427999999981
21
-73.8883259999999922
0
LINE
8
BLACK
6
CONTINUOUS
10
137.639427999999981
20
-73.8883259999999922
11
137.639427999999981
21
-60.088325999999995
0
LINE
8
BLACK
6
CONTINUOUS
10
137.639427999999981
20
-60.088325999999995
11
137.6413309999999797
21
-60.078758999999998
0
LINE
8
BLACK
6
CONTINUOUS
10
137.6413309999999797
20
-60.078758999999998
11
137.6548609999999826
21
-60.0652289999999951
0
LINE
8
BLACK
6
CONTINUOUS
10
137.6548609999999826
20
-60.0652289999999951
11
137.6644279999999867
21
-60.0633259999999964
0
LINE
8
BLACK
6
CONTINUOUS
10
137.6644279999999867
20
-60.0633259999999964
11
151.4644279999999981
21
-60.0633259999999964
0
LINE
8
BLACK
6
CONTINUOUS
10
151.4644279999999981
20
-60.0633259999999964
11
151.4739950000000022
21
-60.0652289999999951
0
LINE
8
BLACK
6
CONTINUOUS
10
137.6894279999999924
20
-60.1133260000000007
11
137.6894279999999924
21
-73.8633260000000007
0
LINE
8
BLACK
6
CONTINUOUS
10
137.6894279999999924
20
-73.8633260000000007
11
151.4394279999999924
21
-73.8633260000000007
0
LINE
8
BLACK
6
CONTINUOUS
10
151.4394279999999924
20
-73.8633260000000007
11
151.4394279999999924
21
-60.1133260000000007
0
LINE
8
BLACK
6
CONTINUOUS
10
151.4394279999999924
20
-60.1133260000000007
11
137.6894279999999924
21
-60.1133260000000007
0
LINE
8
BLACK
6
CONTINUOUS
10
133.4739950000000022
20
-57.0652289999999951
11
133.4875250000000051
21
-57.078758999999998
0
LINE
8
BLACK
6
CONTINUOUS
10
133.4875250000000051
20
-57.078758999999998
11
133.4894280000000037
21
-57.088325999999995
0
LINE
8
BLACK
6
CONTINUOUS
10
133.4894280000000037
20
-57.088325999999995
11
133.4894280000000037
21
-70.8883259999999922
0
LINE
8
BLACK
6
CONTINUOUS
10
133.4894280000000037
20
-70.8883259999999922
11
133.4875250000000051
21
-70.8978929999999963
0
LINE
8
BLACK
6
CONTINUOUS
10
133.4875250000000051
20
-70.8978929999999963
11
133.4739950000000022
21
-70.9114229999999992
0
LINE
8
BLACK
6
CONTINUOUS
10
133.4739950000000022
20
-70.9114229999999992
11
133.4644279999999981
21
-70.9133259999999979
0
LINE
8
BLACK
6
CONTINUOUS
10
133.4644279999999981
20
-70.9133259999999979
11
119.6644280000000009
21
-70.9133259999999979
0
LINE
8
BLACK
6
CONTINUOUS
10
119.6644280000000009
20
-70.9133259999999979
11
119.6548609999999968
21
-70.9114229999999992
0
LINE
8
BLACK
6
CONTINUOUS
10
119.6548609999999968
20
-70.9114229999999992
11
119.6413309999999939
21
-70.8978929999999963
0
LINE
8
BLACK
6
CONTINUOUS
10
119.6413309999999939
20
-70.8978929999999963
11
119.6394279999999952
21
-70.8883259999999922
0
LINE
8
BLACK
6
CONTINUOUS
10
119.6394279999999952
20
-70.8883259999999922
11
119.6394279999999952
21
-57.088325999999995
0
LINE
8
BLACK
6
CONTINUOUS
10
119.6394279999999952
20
-57.088325999999995
11
119.6413309999999939
21
-57.078758999999998
0
LINE
8
BLACK
6
CONTINUOUS
10
119.6413309999999939
20
-57.078758999999998
11
119.6548609999999968
21
-57.0652289999999951
0
LINE
8
BLACK
6
CONTINUOUS
10
119.6548609999999968
20
-57.0652289999999951
11
119.6644280000000009
21
-57.0633259999999964
0
LINE
8
BLACK
6
CONTINUOUS
10
119.6644280000000009
20
-57.0633259999999964
11
133.4644279999999981
21
-57.0633259999999964
0
LINE
8
BLACK
6
CONTINUOUS
10
133.4644279999999981
20
-57.0633259999999964
11
133.4739950000000022
21
-57.0652289999999951
0
LINE
8
BLACK
6
CONTINUOUS
10
119.6894279999999924
20
-57.1133260000000007
11
119.6894279999999924
21
-70.8633260000000007
0
LINE
8
BLACK
6
CONTINUOUS
10
119.6894279999999924
20
-70.8633260000000007
11
133.4394279999999924
21
-70.8633260000000007
0
LINE
8
BLACK
6
CONTINUOUS
10
133.4394279999999924
20
-70.8633260000000007
11
133.4394279999999924
21
-57.1133260000000007
0
LINE
8
BLACK
6
CONTINUOUS
10
133.4394279999999924
20
-57.1133260000000007
11
119.6894279999999924
21
-57.1133260000000007
0
LINE
8
BLACK
6
CONTINUOUS
10
169.4739950000000022
20
-46.0652289999999951
11
169.4875250000000051
21
-46.078758999999998
0
LINE
8
BLACK
6
CONTINUOUS
10
169.4875250000000051
20
-46.078758999999998
11
169.4894280000000037
21
-46.088325999999995
0
LINE
8
BLACK
6
CONTINUOUS
10
169.4894280000000037
20
-46.088325999999995
11
169.4894280000000037
21
-59.8883259999999993
0
LINE
8
BLACK
6
CONTINUOUS
10
169.4894280000000037
20
-59.8883259999999993
11
169.4875250000000051
21
-59.8978929999999963
0
LINE
8
BLACK
6
CONTINUOUS
10
169.4875250000000051
20
-59.8978929999999963
11
169.4739950000000022
21
-59.9114229999999992
0
LINE
8
BLACK
6
CONTINUOUS
10
169.4739950000000022
20
-59.9114229999999992
11
169.4644279999999981
21
-59.9133259999999979
0
LINE
8
BLACK
6
CONTINUOUS
10
169.4644279999999981
20
-59.9133259999999979
11
155.6644279999999867
21
-59.9133259999999979
0
LINE
8
BLACK
6
CONTINUOUS
10
155.6644279999999867
20
-59.9133259999999979
11
155.6548609999999826
21
-59.9114229999999992
0
LINE
8
BLACK
6
CONTINUOUS
10
155.6548609999999826
20
-59.9114229999999992
11
155.6413309999999797
21
-59.8978929999999963
0
LINE
8
BLACK
6
CONTINUOUS
10
155.6413309999999797
20
-59.8978929999999963
11
155.639427999999981
21
-59.8883259999999993
0
LINE
8
BLACK
6
CONTINUOUS
10
155.639427999999981
20
-59.8883259999999993
11
155.639427999999981
21
-46.088325999999995
0
LINE
8
BLACK
6
CONTINUOUS
10
155.639427999999981
20
-46.088325999999995
11
155.6413309999999797
21
-46.078758999999998
0
LINE
8
BLACK
6
CONTINUOUS
10
155.6413309999999797
20
-46.078758999999998
11
155.6548609999999826
21
-46.0652289999999951
0
LINE
8
BLACK
6
CONTINUOUS
10
155.6548609999999826
20
-46.0652289999999951
11
155.6644279999999867
21
-46.0633259999999964
0
LINE
8
BLACK
6
CONTINUOUS
10
155.6644279999999867
20
-46.0633259999999964
11
169.4644279999999981
21
-46.0633259999999964
0
LINE
8
BLACK
6
CONTINUOUS
10
169.4644279999999981
20
-46.0633259999999964
11
169.4739950000000022
21
-46.0652289999999951
0
LINE
8
BLACK
6
CONTINUOUS
10
155.6894279999999924
20
-46.1133260000000007
11
155.6894279999999924
21
-59.8633260000000007
0
LINE
8
BLACK
6
CONTINUOUS
10
155.6894279999999924
20
-59.8633260000000007
11
169.4394279999999924
21
-59.8633260000000007
0
LINE
8
BLACK
6
CONTINUOUS
10
169.4394279999999924
20
-59.8633260000000007
11
169.4394279999999924
21
-46.1133260000000007
0
LINE
8
BLACK
6
CONTINUOUS
10
169.4394279999999924
20
-46.1133260000000007
11
155.6894279999999924
21
-46.1133260000000007
0
LINE
8
BLACK
6
CONTINUOUS
10
187.4739950000000022
20
-46.0652289999999951
11
187.4875250000000051
21
-46.078758999999998
0
LINE
8
BLACK
6
CONTINUOUS
10
187.4875250000000051
20
-46.078758999999998
11
187.4894280000000037
21
-46.088325999999995
0
LINE
8
BLACK
6
CONTINUOUS
10
187.4894280000000037
20
-46.088325999999995
11
187.4894280000000037
21
-59.8883259999999993
0
LINE
8
BLACK
6
CONTINUOUS
10
187.4894280000000037
20
-59.8883259999999993
11
187.4875250000000051
21
-59.8978929999999963
0
LINE
8
BLACK
6
CONTINUOUS
10
187.4875250000000051
20
-59.8978929999999963
11
187.4739950000000022
21
-59.9114229999999992
0
LINE
8
BLACK
6
CONTINUOUS
10
187.4739950000000022
20
-59.9114229999999992
11
187.4644279999999981
21
-59.9133259999999979
0
LINE
8
BLACK
6
CONTINUOUS
10
187.4644279999999981
20
-59.9133259999999979
11
173.6644279999999867
21
-59.9133259999999979
0
LINE
8
BLACK
6
CONTINUOUS
10
173.6644279999999867
20
-59.9133259999999979
11
173.6548609999999826
21
-59.9114229999999992
0
LINE
8
BLACK
6
CONTINUOUS
10
173.6548609999999826
20
-59.9114229999999992
11
173.6413309999999797
21
-59.8978929999999963
0
LINE
8
BLACK
6
CONTINUOUS
10
173.6413309999999797
20
-59.8978929999999963
11
173.639427999999981
21
-59.8883259999999993
0
LINE
8
BLACK
6
CONTINUOUS
10
173.639427999999981
20
-59.8883259999999993
11
173.639427999999981
21
-46.088325999999995
0
LINE
8
BLACK
6
CONTINUOUS
10
173.639427999999981
20
-46.088325999999995
11
173.6413309999999797
21
-46.078758999999998
0
LINE
8
BLACK
6
CONTINUOUS
10
173.6413309999999797
20
-46.078758999999998
11
173.6548609999999826
21
-46.0652289999999951
0
LINE
8
BLACK
6
CONTINUOUS
10
173.6548609999999826
20
-46.0652289999999951
11
173.6644279999999867
21
-46.0633259999999964
0
LINE
8
BLACK
6
CONTINUOUS
10
173.6644279999999867
20
-46.0633259999999964
11
187.4644279999999981
21
-46.0633259999999964
0
LINE
8
BLACK
6
CONTINUOUS
10
187.4644279999999981
20
-46.0633259999999964
11
187.4739950000000022
21
-46.0652289999999951
0
LINE
8
BLACK
6
CONTINUOUS
10
173.6894279999999924
20
-46.1133260000000007
11
173.6894279999999924
21
-59.8633260000000007
0
LINE
8
BLACK
6
CONTINUOUS
10
173.6894279999999924
20
-59.8633260000000007
11
187.4394279999999924
21
-59.8633260000000007
0
LINE
8
BLACK
6
CONTINUOUS
10
187.4394279999999924
20
-59.8633260000000007
11
187.4394279999999924
21
-46.1133260000000007
0
LINE
8
BLACK
6
CONTINUOUS
10
187.4394279999999924
20
-46.1133260000000007
11
173.6894279999999924
21
-46.1133260000000007
0
LINE
8
BLACK
6
CONTINUOUS
10
97.4739950000000022
20
-44.5652289999999951
11
97.4875249999999909
21
-44.578758999999998
0
LINE
8
BLACK
6
CONTINUOUS
10
97.4875249999999909
20
-44.578758999999998
11
97.4894279999999895
21
-44.588325999999995
0
LINE
8
BLACK
6
CONTINUOUS
10
97.4894279999999895
20
-44.588325999999995
11
97.4894279999999895
21
-58.3883259999999993
0
LINE
8
BLACK
6
CONTINUOUS
10
97.4894279999999895
20
-58.3883259999999993
11
97.4875249999999909
21
-58.3978929999999963
0
LINE
8
BLACK
6
CONTINUOUS
10
97.4875249999999909
20
-58.3978929999999963
11
97.4739950000000022
21
-58.4114229999999992
0
LINE
8
BLACK
6
CONTINUOUS
10
97.4739950000000022
20
-58.4114229999999992
11
97.4644279999999981
21
-58.4133259999999979
0
LINE
8
BLACK
6
CONTINUOUS
10
97.4644279999999981
20
-58.4133259999999979
11
83.6644280000000009
21
-58.4133259999999979
0
LINE
8
BLACK
6
CONTINUOUS
10
83.6644280000000009
20
-58.4133259999999979
11
83.6548609999999968
21
-58.4114229999999992
0
LINE
8
BLACK
6
CONTINUOUS
10
83.6548609999999968
20
-58.4114229999999992
11
83.6413309999999939
21
-58.3978929999999963
0
LINE
8
BLACK
6
CONTINUOUS
10
83.6413309999999939
20
-58.3978929999999963
11
83.6394279999999952
21
-58.3883259999999993
0
LINE
8
BLACK
6
CONTINUOUS
10
83.6394279999999952
20
-58.3883259999999993
11
83.6394279999999952
21
-44.588325999999995
0
LINE
8
BLACK
6
CONTINUOUS
10
83.6394279999999952
20
-44.588325999999995
11
83.6413309999999939
21
-44.578758999999998
0
LINE
8
BLACK
6
CONTINUOUS
10
83.6413309999999939
20
-44.578758999999998
11
83.6548609999999968
21
-44.5652289999999951
0
LINE
8
BLACK
6
CONTINUOUS
10
83.6548609999999968
20
-44.5652289999999951
11
83.6644280000000009
21
-44.5633259999999964
0
LINE
8
BLACK
6
CONTINUOUS
10
83.6644280000000009
20
-44.5633259999999964
11
97.4644279999999981
21
-44.5633259999999964
0
LINE
8
BLACK
6
CONTINUOUS
10
97.4644279999999981
20
-44.5633259999999964
11
97.4739950000000022
21
-44.5652289999999951
0
LINE
8
BLACK
6
CONTINUOUS
10
83.6894279999999924
20
-44.6133260000000007
11
83.6894279999999924
21
-58.3633260000000007
0
LINE
8
BLACK
6
CONTINUOUS
10
83.6894279999999924
20
-58.3633260000000007
11
97.4394279999999924
21
-58.3633260000000007
0
LINE
8
BLACK
6
CONTINUOUS
10
97.4394279999999924
20
-58.3633260000000007
11
97.4394279999999924
21
-44.6133260000000007
0
LINE
8
BLACK
6
CONTINUOUS
10
97.4394279999999924
20
-44.6133260000000007
11
83.6894279999999924
21
-44.6133260000000007
0
LINE
8
BLACK
6
CONTINUOUS
10
115.473994999999988
20
-43.0652289999999951
11
115.4875249999999909
21
-43.078758999999998
0
LINE
8
BLACK
6
CONTINUOUS
10
115.4875249999999909
20
-43.078758999999998
11
115.4894279999999895
21
-43.088325999999995
0
LINE
8
BLACK
6
CONTINUOUS
10
115.4894279999999895
20
-43.088325999999995
11
115.4894279999999895
21
-56.8883259999999993
0
LINE
8
BLACK
6
CONTINUOUS
10
115.4894279999999895
20
-56.8883259999999993
11
115.4875249999999909
21
-56.8978929999999963
0
LINE
8
BLACK
6
CONTINUOUS
10
115.4875249999999909
20
-56.8978929999999963
11
115.473994999999988
21
-56.9114229999999992
0
LINE
8
BLACK
6
CONTINUOUS
10
115.473994999999988
20
-56.9114229999999992
11
115.4644279999999981
21
-56.9133259999999979
0
LINE
8
BLACK
6
CONTINUOUS
10
115.4644279999999981
20
-56.9133259999999979
11
101.6644280000000009
21
-56.9133259999999979
0
LINE
8
BLACK
6
CONTINUOUS
10
101.6644280000000009
20
-56.9133259999999979
11
101.6548609999999968
21
-56.9114229999999992
0
LINE
8
BLACK
6
CONTINUOUS
10
101.6548609999999968
20
-56.9114229999999992
11
101.6413309999999939
21
-56.8978929999999963
0
LINE
8
BLACK
6
CONTINUOUS
10
101.6413309999999939
20
-56.8978929999999963
11
101.6394279999999952
21
-56.8883259999999993
0
LINE
8
BLACK
6
CONTINUOUS
10
101.6394279999999952
20
-56.8883259999999993
11
101.6394279999999952
21
-43.088325999999995
0
LINE
8
BLACK
6
CONTINUOUS
10
101.6394279999999952
20
-43.088325999999995
11
101.6413309999999939
21
-43.078758999999998
0
LINE
8
BLACK
6
CONTINUOUS
10
101.6413309999999939
20
-43.078758999999998
11
101.6548609999999968
21
-43.0652289999999951
0
LINE
8
BLACK
6
CONTINUOUS
10
101.6548609999999968
20
-43.0652289999999951
11
101.6644280000000009
21
-43.0633259999999964
0
LINE
8
BLACK
6
CONTINUOUS
10
101.6644280000000009
20
-43.0633259999999964
11
115.4644279999999981
21
-43.0633259999999964
0
LINE
8
BLACK
6
CONTINUOUS
10
115.4644279999999981
20
-43.0633259999999964
11
115.473994999999988
21
-43.0652289999999951
0
LINE
8
BLACK
6
CONTINUOUS
10
101.6894279999999924
20
-43.1133260000000007
11
101.6894279999999924
21
-56.8633260000000007
0
LINE
8
BLACK
6
CONTINUOUS
10
101.6894279999999924
20
-56.8633260000000007
11
115.4394279999999924
21
-56.8633260000000007
0
LINE
8
BLACK
6
CONTINUOUS
10
115.4394279999999924
20
-56.8633260000000007
11
115.4394279999999924
21
-43.1133260000000007
0
LINE
8
BLACK
6
CONTINUOUS
10
115.4394279999999924
20
-43.1133260000000007
11
101.6894279999999924
21
-43.1133260000000007
0
LINE
8
BLACK
6
CONTINUOUS
10
151.4739950000000022
20
-43.0652289999999951
11
151.4875250000000051
21
-43.078758999999998
0
LINE
8
BLACK
6
CONTINUOUS
10
151.4875250000000051
20
-43.078758999999998
11
151.4894280000000037
21
-43.088325999999995
0
LINE
8
BLACK
6
CONTINUOUS
10
151.4894280000000037
20
-43.088325999999995
11
151.4894280000000037
21
-56.8883259999999993
0
LINE
8
BLACK
6
CONTINUOUS
10
151.4894280000000037
20
-56.8883259999999993
11
151.4875250000000051
21
-56.8978929999999963
0
LINE
8
BLACK
6
CONTINUOUS
10
151.4875250000000051
20
-56.8978929999999963
11
151.4739950000000022
21
-56.9114229999999992
0
LINE
8
BLACK
6
CONTINUOUS
10
151.4739950000000022
20
-56.9114229999999992
11
151.4644279999999981
21
-56.9133259999999979
0
LINE
8
BLACK
6
CONTINUOUS
10
151.4644279999999981
20
-56.9133259999999979
11
137.6644279999999867
21
-56.9133259999999979
0
LINE
8
BLACK
6
CONTINUOUS
10
137.6644279999999867
20
-56.9133259999999979
11
137.6548609999999826
21
-56.9114229999999992
0
LINE
8
BLACK
6
CONTINUOUS
10
137.6548609999999826
20
-56.9114229999999992
11
137.6413309999999797
21
-56.8978929999999963
0
LINE
8
BLACK
6
CONTINUOUS
10
137.6413309999999797
20
-56.8978929999999963
11
137.639427999999981
21
-56.8883259999999993
0
LINE
8
BLACK
6
CONTINUOUS
10
137.639427999999981
20
-56.8883259999999993
11
137.639427999999981
21
-43.088325999999995
0
LINE
8
BLACK
6
CONTINUOUS
10
137.639427999999981
20
-43.088325999999995
11
137.6413309999999797
21
-43.078758999999998
0
LINE
8
BLACK
6
CONTINUOUS
10
137.6413309999999797
20
-43.078758999999998
11
137.6548609999999826
21
-43.0652289999999951
0
LINE
8
BLACK
6
CONTINUOUS
10
137.6548609999999826
20
-43.0652289999999951
11
137.6644279999999867
21
-43.0633259999999964
0
LINE
8
BLACK
6
CONTINUOUS
10
137.6644279999999867
20
-43.0633259999999964
11
151.4644279999999981
21
-43.0633259999999964
0
LINE
8
BLACK
6
CONTINUOUS
10
151.4644279999999981
20
-43.0633259999999964
11
151.4739950000000022
21
-43.0652289999999951
0
LINE
8
BLACK
6
CONTINUOUS
10
137.6894279999999924
20
-43.1133260000000007
11
137.6894279999999924
21
-56.8633260000000007
0
LINE
8
BLACK
6
CONTINUOUS
10
137.6894279999999924
20
-56.8633260000000007
11
151.4394279999999924
21
-56.8633260000000007
0
LINE
8
BLACK
6
CONTINUOUS
10
151.4394279999999924
20
-56.8633260000000007
11
151.4394279999999924
21
-43.1133260000000007
0
LINE
8
BLACK
6
CONTINUOUS
10
151.4394279999999924
20
-43.1133260000000007
11
137.6894279999999924
21
-43.1133260000000007
0
LINE
8
BLACK
6
CONTINUOUS
10
133.4739950000000022
20
-40.0652289999999951
11
133.4875250000000051
21
-40.078758999999998
0
LINE
8
BLACK
6
CONTINUOUS
10
133.4875250000000051
20
-40.078758999999998
11
133.4894280000000037
21
-40.088325999999995
0
LINE
8
BLACK
6
CONTINUOUS
10
133.4894280000000037
20
-40.088325999999995
11
133.4894280000000037
21
-53.8883259999999993
0
LINE
8
BLACK
6
CONTINUOUS
10
133.4894280000000037
20
-53.8883259999999993
11
133.4875250000000051
21
-53.8978929999999963
0
LINE
8
BLACK
6
CONTINUOUS
10
133.4875250000000051
20
-53.8978929999999963
11
133.4739950000000022
21
-53.9114229999999992
0
LINE
8
BLACK
6
CONTINUOUS
10
133.4739950000000022
20
-53.9114229999999992
11
133.4644279999999981
21
-53.9133259999999979
0
LINE
8
BLACK
6
CONTINUOUS
10
133.4644279999999981
20
-53.9133259999999979
11
119.6644280000000009
21
-53.9133259999999979
0
LINE
8
BLACK
6
CONTINUOUS
10
119.6644280000000009
20
-53.9133259999999979
11
119.6548609999999968
21
-53.9114229999999992
0
LINE
8
BLACK
6
CONTINUOUS
10
119.6548609999999968
20
-53.9114229999999992
11
119.6413309999999939
21
-53.8978929999999963
0
LINE
8
BLACK
6
CONTINUOUS
10
119.6413309999999939
20
-53.8978929999999963
11
119.6394279999999952
21
-53.8883259999999993
0
LINE
8
BLACK
6
CONTINUOUS
10
119.6394279999999952
20
-53.8883259999999993
11
119.6394279999999952
21
-40.088325999999995
0
LINE
8
BLACK
6
CONTINUOUS
10
119.6394279999999952
20
-40.088325999999995
11
119.6413309999999939
21
-40.078758999999998
0
LINE
8
BLACK
6
CONTINUOUS
10
119.6413309999999939
20
-40.078758999999998
11
119.6548609999999968
21
-40.0652289999999951
0
LINE
8
BLACK
6
CONTINUOUS
10
119.6548609999999968
20
-40.0652289999999951
11
119.6644280000000009
21
-40.0633259999999964
0
LINE
8
BLACK
6
CONTINUOUS
10
119.6644280000000009
20
-40.0633259999999964
11
133.4644279999999981
21
-40.0633259999999964
0
LINE
8
BLACK
6
CONTINUOUS
10
133.4644279999999981
20
-40.0633259999999964
11
133.4739950000000022
21
-40.0652289999999951
0
LINE
8
BLACK
6
CONTINUOUS
10
119.6894279999999924
20
-40.1133260000000007
11
119.6894279999999924
21
-53.8633260000000007
0
LINE
8
BLACK
6
CONTINUOUS
10
119.6894279999999924
20
-53.8633260000000007
11
133.4394279999999924
21
-53.8633260000000007
0
LINE
8
BLACK
6
CONTINUOUS
10
133.4394279999999924
20
-53.8633260000000007
11
133.4394279999999924
21
-40.1133260000000007
0
LINE
8
BLACK
6
CONTINUOUS
10
133.4394279999999924
20
-40.1133260000000007
11
119.6894279999999924
21
-40.1133260000000007
  0
ENDSEC
  0
EOF
